# 3ds Max Wavefront OBJ Exporter v0.97b - (c)2007 guruware
# File Created: 30.06.2022 18:20:24

mtllib YVR_d1_left_joystick.mtl

#
# object Object004
#

v  -0.0092 -0.0039 -0.0261
v  -0.0092 -0.0051 -0.0254
v  -0.0089 -0.0045 -0.0242
v  -0.0089 -0.0032 -0.0249
v  -0.0082 -0.0026 -0.0240
v  -0.0082 -0.0039 -0.0232
v  -0.0070 -0.0023 -0.0233
v  -0.0070 -0.0035 -0.0226
v  -0.0057 -0.0021 -0.0231
v  -0.0057 -0.0034 -0.0224
v  -0.0043 -0.0023 -0.0233
v  -0.0043 -0.0035 -0.0226
v  -0.0032 -0.0026 -0.0240
v  -0.0032 -0.0039 -0.0232
v  -0.0024 -0.0032 -0.0249
v  -0.0025 -0.0045 -0.0242
v  -0.0022 -0.0039 -0.0261
v  -0.0022 -0.0051 -0.0254
v  -0.0024 -0.0046 -0.0273
v  -0.0025 -0.0058 -0.0265
v  -0.0032 -0.0051 -0.0283
v  -0.0032 -0.0064 -0.0275
v  -0.0043 -0.0055 -0.0289
v  -0.0043 -0.0068 -0.0282
v  -0.0057 -0.0056 -0.0291
v  -0.0057 -0.0069 -0.0284
v  -0.0070 -0.0055 -0.0289
v  -0.0070 -0.0068 -0.0282
v  -0.0082 -0.0051 -0.0283
v  -0.0082 -0.0064 -0.0275
v  -0.0089 -0.0046 -0.0273
v  -0.0089 -0.0058 -0.0265
v  -0.0116 -0.0010 -0.0249
v  -0.0121 -0.0022 -0.0271
v  -0.0119 -0.0030 -0.0266
v  -0.0114 -0.0018 -0.0245
v  -0.0113 -0.0063 -0.0247
v  -0.0109 -0.0052 -0.0228
v  -0.0102 0.0001 -0.0231
v  -0.0101 -0.0008 -0.0228
v  -0.0097 -0.0043 -0.0212
v  -0.0081 0.0008 -0.0219
v  -0.0081 -0.0002 -0.0216
v  -0.0078 -0.0037 -0.0202
v  -0.0057 0.0010 -0.0215
v  -0.0057 0.0001 -0.0212
v  -0.0057 -0.0035 -0.0198
v  -0.0032 0.0008 -0.0219
v  -0.0033 -0.0002 -0.0216
v  -0.0035 -0.0037 -0.0202
v  -0.0011 0.0001 -0.0231
v  -0.0013 -0.0008 -0.0228
v  -0.0017 -0.0043 -0.0212
v  0.0003 -0.0010 -0.0249
v  0.0000 -0.0018 -0.0245
v  -0.0005 -0.0052 -0.0228
v  0.0007 -0.0022 -0.0271
v  0.0005 -0.0030 -0.0266
v  -0.0000 -0.0063 -0.0247
v  0.0003 -0.0034 -0.0292
v  0.0000 -0.0042 -0.0287
v  -0.0005 -0.0074 -0.0266
v  -0.0011 -0.0045 -0.0310
v  -0.0013 -0.0052 -0.0304
v  -0.0017 -0.0083 -0.0282
v  -0.0032 -0.0052 -0.0322
v  -0.0033 -0.0059 -0.0316
v  -0.0035 -0.0089 -0.0292
v  -0.0057 -0.0054 -0.0326
v  -0.0057 -0.0061 -0.0320
v  -0.0057 -0.0091 -0.0296
v  -0.0081 -0.0052 -0.0322
v  -0.0081 -0.0059 -0.0316
v  -0.0078 -0.0089 -0.0292
v  -0.0102 -0.0045 -0.0310
v  -0.0101 -0.0052 -0.0304
v  -0.0097 -0.0083 -0.0282
v  -0.0116 -0.0034 -0.0292
v  -0.0114 -0.0042 -0.0287
v  -0.0109 -0.0074 -0.0266
v  -0.0104 -0.0028 -0.0245
v  -0.0107 -0.0037 -0.0262
v  -0.0093 -0.0019 -0.0231
v  -0.0076 -0.0014 -0.0221
v  -0.0057 -0.0012 -0.0218
v  -0.0037 -0.0014 -0.0221
v  -0.0021 -0.0019 -0.0231
v  -0.0010 -0.0028 -0.0245
v  -0.0006 -0.0037 -0.0262
v  -0.0010 -0.0047 -0.0279
v  -0.0021 -0.0055 -0.0293
v  -0.0037 -0.0061 -0.0302
v  -0.0057 -0.0063 -0.0306
v  -0.0076 -0.0061 -0.0302
v  -0.0093 -0.0055 -0.0293
v  -0.0104 -0.0047 -0.0279
v  -0.0115 -0.0002 -0.0255
v  -0.0098 0.0007 -0.0268
v  -0.0102 -0.0002 -0.0282
v  -0.0119 -0.0014 -0.0276
v  -0.0101 0.0008 -0.0237
v  -0.0089 0.0014 -0.0255
v  -0.0081 0.0015 -0.0226
v  -0.0074 0.0019 -0.0246
v  -0.0057 0.0018 -0.0221
v  -0.0057 0.0021 -0.0244
v  -0.0033 0.0015 -0.0226
v  -0.0040 0.0019 -0.0246
v  -0.0013 0.0008 -0.0237
v  -0.0025 0.0014 -0.0255
v  0.0001 -0.0002 -0.0255
v  -0.0015 0.0007 -0.0268
v  0.0006 -0.0014 -0.0276
v  -0.0012 -0.0002 -0.0282
v  0.0001 -0.0026 -0.0296
v  -0.0015 -0.0010 -0.0297
v  -0.0013 -0.0036 -0.0314
v  -0.0025 -0.0018 -0.0310
v  -0.0033 -0.0043 -0.0326
v  -0.0040 -0.0023 -0.0318
v  -0.0057 -0.0045 -0.0330
v  -0.0057 -0.0024 -0.0321
v  -0.0081 -0.0043 -0.0326
v  -0.0074 -0.0023 -0.0318
v  -0.0101 -0.0036 -0.0314
v  -0.0089 -0.0018 -0.0310
v  -0.0115 -0.0026 -0.0296
v  -0.0098 -0.0010 -0.0297
v  -0.0057 -0.0017 -0.0274
v  -0.0129 -0.0078 -0.0239
v  -0.0124 -0.0064 -0.0214
v  -0.0108 -0.0052 -0.0194
v  -0.0085 -0.0044 -0.0180
v  -0.0057 -0.0041 -0.0176
v  -0.0029 -0.0044 -0.0180
v  -0.0005 -0.0052 -0.0194
v  0.0010 -0.0064 -0.0214
v  0.0016 -0.0078 -0.0239
v  0.0010 -0.0092 -0.0263
v  -0.0005 -0.0103 -0.0283
v  -0.0029 -0.0111 -0.0297
v  -0.0057 -0.0114 -0.0301
v  -0.0085 -0.0111 -0.0297
v  -0.0108 -0.0103 -0.0283
v  -0.0124 -0.0092 -0.0263
# 145 vertices

vn -0.7022 -0.6167 0.3559
vn -0.8608 0.4408 -0.2544
vn -0.7953 0.6054 0.0310
vn -0.6489 -0.4819 0.5888
vn -0.4966 -0.3680 0.7861
vn -0.6088 0.7451 0.2724
vn -0.2689 -0.2918 0.9179
vn -0.3296 0.8383 0.4343
vn 0.0000 -0.2654 0.9641
vn -0.0000 0.8710 0.4914
vn 0.2689 -0.2918 0.9179
vn 0.3296 0.8383 0.4343
vn 0.4966 -0.3680 0.7861
vn 0.6088 0.7451 0.2724
vn 0.6489 -0.4820 0.5888
vn 0.7953 0.6054 0.0309
vn 0.7022 -0.6167 0.3559
vn 0.8608 0.4407 -0.2544
vn 0.6488 -0.7509 0.1231
vn 0.7954 0.2760 -0.5395
vn 0.4964 -0.8649 -0.0742
vn 0.6086 0.1364 -0.7816
vn 0.2690 -0.9408 -0.2061
vn 0.3294 0.0430 -0.9432
vn 0.0000 -0.9678 -0.2518
vn 0.0000 0.0100 -0.9999
vn -0.2690 -0.9408 -0.2061
vn -0.3294 0.0430 -0.9432
vn -0.4964 -0.8649 -0.0742
vn -0.6086 0.1364 -0.7816
vn -0.6488 -0.7509 0.1231
vn -0.7954 0.2760 -0.5395
vn -0.9236 0.1708 0.3431
vn -0.9997 -0.0202 0.0117
vn -0.8418 -0.4675 0.2699
vn -0.7778 -0.3063 0.5488
vn -0.6420 0.6640 -0.3833
vn -0.5931 0.7869 -0.1707
vn -0.7069 0.3328 0.6241
vn -0.5952 -0.1700 0.7854
vn -0.4540 0.8910 0.0096
vn -0.3824 0.4411 0.8119
vn -0.3222 -0.0786 0.9434
vn -0.2455 0.9606 0.1303
vn 0.0000 0.4793 0.8777
vn -0.0000 -0.0468 0.9989
vn -0.0000 0.9850 0.1726
vn 0.3824 0.4411 0.8119
vn 0.3222 -0.0786 0.9434
vn 0.2455 0.9606 0.1303
vn 0.7069 0.3328 0.6241
vn 0.5952 -0.1700 0.7854
vn 0.4540 0.8910 0.0096
vn 0.9236 0.1708 0.3431
vn 0.7778 -0.3063 0.5488
vn 0.5931 0.7869 -0.1707
vn 0.9997 -0.0202 0.0117
vn 0.8418 -0.4675 0.2699
vn 0.6420 0.6640 -0.3833
vn 0.9236 -0.2118 -0.3196
vn 0.7778 -0.6285 -0.0090
vn 0.5930 0.5413 -0.5962
vn 0.7068 -0.3737 -0.6006
vn 0.5953 -0.7651 -0.2456
vn 0.4541 0.4370 -0.7764
vn 0.3824 -0.4821 -0.7882
vn 0.3221 -0.8563 -0.4037
vn 0.2457 0.3675 -0.8970
vn -0.0000 -0.5204 -0.8539
vn 0.0000 -0.8883 -0.4593
vn -0.0000 0.3429 -0.9394
vn -0.3824 -0.4821 -0.7882
vn -0.3221 -0.8563 -0.4037
vn -0.2457 0.3675 -0.8970
vn -0.7068 -0.3737 -0.6006
vn -0.5953 -0.7651 -0.2456
vn -0.4541 0.4370 -0.7764
vn -0.9236 -0.2118 -0.3196
vn -0.7778 -0.6285 -0.0090
vn -0.5930 0.5413 -0.5962
vn -0.3570 -0.7248 0.5893
vn -0.3864 -0.7987 0.4612
vn -0.2733 -0.6622 0.6977
vn -0.1479 -0.6200 0.7705
vn -0.0000 -0.6055 0.7958
vn 0.1479 -0.6200 0.7705
vn 0.2733 -0.6622 0.6977
vn 0.3570 -0.7248 0.5893
vn 0.3864 -0.7987 0.4612
vn 0.3570 -0.8727 0.3332
vn 0.2730 -0.9354 0.2248
vn 0.1478 -0.9772 0.1522
vn -0.0000 -0.9920 0.1265
vn -0.1478 -0.9772 0.1522
vn -0.2730 -0.9354 0.2248
vn -0.3570 -0.8727 0.3332
vn -0.7983 0.6013 0.0345
vn -0.1911 0.8869 -0.4206
vn -0.2071 0.8473 -0.4891
vn -0.8638 0.4364 -0.2519
vn -0.6108 0.7417 0.2771
vn -0.1463 0.9204 -0.3626
vn -0.3307 0.8352 0.4395
vn -0.0793 0.9428 -0.3237
vn -0.0000 0.8681 0.4963
vn -0.0000 0.9508 -0.3099
vn 0.3307 0.8352 0.4395
vn 0.0793 0.9428 -0.3237
vn 0.6108 0.7417 0.2771
vn 0.1463 0.9204 -0.3626
vn 0.7983 0.6013 0.0345
vn 0.1911 0.8869 -0.4206
vn 0.8638 0.4364 -0.2519
vn 0.2071 0.8473 -0.4891
vn 0.7982 0.2710 -0.5380
vn 0.1910 0.8077 -0.5578
vn 0.6108 0.1309 -0.7809
vn 0.1464 0.7739 -0.6161
vn 0.3308 0.0373 -0.9430
vn 0.0790 0.7518 -0.6547
vn -0.0000 0.0042 -1.0000
vn -0.0000 0.7440 -0.6682
vn -0.3308 0.0373 -0.9430
vn -0.0790 0.7518 -0.6547
vn -0.6108 0.1309 -0.7809
vn -0.1464 0.7739 -0.6161
vn -0.7982 0.2710 -0.5380
vn -0.1910 0.8077 -0.5578
vn 0.0000 0.8660 -0.5000
vn -0.7253 0.5962 -0.3441
vn -0.6698 0.7352 -0.1042
vn -0.5129 0.8526 0.0998
vn -0.2774 0.9314 0.2355
vn -0.0000 0.9590 0.2834
vn 0.2774 0.9314 0.2355
vn 0.5129 0.8526 0.0998
vn 0.6698 0.7352 -0.1042
vn 0.7253 0.5962 -0.3441
vn 0.6697 0.4579 -0.5847
vn 0.5128 0.3399 -0.7884
vn 0.2774 0.2615 -0.9245
vn -0.0000 0.2337 -0.9723
vn -0.2774 0.2615 -0.9245
vn -0.5128 0.3399 -0.7884
vn -0.6697 0.4579 -0.5847
# 145 vertex normals

vt 0.7018 0.2984 0.0000
vt 0.7174 0.2984 0.0000
vt 0.7174 0.2866 0.0000
vt 0.7018 0.2866 0.0000
vt 0.7018 0.2756 0.0000
vt 0.7174 0.2756 0.0000
vt 0.7018 0.2656 0.0000
vt 0.7174 0.2656 0.0000
vt 0.7018 0.2567 0.0000
vt 0.7174 0.2567 0.0000
vt 0.7018 0.4407 0.0000
vt 0.7018 0.4502 0.0000
vt 0.7174 0.4502 0.0000
vt 0.7174 0.4407 0.0000
vt 0.7018 0.4305 0.0000
vt 0.7174 0.4305 0.0000
vt 0.7018 0.4195 0.0000
vt 0.7174 0.4195 0.0000
vt 0.7018 0.4077 0.0000
vt 0.7174 0.4077 0.0000
vt 0.7018 0.3950 0.0000
vt 0.7174 0.3950 0.0000
vt 0.7018 0.3817 0.0000
vt 0.7174 0.3817 0.0000
vt 0.7018 0.3679 0.0000
vt 0.7174 0.3679 0.0000
vt 0.7018 0.3537 0.0000
vt 0.7174 0.3537 0.0000
vt 0.7018 0.3395 0.0000
vt 0.7174 0.3395 0.0000
vt 0.7018 0.3254 0.0000
vt 0.7174 0.3254 0.0000
vt 0.7018 0.3117 0.0000
vt 0.7174 0.3117 0.0000
vt 0.0562 0.8882 0.0000
vt 0.0733 0.8848 0.0000
vt 0.0733 0.8781 0.0000
vt 0.0536 0.8820 0.0000
vt 0.7370 0.2951 0.0000
vt 0.7370 0.2806 0.0000
vt 0.7216 0.2866 0.0000
vt 0.7216 0.2984 0.0000
vt 0.0417 0.8979 0.0000
vt 0.0370 0.8932 0.0000
vt 0.7370 0.2663 0.0000
vt 0.7216 0.2756 0.0000
vt 0.0320 0.9124 0.0000
vt 0.0258 0.9098 0.0000
vt 0.7370 0.2523 0.0000
vt 0.7216 0.2656 0.0000
vt 0.0286 0.9295 0.0000
vt 0.0219 0.9295 0.0000
vt 0.7370 0.2385 0.0000
vt 0.7216 0.2567 0.0000
vt 0.0320 0.9466 0.0000
vt 0.0258 0.9491 0.0000
vt 0.7370 0.4642 0.0000
vt 0.7370 0.4508 0.0000
vt 0.7216 0.4407 0.0000
vt 0.7216 0.4502 0.0000
vt 0.0417 0.9611 0.0000
vt 0.0369 0.9658 0.0000
vt 0.7370 0.4370 0.0000
vt 0.7216 0.4305 0.0000
vt 0.0562 0.9707 0.0000
vt 0.0536 0.9769 0.0000
vt 0.7370 0.4230 0.0000
vt 0.7216 0.4195 0.0000
vt 0.0732 0.9741 0.0000
vt 0.0732 0.9808 0.0000
vt 0.7370 0.4090 0.0000
vt 0.7216 0.4077 0.0000
vt 0.0903 0.9707 0.0000
vt 0.0929 0.9769 0.0000
vt 0.7370 0.3949 0.0000
vt 0.7216 0.3950 0.0000
vt 0.1048 0.9611 0.0000
vt 0.1095 0.9658 0.0000
vt 0.7370 0.3806 0.0000
vt 0.7216 0.3817 0.0000
vt 0.1145 0.9466 0.0000
vt 0.1207 0.9492 0.0000
vt 0.7370 0.3663 0.0000
vt 0.7216 0.3679 0.0000
vt 0.1179 0.9295 0.0000
vt 0.1246 0.9295 0.0000
vt 0.7370 0.3519 0.0000
vt 0.7216 0.3537 0.0000
vt 0.1145 0.9124 0.0000
vt 0.1207 0.9099 0.0000
vt 0.7370 0.3375 0.0000
vt 0.7216 0.3395 0.0000
vt 0.1048 0.8979 0.0000
vt 0.1096 0.8932 0.0000
vt 0.7370 0.3233 0.0000
vt 0.7216 0.3254 0.0000
vt 0.0903 0.8882 0.0000
vt 0.0929 0.8821 0.0000
vt 0.7370 0.3091 0.0000
vt 0.7216 0.3117 0.0000
vt 0.0505 0.8739 0.0000
vt 0.0735 0.8694 0.0000
vt 0.0733 0.8616 0.0000
vt 0.0473 0.8668 0.0000
vt 0.0310 0.8868 0.0000
vt 0.0253 0.8815 0.0000
vt 0.0179 0.9063 0.0000
vt 0.0106 0.9035 0.0000
vt 0.0132 0.9292 0.0000
vt 0.0054 0.9295 0.0000
vt 0.0177 0.9522 0.0000
vt 0.0106 0.9554 0.0000
vt 0.0306 0.9718 0.0000
vt 0.0253 0.9775 0.0000
vt 0.0500 0.9849 0.0000
vt 0.0473 0.9922 0.0000
vt 0.0730 0.9895 0.0000
vt 0.0733 0.9973 0.0000
vt 0.0960 0.9851 0.0000
vt 0.0992 0.9922 0.0000
vt 0.1155 0.9721 0.0000
vt 0.1212 0.9775 0.0000
vt 0.1286 0.9527 0.0000
vt 0.1359 0.9554 0.0000
vt 0.1333 0.9297 0.0000
vt 0.1411 0.9295 0.0000
vt 0.1288 0.9067 0.0000
vt 0.1359 0.9035 0.0000
vt 0.1159 0.8872 0.0000
vt 0.1212 0.8815 0.0000
vt 0.0992 0.8668 0.0000
vt 0.0965 0.8741 0.0000
vt 0.0588 0.8945 0.0000
vt 0.0630 0.9047 0.0000
vt 0.0733 0.9027 0.0000
vt 0.0733 0.8916 0.0000
vt 0.0465 0.9027 0.0000
vt 0.0543 0.9105 0.0000
vt 0.0383 0.9150 0.0000
vt 0.0485 0.9192 0.0000
vt 0.0354 0.9295 0.0000
vt 0.0465 0.9295 0.0000
vt 0.0383 0.9440 0.0000
vt 0.0485 0.9397 0.0000
vt 0.0465 0.9562 0.0000
vt 0.0543 0.9484 0.0000
vt 0.0588 0.9645 0.0000
vt 0.0630 0.9542 0.0000
vt 0.0733 0.9673 0.0000
vt 0.0733 0.9563 0.0000
vt 0.0877 0.9645 0.0000
vt 0.0835 0.9542 0.0000
vt 0.1000 0.9562 0.0000
vt 0.0922 0.9484 0.0000
vt 0.1082 0.9440 0.0000
vt 0.0980 0.9397 0.0000
vt 0.1111 0.9295 0.0000
vt 0.1000 0.9295 0.0000
vt 0.1082 0.9150 0.0000
vt 0.0980 0.9192 0.0000
vt 0.1000 0.9027 0.0000
vt 0.0922 0.9105 0.0000
vt 0.0877 0.8945 0.0000
vt 0.0835 0.9047 0.0000
vt 0.0733 0.9295 0.0000
vt 0.7557 0.2923 0.0000
vt 0.7557 0.2763 0.0000
vt 0.7557 0.2596 0.0000
vt 0.7557 0.2423 0.0000
vt 0.7558 0.2246 0.0000
vt 0.7557 0.4769 0.0000
vt 0.7557 0.4601 0.0000
vt 0.7557 0.4424 0.0000
vt 0.7557 0.4252 0.0000
vt 0.7557 0.4087 0.0000
vt 0.7557 0.3931 0.0000
vt 0.7557 0.3781 0.0000
vt 0.7557 0.3636 0.0000
vt 0.7557 0.3493 0.0000
vt 0.7557 0.3352 0.0000
vt 0.7557 0.3210 0.0000
vt 0.7557 0.3067 0.0000
# 182 texture coords

o Object004
g Object004
usemtl Material_75
s 1
f 1/1/1 2/2/2 3/3/3 4/4/4 
f 5/5/5 4/4/4 3/3/3 6/6/6 
f 7/7/7 5/5/5 6/6/6 8/8/8 
f 9/9/9 7/7/7 8/8/8 10/10/10 
f 11/11/11 9/12/9 10/13/10 12/14/12 
f 13/15/13 11/11/11 12/14/12 14/16/14 
f 15/17/15 13/15/13 14/16/14 16/18/16 
f 17/19/17 15/17/15 16/18/16 18/20/18 
f 19/21/19 17/19/17 18/20/18 20/22/20 
f 21/23/21 19/21/19 20/22/20 22/24/22 
f 23/25/23 21/23/21 22/24/22 24/26/24 
f 25/27/25 23/25/23 24/26/24 26/28/26 
f 27/29/27 25/27/25 26/28/26 28/30/28 
f 29/31/29 27/29/27 28/30/28 30/32/30 
f 31/33/31 29/31/29 30/32/30 32/34/32 
f 1/1/1 31/33/31 32/34/32 2/2/2 
f 33/35/33 34/36/34 35/37/35 36/38/36 
f 37/39/37 38/40/38 3/41/3 2/42/2 
f 39/43/39 33/35/33 36/38/36 40/44/40 
f 38/40/38 41/45/41 6/46/6 3/41/3 
f 42/47/42 39/43/39 40/44/40 43/48/43 
f 41/45/41 44/49/44 8/50/8 6/46/6 
f 45/51/45 42/47/42 43/48/43 46/52/46 
f 44/49/44 47/53/47 10/54/10 8/50/8 
f 48/55/48 45/51/45 46/52/46 49/56/49 
f 47/57/47 50/58/50 12/59/12 10/60/10 
f 51/61/51 48/55/48 49/56/49 52/62/52 
f 50/58/50 53/63/53 14/64/14 12/59/12 
f 54/65/54 51/61/51 52/62/52 55/66/55 
f 53/63/53 56/67/56 16/68/16 14/64/14 
f 57/69/57 54/65/54 55/66/55 58/70/58 
f 56/67/56 59/71/59 18/72/18 16/68/16 
f 60/73/60 57/69/57 58/70/58 61/74/61 
f 59/71/59 62/75/62 20/76/20 18/72/18 
f 63/77/63 60/73/60 61/74/61 64/78/64 
f 62/75/62 65/79/65 22/80/22 20/76/20 
f 66/81/66 63/77/63 64/78/64 67/82/67 
f 65/79/65 68/83/68 24/84/24 22/80/22 
f 69/85/69 66/81/66 67/82/67 70/86/70 
f 68/83/68 71/87/71 26/88/26 24/84/24 
f 72/89/72 69/85/69 70/86/70 73/90/73 
f 71/87/71 74/91/74 28/92/28 26/88/26 
f 75/93/75 72/89/72 73/90/73 76/94/76 
f 74/91/74 77/95/77 30/96/30 28/92/28 
f 78/97/78 75/93/75 76/94/76 79/98/79 
f 77/95/77 80/99/80 32/100/32 30/96/30 
f 34/36/34 78/97/78 79/98/79 35/37/35 
f 80/99/80 37/39/37 2/42/2 32/100/32 
f 81/101/81 82/102/82 1/103/1 4/104/4 
f 83/105/83 81/101/81 4/104/4 5/106/5 
f 84/107/84 83/105/83 5/106/5 7/108/7 
f 85/109/85 84/107/84 7/108/7 9/110/9 
f 86/111/86 85/109/85 9/110/9 11/112/11 
f 87/113/87 86/111/86 11/112/11 13/114/13 
f 88/115/88 87/113/87 13/114/13 15/116/15 
f 89/117/89 88/115/88 15/116/15 17/118/17 
f 90/119/90 89/117/89 17/118/17 19/120/19 
f 91/121/91 90/119/90 19/120/19 21/122/21 
f 92/123/92 91/121/91 21/122/21 23/124/23 
f 93/125/93 92/123/92 23/124/23 25/126/25 
f 94/127/94 93/125/93 25/126/25 27/128/27 
f 95/129/95 94/127/94 27/128/27 29/130/29 
f 31/131/31 96/132/96 95/129/95 29/130/29 
f 82/102/82 96/132/96 31/131/31 1/103/1 
f 97/133/97 98/134/98 99/135/99 100/136/100 
f 101/137/101 102/138/102 98/134/98 97/133/97 
f 103/139/103 104/140/104 102/138/102 101/137/101 
f 105/141/105 106/142/106 104/140/104 103/139/103 
f 107/143/107 108/144/108 106/142/106 105/141/105 
f 109/145/109 110/146/110 108/144/108 107/143/107 
f 111/147/111 112/148/112 110/146/110 109/145/109 
f 113/149/113 114/150/114 112/148/112 111/147/111 
f 115/151/115 116/152/116 114/150/114 113/149/113 
f 117/153/117 118/154/118 116/152/116 115/151/115 
f 119/155/119 120/156/120 118/154/118 117/153/117 
f 121/157/121 122/158/122 120/156/120 119/155/119 
f 123/159/123 124/160/124 122/158/122 121/157/121 
f 125/161/125 126/162/126 124/160/124 123/159/123 
f 127/163/127 128/164/128 126/162/126 125/161/125 
f 100/136/100 99/135/99 128/164/128 127/163/127 
f 129/165/129 99/135/99 98/134/98 
f 129/165/129 98/134/98 102/138/102 
f 129/165/129 102/138/102 104/140/104 
f 129/165/129 104/140/104 106/142/106 
f 129/165/129 106/142/106 108/144/108 
f 129/165/129 108/144/108 110/146/110 
f 129/165/129 110/146/110 112/148/112 
f 129/165/129 112/148/112 114/150/114 
f 129/165/129 114/150/114 116/152/116 
f 129/165/129 116/152/116 118/154/118 
f 129/165/129 118/154/118 120/156/120 
f 129/165/129 120/156/120 122/158/122 
f 129/165/129 122/158/122 124/160/124 
f 129/165/129 124/160/124 126/162/126 
f 129/165/129 126/162/126 128/164/128 
f 129/165/129 128/164/128 99/135/99 
f 37/39/37 130/166/130 131/167/131 38/40/38 
f 38/40/38 131/167/131 132/168/132 41/45/41 
f 41/45/41 132/168/132 133/169/133 44/49/44 
f 44/49/44 133/169/133 134/170/134 47/53/47 
f 47/57/47 134/171/134 135/172/135 50/58/50 
f 50/58/50 135/172/135 136/173/136 53/63/53 
f 53/63/53 136/173/136 137/174/137 56/67/56 
f 56/67/56 137/174/137 138/175/138 59/71/59 
f 59/71/59 138/175/138 139/176/139 62/75/62 
f 62/75/62 139/176/139 140/177/140 65/79/65 
f 65/79/65 140/177/140 141/178/141 68/83/68 
f 68/83/68 141/178/141 142/179/142 71/87/71 
f 71/87/71 142/179/142 143/180/143 74/91/74 
f 74/91/74 143/180/143 144/181/144 77/95/77 
f 77/95/77 144/181/144 145/182/145 80/99/80 
f 80/99/80 145/182/145 130/166/130 37/39/37 
f 97/133/97 100/136/100 34/36/34 33/35/33 
f 101/137/101 97/133/97 33/35/33 39/43/39 
f 103/139/103 101/137/101 39/43/39 42/47/42 
f 105/141/105 103/139/103 42/47/42 45/51/45 
f 107/143/107 105/141/105 45/51/45 48/55/48 
f 109/145/109 107/143/107 48/55/48 51/61/51 
f 111/147/111 109/145/109 51/61/51 54/65/54 
f 113/149/113 111/147/111 54/65/54 57/69/57 
f 115/151/115 113/149/113 57/69/57 60/73/60 
f 117/153/117 115/151/115 60/73/60 63/77/63 
f 119/155/119 117/153/117 63/77/63 66/81/66 
f 121/157/121 119/155/119 66/81/66 69/85/69 
f 123/159/123 121/157/121 69/85/69 72/89/72 
f 125/161/125 123/159/123 72/89/72 75/93/75 
f 127/163/127 125/161/125 75/93/75 78/97/78 
f 100/136/100 127/163/127 78/97/78 34/36/34 
f 36/38/36 35/37/35 82/102/82 81/101/81 
f 40/44/40 36/38/36 81/101/81 83/105/83 
f 43/48/43 40/44/40 83/105/83 84/107/84 
f 46/52/46 43/48/43 84/107/84 85/109/85 
f 49/56/49 46/52/46 85/109/85 86/111/86 
f 52/62/52 49/56/49 86/111/86 87/113/87 
f 55/66/55 52/62/52 87/113/87 88/115/88 
f 58/70/58 55/66/55 88/115/88 89/117/89 
f 61/74/61 58/70/58 89/117/89 90/119/90 
f 64/78/64 61/74/61 90/119/90 91/121/91 
f 67/82/67 64/78/64 91/121/91 92/123/92 
f 70/86/70 67/82/67 92/123/92 93/125/93 
f 73/90/73 70/86/70 93/125/93 94/127/94 
f 76/94/76 73/90/73 94/127/94 95/129/95 
f 79/98/79 76/94/76 95/129/95 96/132/96 
f 35/37/35 79/98/79 96/132/96 82/102/82 
# 128 polygons - 16 triangles

