# 3ds Max Wavefront OBJ Exporter v0.97b - (c)2007 guruware
# File Created: 30.06.2022 18:19:54

mtllib YVR_d1_left_grip.mtl

#
# object Object003
#

v  0.0183 -0.0010 0.0152
v  0.0186 -0.0001 0.0141
v  0.0176 0.0019 0.0159
v  0.0196 -0.0034 0.0122
v  0.0193 -0.0040 0.0138
v  0.0196 -0.0063 0.0123
v  0.0201 -0.0069 0.0101
v  0.0189 -0.0048 0.0150
v  0.0192 -0.0079 0.0126
v  0.0186 -0.0058 0.0163
v  0.0185 -0.0098 0.0137
v  0.0178 -0.0016 0.0185
v  0.0165 0.0034 0.0204
v  0.0167 0.0029 0.0229
v  0.0178 -0.0023 0.0204
v  0.0183 -0.0069 0.0179
v  0.0178 -0.0112 0.0152
v  0.0180 -0.0034 0.0221
v  0.0173 0.0017 0.0250
v  0.0179 -0.0002 0.0265
v  0.0183 -0.0048 0.0236
v  0.0181 -0.0089 0.0211
v  0.0172 -0.0131 0.0187
v  0.0173 -0.0123 0.0169
v  0.0182 -0.0079 0.0195
v  0.0185 -0.0065 0.0249
v  0.0187 -0.0038 0.0274
v  0.0188 -0.0074 0.0265
v  0.0196 -0.0105 0.0092
v  0.0183 -0.0140 0.0100
v  0.0169 -0.0161 0.0119
v  0.0159 -0.0173 0.0142
v  0.0154 -0.0177 0.0163
v  0.0183 -0.0110 0.0243
v  0.0168 -0.0152 0.0217
v  0.0171 -0.0138 0.0204
v  0.0182 -0.0100 0.0226
v  0.0181 -0.0012 0.0168
v  0.0157 -0.0172 0.0188
v  0.0168 0.0031 0.0180
v  0.0051 -0.0001 0.0141
v  0.0051 0.0019 0.0159
v  0.0055 -0.0069 0.0101
v  0.0053 -0.0034 0.0122
v  0.0050 0.0031 0.0180
v  0.0050 0.0029 0.0229
v  0.0050 0.0034 0.0204
v  0.0052 -0.0002 0.0265
v  0.0051 0.0017 0.0250
v  0.0053 -0.0038 0.0274
v  0.0055 -0.0074 0.0265
v  0.0057 -0.0110 0.0243
v  0.0058 -0.0152 0.0217
v  0.0056 -0.0105 0.0092
v  0.0058 -0.0140 0.0100
v  0.0059 -0.0161 0.0119
v  0.0059 -0.0173 0.0142
v  0.0059 -0.0172 0.0188
v  0.0060 -0.0177 0.0163
# 59 vertices

vn 0.9504 0.1746 0.2576
vn 0.7294 0.5559 -0.3987
vn 0.6527 0.6959 -0.2997
vn 0.7561 0.4454 -0.4795
vn 0.9602 0.0752 0.2691
vn 0.9477 -0.0915 0.3059
vn 0.8009 0.2057 -0.5624
vn 0.9650 0.0028 0.2623
vn 0.9392 -0.1804 0.2922
vn 0.9821 -0.0338 0.1856
vn 0.9414 -0.2277 0.2488
vn 0.9769 0.1596 0.1419
vn 0.5540 0.8322 0.0220
vn 0.5764 0.7879 0.2168
vn 0.9887 0.1448 0.0393
vn 0.9934 -0.0582 0.0989
vn 0.9597 -0.2416 0.1438
vn 0.9902 0.1268 -0.0590
vn 0.6257 0.6713 0.3973
vn 0.6759 0.4534 0.5810
vn 0.9916 0.0836 -0.0986
vn 0.9940 -0.0861 -0.0676
vn 0.9641 -0.2598 -0.0554
vn 0.9700 -0.2421 0.0219
vn 0.9971 -0.0754 0.0130
vn 0.9882 0.0337 -0.1491
vn 0.7357 0.0822 0.6723
vn 0.7440 -0.2864 0.6036
vn 0.7503 -0.1603 -0.6414
vn 0.6594 -0.5462 -0.5166
vn 0.5766 -0.7560 -0.3098
vn 0.5389 -0.8294 -0.1472
vn 0.4779 -0.8776 0.0374
vn 0.7368 -0.4736 0.4826
vn 0.5887 -0.6639 0.4612
vn 0.9561 -0.2851 -0.0672
vn 0.9861 -0.0994 -0.1332
vn 0.9649 0.1872 0.1842
vn 0.5198 -0.8124 0.2642
vn 0.5681 0.8062 -0.1651
vn 0.0000 0.5923 -0.8057
vn 0.0000 0.7842 -0.6205
vn 0.0000 0.3869 -0.9221
vn 0.0000 0.5072 -0.8618
vn 0.0000 0.9459 -0.3244
vn 0.0000 0.9342 0.3568
vn 0.0000 0.9999 0.0150
vn 0.0000 0.4543 0.8909
vn 0.0000 0.7562 0.6544
vn 0.0000 0.0055 1.0000
vn 0.0000 -0.3863 0.9224
vn 0.0000 -0.5250 0.8511
vn 0.0000 -0.6894 0.7244
vn 0.0000 0.0184 -0.9998
vn 0.0000 -0.4611 -0.8874
vn 0.0000 -0.7873 -0.6166
vn 0.0000 -0.9387 -0.3447
vn 0.0000 -0.9134 0.4072
vn 0.0000 -1.0000 0.0088
# 59 vertex normals

vt 0.0885 0.1039 0.0000
vt 0.0973 0.1054 0.0000
vt 0.0933 0.1217 0.0000
vt 0.0983 0.0817 0.0000
vt 0.0878 0.0831 0.0000
vt 0.0888 0.0658 0.0000
vt 0.0991 0.0561 0.0000
vt 0.0785 0.0820 0.0000
vt 0.0817 0.0580 0.0000
vt 0.0677 0.0804 0.0000
vt 0.0699 0.0504 0.0000
vt 0.0686 0.1102 0.0000
vt 0.0734 0.1438 0.0000
vt 0.0580 0.1486 0.0000
vt 0.0562 0.1118 0.0000
vt 0.0558 0.0794 0.0000
vt 0.0565 0.0465 0.0000
vt 0.0435 0.1112 0.0000
vt 0.0429 0.1479 0.0000
vt 0.0290 0.1422 0.0000
vt 0.0310 0.1083 0.0000
vt 0.0318 0.0777 0.0000
vt 0.0309 0.0461 0.0000
vt 0.0432 0.0454 0.0000
vt 0.0437 0.0787 0.0000
vt 0.0185 0.1032 0.0000
vt 0.0130 0.1256 0.0000
vt 0.0070 0.1028 0.0000
vt 0.0928 0.0333 0.0000
vt 0.0760 0.0155 0.0000
vt 0.0575 0.0081 0.0000
vt 0.0405 0.0072 0.0000
vt 0.0271 0.0103 0.0000
vt 0.0075 0.0761 0.0000
vt 0.0075 0.0428 0.0000
vt 0.0195 0.0476 0.0000
vt 0.0200 0.0765 0.0000
vt 0.0794 0.1072 0.0000
vt 0.0157 0.0217 0.0000
vt 0.0850 0.1348 0.0000
vt 0.5569 0.0081 0.0000
vt 0.5725 0.0081 0.0000
vt 0.5725 0.0779 0.0000
vt 0.5569 0.0779 0.0000
vt 0.5104 0.0081 0.0000
vt 0.5345 0.0081 0.0000
vt 0.5345 0.0779 0.0000
vt 0.5104 0.0779 0.0000
vt 0.5870 0.0081 0.0000
vt 0.5870 0.0779 0.0000
vt 0.6164 0.0081 0.0000
vt 0.6164 0.0779 0.0000
vt 0.6010 0.0779 0.0000
vt 0.6010 0.0081 0.0000
vt 0.6449 0.0081 0.0000
vt 0.6449 0.0779 0.0000
vt 0.6306 0.0779 0.0000
vt 0.6306 0.0081 0.0000
vt 0.6668 0.0081 0.0000
vt 0.6668 0.0779 0.0000
vt 0.6890 0.0081 0.0000
vt 0.6890 0.0779 0.0000
vt 0.3331 0.0081 0.0000
vt 0.3578 0.0081 0.0000
vt 0.3578 0.0779 0.0000
vt 0.3331 0.0779 0.0000
vt 0.3872 0.0081 0.0000
vt 0.3872 0.0779 0.0000
vt 0.4887 0.0779 0.0000
vt 0.4887 0.0081 0.0000
vt 0.4676 0.0779 0.0000
vt 0.4676 0.0081 0.0000
vt 0.4508 0.0779 0.0000
vt 0.4508 0.0081 0.0000
vt 0.4357 0.0779 0.0000
vt 0.4357 0.0081 0.0000
vt 0.4077 0.0081 0.0000
vt 0.4229 0.0081 0.0000
vt 0.4229 0.0779 0.0000
vt 0.4077 0.0779 0.0000
# 80 texture coords

o Object003
g Object003
usemtl Material_75
s 1
f 1/1/1 2/2/2 3/3/3 
f 4/4/4 5/5/5 6/6/6 7/7/7 
f 6/6/6 5/5/5 8/8/8 9/9/9 
f 9/9/9 8/8/8 10/10/10 11/11/11 
f 12/12/12 13/13/13 14/14/14 15/15/15 
f 11/11/11 10/10/10 16/16/16 17/17/17 
f 18/18/18 19/19/19 20/20/20 21/21/21 
f 22/22/22 23/23/23 24/24/24 25/25/25 
f 26/26/26 27/27/27 28/28/28 
f 29/29/29 7/7/7 6/6/6 9/9/9 
f 30/30/30 29/29/29 9/9/9 11/11/11 
f 31/31/31 30/30/30 11/11/11 17/17/17 
f 32/32/32 31/31/31 17/17/17 24/24/24 
f 33/33/33 32/32/32 24/24/24 23/23/23 
f 34/34/34 35/35/35 36/36/36 37/37/37 
f 1/1/1 38/38/38 8/8/8 5/5/5 
f 38/38/38 12/12/12 10/10/10 8/8/8 
f 12/12/12 15/15/15 16/16/16 10/10/10 
f 21/21/21 22/22/22 25/25/25 18/18/18 
f 33/33/33 23/23/23 36/36/36 39/39/39 
f 27/27/27 26/26/26 21/21/21 20/20/20 
f 26/26/26 37/37/37 22/22/22 21/21/21 
f 22/22/22 37/37/37 36/36/36 23/23/23 
f 16/16/16 25/25/25 24/24/24 17/17/17 
f 16/16/16 15/15/15 18/18/18 25/25/25 
f 15/15/15 14/14/14 19/19/19 18/18/18 
f 3/3/3 40/40/40 38/38/38 1/1/1 
f 40/40/40 13/13/13 12/12/12 38/38/38 
f 28/28/28 34/34/34 37/37/37 26/26/26 
f 5/5/5 4/4/4 2/2/2 1/1/1 
f 35/35/35 39/39/39 36/36/36 
f 41/41/41 42/42/42 3/43/3 2/44/2 
f 43/45/43 44/46/44 4/47/4 7/48/7 
f 44/46/44 41/41/41 2/44/2 4/47/4 
f 42/42/42 45/49/45 40/50/40 3/43/3 
f 46/51/46 14/52/14 13/53/13 47/54/47 
f 45/49/45 47/54/47 13/53/13 40/50/40 
f 48/55/48 20/56/20 19/57/19 49/58/49 
f 49/58/49 19/57/19 14/52/14 46/51/46 
f 50/59/50 27/60/27 20/56/20 48/55/48 
f 50/59/50 51/61/51 28/62/28 27/60/27 
f 51/63/51 52/64/52 34/65/34 28/66/28 
f 52/64/52 53/67/53 35/68/35 34/65/34 
f 43/45/43 7/48/7 29/69/29 54/70/54 
f 54/70/54 29/69/29 30/71/30 55/72/55 
f 55/72/55 30/71/30 31/73/31 56/74/56 
f 56/74/56 31/73/31 32/75/32 57/76/57 
f 58/77/58 59/78/59 33/79/33 39/80/39 
f 57/76/57 32/75/32 33/79/33 59/78/59 
f 53/67/53 58/77/58 39/80/39 35/68/35 
# 47 polygons - 3 triangles

