# 3ds Max Wavefront OBJ Exporter v0.97b - (c)2007 guruware
# File Created: 30.06.2022 18:19:31

mtllib YVR_d1_left_trigger.mtl

#
# object Object002
#

v  -0.0034 -0.0267 -0.0329
v  -0.0034 -0.0256 -0.0324
v  0.0024 -0.0262 -0.0337
v  0.0024 -0.0271 -0.0342
v  -0.0058 -0.0262 -0.0313
v  -0.0058 -0.0250 -0.0307
v  -0.0081 -0.0260 -0.0287
v  -0.0082 -0.0244 -0.0281
v  -0.0101 -0.0262 -0.0255
v  -0.0101 -0.0241 -0.0247
v  -0.0111 -0.0271 -0.0222
v  -0.0112 -0.0246 -0.0210
v  -0.0112 -0.0287 -0.0190
v  -0.0112 -0.0256 -0.0175
v  -0.0103 -0.0309 -0.0162
v  -0.0103 -0.0273 -0.0142
v  -0.0085 -0.0335 -0.0139
v  -0.0085 -0.0294 -0.0115
v  -0.0064 -0.0357 -0.0125
v  -0.0064 -0.0313 -0.0097
v  -0.0026 -0.0384 -0.0112
v  -0.0026 -0.0336 -0.0081
v  0.0024 -0.0394 -0.0109
v  0.0024 -0.0344 -0.0076
v  0.0081 -0.0267 -0.0329
v  0.0081 -0.0256 -0.0324
v  0.0105 -0.0262 -0.0313
v  0.0105 -0.0250 -0.0307
v  0.0129 -0.0260 -0.0287
v  0.0129 -0.0244 -0.0281
v  0.0148 -0.0262 -0.0255
v  0.0149 -0.0241 -0.0247
v  0.0159 -0.0271 -0.0222
v  0.0159 -0.0246 -0.0210
v  0.0159 -0.0287 -0.0190
v  0.0160 -0.0256 -0.0175
v  0.0150 -0.0309 -0.0162
v  0.0151 -0.0273 -0.0142
v  0.0133 -0.0294 -0.0115
v  0.0132 -0.0335 -0.0139
v  0.0112 -0.0313 -0.0097
v  0.0112 -0.0357 -0.0125
v  0.0074 -0.0336 -0.0081
v  0.0074 -0.0384 -0.0112
v  -0.0004 -0.0289 -0.0337
v  -0.0033 -0.0282 -0.0336
v  0.0024 -0.0284 -0.0347
v  0.0024 -0.0291 -0.0341
v  0.0024 -0.0297 -0.0328
v  -0.0016 -0.0292 -0.0325
v  0.0024 -0.0305 -0.0309
v  -0.0028 -0.0299 -0.0306
v  0.0024 -0.0318 -0.0284
v  -0.0037 -0.0310 -0.0280
v  0.0024 -0.0333 -0.0260
v  -0.0042 -0.0325 -0.0255
v  -0.0043 -0.0343 -0.0230
v  0.0024 -0.0351 -0.0235
v  -0.0038 -0.0367 -0.0204
v  0.0024 -0.0374 -0.0209
v  -0.0029 -0.0388 -0.0185
v  0.0024 -0.0393 -0.0190
v  -0.0019 -0.0406 -0.0171
v  0.0024 -0.0411 -0.0175
v  0.0024 -0.0433 -0.0157
v  -0.0001 -0.0427 -0.0158
v  -0.0026 -0.0422 -0.0154
v  0.0024 -0.0432 -0.0152
v  0.0081 -0.0282 -0.0336
v  0.0052 -0.0289 -0.0337
v  0.0063 -0.0292 -0.0325
v  0.0075 -0.0299 -0.0306
v  0.0085 -0.0310 -0.0280
v  0.0090 -0.0325 -0.0255
v  0.0090 -0.0343 -0.0230
v  0.0086 -0.0367 -0.0204
v  0.0077 -0.0388 -0.0185
v  0.0067 -0.0406 -0.0171
v  0.0048 -0.0427 -0.0158
v  0.0073 -0.0422 -0.0154
v  -0.0057 -0.0279 -0.0320
v  -0.0081 -0.0279 -0.0296
v  -0.0100 -0.0284 -0.0267
v  -0.0111 -0.0297 -0.0238
v  -0.0111 -0.0316 -0.0211
v  -0.0102 -0.0342 -0.0189
v  -0.0084 -0.0371 -0.0172
v  -0.0064 -0.0394 -0.0162
v  0.0105 -0.0279 -0.0320
v  0.0128 -0.0279 -0.0296
v  0.0148 -0.0284 -0.0267
v  0.0158 -0.0297 -0.0238
v  0.0159 -0.0316 -0.0211
v  0.0150 -0.0342 -0.0189
v  0.0132 -0.0371 -0.0172
v  0.0111 -0.0394 -0.0162
# 96 vertices

vn -0.3337 0.3748 -0.8650
vn -0.3577 0.3733 -0.8560
vn 0.0002 0.4301 -0.9028
vn 0.0000 0.4304 -0.9026
vn -0.5951 0.3058 -0.7433
vn -0.6169 0.2940 -0.7300
vn -0.7705 0.2383 -0.5913
vn -0.7953 0.2146 -0.5670
vn -0.9108 0.1618 -0.3799
vn -0.9256 0.1306 -0.3554
vn -0.9886 0.0548 -0.1401
vn -0.9914 0.0385 -0.1253
vn -0.9927 -0.0735 0.0956
vn -0.9929 -0.0652 0.0993
vn -0.9300 -0.2121 0.3001
vn -0.9364 -0.1774 0.3028
vn -0.8227 -0.3423 0.4538
vn -0.8345 -0.2869 0.4705
vn -0.6717 -0.4595 0.5811
vn -0.6866 -0.3885 0.6145
vn -0.3881 -0.6021 0.6978
vn -0.4044 -0.5033 0.7636
vn 0.0000 -0.6647 0.7471
vn 0.0001 -0.5574 0.8302
vn 0.3340 0.3737 -0.8653
vn 0.3586 0.3718 -0.8563
vn 0.5956 0.3039 -0.7436
vn 0.6177 0.2921 -0.7301
vn 0.7709 0.2362 -0.5916
vn 0.7958 0.2125 -0.5670
vn 0.9109 0.1599 -0.3803
vn 0.9257 0.1288 -0.3556
vn 0.9886 0.0531 -0.1406
vn 0.9914 0.0367 -0.1257
vn 0.9927 -0.0746 0.0950
vn 0.9929 -0.0666 0.0988
vn 0.9301 -0.2129 0.2992
vn 0.9364 -0.1784 0.3021
vn 0.8345 -0.2874 0.4700
vn 0.8229 -0.3428 0.4531
vn 0.6868 -0.3889 0.6141
vn 0.6718 -0.4599 0.5807
vn 0.4047 -0.5036 0.7633
vn 0.3881 -0.6024 0.6975
vn -0.1674 -0.7634 -0.6239
vn -0.4044 -0.3859 -0.8292
vn -0.0001 -0.1342 -0.9910
vn -0.0000 -0.8013 -0.5983
vn 0.0000 -0.9203 -0.3912
vn -0.2343 -0.8499 -0.4720
vn 0.0000 -0.9024 -0.4310
vn -0.2709 -0.8385 -0.4728
vn 0.0000 -0.8684 -0.4959
vn -0.2897 -0.8237 -0.4875
vn 0.0000 -0.8281 -0.5606
vn -0.3005 -0.7872 -0.5385
vn -0.2978 -0.7481 -0.5930
vn 0.0000 -0.7760 -0.6307
vn -0.2907 -0.7193 -0.6309
vn 0.0000 -0.7310 -0.6824
vn -0.2581 -0.6901 -0.6761
vn 0.0000 -0.6797 -0.7335
vn -0.2426 -0.6702 -0.7014
vn 0.0000 -0.6410 -0.7676
vn 0.0000 -0.9423 -0.3348
vn -0.1959 -0.8140 -0.5468
vn -0.4216 -0.9041 -0.0695
vn 0.0000 -0.9153 0.4027
vn 0.4042 -0.3864 -0.8291
vn 0.1674 -0.7634 -0.6239
vn 0.2343 -0.8498 -0.4721
vn 0.2709 -0.8385 -0.4728
vn 0.2897 -0.8237 -0.4874
vn 0.3005 -0.7872 -0.5386
vn 0.2978 -0.7481 -0.5930
vn 0.2907 -0.7193 -0.6310
vn 0.2581 -0.6901 -0.6761
vn 0.2426 -0.6703 -0.7013
vn 0.1959 -0.8139 -0.5469
vn 0.4215 -0.9041 -0.0696
vn -0.6017 -0.3519 -0.7170
vn -0.7096 -0.3002 -0.6374
vn -0.8027 -0.2985 -0.5164
vn -0.8604 -0.3490 -0.3714
vn -0.8664 -0.4360 -0.2434
vn -0.8242 -0.5437 -0.1585
vn -0.7490 -0.6481 -0.1380
vn -0.6443 -0.7591 -0.0928
vn 0.6015 -0.3528 -0.7167
vn 0.7093 -0.3012 -0.6373
vn 0.8022 -0.2994 -0.5166
vn 0.8600 -0.3496 -0.3718
vn 0.8661 -0.4364 -0.2437
vn 0.8239 -0.5439 -0.1590
vn 0.7488 -0.6482 -0.1383
vn 0.6441 -0.7592 -0.0931
# 96 vertex normals

vt 0.5495 0.3994 0.0000
vt 0.5530 0.4038 0.0000
vt 0.5217 0.4091 0.0000
vt 0.5216 0.4046 0.0000
vt 0.5635 0.3931 0.0000
vt 0.5694 0.3966 0.0000
vt 0.5774 0.3819 0.0000
vt 0.5854 0.3846 0.0000
vt 0.5887 0.3665 0.0000
vt 0.5992 0.3686 0.0000
vt 0.5955 0.3492 0.0000
vt 0.6087 0.3503 0.0000
vt 0.5969 0.3308 0.0000
vt 0.6128 0.3299 0.0000
vt 0.5924 0.3095 0.0000
vt 0.6104 0.3048 0.0000
vt 0.5818 0.2901 0.0000
vt 0.6002 0.2798 0.0000
vt 0.5685 0.2769 0.0000
vt 0.5842 0.2604 0.0000
vt 0.5462 0.2665 0.0000
vt 0.5556 0.2444 0.0000
vt 0.5211 0.2651 0.0000
vt 0.5206 0.2396 0.0000
vt 0.4934 0.4008 0.0000
vt 0.4902 0.4053 0.0000
vt 0.4793 0.3949 0.0000
vt 0.4735 0.3986 0.0000
vt 0.4653 0.3839 0.0000
vt 0.4573 0.3867 0.0000
vt 0.4540 0.3686 0.0000
vt 0.4435 0.3707 0.0000
vt 0.4473 0.3512 0.0000
vt 0.4341 0.3524 0.0000
vt 0.4459 0.3331 0.0000
vt 0.4300 0.3323 0.0000
vt 0.4504 0.3116 0.0000
vt 0.4323 0.3072 0.0000
vt 0.4421 0.2822 0.0000
vt 0.4608 0.2920 0.0000
vt 0.4577 0.2624 0.0000
vt 0.4739 0.2784 0.0000
vt 0.4858 0.2456 0.0000
vt 0.4960 0.2674 0.0000
vt 0.5334 0.3943 0.0000
vt 0.5464 0.3952 0.0000
vt 0.5215 0.4004 0.0000
vt 0.5214 0.3960 0.0000
vt 0.5213 0.3893 0.0000
vt 0.5386 0.3887 0.0000
vt 0.5213 0.3797 0.0000
vt 0.5440 0.3793 0.0000
vt 0.5213 0.3660 0.0000
vt 0.5482 0.3657 0.0000
vt 0.5214 0.3519 0.0000
vt 0.5503 0.3513 0.0000
vt 0.5500 0.3349 0.0000
vt 0.5214 0.3349 0.0000
vt 0.5475 0.3199 0.0000
vt 0.5215 0.3207 0.0000
vt 0.5429 0.3075 0.0000
vt 0.5215 0.3086 0.0000
vt 0.5385 0.2984 0.0000
vt 0.5215 0.3001 0.0000
vt 0.5215 0.2916 0.0000
vt 0.5301 0.2926 0.0000
vt 0.5399 0.2904 0.0000
vt 0.5216 0.2885 0.0000
vt 0.4964 0.3965 0.0000
vt 0.5093 0.3949 0.0000
vt 0.5040 0.3895 0.0000
vt 0.4987 0.3801 0.0000
vt 0.4945 0.3666 0.0000
vt 0.4925 0.3521 0.0000
vt 0.4928 0.3349 0.0000
vt 0.4955 0.3206 0.0000
vt 0.5000 0.3081 0.0000
vt 0.5045 0.2989 0.0000
vt 0.5128 0.2929 0.0000
vt 0.5029 0.2910 0.0000
vt 0.5579 0.3897 0.0000
vt 0.5697 0.3796 0.0000
vt 0.5791 0.3654 0.0000
vt 0.5837 0.3494 0.0000
vt 0.5832 0.3349 0.0000
vt 0.5776 0.3183 0.0000
vt 0.5675 0.3057 0.0000
vt 0.5570 0.2979 0.0000
vt 0.4848 0.3913 0.0000
vt 0.4729 0.3814 0.0000
vt 0.4636 0.3672 0.0000
vt 0.4591 0.3512 0.0000
vt 0.4596 0.3349 0.0000
vt 0.4653 0.3198 0.0000
vt 0.4754 0.3069 0.0000
vt 0.4859 0.2989 0.0000
# 96 texture coords

o Object002
g Object002
usemtl Material_75
s 1
f 1/1/1 2/2/2 3/3/3 4/4/4 
f 5/5/5 6/6/6 2/2/2 1/1/1 
f 7/7/7 8/8/8 6/6/6 5/5/5 
f 9/9/9 10/10/10 8/8/8 7/7/7 
f 11/11/11 12/12/12 10/10/10 9/9/9 
f 13/13/13 14/14/14 12/12/12 11/11/11 
f 15/15/15 16/16/16 14/14/14 13/13/13 
f 15/15/15 17/17/17 18/18/18 16/16/16 
f 17/17/17 19/19/19 20/20/20 18/18/18 
f 19/19/19 21/21/21 22/22/22 20/20/20 
f 21/21/21 23/23/23 24/24/24 22/22/22 
f 25/25/25 4/4/4 3/3/3 26/26/26 
f 27/27/27 25/25/25 26/26/26 28/28/28 
f 29/29/29 27/27/27 28/28/28 30/30/30 
f 31/31/31 29/29/29 30/30/30 32/32/32 
f 33/33/33 31/31/31 32/32/32 34/34/34 
f 35/35/35 33/33/33 34/34/34 36/36/36 
f 37/37/37 35/35/35 36/36/36 38/38/38 
f 37/37/37 38/38/38 39/39/39 40/40/40 
f 40/40/40 39/39/39 41/41/41 42/42/42 
f 42/42/42 41/41/41 43/43/43 44/44/44 
f 44/44/44 43/43/43 24/24/24 23/23/23 
f 45/45/45 46/46/46 47/47/47 48/48/48 
f 49/49/49 50/50/50 45/45/45 48/48/48 
f 51/51/51 52/52/52 50/50/50 49/49/49 
f 53/53/53 54/54/54 52/52/52 51/51/51 
f 55/55/55 56/56/56 54/54/54 53/53/53 
f 57/57/57 56/56/56 55/55/55 58/58/58 
f 59/59/59 57/57/57 58/58/58 60/60/60 
f 61/61/61 59/59/59 60/60/60 62/62/62 
f 63/63/63 61/61/61 62/62/62 64/64/64 
f 63/63/63 64/64/64 65/65/65 66/66/66 
f 67/67/67 66/66/66 65/65/65 68/68/68 
f 47/47/47 69/69/69 70/70/70 48/48/48 
f 70/70/70 71/71/71 49/49/49 48/48/48 
f 71/71/71 72/72/72 51/51/51 49/49/49 
f 72/72/72 73/73/73 53/53/53 51/51/51 
f 73/73/73 74/74/74 55/55/55 53/53/53 
f 55/55/55 74/74/74 75/75/75 58/58/58 
f 58/58/58 75/75/75 76/76/76 60/60/60 
f 60/60/60 76/76/76 77/77/77 62/62/62 
f 62/62/62 77/77/77 78/78/78 64/64/64 
f 78/78/78 79/79/79 65/65/65 64/64/64 
f 65/65/65 79/79/79 80/80/80 68/68/68 
f 46/46/46 45/45/45 50/50/50 81/81/81 
f 82/82/82 81/81/81 50/50/50 52/52/52 
f 83/83/83 82/82/82 52/52/52 54/54/54 
f 84/84/84 83/83/83 54/54/54 56/56/56 
f 85/85/85 84/84/84 56/56/56 57/57/57 
f 86/86/86 85/85/85 57/57/57 59/59/59 
f 87/87/87 86/86/86 59/59/59 61/61/61 
f 88/88/88 87/87/87 61/61/61 63/63/63 
f 67/67/67 88/88/88 63/63/63 66/66/66 
f 69/69/69 89/89/89 71/71/71 70/70/70 
f 89/89/89 90/90/90 72/72/72 71/71/71 
f 90/90/90 91/91/91 73/73/73 72/72/72 
f 91/91/91 92/92/92 74/74/74 73/73/73 
f 92/92/92 93/93/93 75/75/75 74/74/74 
f 93/93/93 94/94/94 76/76/76 75/75/75 
f 94/94/94 95/95/95 77/77/77 76/76/76 
f 95/95/95 96/96/96 78/78/78 77/77/77 
f 80/80/80 79/79/79 78/78/78 96/96/96 
f 4/4/4 47/47/47 46/46/46 1/1/1 
f 1/1/1 46/46/46 81/81/81 5/5/5 
f 5/5/5 81/81/81 82/82/82 7/7/7 
f 7/7/7 82/82/82 83/83/83 9/9/9 
f 9/9/9 83/83/83 84/84/84 11/11/11 
f 84/84/84 85/85/85 13/13/13 11/11/11 
f 85/85/85 86/86/86 15/15/15 13/13/13 
f 86/86/86 87/87/87 17/17/17 15/15/15 
f 87/87/87 88/88/88 19/19/19 17/17/17 
f 88/88/88 67/67/67 21/21/21 19/19/19 
f 67/67/67 68/68/68 23/23/23 21/21/21 
f 69/69/69 47/47/47 4/4/4 25/25/25 
f 89/89/89 69/69/69 25/25/25 27/27/27 
f 90/90/90 89/89/89 27/27/27 29/29/29 
f 91/91/91 90/90/90 29/29/29 31/31/31 
f 92/92/92 91/91/91 31/31/31 33/33/33 
f 35/35/35 93/93/93 92/92/92 33/33/33 
f 37/37/37 94/94/94 93/93/93 35/35/35 
f 40/40/40 95/95/95 94/94/94 37/37/37 
f 42/42/42 96/96/96 95/95/95 40/40/40 
f 44/44/44 80/80/80 96/96/96 42/42/42 
f 23/23/23 68/68/68 80/80/80 44/44/44 
# 84 polygons

