# 3ds Max Wavefront OBJ Exporter v0.97b - (c)2007 guruware
# File Created: 30.06.2022 18:21:16

mtllib YVR_d1_left_Ybutton.mtl

#
# object Object006
#

v  0.0090 -0.0068 -0.0262
v  0.0088 -0.0099 -0.0244
v  0.0092 -0.0090 -0.0227
v  0.0094 -0.0059 -0.0246
v  0.0105 -0.0051 -0.0232
v  0.0102 -0.0083 -0.0213
v  0.0120 -0.0047 -0.0222
v  0.0118 -0.0078 -0.0204
v  0.0139 -0.0046 -0.0218
v  0.0137 -0.0078 -0.0200
v  0.0158 -0.0049 -0.0221
v  0.0155 -0.0080 -0.0202
v  0.0173 -0.0055 -0.0229
v  0.0171 -0.0087 -0.0211
v  0.0184 -0.0063 -0.0243
v  0.0182 -0.0095 -0.0225
v  0.0188 -0.0073 -0.0259
v  0.0185 -0.0105 -0.0241
v  0.0184 -0.0082 -0.0275
v  0.0182 -0.0114 -0.0257
v  0.0173 -0.0089 -0.0289
v  0.0171 -0.0121 -0.0271
v  0.0158 -0.0094 -0.0299
v  0.0155 -0.0125 -0.0281
v  0.0139 -0.0095 -0.0303
v  0.0137 -0.0126 -0.0284
v  0.0120 -0.0092 -0.0300
v  0.0118 -0.0124 -0.0282
v  0.0105 -0.0086 -0.0291
v  0.0102 -0.0117 -0.0273
v  0.0094 -0.0077 -0.0278
v  0.0092 -0.0109 -0.0260
v  0.0106 -0.0054 -0.0254
v  0.0140 -0.0059 -0.0267
v  0.0104 -0.0061 -0.0266
v  0.0114 -0.0049 -0.0243
v  0.0126 -0.0046 -0.0236
v  0.0139 -0.0045 -0.0233
v  0.0153 -0.0047 -0.0235
v  0.0165 -0.0052 -0.0242
v  0.0173 -0.0058 -0.0252
v  0.0175 -0.0065 -0.0264
v  0.0173 -0.0072 -0.0276
v  0.0165 -0.0077 -0.0286
v  0.0153 -0.0080 -0.0293
v  0.0139 -0.0081 -0.0296
v  0.0126 -0.0079 -0.0294
v  0.0114 -0.0074 -0.0287
v  0.0106 -0.0068 -0.0278
# 49 vertices

vn -0.8635 0.4367 -0.2522
vn -0.9981 0.0529 -0.0304
vn -0.9221 0.2402 0.3032
vn -0.7957 0.6039 0.0458
vn -0.6025 0.7386 0.3024
vn -0.7056 0.3911 0.5909
vn -0.3134 0.8199 0.4791
vn -0.3818 0.4821 0.7885
vn 0.0275 0.8359 0.5482
vn 0.0001 0.4999 0.8661
vn 0.3684 0.7841 0.4995
vn 0.3820 0.4415 0.8119
vn 0.6575 0.6721 0.3406
vn 0.7057 0.3162 0.6341
vn 0.8506 0.5170 0.0958
vn 0.9222 0.1425 0.3596
vn 0.9183 0.3427 -0.1980
vn 0.9981 -0.0529 0.0305
vn 0.8505 0.1756 -0.4957
vn 0.9222 -0.2401 -0.3032
vn 0.6576 0.0409 -0.7523
vn 0.7057 -0.3909 -0.5909
vn 0.3686 -0.0404 -0.9287
vn 0.3818 -0.4823 -0.7884
vn 0.0275 -0.0567 -0.9980
vn -0.0001 -0.5001 -0.8660
vn -0.3134 -0.0046 -0.9496
vn -0.3820 -0.4418 -0.8117
vn -0.6025 0.1074 -0.7909
vn -0.7056 -0.3163 -0.6341
vn -0.7958 0.2621 -0.5459
vn -0.9221 -0.1425 -0.3597
vn -0.2852 0.8919 -0.3510
vn 0.0616 0.8644 -0.4991
vn -0.3135 0.8225 -0.4746
vn -0.2053 0.9477 -0.2446
vn -0.0852 0.9816 -0.1711
vn 0.0567 0.9882 -0.1422
vn 0.1982 0.9666 -0.1628
vn 0.3181 0.9201 -0.2285
vn 0.3984 0.8557 -0.3302
vn 0.4267 0.7832 -0.4523
vn 0.3985 0.7138 -0.5759
vn 0.3182 0.6578 -0.6827
vn 0.1981 0.6242 -0.7558
vn 0.0566 0.6174 -0.7846
vn -0.0851 0.6392 -0.7643
vn -0.2049 0.6855 -0.6986
vn -0.2854 0.7499 -0.5968
# 49 vertex normals

vt 0.6097 0.2156 0.0000
vt 0.5957 0.2156 0.0000
vt 0.5997 0.1954 0.0000
vt 0.6127 0.2008 0.0000
vt 0.6211 0.1883 0.0000
vt 0.6111 0.1783 0.0000
vt 0.6336 0.1799 0.0000
vt 0.6282 0.1669 0.0000
vt 0.6484 0.1769 0.0000
vt 0.6484 0.1629 0.0000
vt 0.6632 0.1799 0.0000
vt 0.6686 0.1669 0.0000
vt 0.6758 0.1883 0.0000
vt 0.6857 0.1783 0.0000
vt 0.6842 0.2008 0.0000
vt 0.6971 0.1954 0.0000
vt 0.6871 0.2156 0.0000
vt 0.7012 0.2156 0.0000
vt 0.6842 0.2304 0.0000
vt 0.6971 0.2358 0.0000
vt 0.6758 0.2430 0.0000
vt 0.6857 0.2529 0.0000
vt 0.6632 0.2513 0.0000
vt 0.6686 0.2643 0.0000
vt 0.6484 0.2543 0.0000
vt 0.6484 0.2683 0.0000
vt 0.6336 0.2513 0.0000
vt 0.6282 0.2643 0.0000
vt 0.6211 0.2430 0.0000
vt 0.6111 0.2529 0.0000
vt 0.6127 0.2304 0.0000
vt 0.5997 0.2358 0.0000
vt 0.6221 0.2047 0.0000
vt 0.6484 0.2156 0.0000
vt 0.6199 0.2156 0.0000
vt 0.6282 0.1954 0.0000
vt 0.6375 0.1892 0.0000
vt 0.6484 0.1871 0.0000
vt 0.6593 0.1892 0.0000
vt 0.6686 0.1954 0.0000
vt 0.6748 0.2047 0.0000
vt 0.6770 0.2156 0.0000
vt 0.6748 0.2265 0.0000
vt 0.6686 0.2358 0.0000
vt 0.6593 0.2420 0.0000
vt 0.6484 0.2441 0.0000
vt 0.6375 0.2420 0.0000
vt 0.6282 0.2358 0.0000
vt 0.6221 0.2265 0.0000
# 49 texture coords

o Object006
g Object006
usemtl Material_75
s 1
f 1/1/1 2/2/2 3/3/3 4/4/4 
f 5/5/5 4/4/4 3/3/3 6/6/6 
f 7/7/7 5/5/5 6/6/6 8/8/8 
f 9/9/9 7/7/7 8/8/8 10/10/10 
f 11/11/11 9/9/9 10/10/10 12/12/12 
f 13/13/13 11/11/11 12/12/12 14/14/14 
f 15/15/15 13/13/13 14/14/14 16/16/16 
f 17/17/17 15/15/15 16/16/16 18/18/18 
f 19/19/19 17/17/17 18/18/18 20/20/20 
f 21/21/21 19/19/19 20/20/20 22/22/22 
f 23/23/23 21/21/21 22/22/22 24/24/24 
f 25/25/25 23/23/23 24/24/24 26/26/26 
f 27/27/27 25/25/25 26/26/26 28/28/28 
f 29/29/29 27/27/27 28/28/28 30/30/30 
f 31/31/31 29/29/29 30/30/30 32/32/32 
f 1/1/1 31/31/31 32/32/32 2/2/2 
f 33/33/33 34/34/34 35/35/35 
f 36/36/36 34/34/34 33/33/33 
f 37/37/37 34/34/34 36/36/36 
f 38/38/38 34/34/34 37/37/37 
f 39/39/39 34/34/34 38/38/38 
f 40/40/40 34/34/34 39/39/39 
f 41/41/41 34/34/34 40/40/40 
f 42/42/42 34/34/34 41/41/41 
f 43/43/43 34/34/34 42/42/42 
f 44/44/44 34/34/34 43/43/43 
f 45/45/45 34/34/34 44/44/44 
f 46/46/46 34/34/34 45/45/45 
f 47/47/47 34/34/34 46/46/46 
f 48/48/48 34/34/34 47/47/47 
f 49/49/49 34/34/34 48/48/48 
f 35/35/35 34/34/34 49/49/49 
f 1/1/1 4/4/4 33/33/33 35/35/35 
f 4/4/4 5/5/5 36/36/36 33/33/33 
f 5/5/5 7/7/7 37/37/37 36/36/36 
f 7/7/7 9/9/9 38/38/38 37/37/37 
f 9/9/9 11/11/11 39/39/39 38/38/38 
f 11/11/11 13/13/13 40/40/40 39/39/39 
f 13/13/13 15/15/15 41/41/41 40/40/40 
f 15/15/15 17/17/17 42/42/42 41/41/41 
f 17/17/17 19/19/19 43/43/43 42/42/42 
f 19/19/19 21/21/21 44/44/44 43/43/43 
f 21/21/21 23/23/23 45/45/45 44/44/44 
f 23/23/23 25/25/25 46/46/46 45/45/45 
f 25/25/25 27/27/27 47/47/47 46/46/46 
f 27/27/27 29/29/29 48/48/48 47/47/47 
f 29/29/29 31/31/31 49/49/49 48/48/48 
f 31/31/31 1/1/1 35/35/35 49/49/49 
# 32 polygons - 16 triangles

