# 3ds Max Wavefront OBJ Exporter v0.97b - (c)2007 guruware
# File Created: 30.06.2022 18:21:03

mtllib YVR_d1_left_Xbutton.mtl

#
# object default
#

v  0.0052 0.0006 -0.0142
v  0.0049 -0.0025 -0.0125
v  0.0052 -0.0016 -0.0108
v  0.0056 0.0015 -0.0126
v  0.0066 0.0022 -0.0113
v  0.0063 -0.0009 -0.0095
v  0.0081 0.0026 -0.0103
v  0.0078 -0.0005 -0.0085
v  0.0100 0.0026 -0.0099
v  0.0097 -0.0005 -0.0081
v  0.0118 0.0023 -0.0101
v  0.0115 -0.0008 -0.0083
v  0.0133 0.0017 -0.0110
v  0.0130 -0.0014 -0.0092
v  0.0144 0.0008 -0.0123
v  0.0141 -0.0023 -0.0105
v  0.0147 -0.0001 -0.0138
v  0.0144 -0.0032 -0.0120
v  0.0144 -0.0010 -0.0154
v  0.0141 -0.0041 -0.0136
v  0.0133 -0.0017 -0.0168
v  0.0130 -0.0048 -0.0150
v  0.0118 -0.0021 -0.0178
v  0.0115 -0.0052 -0.0160
v  0.0100 -0.0021 -0.0182
v  0.0097 -0.0053 -0.0164
v  0.0081 -0.0018 -0.0179
v  0.0078 -0.0049 -0.0162
v  0.0066 -0.0012 -0.0171
v  0.0063 -0.0043 -0.0153
v  0.0056 -0.0003 -0.0158
v  0.0052 -0.0034 -0.0140
v  0.0068 0.0019 -0.0134
v  0.0101 0.0013 -0.0147
v  0.0065 0.0012 -0.0146
v  0.0075 0.0024 -0.0124
v  0.0087 0.0027 -0.0117
v  0.0100 0.0027 -0.0114
v  0.0114 0.0025 -0.0116
v  0.0125 0.0020 -0.0122
v  0.0133 0.0014 -0.0131
v  0.0135 0.0007 -0.0143
v  0.0133 0.0000 -0.0155
v  0.0125 -0.0005 -0.0165
v  0.0114 -0.0008 -0.0172
v  0.0100 -0.0008 -0.0175
v  0.0087 -0.0006 -0.0173
v  0.0075 -0.0001 -0.0167
v  0.0068 0.0005 -0.0158
# 49 vertices

vn -0.8516 0.4539 -0.2621
vn -0.9963 0.0745 -0.0430
vn -0.9205 0.2602 0.2917
vn -0.7838 0.6199 0.0370
vn -0.5907 0.7506 0.2962
vn -0.7045 0.4063 0.5819
vn -0.3017 0.8260 0.4761
vn -0.3813 0.4905 0.7836
vn 0.0389 0.8348 0.5492
vn 0.0000 0.5000 0.8660
vn 0.3793 0.7756 0.5046
vn 0.3813 0.4334 0.8166
vn 0.6677 0.6575 0.3491
vn 0.7045 0.3009 0.6428
vn 0.8603 0.4985 0.1065
vn 0.9205 0.1225 0.3712
vn 0.9279 0.3228 -0.1864
vn 0.9963 -0.0745 0.0430
vn 0.8603 0.1570 -0.4850
vn 0.9205 -0.2602 -0.2917
vn 0.6677 0.0264 -0.7440
vn 0.7045 -0.4063 -0.5819
vn 0.3793 -0.0492 -0.9240
vn 0.3813 -0.4905 -0.7836
vn 0.0389 -0.0582 -0.9975
vn 0.0000 -0.5000 -0.8660
vn -0.3017 0.0007 -0.9534
vn -0.3813 -0.4334 -0.8166
vn -0.5907 0.1188 -0.7981
vn -0.7045 -0.3009 -0.6428
vn -0.7838 0.2779 -0.5554
vn -0.9205 -0.1225 -0.3712
vn -0.2630 0.8976 -0.3537
vn 0.0868 0.8628 -0.4981
vn -0.2913 0.8285 -0.4783
vn -0.1825 0.9520 -0.2459
vn -0.0621 0.9833 -0.1711
vn 0.0796 0.9868 -0.1409
vn 0.2211 0.9621 -0.1596
vn 0.3409 0.9129 -0.2243
vn 0.4208 0.8469 -0.3252
vn 0.4489 0.7739 -0.4468
vn 0.4208 0.7050 -0.5708
vn 0.3409 0.6507 -0.6785
vn 0.2211 0.6192 -0.7534
vn 0.0796 0.6154 -0.7842
vn -0.0621 0.6398 -0.7660
vn -0.1825 0.6889 -0.7015
vn -0.2630 0.7552 -0.6005
# 49 vertex normals

vt 0.5328 0.1355 0.0000
vt 0.5201 0.1355 0.0000
vt 0.5241 0.1153 0.0000
vt 0.5358 0.1202 0.0000
vt 0.5445 0.1072 0.0000
vt 0.5355 0.0982 0.0000
vt 0.5575 0.0985 0.0000
vt 0.5526 0.0868 0.0000
vt 0.5728 0.0955 0.0000
vt 0.5728 0.0827 0.0000
vt 0.5881 0.0985 0.0000
vt 0.5930 0.0868 0.0000
vt 0.6011 0.1072 0.0000
vt 0.6101 0.0982 0.0000
vt 0.6098 0.1202 0.0000
vt 0.6215 0.1153 0.0000
vt 0.6128 0.1355 0.0000
vt 0.6256 0.1355 0.0000
vt 0.6098 0.1508 0.0000
vt 0.6215 0.1557 0.0000
vt 0.6011 0.1638 0.0000
vt 0.6101 0.1728 0.0000
vt 0.5881 0.1725 0.0000
vt 0.5930 0.1842 0.0000
vt 0.5728 0.1755 0.0000
vt 0.5728 0.1882 0.0000
vt 0.5575 0.1725 0.0000
vt 0.5526 0.1842 0.0000
vt 0.5445 0.1638 0.0000
vt 0.5355 0.1728 0.0000
vt 0.5358 0.1508 0.0000
vt 0.5241 0.1557 0.0000
vt 0.5455 0.1242 0.0000
vt 0.5728 0.1355 0.0000
vt 0.5433 0.1355 0.0000
vt 0.5519 0.1146 0.0000
vt 0.5615 0.1082 0.0000
vt 0.5728 0.1060 0.0000
vt 0.5841 0.1082 0.0000
vt 0.5937 0.1146 0.0000
vt 0.6001 0.1242 0.0000
vt 0.6023 0.1355 0.0000
vt 0.6001 0.1468 0.0000
vt 0.5937 0.1564 0.0000
vt 0.5841 0.1628 0.0000
vt 0.5728 0.1650 0.0000
vt 0.5615 0.1628 0.0000
vt 0.5519 0.1564 0.0000
vt 0.5455 0.1468 0.0000
# 49 texture coords

o default
g default
usemtl Material_75
s 1
f 1/1/1 2/2/2 3/3/3 4/4/4 
f 5/5/5 4/4/4 3/3/3 6/6/6 
f 7/7/7 5/5/5 6/6/6 8/8/8 
f 9/9/9 7/7/7 8/8/8 10/10/10 
f 11/11/11 9/9/9 10/10/10 12/12/12 
f 13/13/13 11/11/11 12/12/12 14/14/14 
f 15/15/15 13/13/13 14/14/14 16/16/16 
f 17/17/17 15/15/15 16/16/16 18/18/18 
f 19/19/19 17/17/17 18/18/18 20/20/20 
f 21/21/21 19/19/19 20/20/20 22/22/22 
f 23/23/23 21/21/21 22/22/22 24/24/24 
f 25/25/25 23/23/23 24/24/24 26/26/26 
f 27/27/27 25/25/25 26/26/26 28/28/28 
f 29/29/29 27/27/27 28/28/28 30/30/30 
f 31/31/31 29/29/29 30/30/30 32/32/32 
f 1/1/1 31/31/31 32/32/32 2/2/2 
f 33/33/33 34/34/34 35/35/35 
f 36/36/36 34/34/34 33/33/33 
f 37/37/37 34/34/34 36/36/36 
f 38/38/38 34/34/34 37/37/37 
f 39/39/39 34/34/34 38/38/38 
f 40/40/40 34/34/34 39/39/39 
f 41/41/41 34/34/34 40/40/40 
f 42/42/42 34/34/34 41/41/41 
f 43/43/43 34/34/34 42/42/42 
f 44/44/44 34/34/34 43/43/43 
f 45/45/45 34/34/34 44/44/44 
f 46/46/46 34/34/34 45/45/45 
f 47/47/47 34/34/34 46/46/46 
f 48/48/48 34/34/34 47/47/47 
f 49/49/49 34/34/34 48/48/48 
f 35/35/35 34/34/34 49/49/49 
f 1/1/1 4/4/4 33/33/33 35/35/35 
f 4/4/4 5/5/5 36/36/36 33/33/33 
f 5/5/5 7/7/7 37/37/37 36/36/36 
f 7/7/7 9/9/9 38/38/38 37/37/37 
f 9/9/9 11/11/11 39/39/39 38/38/38 
f 11/11/11 13/13/13 40/40/40 39/39/39 
f 13/13/13 15/15/15 41/41/41 40/40/40 
f 15/15/15 17/17/17 42/42/42 41/41/41 
f 17/17/17 19/19/19 43/43/43 42/42/42 
f 19/19/19 21/21/21 44/44/44 43/43/43 
f 21/21/21 23/23/23 45/45/45 44/44/44 
f 23/23/23 25/25/25 46/46/46 45/45/45 
f 25/25/25 27/27/27 47/47/47 46/46/46 
f 27/27/27 29/29/29 48/48/48 47/47/47 
f 29/29/29 31/31/31 49/49/49 48/48/48 
f 31/31/31 1/1/1 35/35/35 49/49/49 
# 32 polygons - 16 triangles

