# 3ds Max Wavefront OBJ Exporter v0.97b - (c)2007 guruware
# File Created: 30.06.2022 18:20:49

mtllib YVR_d1_left_home.mtl

#
# object Object005
#

v  -0.0006 0.0086 0.0056
v  -0.0008 0.0082 0.0046
v  -0.0022 0.0084 0.0046
v  -0.0018 0.0090 0.0063
v  -0.0006 0.0079 0.0037
v  -0.0018 0.0078 0.0029
v  0.0012 0.0090 0.0068
v  0.0001 0.0089 0.0063
v  -0.0009 0.0096 0.0077
v  0.0006 0.0099 0.0086
v  0.0001 0.0076 0.0030
v  0.0012 0.0074 0.0025
v  0.0006 0.0069 0.0005
v  -0.0008 0.0072 0.0014
v  0.0024 0.0091 0.0069
v  0.0024 0.0100 0.0089
v  0.0024 0.0074 0.0023
v  0.0024 0.0067 0.0002
v  0.0055 0.0082 0.0046
v  0.0053 0.0086 0.0056
v  0.0066 0.0090 0.0063
v  0.0069 0.0084 0.0046
v  0.0053 0.0079 0.0037
v  0.0066 0.0078 0.0029
v  0.0046 0.0089 0.0063
v  0.0035 0.0090 0.0068
v  0.0041 0.0099 0.0086
v  0.0056 0.0096 0.0077
v  0.0035 0.0074 0.0025
v  0.0046 0.0076 0.0030
v  0.0056 0.0072 0.0014
v  0.0041 0.0069 0.0005
v  -0.0023 0.0025 0.0068
v  -0.0020 0.0031 0.0085
v  -0.0020 0.0018 0.0051
v  -0.0010 0.0013 0.0037
v  0.0006 0.0009 0.0027
v  0.0024 0.0008 0.0024
v  0.0042 0.0009 0.0027
v  0.0057 0.0013 0.0037
v  0.0067 0.0018 0.0051
v  0.0071 0.0025 0.0068
v  0.0067 0.0031 0.0085
v  0.0058 0.0036 0.0099
v  0.0042 0.0040 0.0108
v  0.0024 0.0041 0.0112
v  0.0006 0.0040 0.0108
v  -0.0010 0.0036 0.0099
v  0.0002 0.0083 0.0051
v  -0.0000 0.0082 0.0047
v  0.0024 0.0084 0.0053
v  0.0046 0.0083 0.0051
v  0.0041 0.0084 0.0052
v  0.0046 0.0080 0.0042
v  0.0048 0.0082 0.0047
v  0.0002 0.0080 0.0042
v  0.0006 0.0080 0.0041
v  0.0024 0.0080 0.0041
v  0.0041 0.0080 0.0041
v  0.0006 0.0084 0.0053
v  0.0046 0.0087 0.0049
v  0.0041 0.0088 0.0051
v  0.0024 0.0088 0.0051
v  0.0048 0.0085 0.0045
v  0.0046 0.0084 0.0041
v  0.0041 0.0083 0.0039
v  0.0024 0.0083 0.0039
v  0.0006 0.0088 0.0051
v  0.0002 0.0087 0.0049
v  0.0024 0.0085 0.0045
v  0.0006 0.0083 0.0039
v  0.0002 0.0084 0.0041
v  -0.0000 0.0085 0.0045
# 73 vertices

vn 0.0863 0.9158 -0.3923
vn 0.1057 0.9300 -0.3521
vn -0.6926 0.6746 -0.2553
vn -0.6480 0.7613 -0.0207
vn 0.0860 0.9461 -0.3124
vn -0.6474 0.5796 -0.4949
vn 0.0168 0.9128 -0.4081
vn 0.0459 0.9105 -0.4109
vn -0.5123 0.8311 0.2164
vn -0.2681 0.8876 0.3746
vn 0.0463 0.9541 -0.2958
vn 0.0172 0.9538 -0.3000
vn -0.2840 0.4177 -0.8631
vn -0.5105 0.4860 -0.7094
vn 0.0000 0.9125 -0.4090
vn 0.0000 0.9052 0.4249
vn 0.0000 0.9541 -0.2993
vn 0.0000 0.3904 -0.9206
vn -0.1058 0.9299 -0.3522
vn -0.0864 0.9157 -0.3924
vn 0.6478 0.7615 -0.0207
vn 0.6927 0.6746 -0.2551
vn -0.0860 0.9461 -0.3123
vn 0.6474 0.5796 -0.4948
vn -0.0458 0.9105 -0.4109
vn -0.0168 0.9128 -0.4081
vn 0.2683 0.8875 0.3747
vn 0.5123 0.8311 0.2163
vn -0.0172 0.9538 -0.3000
vn -0.0463 0.9541 -0.2957
vn 0.5105 0.4860 -0.7094
vn 0.2840 0.4176 -0.8631
vn -0.9996 0.0254 -0.0094
vn -0.9281 0.1534 0.3392
vn -0.9246 -0.1130 -0.3637
vn -0.7097 -0.2366 -0.6636
vn -0.3858 -0.3227 -0.8643
vn 0.0001 -0.3540 -0.9353
vn 0.3857 -0.3227 -0.8643
vn 0.7096 -0.2366 -0.6637
vn 0.9247 -0.1129 -0.3635
vn 0.9996 0.0252 -0.0094
vn 0.9282 0.1534 0.3390
vn 0.7068 0.2635 0.6565
vn 0.3648 0.3334 0.8694
vn 0.0000 0.3545 0.9351
vn -0.3649 0.3335 0.8693
vn -0.7069 0.2634 0.6564
vn -0.4062 0.9103 0.0800
vn -0.5669 0.7704 -0.2916
vn 0.0001 0.9164 0.4002
vn 0.4067 0.9099 0.0815
vn 0.1289 0.9400 0.3158
vn 0.4020 0.6308 -0.6638
vn 0.5648 0.7720 -0.2917
vn -0.4027 0.6307 -0.6634
vn -0.1253 0.4965 -0.8590
vn -0.0000 0.4236 -0.9058
vn 0.1252 0.4965 -0.8590
vn -0.1286 0.9406 0.3142
vn 0.5517 0.7824 0.2889
vn 0.1489 0.8802 0.4506
vn 0.0000 0.9108 0.4129
vn 0.7758 0.5900 -0.2236
vn 0.5494 0.3969 -0.7353
vn 0.1458 0.3643 -0.9198
vn 0.0000 0.4123 -0.9110
vn -0.1498 0.8809 0.4489
vn -0.5523 0.7825 0.2876
vn -0.0000 0.9353 -0.3538
vn -0.1449 0.3640 -0.9201
vn -0.5493 0.3960 -0.7358
vn -0.7765 0.5894 -0.2230
# 73 vertex normals

vt 0.0180 0.1891 0.0000
vt 0.0163 0.1965 0.0000
vt 0.0062 0.1965 0.0000
vt 0.0087 0.1832 0.0000
vt 0.0181 0.2040 0.0000
vt 0.0087 0.2098 0.0000
vt 0.0311 0.1798 0.0000
vt 0.0230 0.1833 0.0000
vt 0.0155 0.1721 0.0000
vt 0.0268 0.1647 0.0000
vt 0.0231 0.2098 0.0000
vt 0.0311 0.2134 0.0000
vt 0.0268 0.2287 0.0000
vt 0.0160 0.2211 0.0000
vt 0.0395 0.1786 0.0000
vt 0.0395 0.1623 0.0000
vt 0.0395 0.2147 0.0000
vt 0.0395 0.2314 0.0000
vt 0.0628 0.1965 0.0000
vt 0.0610 0.1891 0.0000
vt 0.0703 0.1832 0.0000
vt 0.0728 0.1965 0.0000
vt 0.0610 0.2040 0.0000
vt 0.0703 0.2098 0.0000
vt 0.0561 0.1833 0.0000
vt 0.0480 0.1798 0.0000
vt 0.0523 0.1647 0.0000
vt 0.0635 0.1721 0.0000
vt 0.0479 0.2134 0.0000
vt 0.0559 0.2098 0.0000
vt 0.0631 0.2211 0.0000
vt 0.0522 0.2287 0.0000
vt 0.7097 0.1660 0.0000
vt 0.7097 0.1786 0.0000
vt 0.7537 0.1786 0.0000
vt 0.7537 0.1660 0.0000
vt 0.7097 0.1533 0.0000
vt 0.7537 0.1533 0.0000
vt 0.7097 0.1406 0.0000
vt 0.7537 0.1406 0.0000
vt 0.7097 0.1280 0.0000
vt 0.7537 0.1280 0.0000
vt 0.7097 0.1155 0.0000
vt 0.7537 0.1155 0.0000
vt 0.7097 0.1030 0.0000
vt 0.7537 0.1030 0.0000
vt 0.7097 0.0904 0.0000
vt 0.7537 0.0904 0.0000
vt 0.7097 0.0777 0.0000
vt 0.7537 0.0777 0.0000
vt 0.7097 0.0650 0.0000
vt 0.7537 0.0650 0.0000
vt 0.7097 0.0524 0.0000
vt 0.7537 0.0524 0.0000
vt 0.7097 0.0401 0.0000
vt 0.7537 0.0401 0.0000
vt 0.7097 0.0273 0.0000
vt 0.7537 0.0273 0.0000
vt 0.7097 0.0148 0.0000
vt 0.7537 0.0148 0.0000
vt 0.7097 0.2038 0.0000
vt 0.7097 0.2162 0.0000
vt 0.7537 0.2162 0.0000
vt 0.7537 0.2038 0.0000
vt 0.7097 0.1909 0.0000
vt 0.7537 0.1909 0.0000
vt 0.0233 0.1932 0.0000
vt 0.0220 0.1965 0.0000
vt 0.0395 0.1918 0.0000
vt 0.0557 0.1932 0.0000
vt 0.0525 0.1918 0.0000
vt 0.0557 0.1998 0.0000
vt 0.0571 0.1965 0.0000
vt 0.0233 0.1998 0.0000
vt 0.0266 0.2012 0.0000
vt 0.0395 0.2011 0.0000
vt 0.0525 0.2012 0.0000
vt 0.0266 0.1918 0.0000
vt 0.3940 0.3870 0.0000
vt 0.3940 0.3805 0.0000
vt 0.3887 0.3805 0.0000
vt 0.3887 0.3870 0.0000
vt 0.3940 0.4111 0.0000
vt 0.3887 0.4111 0.0000
vt 0.3940 0.3739 0.0000
vt 0.3887 0.3739 0.0000
vt 0.3940 0.3672 0.0000
vt 0.3887 0.3672 0.0000
vt 0.3940 0.3607 0.0000
vt 0.3887 0.3607 0.0000
vt 0.3940 0.3366 0.0000
vt 0.3887 0.3366 0.0000
vt 0.3940 0.2862 0.0000
vt 0.3940 0.2621 0.0000
vt 0.3887 0.2621 0.0000
vt 0.3887 0.2862 0.0000
vt 0.3940 0.2928 0.0000
vt 0.3887 0.2928 0.0000
vt 0.4245 0.3920 0.0000
vt 0.4164 0.3920 0.0000
vt 0.4245 0.3663 0.0000
vt 0.4245 0.4177 0.0000
vt 0.3940 0.3125 0.0000
vt 0.3887 0.3125 0.0000
vt 0.3940 0.3060 0.0000
vt 0.3887 0.3060 0.0000
vt 0.3940 0.2994 0.0000
vt 0.3887 0.2994 0.0000
vt 0.4083 0.4177 0.0000
vt 0.4083 0.3920 0.0000
vt 0.4083 0.3663 0.0000
vt 0.4106 0.3599 0.0000
vt 0.4164 0.3572 0.0000
vt 0.4221 0.3599 0.0000
vt 0.4221 0.4241 0.0000
vt 0.4164 0.4268 0.0000
vt 0.4106 0.4241 0.0000
# 117 texture coords

o Object005
g Object005
usemtl Material_75
s 1
f 1/1/1 2/2/2 3/3/3 4/4/4 
f 2/2/2 5/5/5 6/6/6 3/3/3 
f 7/7/7 8/8/8 9/9/9 10/10/10 
f 11/11/11 12/12/12 13/13/13 14/14/14 
f 8/8/8 1/1/1 4/4/4 9/9/9 
f 5/5/5 11/11/11 14/14/14 6/6/6 
f 15/15/15 7/7/7 10/10/10 16/16/16 
f 12/12/12 17/17/17 18/18/18 13/13/13 
f 19/19/19 20/20/20 21/21/21 22/22/22 
f 23/23/23 19/19/19 22/22/22 24/24/24 
f 25/25/25 26/26/26 27/27/27 28/28/28 
f 29/29/29 30/30/30 31/31/31 32/32/32 
f 20/20/20 25/25/25 28/28/28 21/21/21 
f 30/30/30 23/23/23 24/24/24 31/31/31 
f 26/26/26 15/15/15 16/16/16 27/27/27 
f 17/17/17 29/29/29 32/32/32 18/18/18 
f 33/33/33 34/34/34 4/35/4 3/36/3 
f 35/37/35 33/33/33 3/36/3 6/38/6 
f 36/39/36 35/37/35 6/38/6 14/40/14 
f 37/41/37 36/39/36 14/40/14 13/42/13 
f 38/43/38 37/41/37 13/42/13 18/44/18 
f 39/45/39 38/43/38 18/44/18 32/46/32 
f 40/47/40 39/45/39 32/46/32 31/48/31 
f 41/49/41 40/47/40 31/48/31 24/50/24 
f 42/51/42 41/49/41 24/50/24 22/52/22 
f 43/53/43 42/51/42 22/52/22 21/54/21 
f 44/55/44 43/53/43 21/54/21 28/56/28 
f 45/57/45 44/55/44 28/56/28 27/58/27 
f 46/59/46 45/57/45 27/58/27 16/60/16 
f 47/61/47 46/62/46 16/63/16 10/64/10 
f 48/65/48 47/61/47 10/64/10 9/66/9 
f 34/34/34 48/65/48 9/66/9 4/35/4 
f 2/2/2 1/1/1 49/67/49 50/68/50 
f 7/7/7 15/15/15 51/69/51 
f 25/25/25 20/20/20 52/70/52 53/71/53 
f 19/19/19 23/23/23 54/72/54 55/73/55 
f 15/15/15 26/26/26 51/69/51 
f 11/11/11 5/5/5 56/74/56 57/75/57 
f 12/12/12 11/11/11 57/75/57 58/76/58 
f 12/12/12 58/76/58 17/17/17 
f 17/17/17 58/76/58 29/29/29 
f 30/30/30 29/29/29 58/76/58 59/77/59 
f 1/1/1 8/8/8 60/78/60 49/67/49 
f 20/20/20 19/19/19 55/73/55 52/70/52 
f 5/5/5 2/2/2 50/68/50 56/74/56 
f 26/26/26 25/25/25 53/71/53 51/69/51 
f 23/23/23 30/30/30 59/77/59 54/72/54 
f 8/8/8 7/7/7 51/69/51 60/78/60 
f 53/79/53 52/80/52 61/81/61 62/82/62 
f 51/83/51 53/79/53 62/82/62 63/84/63 
f 52/80/52 55/85/55 64/86/64 61/81/61 
f 55/85/55 54/87/54 65/88/65 64/86/64 
f 54/87/54 59/89/59 66/90/66 65/88/65 
f 59/89/59 58/91/58 67/92/67 66/90/66 
f 60/93/60 51/94/51 63/95/63 68/96/68 
f 49/97/49 60/93/60 68/96/68 69/98/69 
f 63/99/63 70/100/70 68/101/68 
f 62/102/62 70/100/70 63/99/63 
f 58/91/58 57/103/57 71/104/71 67/92/67 
f 57/103/57 56/105/56 72/106/72 71/104/71 
f 56/105/56 50/107/50 73/108/73 72/106/72 
f 50/107/50 49/97/49 69/98/69 73/108/73 
f 70/100/70 66/109/66 67/110/67 
f 70/100/70 67/110/67 71/111/71 
f 70/100/70 71/111/71 72/112/72 
f 70/100/70 73/113/73 69/114/69 
f 70/100/70 62/102/62 61/115/61 
f 70/100/70 64/116/64 65/117/65 
f 70/100/70 72/112/72 73/113/73 
f 70/100/70 69/114/69 68/101/68 
f 70/100/70 61/115/61 64/116/64 
f 70/100/70 65/117/65 66/109/66 
# 56 polygons - 16 triangles

