# 3ds Max Wavefront OBJ Exporter v0.97b - (c)2007 guruware
# File Created: 26.12.2024 12:46:06

mtllib yvr_d3_left_grip.mtl

#
# object yvr_d3_left_grip
#

v  0.0223 0.0029 0.0219
v  0.0211 0.0027 0.0229
v  0.0206 0.0004 0.0218
v  0.0218 0.0002 0.0207
v  0.0226 0.0058 0.0234
v  0.0215 0.0051 0.0242
v  0.0214 0.0085 0.0264
v  0.0225 0.0095 0.0257
v  0.0220 0.0105 0.0272
v  0.0210 0.0094 0.0276
v  0.0216 0.0071 0.0253
v  0.0228 0.0077 0.0244
v  0.0188 0.0087 0.0300
v  0.0202 0.0091 0.0283
v  0.0204 0.0101 0.0290
v  0.0196 0.0104 0.0305
v  0.0164 0.0062 0.0378
v  0.0159 0.0043 0.0376
v  0.0163 0.0059 0.0354
v  0.0169 0.0078 0.0368
v  0.0210 -0.0019 0.0197
v  0.0200 -0.0015 0.0196
v  0.0209 0.0004 0.0204
v  0.0136 -0.0052 0.0289
v  0.0129 -0.0073 0.0292
v  0.0132 -0.0074 0.0274
v  0.0131 -0.0062 0.0316
v  0.0181 -0.0019 0.0225
v  0.0191 -0.0029 0.0210
v  0.0200 -0.0015 0.0211
v  0.0181 -0.0039 0.0212
v  0.0163 -0.0028 0.0241
v  0.0188 0.0002 0.0233
v  0.0169 -0.0003 0.0252
v  0.0153 -0.0014 0.0275
v  0.0148 -0.0040 0.0262
v  0.0175 0.0023 0.0265
v  0.0158 0.0012 0.0289
v  0.0163 0.0034 0.0302
v  0.0152 0.0017 0.0331
v  0.0146 -0.0005 0.0320
v  0.0169 0.0056 0.0312
v  0.0157 0.0039 0.0343
v  0.0155 0.0024 0.0368
v  0.0150 0.0000 0.0357
v  0.0171 0.0088 0.0379
v  0.0165 0.0066 0.0390
v  0.0175 0.0090 0.0353
v  0.0179 0.0104 0.0362
v  0.0181 0.0097 0.0338
v  0.0187 0.0113 0.0344
v  0.0168 0.0106 0.0361
v  0.0159 0.0091 0.0378
v  0.0175 0.0115 0.0342
v  0.0174 0.0120 0.0319
v  0.0165 0.0116 0.0340
v  0.0184 0.0119 0.0323
v  0.0195 0.0117 0.0325
v  0.0204 0.0117 0.0307
v  0.0195 0.0119 0.0303
v  0.0205 0.0078 0.0242
v  0.0204 0.0092 0.0252
v  0.0215 0.0093 0.0253
v  0.0217 0.0078 0.0242
v  0.0204 0.0062 0.0234
v  0.0216 0.0060 0.0232
v  0.0202 0.0031 0.0217
v  0.0214 0.0030 0.0217
v  0.0200 -0.0037 0.0196
v  0.0191 -0.0032 0.0193
v  0.0179 -0.0027 0.0194
v  0.0180 -0.0045 0.0195
v  0.0168 -0.0041 0.0194
v  0.0166 -0.0058 0.0201
v  0.0157 -0.0053 0.0198
v  0.0139 -0.0065 0.0208
v  0.0151 -0.0069 0.0213
v  0.0136 -0.0079 0.0229
v  0.0126 -0.0074 0.0219
v  0.0096 -0.0090 0.0262
v  0.0110 -0.0083 0.0238
v  0.0124 -0.0087 0.0248
v  0.0112 -0.0091 0.0268
v  0.0094 -0.0082 0.0318
v  0.0090 -0.0091 0.0291
v  0.0108 -0.0091 0.0293
v  0.0109 -0.0083 0.0317
v  0.0111 -0.0050 0.0349
v  0.0102 -0.0067 0.0337
v  0.0116 -0.0069 0.0335
v  0.0122 -0.0052 0.0348
v  0.0131 0.0015 0.0382
v  0.0126 -0.0006 0.0371
v  0.0138 -0.0007 0.0370
v  0.0143 0.0016 0.0382
v  0.0135 0.0043 0.0392
v  0.0147 0.0041 0.0391
v  0.0149 0.0093 0.0377
v  0.0142 0.0073 0.0388
v  0.0153 0.0070 0.0390
v  0.0159 0.0040 0.0390
v  0.0144 -0.0030 0.0358
v  0.0150 -0.0006 0.0370
v  0.0131 -0.0028 0.0360
v  0.0135 -0.0054 0.0344
v  0.0124 -0.0082 0.0314
v  0.0129 -0.0070 0.0332
v  0.0127 -0.0091 0.0274
v  0.0123 -0.0089 0.0293
v  0.0147 -0.0081 0.0236
v  0.0134 -0.0088 0.0255
v  0.0161 -0.0072 0.0218
v  0.0177 -0.0060 0.0206
v  0.0187 -0.0051 0.0200
v  0.0195 0.0042 0.0254
v  0.0192 0.0025 0.0245
v  0.0198 0.0059 0.0263
v  0.0199 0.0076 0.0275
v  0.0180 0.0047 0.0277
v  0.0183 0.0067 0.0290
v  0.0175 0.0078 0.0323
v  0.0188 0.0102 0.0320
v  0.0212 0.0114 0.0288
v  0.0203 0.0114 0.0286
v  0.0210 0.0106 0.0268
v  0.0171 -0.0049 0.0217
v  0.0160 -0.0058 0.0227
v  0.0149 -0.0066 0.0241
v  0.0139 -0.0072 0.0257
v  0.0137 -0.0043 0.0331
v  0.0144 -0.0021 0.0344
v  0.0155 0.0016 0.0381
v  0.0141 -0.0029 0.0305
v  0.0196 0.0007 0.0205
v  0.0189 -0.0012 0.0197
v  0.0156 0.0107 0.0360
v  0.0185 0.0118 0.0299
v  0.0120 -0.0026 0.0361
v  0.0193 0.0114 0.0283
v  0.0198 0.0105 0.0267
# 140 vertices

vn 0.5949 -0.4401 0.6726
vn 0.6428 -0.4139 0.6446
vn 0.7043 -0.4354 0.5607
vn 0.6856 -0.3695 0.6273
vn 0.7464 -0.4726 0.4685
vn 0.9615 -0.2748 0.0005
vn 0.3003 0.2921 -0.9080
vn 0.9417 -0.2777 0.1900
vn 0.9524 -0.2990 0.0589
vn 0.6101 -0.4386 0.6598
vn 0.6347 -0.4078 0.6564
vn 0.7103 -0.4124 0.5704
vn 0.8299 -0.3626 0.4241
vn 0.8269 -0.3823 0.4125
vn 0.9372 -0.3078 0.1641
vn 0.9338 -0.3228 0.1545
vn 0.9798 -0.1948 -0.0447
vn 0.9725 -0.2320 -0.0187
vn 0.9616 -0.2715 0.0400
vn 0.9339 -0.3395 0.1120
vn 0.9069 -0.3835 0.1748
vn 0.0935 0.7135 0.6944
vn 0.1093 0.8765 0.4689
vn 0.0014 0.9799 0.1993
vn 0.1632 0.9840 0.0711
vn 0.0102 0.5772 -0.8165
vn 0.0008 0.4657 -0.8849
vn 0.0000 0.4607 -0.8876
vn 0.1725 0.0091 -0.9850
vn -0.0023 -0.0826 -0.9966
vn 0.0069 -0.3969 -0.9178
vn 0.0036 -0.8350 -0.5502
vn -0.0077 -0.9646 -0.2634
vn -0.0193 -0.9488 0.3153
vn 0.0057 -0.5801 0.8145
vn 0.0002 -0.4541 0.8910
vn -0.0232 -0.3434 0.9389
vn 0.0123 0.4816 0.8763
vn 0.0574 0.0318 0.9978
vn 0.0706 -0.4719 0.8788
vn 0.1110 -0.4916 0.8637
vn 0.1129 -0.8271 0.5506
vn 0.0523 -0.9970 0.0572
vn 0.1019 -0.9477 -0.3025
vn 0.1276 -0.7788 -0.6142
vn 0.6377 -0.3884 0.6652
vn 0.6300 -0.4284 0.6477
vn 0.5827 -0.4836 0.6531
vn 0.5964 -0.4439 0.6688
vn 0.6142 -0.4250 0.6649
vn 0.6477 -0.4353 0.6253
vn 0.7127 -0.4278 0.5558
vn 0.7333 -0.4276 0.5287
vn 0.8425 -0.3922 0.3692
vn 0.8466 -0.4155 0.3327
vn 0.9256 -0.3488 0.1471
vn 0.9304 -0.3552 0.0906
vn 0.9183 -0.3650 0.1531
vn 0.8619 -0.4426 0.2475
vn 0.7584 -0.4673 0.4543
vn 0.7099 -0.4495 0.5422
vn 0.1521 0.9721 -0.1785
vn 0.1527 0.9168 -0.3691
vn 0.7978 -0.4691 0.3789
vn 0.8620 -0.4286 0.2705
vn 0.8297 -0.4455 0.3365
vn 0.8319 -0.3926 0.3922
vn 0.7024 -0.4221 0.5731
vn 0.5884 -0.4571 0.6670
vn 0.6997 -0.4280 0.5721
vn 0.6003 -0.4454 0.6643
vn 0.6701 -0.3418 0.6590
vn 0.7230 -0.3216 0.6114
vn 0.8137 -0.2966 0.4999
vn 0.8595 -0.2930 0.4189
vn 0.8994 -0.3073 0.3109
vn 0.9196 -0.3330 0.2085
vn 0.9351 -0.3478 0.0673
vn 0.9451 -0.3260 -0.0216
vn 0.9543 -0.2941 -0.0538
vn 0.9575 -0.2624 -0.1201
vn 0.9717 -0.2067 -0.1143
vn 0.9850 -0.1513 -0.0824
vn 0.9835 -0.1665 -0.0712
vn 0.7550 -0.3499 0.5545
vn 0.7104 -0.3865 0.5882
vn 0.8280 -0.3254 0.4566
vn 0.9206 -0.3129 0.2335
vn 0.9308 -0.3140 0.1870
vn 0.9670 -0.2520 -0.0384
vn 0.9636 -0.2652 0.0331
vn 0.8625 -0.2997 0.4078
vn 0.9091 -0.3077 0.2808
vn 0.9735 -0.2179 -0.0697
vn 0.9743 -0.2229 -0.0317
vn 0.0006 0.4546 -0.8907
vn 0.6653 -0.3900 0.6366
vn 0.1808 0.8089 -0.5594
vn 0.0036 0.3879 -0.9217
vn 0.0001 0.7570 0.6535
vn -0.0083 0.9089 0.4169
vn 0.1243 0.9552 0.2685
vn 0.0070 0.9989 -0.0464
vn 0.1991 0.5871 -0.7847
vn 0.2100 0.4502 -0.8679
vn 0.2297 0.4245 -0.8758
vn 0.0018 0.1866 -0.9824
vn 0.1726 -0.3448 -0.9227
vn 0.1434 -0.6138 -0.7764
vn 0.0776 -0.8998 -0.4293
vn 0.0717 -0.9849 -0.1577
vn 0.0896 -0.9450 0.3145
vn 0.1247 -0.6319 0.7650
vn 0.0622 -0.4624 0.8845
vn 0.0725 -0.3578 0.9310
vn 0.0808 0.4220 0.9030
vn -0.0155 0.0922 0.9956
vn -0.0002 -0.4500 0.8930
vn 0.0006 -0.4462 0.8949
vn -0.0108 -0.7950 0.6065
vn -0.0147 -0.9999 -0.0025
vn -0.0059 -0.9077 -0.4195
vn -0.0036 -0.6573 -0.7536
vn 0.0537 0.9641 -0.2602
vn 0.0421 0.9053 -0.4227
vn 0.3339 0.3543 -0.8735
vn -0.0042 0.7574 -0.6529
vn 0.7050 -0.4747 0.5269
vn 0.6812 -0.4632 0.5669
vn 0.7433 -0.4596 0.4860
# 130 vertex normals

vt 0.0107 0.2710 0.0000
vt 0.0208 0.2711 0.0000
vt 0.0212 0.2542 0.0000
vt 0.0112 0.2512 0.0000
vt 0.0120 0.2920 0.0000
vt 0.0218 0.2887 0.0000
vt 0.0277 0.3143 0.0000
vt 0.0184 0.3197 0.0000
vt 0.0261 0.3291 0.0000
vt 0.0341 0.3227 0.0000
vt 0.0233 0.3036 0.0000
vt 0.0138 0.3063 0.0000
vt 0.0557 0.3226 0.0000
vt 0.0415 0.3219 0.0000
vt 0.0421 0.3296 0.0000
vt 0.0522 0.3351 0.0000
vt 0.1111 0.3282 0.0000
vt 0.1156 0.3162 0.0000
vt 0.0982 0.3192 0.0000
vt 0.0999 0.3351 0.0000
vt 0.9785 0.3245 0.0000
vt 0.9883 0.3245 0.0000
vt 0.9883 0.3128 0.0000
vt 0.9785 0.3128 0.0000
vt 0.0939 0.2345 0.0000
vt 0.1021 0.2223 0.0000
vt 0.0916 0.2168 0.0000
vt 0.1128 0.2358 0.0000
vt 0.0384 0.2401 0.0000
vt 0.0284 0.2314 0.0000
vt 0.0233 0.2404 0.0000
vt 0.0356 0.2249 0.0000
vt 0.0553 0.2375 0.0000
vt 0.0364 0.2555 0.0000
vt 0.0538 0.2554 0.0000
vt 0.0735 0.2542 0.0000
vt 0.0735 0.2351 0.0000
vt 0.0536 0.2750 0.0000
vt 0.0741 0.2731 0.0000
vt 0.0748 0.2902 0.0000
vt 0.0981 0.2874 0.0000
vt 0.0980 0.2709 0.0000
vt 0.0742 0.3064 0.0000
vt 0.0980 0.3042 0.0000
vt 0.1171 0.3027 0.0000
vt 0.1177 0.2856 0.0000
vt 0.1034 0.3445 0.0000
vt 0.1165 0.3341 0.0000
vt 0.0878 0.3382 0.0000
vt 0.0885 0.3494 0.0000
vt 0.0757 0.3386 0.0000
vt 0.0740 0.3501 0.0000
vt 0.9785 0.1724 0.0000
vt 0.9785 0.1862 0.0000
vt 0.9883 0.1862 0.0000
vt 0.9883 0.1724 0.0000
vt 0.9785 0.1994 0.0000
vt 0.9883 0.1994 0.0000
vt 0.9972 0.2120 0.0000
vt 0.9972 0.1994 0.0000
vt 0.9883 0.2120 0.0000
vt 0.9785 0.2120 0.0000
vt 0.9785 0.2245 0.0000
vt 0.9883 0.2245 0.0000
vt 0.9972 0.2694 0.0000
vt 0.9972 0.2586 0.0000
vt 0.9883 0.2586 0.0000
vt 0.9883 0.2694 0.0000
vt 0.9972 0.2799 0.0000
vt 0.9883 0.2799 0.0000
vt 0.9972 0.2979 0.0000
vt 0.9883 0.2979 0.0000
vt 0.9785 0.3341 0.0000
vt 0.9883 0.3341 0.0000
vt 0.9972 0.3341 0.0000
vt 0.9883 0.3432 0.0000
vt 0.9972 0.3432 0.0000
vt 0.9883 0.3511 0.0000
vt 0.9972 0.3511 0.0000
vt 0.9972 0.3637 0.0000
vt 0.9883 0.3637 0.0000
vt 0.9883 0.3763 0.0000
vt 0.9972 0.3763 0.0000
vt 0.9972 0.0327 0.0000
vt 0.9972 0.0189 0.0000
vt 0.9883 0.0189 0.0000
vt 0.9883 0.0327 0.0000
vt 0.9972 0.0595 0.0000
vt 0.9972 0.0466 0.0000
vt 0.9883 0.0466 0.0000
vt 0.9883 0.0595 0.0000
vt 0.9972 0.0815 0.0000
vt 0.9972 0.0709 0.0000
vt 0.9883 0.0709 0.0000
vt 0.9883 0.0815 0.0000
vt 0.9972 0.1254 0.0000
vt 0.9972 0.1108 0.0000
vt 0.9883 0.1108 0.0000
vt 0.9883 0.1254 0.0000
vt 0.9972 0.1414 0.0000
vt 0.9883 0.1414 0.0000
vt 0.9972 0.1724 0.0000
vt 0.9972 0.1581 0.0000
vt 0.9883 0.1581 0.0000
vt 0.9785 0.1414 0.0000
vt 0.9785 0.1581 0.0000
vt 0.9785 0.0967 0.0000
vt 0.9785 0.1108 0.0000
vt 0.9883 0.0967 0.0000
vt 0.9785 0.0815 0.0000
vt 0.9785 0.0595 0.0000
vt 0.9785 0.0709 0.0000
vt 0.9785 0.0327 0.0000
vt 0.9785 0.0466 0.0000
vt 0.9785 0.0048 0.0000
vt 0.9785 0.0189 0.0000
vt 0.9883 0.0048 0.0000
vt 0.9785 0.3637 0.0000
vt 0.9785 0.3511 0.0000
vt 0.0194 0.2238 0.0000
vt 0.0290 0.2153 0.0000
vt 0.0128 0.2354 0.0000
vt 0.0374 0.2845 0.0000
vt 0.0369 0.2721 0.0000
vt 0.0376 0.2977 0.0000
vt 0.0406 0.3109 0.0000
vt 0.0541 0.2923 0.0000
vt 0.0555 0.3081 0.0000
vt 0.0738 0.3229 0.0000
vt 0.0632 0.3375 0.0000
vt 0.0361 0.3377 0.0000
vt 0.0481 0.3440 0.0000
vt 0.9785 0.2359 0.0000
vt 0.9883 0.2359 0.0000
vt 0.9785 0.2474 0.0000
vt 0.9883 0.2474 0.0000
vt 0.0608 0.3482 0.0000
vt 0.0438 0.2197 0.0000
vt 0.0378 0.2109 0.0000
vt 0.0547 0.2161 0.0000
vt 0.0519 0.2057 0.0000
vt 0.0671 0.2142 0.0000
vt 0.0677 0.2040 0.0000
vt 0.0796 0.2144 0.0000
vt 0.0835 0.2042 0.0000
vt 0.0963 0.2067 0.0000
vt 0.1081 0.2126 0.0000
vt 0.1181 0.2230 0.0000
vt 0.1245 0.2355 0.0000
vt 0.1158 0.2515 0.0000
vt 0.1270 0.2489 0.0000
vt 0.1170 0.2692 0.0000
vt 0.1273 0.2680 0.0000
vt 0.1273 0.2856 0.0000
vt 0.1270 0.3026 0.0000
vt 0.1248 0.3191 0.0000
vt 0.0965 0.2528 0.0000
vt 0.9972 0.3128 0.0000
vt 0.9785 0.2586 0.0000
vt 0.9972 0.3245 0.0000
vt 0.9972 0.1862 0.0000
vt 0.9972 0.2245 0.0000
vt 0.9785 0.2694 0.0000
vt 0.9785 0.2799 0.0000
vt 0.9785 0.2979 0.0000
vt 0.9785 0.3432 0.0000
vt 0.9785 0.3763 0.0000
vt 0.9785 0.1254 0.0000
vt 0.9972 0.0967 0.0000
vt 0.9972 0.0048 0.0000
vt 0.9972 0.2359 0.0000
vt 0.9972 0.2474 0.0000
# 172 texture coords

g yvr_d3_left_grip
usemtl lambert2SG3
s off
f 1/1/1 2/2/1 3/3/1 4/4/1 
f 1/1/2 5/5/2 6/6/2 2/2/2 
f 7/7/3 8/8/3 9/9/3 10/10/3 
f 7/7/4 11/11/4 12/12/4 8/8/4 
f 13/13/5 14/14/5 15/15/5 16/16/5 
f 17/17/6 18/18/6 19/19/6 20/20/6 
f 21/21/7 22/22/7 23/23/7 4/24/7 
f 24/25/8 25/26/8 26/27/8 
f 25/26/9 24/25/9 27/28/9 
f 28/29/10 29/30/10 30/31/10 
f 28/29/11 31/32/11 29/30/11 
f 32/33/12 28/29/12 33/34/12 34/35/12 
f 34/35/13 35/36/13 36/37/13 32/33/13 
f 34/35/14 37/38/14 38/39/14 35/36/14 
f 38/39/15 39/40/15 40/41/15 41/42/15 
f 40/41/16 39/40/16 42/43/16 43/44/16 
f 43/44/17 44/45/17 45/46/17 40/41/17 
f 44/45/18 43/44/18 19/19/18 18/18/18 
f 20/20/19 46/47/19 47/48/19 17/17/19 
f 20/20/20 48/49/20 49/50/20 46/47/20 
f 49/50/21 48/49/21 50/51/21 51/52/21 
f 46/53/22 49/54/22 52/55/22 53/56/22 
f 49/54/23 51/57/23 54/58/23 52/55/23 
f 55/59/24 56/60/24 54/58/24 57/61/24 
f 58/62/25 59/63/25 60/64/25 57/61/25 
f 61/65/26 62/66/26 63/67/26 64/68/26 
f 65/69/27 61/65/27 64/68/27 66/70/27 
f 67/71/28 65/69/28 66/70/28 68/72/28 
f 69/73/29 70/74/29 22/22/29 21/21/29 
f 71/75/30 70/74/30 72/76/30 73/77/30 
f 73/77/31 72/76/31 74/78/31 75/79/31 
f 76/80/32 77/81/32 78/82/32 79/83/32 
f 80/84/33 81/85/33 82/86/33 83/87/33 
f 84/88/34 85/89/34 86/90/34 87/91/34 
f 88/92/35 89/93/35 90/94/35 91/95/35 
f 92/96/36 93/97/36 94/98/36 95/99/36 
f 96/100/37 92/96/37 95/99/37 97/101/37 
f 98/102/38 99/103/38 100/104/38 53/56/38 
f 101/105/39 47/106/39 100/104/39 97/101/39 
f 102/107/40 103/108/40 94/98/40 104/109/40 
f 105/110/41 102/107/41 104/109/41 91/95/41 
f 106/111/42 107/112/42 90/94/42 87/91/42 
f 108/113/43 109/114/43 86/90/43 83/87/43 
f 110/115/44 111/116/44 82/86/44 78/117/44 
f 112/118/45 77/81/45 74/78/45 113/119/45 
f 69/120/46 29/30/46 31/32/46 114/121/46 
f 69/120/47 21/122/47 30/31/47 29/30/47 
f 30/31/48 21/122/48 4/4/48 3/3/48 
f 6/6/49 115/123/49 116/124/49 2/2/49 
f 6/6/50 11/11/50 117/125/50 115/123/50 
f 117/125/51 11/11/51 7/7/51 118/126/51 
f 117/125/52 119/127/52 37/38/52 115/123/52 
f 117/125/53 118/126/53 120/128/53 119/127/53 
f 120/128/54 42/43/54 39/40/54 119/127/54 
f 42/43/55 120/128/55 13/13/55 121/129/55 
f 121/129/56 19/19/56 43/44/56 42/43/56 
f 19/19/57 48/49/57 20/20/57 
f 19/19/58 121/129/58 50/51/58 48/49/58 
f 50/51/59 121/129/59 122/130/59 
f 15/15/60 123/131/60 59/132/60 16/16/60 
f 15/15/61 10/10/61 9/9/61 123/131/61 
f 59/63/62 123/133/62 124/134/62 60/64/62 
f 123/133/63 9/135/63 125/136/63 124/134/63 
f 59/132/64 58/137/64 122/130/64 16/16/64 
f 122/130/65 58/137/65 51/52/65 50/51/65 
f 16/16/66 122/130/66 121/129/66 13/13/66 
f 119/127/67 39/40/67 38/39/67 37/38/67 
f 37/38/68 116/124/68 115/123/68 
f 116/124/69 33/34/69 3/3/69 2/2/69 
f 116/124/70 37/38/70 34/35/70 33/34/70 
f 3/3/71 33/34/71 28/29/71 30/31/71 
f 126/138/72 113/139/72 114/121/72 31/32/72 
f 126/138/73 127/140/73 112/141/73 113/139/73 
f 112/141/74 127/140/74 128/142/74 110/143/74 
f 128/142/75 129/144/75 111/145/75 110/143/75 
f 111/145/76 129/144/76 26/27/76 108/146/76 
f 26/27/77 25/26/77 109/147/77 108/146/77 
f 109/147/78 25/26/78 27/28/78 106/148/78 
f 27/28/79 107/149/79 106/148/79 
f 107/149/80 27/28/80 130/150/80 105/151/80 
f 130/150/81 131/152/81 102/153/81 105/151/81 
f 131/152/82 45/46/82 103/154/82 102/153/82 
f 103/154/83 45/46/83 44/45/83 132/155/83 
f 44/45/84 18/18/84 101/156/84 132/155/84 
f 126/138/85 32/33/85 127/140/85 
f 126/138/86 31/32/86 28/29/86 32/33/86 
f 32/33/87 36/37/87 128/142/87 127/140/87 
f 36/37/88 35/36/88 133/157/88 24/25/88 
f 133/157/89 35/36/89 38/39/89 41/42/89 
f 41/42/90 131/152/90 130/150/90 133/157/90 
f 133/157/91 130/150/91 27/28/91 24/25/91 
f 36/37/92 129/144/92 128/142/92 
f 36/37/93 24/25/93 26/27/93 129/144/93 
f 131/152/94 41/42/94 40/41/94 45/46/94 
f 101/156/95 18/18/95 17/17/95 47/48/95 
f 23/23/96 134/158/96 67/71/96 68/72/96 
f 11/11/97 6/6/97 5/5/97 12/12/97 
f 9/135/98 8/159/98 63/67/98 125/136/98 
f 134/158/99 23/23/99 22/22/99 135/160/99 
f 53/56/100 52/55/100 136/161/100 98/102/100 
f 52/55/101 54/58/101 56/60/101 136/161/101 
f 57/61/102 54/58/102 51/57/102 58/62/102 
f 57/61/103 60/64/103 137/162/103 55/59/103 
f 64/68/104 63/67/104 8/159/104 12/163/104 
f 66/70/105 64/68/105 12/163/105 5/164/105 
f 1/165/106 68/72/106 66/70/106 5/164/106 
f 135/160/107 22/22/107 70/74/107 71/75/107 
f 114/166/108 72/76/108 70/74/108 69/73/108 
f 113/119/109 74/78/109 72/76/109 114/166/109 
f 110/167/110 78/82/110 77/81/110 112/118/110 
f 83/87/111 82/86/111 111/116/111 108/113/111 
f 87/91/112 86/90/112 109/114/112 106/111/112 
f 91/95/113 90/94/113 107/112/113 105/110/113 
f 95/99/114 94/98/114 103/108/114 132/168/114 
f 97/101/115 95/99/115 132/168/115 101/105/115 
f 46/53/116 53/56/116 100/104/116 47/106/116 
f 97/101/117 100/104/117 99/103/117 96/100/117 
f 104/109/118 94/98/118 93/97/118 138/169/118 
f 91/95/119 104/109/119 138/169/119 88/92/119 
f 87/91/120 90/94/120 89/93/120 84/88/120 
f 83/87/121 86/90/121 85/89/121 80/84/121 
f 78/117/122 82/86/122 81/85/122 79/170/122 
f 75/79/123 74/78/123 77/81/123 76/80/123 
f 60/64/124 124/134/124 139/171/124 137/162/124 
f 124/134/125 125/136/125 140/172/125 139/171/125 
f 4/24/126 23/23/126 68/72/126 1/165/126 
f 125/136/127 63/67/127 62/66/127 140/172/127 
f 15/15/128 14/14/128 10/10/128 
f 10/10/129 14/14/129 118/126/129 7/7/129 
f 118/126/130 14/14/130 13/13/130 120/128/130 
# 119 polygons - 11 triangles

