# 3ds Max Wavefront OBJ Exporter v0.97b - (c)2007 guruware
# File Created: 26.12.2024 12:46:52

mtllib yvr_d3_left_Xbutton.mtl

#
# object yvr_d3_left_Xbutton
#

v  0.0110 0.0111 -0.0020
v  0.0123 0.0118 -0.0014
v  0.0130 0.0115 -0.0021
v  0.0121 0.0106 -0.0031
v  0.0139 0.0113 -0.0025
v  0.0135 0.0103 -0.0037
v  0.0149 0.0113 -0.0025
v  0.0152 0.0103 -0.0038
v  0.0158 0.0115 -0.0022
v  0.0167 0.0106 -0.0033
v  0.0166 0.0118 -0.0016
v  0.0179 0.0111 -0.0023
v  0.0170 0.0122 -0.0008
v  0.0186 0.0117 -0.0010
v  0.0171 0.0126 0.0001
v  0.0186 0.0124 0.0005
v  0.0167 0.0130 0.0010
v  0.0181 0.0131 0.0019
v  0.0160 0.0133 0.0017
v  0.0170 0.0136 0.0030
v  0.0151 0.0135 0.0020
v  0.0155 0.0139 0.0036
v  0.0141 0.0135 0.0021
v  0.0139 0.0139 0.0037
v  0.0132 0.0133 0.0018
v  0.0123 0.0136 0.0032
v  0.0124 0.0130 0.0012
v  0.0111 0.0131 0.0022
v  0.0120 0.0126 0.0004
v  0.0105 0.0125 0.0009
v  0.0120 0.0122 -0.0006
v  0.0104 0.0118 -0.0006
v  0.0145 0.0126 -0.0003
v  0.0100 0.0103 -0.0022
v  0.0093 0.0111 -0.0004
v  0.0095 0.0114 -0.0005
v  0.0102 0.0106 -0.0022
v  0.0115 0.0100 -0.0035
v  0.0114 0.0097 -0.0035
v  0.0133 0.0097 -0.0043
v  0.0133 0.0093 -0.0043
v  0.0153 0.0097 -0.0044
v  0.0153 0.0093 -0.0044
v  0.0171 0.0100 -0.0038
v  0.0172 0.0096 -0.0038
v  0.0186 0.0106 -0.0026
v  0.0188 0.0102 -0.0025
v  0.0194 0.0113 -0.0010
v  0.0196 0.0111 -0.0009
v  0.0195 0.0122 0.0008
v  0.0197 0.0119 0.0010
v  0.0188 0.0130 0.0025
v  0.0190 0.0128 0.0027
v  0.0175 0.0136 0.0038
v  0.0176 0.0134 0.0041
v  0.0157 0.0140 0.0046
v  0.0158 0.0138 0.0049
v  0.0137 0.0140 0.0046
v  0.0137 0.0138 0.0050
v  0.0119 0.0137 0.0040
v  0.0118 0.0135 0.0044
v  0.0104 0.0131 0.0028
v  0.0103 0.0129 0.0031
v  0.0096 0.0123 0.0012
v  0.0094 0.0120 0.0014
v  0.0100 0.0080 -0.0008
v  0.0114 0.0073 -0.0022
v  0.0133 0.0070 -0.0030
v  0.0153 0.0069 -0.0031
v  0.0172 0.0073 -0.0024
v  0.0188 0.0079 -0.0012
v  0.0196 0.0087 0.0005
v  0.0197 0.0096 0.0023
v  0.0190 0.0104 0.0041
v  0.0176 0.0111 0.0055
v  0.0158 0.0114 0.0063
v  0.0137 0.0115 0.0063
v  0.0118 0.0111 0.0057
v  0.0103 0.0105 0.0045
v  0.0094 0.0097 0.0028
v  0.0093 0.0088 0.0009
# 81 vertices

vn -0.1693 0.8160 -0.5527
vn -0.1023 0.7949 -0.5981
vn -0.0207 0.7868 -0.6168
vn 0.0623 0.7933 -0.6057
vn 0.1340 0.8132 -0.5663
vn 0.1828 0.8433 -0.5055
vn 0.2014 0.8788 -0.4326
vn 0.1875 0.9142 -0.3592
vn 0.1437 0.9442 -0.2965
vn 0.0771 0.9643 -0.2533
vn -0.0023 0.9717 -0.2360
vn -0.0830 0.9655 -0.2469
vn -0.1531 0.9465 -0.2842
vn -0.2022 0.9174 -0.3429
vn -0.2229 0.8824 -0.4143
vn -0.2115 0.8468 -0.4880
vn -0.0713 0.8739 -0.4809
vn -0.0459 0.8661 -0.4978
vn -0.0152 0.8631 -0.5048
vn 0.0161 0.8655 -0.5006
vn 0.0432 0.8730 -0.4858
vn 0.0617 0.8842 -0.4630
vn 0.0691 0.8976 -0.4353
vn 0.0641 0.9110 -0.4074
vn 0.0477 0.9224 -0.3833
vn 0.0222 0.9301 -0.3666
vn -0.0081 0.9330 -0.3599
vn -0.0391 0.9305 -0.3641
vn -0.0659 0.9233 -0.3785
vn -0.0846 0.9121 -0.4011
vn -0.0922 0.8989 -0.4284
vn -0.0875 0.8854 -0.4564
vn -0.7867 0.3708 -0.4935
vn -0.6265 0.2354 -0.7430
vn -0.3653 0.1398 -0.9203
vn -0.0432 0.1012 -0.9939
vn 0.2865 0.1268 -0.9496
vn 0.5683 0.2123 -0.7949
vn 0.7564 0.3426 -0.5573
vn 0.8231 0.4956 -0.2773
vn 0.7627 0.6467 -0.0000
vn 0.5893 0.7735 0.2334
vn 0.3314 0.8587 0.3911
vn 0.0275 0.8911 0.4529
vn -0.2799 0.8673 0.4117
vn -0.5484 0.7904 0.2729
vn -0.7399 0.6704 0.0549
vn -0.8248 0.5236 -0.2133
vn -0.7365 -0.3382 -0.5858
vn -0.4216 -0.4534 -0.7853
vn -0.0425 -0.4995 -0.8652
vn 0.3431 -0.4697 -0.8135
vn 0.6764 -0.3682 -0.6378
vn 0.9068 -0.2108 -0.3651
vn 0.9991 -0.0212 -0.0368
vn 0.9393 0.1716 0.2971
vn 0.7365 0.3382 0.5858
vn 0.4216 0.4534 0.7853
vn 0.0425 0.4995 0.8652
vn -0.3431 0.4697 0.8135
vn -0.6764 0.3682 0.6378
vn -0.9068 0.2108 0.3651
vn -0.9991 0.0212 0.0368
vn -0.9393 -0.1715 -0.2971
vn -0.2814 0.7282 -0.6249
vn -0.1671 0.6910 -0.7033
vn -0.0269 0.6767 -0.7358
vn 0.1162 0.6877 -0.7166
vn 0.2391 0.7225 -0.6487
vn 0.3218 0.7750 -0.5439
vn 0.3524 0.8366 -0.4194
vn 0.3273 0.8977 -0.2950
vn 0.2520 0.9490 -0.1893
vn 0.1387 0.9834 -0.1173
vn 0.0044 0.9960 -0.0887
vn -0.1317 0.9855 -0.1070
vn -0.2503 0.9532 -0.1696
vn -0.3342 0.9036 -0.2681
vn -0.3705 0.8436 -0.3887
vn -0.3525 0.7820 -0.5140
# 80 vertex normals

vt 0.6010 0.6476 0.0000
vt 0.6099 0.6420 0.0000
vt 0.6144 0.6466 0.0000
vt 0.6084 0.6552 0.0000
vt 0.6204 0.6492 0.0000
vt 0.6182 0.6594 0.0000
vt 0.6268 0.6492 0.0000
vt 0.6288 0.6595 0.0000
vt 0.6328 0.6468 0.0000
vt 0.6386 0.6555 0.0000
vt 0.6375 0.6423 0.0000
vt 0.6461 0.6481 0.0000
vt 0.6400 0.6363 0.0000
vt 0.6503 0.6383 0.0000
vt 0.6401 0.6298 0.0000
vt 0.6504 0.6277 0.0000
vt 0.6376 0.6238 0.0000
vt 0.6464 0.6178 0.0000
vt 0.6331 0.6191 0.0000
vt 0.6390 0.6102 0.0000
vt 0.6271 0.6166 0.0000
vt 0.6293 0.6061 0.0000
vt 0.6207 0.6165 0.0000
vt 0.6187 0.6060 0.0000
vt 0.6147 0.6189 0.0000
vt 0.6089 0.6099 0.0000
vt 0.6100 0.6235 0.0000
vt 0.6013 0.6173 0.0000
vt 0.6075 0.6295 0.0000
vt 0.5971 0.6271 0.0000
vt 0.6074 0.6360 0.0000
vt 0.5970 0.6377 0.0000
vt 0.6238 0.6330 0.0000
vt 0.5937 0.6520 0.0000
vt 0.5886 0.6390 0.0000
vt 0.5910 0.6387 0.0000
vt 0.5959 0.6508 0.0000
vt 0.6050 0.6600 0.0000
vt 0.6035 0.6620 0.0000
vt 0.6169 0.6652 0.0000
vt 0.6163 0.6675 0.0000
vt 0.6299 0.6653 0.0000
vt 0.6303 0.6677 0.0000
vt 0.6419 0.6605 0.0000
vt 0.6433 0.6624 0.0000
vt 0.6511 0.6514 0.0000
vt 0.6532 0.6526 0.0000
vt 0.6562 0.6394 0.0000
vt 0.6586 0.6398 0.0000
vt 0.6563 0.6264 0.0000
vt 0.6587 0.6258 0.0000
vt 0.6515 0.6143 0.0000
vt 0.6535 0.6128 0.0000
vt 0.6424 0.6051 0.0000
vt 0.6437 0.6029 0.0000
vt 0.6305 0.6000 0.0000
vt 0.6309 0.5974 0.0000
vt 0.6175 0.5998 0.0000
vt 0.6171 0.5973 0.0000
vt 0.6055 0.6047 0.0000
vt 0.6042 0.6025 0.0000
vt 0.5963 0.6137 0.0000
vt 0.5942 0.6122 0.0000
vt 0.5912 0.6257 0.0000
vt 0.5887 0.6250 0.0000
vt 0.9336 0.9386 0.0000
vt 0.9446 0.9386 0.0000
vt 0.9446 0.9303 0.0000
vt 0.9336 0.9303 0.0000
vt 0.9446 0.9219 0.0000
vt 0.9336 0.9219 0.0000
vt 0.9446 0.9135 0.0000
vt 0.9336 0.9135 0.0000
vt 0.9446 0.9052 0.0000
vt 0.9336 0.9052 0.0000
vt 0.9446 0.8968 0.0000
vt 0.9336 0.8968 0.0000
vt 0.9446 0.8885 0.0000
vt 0.9336 0.8885 0.0000
vt 0.9446 0.8801 0.0000
vt 0.9336 0.8801 0.0000
vt 0.9446 0.8717 0.0000
vt 0.9336 0.8717 0.0000
vt 0.9446 0.8634 0.0000
vt 0.9336 0.8634 0.0000
vt 0.9336 0.9971 0.0000
vt 0.9446 0.9971 0.0000
vt 0.9446 0.9888 0.0000
vt 0.9336 0.9888 0.0000
vt 0.9446 0.9804 0.0000
vt 0.9336 0.9804 0.0000
vt 0.9446 0.9721 0.0000
vt 0.9336 0.9721 0.0000
vt 0.9446 0.9637 0.0000
vt 0.9336 0.9637 0.0000
vt 0.9446 0.9553 0.0000
vt 0.9336 0.9553 0.0000
vt 0.9446 0.9470 0.0000
vt 0.9336 0.9470 0.0000
# 99 texture coords

g yvr_d3_left_Xbutton
usemtl lambert2SG3
s off
f 1/1/1 2/2/1 3/3/1 4/4/1 
f 4/4/2 3/3/2 5/5/2 6/6/2 
f 6/6/3 5/5/3 7/7/3 8/8/3 
f 8/8/4 7/7/4 9/9/4 10/10/4 
f 10/10/5 9/9/5 11/11/5 12/12/5 
f 12/12/6 11/11/6 13/13/6 14/14/6 
f 14/14/7 13/13/7 15/15/7 16/16/7 
f 16/16/8 15/15/8 17/17/8 18/18/8 
f 18/18/9 17/17/9 19/19/9 20/20/9 
f 20/20/10 19/19/10 21/21/10 22/22/10 
f 22/22/11 21/21/11 23/23/11 24/24/11 
f 24/24/12 23/23/12 25/25/12 26/26/12 
f 26/26/13 25/25/13 27/27/13 28/28/13 
f 28/28/14 27/27/14 29/29/14 30/30/14 
f 30/30/15 29/29/15 31/31/15 32/32/15 
f 32/32/16 31/31/16 2/2/16 1/1/16 
f 2/2/17 33/33/17 3/3/17 
f 3/3/18 33/33/18 5/5/18 
f 5/5/19 33/33/19 7/7/19 
f 7/7/20 33/33/20 9/9/20 
f 9/9/21 33/33/21 11/11/21 
f 11/11/22 33/33/22 13/13/22 
f 13/13/23 33/33/23 15/15/23 
f 15/15/24 33/33/24 17/17/24 
f 17/17/25 33/33/25 19/19/25 
f 19/19/26 33/33/26 21/21/26 
f 21/21/27 33/33/27 23/23/27 
f 23/23/28 33/33/28 25/25/28 
f 25/25/29 33/33/29 27/27/29 
f 27/27/30 33/33/30 29/29/30 
f 29/29/31 33/33/31 31/31/31 
f 31/31/32 33/33/32 2/2/32 
f 34/34/33 35/35/33 36/36/33 37/37/33 
f 37/37/34 38/38/34 39/39/34 34/34/34 
f 38/38/35 40/40/35 41/41/35 39/39/35 
f 40/40/36 42/42/36 43/43/36 41/41/36 
f 42/42/37 44/44/37 45/45/37 43/43/37 
f 44/44/38 46/46/38 47/47/38 45/45/38 
f 46/46/39 48/48/39 49/49/39 47/47/39 
f 48/48/40 50/50/40 51/51/40 49/49/40 
f 50/50/41 52/52/41 53/53/41 51/51/41 
f 52/52/42 54/54/42 55/55/42 53/53/42 
f 54/54/43 56/56/43 57/57/43 55/55/43 
f 56/56/44 58/58/44 59/59/44 57/57/44 
f 58/58/45 60/60/45 61/61/45 59/59/45 
f 60/60/46 62/62/46 63/63/46 61/61/46 
f 62/62/47 64/64/47 65/65/47 63/63/47 
f 64/64/48 36/36/48 35/35/48 65/65/48 
f 66/66/49 34/67/49 39/68/49 67/69/49 
f 67/69/50 39/68/50 41/70/50 68/71/50 
f 68/71/51 41/70/51 43/72/51 69/73/51 
f 69/73/52 43/72/52 45/74/52 70/75/52 
f 70/75/53 45/74/53 47/76/53 71/77/53 
f 71/77/54 47/76/54 49/78/54 72/79/54 
f 72/79/55 49/78/55 51/80/55 73/81/55 
f 73/81/56 51/80/56 53/82/56 74/83/56 
f 74/83/57 53/82/57 55/84/57 75/85/57 
f 75/86/58 55/87/58 57/88/58 76/89/58 
f 57/88/59 59/90/59 77/91/59 76/89/59 
f 77/91/60 59/90/60 61/92/60 78/93/60 
f 78/93/61 61/92/61 63/94/61 79/95/61 
f 79/95/62 63/94/62 65/96/62 80/97/62 
f 80/97/63 65/96/63 35/98/63 81/99/63 
f 81/99/64 35/98/64 34/67/64 66/66/64 
f 37/37/65 1/1/65 4/4/65 38/38/65 
f 38/38/66 4/4/66 6/6/66 40/40/66 
f 40/40/67 6/6/67 8/8/67 42/42/67 
f 42/42/68 8/8/68 10/10/68 44/44/68 
f 44/44/69 10/10/69 12/12/69 46/46/69 
f 46/46/70 12/12/70 14/14/70 48/48/70 
f 48/48/71 14/14/71 16/16/71 50/50/71 
f 50/50/72 16/16/72 18/18/72 52/52/72 
f 52/52/73 18/18/73 20/20/73 54/54/73 
f 54/54/74 20/20/74 22/22/74 56/56/74 
f 56/56/75 22/22/75 24/24/75 58/58/75 
f 58/58/76 24/24/76 26/26/76 60/60/76 
f 60/60/77 26/26/77 28/28/77 62/62/77 
f 62/62/78 28/28/78 30/30/78 64/64/78 
f 64/64/79 30/30/79 32/32/79 36/36/79 
f 36/36/80 32/32/80 1/1/80 37/37/80 
# 64 polygons - 16 triangles

