# 3ds Max Wavefront OBJ Exporter v0.97b - (c)2007 guruware
# File Created: 26.12.2024 12:46:18

mtllib yvr_d3_left_home.mtl

#
# object yvr_d3_left_home
#

v  0.0010 0.0104 -0.0003
v  -0.0016 0.0115 0.0033
v  0.0018 0.0107 0.0003
v  0.0023 0.0110 0.0011
v  -0.0010 0.0102 -0.0011
v  0.0001 0.0103 -0.0008
v  -0.0026 0.0102 -0.0011
v  -0.0037 0.0104 -0.0007
v  -0.0054 0.0111 0.0008
v  -0.0046 0.0107 -0.0001
v  -0.0061 0.0118 0.0027
v  -0.0059 0.0115 0.0018
v  0.0026 0.0113 0.0018
v  0.0028 0.0115 0.0025
v  -0.0057 0.0125 0.0048
v  -0.0060 0.0121 0.0037
v  -0.0039 0.0131 0.0068
v  -0.0050 0.0128 0.0058
v  -0.0024 0.0132 0.0073
v  0.0013 0.0129 0.0064
v  0.0005 0.0131 0.0069
v  -0.0009 0.0132 0.0074
v  0.0021 0.0126 0.0056
v  0.0029 0.0118 0.0033
v  0.0028 0.0121 0.0041
v  0.0025 0.0124 0.0049
v  0.0018 0.0094 0.0007
v  0.0011 0.0092 0.0001
v  0.0024 0.0097 0.0015
v  0.0001 0.0090 -0.0004
v  -0.0010 0.0089 -0.0007
v  -0.0026 0.0090 -0.0007
v  -0.0038 0.0092 -0.0003
v  -0.0048 0.0095 0.0003
v  -0.0055 0.0098 0.0012
v  -0.0060 0.0103 0.0023
v  -0.0062 0.0106 0.0031
v  0.0029 0.0103 0.0029
v  0.0027 0.0100 0.0022
v  -0.0061 0.0109 0.0041
v  -0.0058 0.0113 0.0053
v  -0.0051 0.0116 0.0063
v  -0.0040 0.0119 0.0073
v  -0.0025 0.0120 0.0078
v  0.0006 0.0119 0.0074
v  0.0014 0.0117 0.0068
v  -0.0009 0.0120 0.0079
v  0.0021 0.0114 0.0061
v  0.0029 0.0109 0.0045
v  0.0030 0.0106 0.0037
v  0.0026 0.0112 0.0053
# 51 vertices

vn -0.0527 0.9464 -0.3186
vn -0.0638 0.9418 -0.3299
vn -0.0099 0.9564 -0.2919
vn 0.0239 0.9575 -0.2876
vn 0.0732 0.9520 -0.2971
vn 0.1034 0.9421 -0.3188
vn 0.1061 0.9422 -0.3178
vn -0.0658 0.9425 -0.3277
vn -0.0709 0.9372 -0.3415
vn -0.0152 0.9557 -0.2939
vn 0.1051 0.9350 -0.3388
vn 0.0868 0.9263 -0.3667
vn 0.0480 0.9198 -0.3894
vn -0.0509 0.9241 -0.3787
vn 0.0170 0.9184 -0.3952
vn -0.0610 0.9269 -0.3704
vn -0.0699 0.9339 -0.3506
vn -0.0659 0.9278 -0.3673
vn -0.0706 0.9313 -0.3574
vn -0.0699 0.9335 -0.3516
vn 0.0818 0.9501 -0.3012
vn 0.1092 0.9387 -0.3270
vn 0.0982 0.9302 -0.3537
vn 0.1069 0.9392 -0.3263
vn -0.0340 0.9213 -0.3875
vn 0.6792 -0.2008 -0.7059
vn 0.8214 -0.1374 -0.5535
vn 0.2844 -0.2793 -0.9171
vn -0.0296 -0.2922 -0.9559
vn -0.3457 -0.2603 -0.9015
vn -0.7719 -0.1320 -0.6219
vn -0.9789 0.0375 -0.2010
vn 0.9645 -0.0224 -0.2632
vn 0.9242 -0.0653 -0.3762
vn 0.4711 -0.2539 -0.8447
vn -0.9537 0.1865 0.2357
vn -0.6607 0.3233 0.6774
vn -0.3567 0.3746 0.8558
vn 0.5748 0.3377 0.7454
vn -0.0283 0.3913 0.9198
vn 0.7436 0.2906 0.6022
vn 0.9894 0.1109 0.0933
vn 0.9397 0.1831 0.2889
vn 0.8754 0.2313 0.4245
vn 0.9959 0.0472 -0.0766
vn -0.5725 -0.2076 -0.7932
vn -0.9128 -0.0407 -0.4063
vn -0.8432 0.2616 0.4697
vn -0.9941 0.1085 0.0031
vn 0.3377 0.3731 0.8642
# 50 vertex normals

vt 0.0547 0.5816 0.0000
vt 0.0339 0.5605 0.0000
vt 0.0587 0.5764 0.0000
vt 0.0614 0.5707 0.0000
vt 0.0426 0.5890 0.0000
vt 0.0494 0.5857 0.0000
vt 0.0325 0.5904 0.0000
vt 0.0247 0.5889 0.0000
vt 0.0122 0.5805 0.0000
vt 0.0180 0.5857 0.0000
vt 0.0057 0.5679 0.0000
vt 0.0078 0.5738 0.0000
vt 0.0626 0.5653 0.0000
vt 0.0630 0.5602 0.0000
vt 0.0058 0.5532 0.0000
vt 0.0048 0.5612 0.0000
vt 0.0149 0.5384 0.0000
vt 0.0089 0.5457 0.0000
vt 0.0238 0.5331 0.0000
vt 0.0491 0.5357 0.0000
vt 0.0434 0.5329 0.0000
vt 0.0337 0.5312 0.0000
vt 0.0545 0.5400 0.0000
vt 0.0624 0.5548 0.0000
vt 0.0608 0.5495 0.0000
vt 0.0580 0.5444 0.0000
vt 0.7468 0.6705 0.0000
vt 0.7404 0.6755 0.0000
vt 0.7463 0.6814 0.0000
vt 0.7513 0.6751 0.0000
vt 0.7437 0.6653 0.0000
vt 0.7362 0.6689 0.0000
vt 0.7569 0.6785 0.0000
vt 0.7533 0.6862 0.0000
vt 0.7624 0.6891 0.0000
vt 0.7639 0.6810 0.0000
vt 0.7751 0.6891 0.0000
vt 0.7739 0.6812 0.0000
vt 0.7848 0.6865 0.0000
vt 0.7813 0.6789 0.0000
vt 0.7874 0.6751 0.0000
vt 0.7925 0.6811 0.0000
vt 0.7993 0.6740 0.0000
vt 0.7925 0.6694 0.0000
vt 0.7960 0.6623 0.0000
vt 0.8040 0.6652 0.0000
vt 0.8057 0.6574 0.0000
vt 0.7974 0.6564 0.0000
vt 0.7408 0.6553 0.0000
vt 0.7328 0.6561 0.0000
vt 0.7337 0.6624 0.0000
vt 0.7419 0.6601 0.0000
vt 0.7975 0.6499 0.0000
vt 0.8057 0.6489 0.0000
vt 0.8033 0.6391 0.0000
vt 0.7957 0.6422 0.0000
vt 0.7919 0.6353 0.0000
vt 0.7984 0.6303 0.0000
vt 0.7897 0.6222 0.0000
vt 0.7853 0.6287 0.0000
vt 0.7781 0.6164 0.0000
vt 0.7760 0.6246 0.0000
vt 0.7569 0.6266 0.0000
vt 0.7535 0.6191 0.0000
vt 0.7465 0.6232 0.0000
vt 0.7517 0.6299 0.0000
vt 0.7653 0.6159 0.0000
vt 0.7661 0.6238 0.0000
vt 0.7406 0.6298 0.0000
vt 0.7469 0.6347 0.0000
vt 0.7418 0.6447 0.0000
vt 0.7341 0.6424 0.0000
vt 0.7326 0.6492 0.0000
vt 0.7409 0.6500 0.0000
vt 0.7440 0.6394 0.0000
vt 0.7366 0.6355 0.0000
# 76 texture coords

g yvr_d3_left_home
usemtl lambert2SG3
s off
f 1/1/1 2/2/1 3/3/1 
f 3/3/2 2/2/2 4/4/2 
f 5/5/3 2/2/3 6/6/3 
f 7/7/4 2/2/4 5/5/4 
f 8/8/5 2/2/5 7/7/5 
f 9/9/6 2/2/6 10/10/6 
f 11/11/7 2/2/7 12/12/7 
f 13/13/8 2/2/8 14/14/8 
f 4/4/9 2/2/9 13/13/9 
f 6/6/10 2/2/10 1/1/10 
f 15/15/11 2/2/11 16/16/11 
f 17/17/12 2/2/12 18/18/12 
f 19/19/13 2/2/13 17/17/13 
f 20/20/14 2/2/14 21/21/14 
f 22/22/15 2/2/15 19/19/15 
f 23/23/16 2/2/16 20/20/16 
f 24/24/17 2/2/17 25/25/17 
f 25/25/18 2/2/18 26/26/18 
f 26/26/19 2/2/19 23/23/19 
f 14/14/20 2/2/20 24/24/20 
f 10/10/21 2/2/21 8/8/21 
f 12/12/22 2/2/22 9/9/22 
f 18/18/23 2/2/23 15/15/23 
f 16/16/24 2/2/24 11/11/24 
f 21/21/25 2/2/25 22/22/25 
f 3/27/26 27/28/26 28/29/26 1/30/26 
f 4/31/27 29/32/27 27/28/27 3/27/27 
f 6/33/28 30/34/28 31/35/28 5/36/28 
f 5/36/29 31/35/29 32/37/29 7/38/29 
f 7/38/30 32/37/30 33/39/30 8/40/30 
f 10/41/31 34/42/31 35/43/31 9/44/31 
f 12/45/32 36/46/32 37/47/32 11/48/32 
f 14/49/33 38/50/33 39/51/33 13/52/33 
f 13/52/34 39/51/34 29/32/34 4/31/34 
f 1/30/35 28/29/35 30/34/35 6/33/35 
f 16/53/36 40/54/36 41/55/36 15/56/36 
f 18/57/37 42/58/37 43/59/37 17/60/37 
f 17/60/38 43/59/38 44/61/38 19/62/38 
f 21/63/39 45/64/39 46/65/39 20/66/39 
f 19/62/40 44/61/40 47/67/40 22/68/40 
f 20/66/41 46/65/41 48/69/41 23/70/41 
f 25/71/42 49/72/42 50/73/42 24/74/42 
f 26/75/43 51/76/43 49/72/43 25/71/43 
f 23/70/44 48/69/44 51/76/44 26/75/44 
f 24/74/45 50/73/45 38/50/45 14/49/45 
f 8/40/46 33/39/46 34/42/46 10/41/46 
f 9/44/47 35/43/47 36/46/47 12/45/47 
f 15/56/48 41/55/48 42/58/48 18/57/48 
f 11/48/49 37/47/49 40/54/49 16/53/49 
f 22/68/50 47/67/50 45/64/50 21/63/50 
# 25 polygons - 25 triangles

