# 3ds Max Wavefront OBJ Exporter v0.97b - (c)2007 guruware
# File Created: 26.12.2024 12:47:12

mtllib yvr_d3_left_Ybutton.mtl

#
# object yvr_d3_left_Ybutton
#

v  0.0186 0.0045 -0.0134
v  0.0200 0.0052 -0.0128
v  0.0207 0.0048 -0.0134
v  0.0197 0.0039 -0.0144
v  0.0216 0.0045 -0.0138
v  0.0212 0.0034 -0.0149
v  0.0226 0.0044 -0.0138
v  0.0228 0.0033 -0.0150
v  0.0235 0.0046 -0.0135
v  0.0243 0.0035 -0.0144
v  0.0242 0.0049 -0.0128
v  0.0255 0.0040 -0.0135
v  0.0247 0.0053 -0.0121
v  0.0262 0.0048 -0.0122
v  0.0247 0.0058 -0.0112
v  0.0263 0.0056 -0.0108
v  0.0244 0.0063 -0.0104
v  0.0257 0.0064 -0.0095
v  0.0237 0.0067 -0.0098
v  0.0246 0.0070 -0.0085
v  0.0228 0.0070 -0.0094
v  0.0232 0.0074 -0.0079
v  0.0218 0.0070 -0.0094
v  0.0215 0.0076 -0.0079
v  0.0208 0.0069 -0.0097
v  0.0200 0.0073 -0.0084
v  0.0201 0.0066 -0.0103
v  0.0188 0.0068 -0.0094
v  0.0197 0.0062 -0.0111
v  0.0181 0.0061 -0.0107
v  0.0196 0.0057 -0.0120
v  0.0181 0.0053 -0.0121
v  0.0222 0.0059 -0.0117
v  0.0177 0.0037 -0.0136
v  0.0170 0.0047 -0.0119
v  0.0172 0.0050 -0.0121
v  0.0179 0.0040 -0.0136
v  0.0192 0.0032 -0.0148
v  0.0191 0.0029 -0.0148
v  0.0210 0.0027 -0.0155
v  0.0209 0.0024 -0.0155
v  0.0229 0.0026 -0.0155
v  0.0230 0.0022 -0.0156
v  0.0248 0.0029 -0.0149
v  0.0249 0.0025 -0.0149
v  0.0262 0.0035 -0.0137
v  0.0264 0.0031 -0.0137
v  0.0271 0.0043 -0.0122
v  0.0273 0.0040 -0.0120
v  0.0272 0.0053 -0.0105
v  0.0274 0.0051 -0.0103
v  0.0265 0.0063 -0.0089
v  0.0267 0.0061 -0.0086
v  0.0252 0.0071 -0.0077
v  0.0253 0.0069 -0.0074
v  0.0234 0.0076 -0.0070
v  0.0234 0.0074 -0.0067
v  0.0214 0.0077 -0.0070
v  0.0214 0.0076 -0.0066
v  0.0196 0.0075 -0.0076
v  0.0194 0.0073 -0.0073
v  0.0181 0.0068 -0.0088
v  0.0179 0.0066 -0.0085
v  0.0173 0.0060 -0.0104
v  0.0171 0.0057 -0.0102
v  0.0177 0.0014 -0.0122
v  0.0191 0.0005 -0.0135
v  0.0209 0.0000 -0.0142
v  0.0230 -0.0001 -0.0142
v  0.0249 0.0001 -0.0136
v  0.0264 0.0008 -0.0123
v  0.0273 0.0017 -0.0107
v  0.0274 0.0027 -0.0089
v  0.0267 0.0037 -0.0073
v  0.0253 0.0045 -0.0060
v  0.0234 0.0051 -0.0053
v  0.0214 0.0052 -0.0053
v  0.0194 0.0049 -0.0059
v  0.0179 0.0043 -0.0072
v  0.0171 0.0034 -0.0088
v  0.0170 0.0024 -0.0106
# 81 vertices

vn -0.1058 0.7751 -0.6230
vn -0.0382 0.7476 -0.6631
vn 0.0424 0.7346 -0.6772
vn 0.1239 0.7378 -0.6635
vn 0.1937 0.7568 -0.6243
vn 0.2418 0.7884 -0.5657
vn 0.2612 0.8279 -0.4963
vn 0.2489 0.8695 -0.4266
vn 0.2068 0.9070 -0.3668
vn 0.1407 0.9349 -0.3258
vn 0.0606 0.9487 -0.3102
vn -0.0215 0.9463 -0.3226
vn -0.0931 0.9277 -0.3615
vn -0.1428 0.8959 -0.4208
vn -0.1627 0.8555 -0.4916
vn -0.1497 0.8130 -0.5626
vn -0.0069 0.8333 -0.5528
vn 0.0186 0.8228 -0.5681
vn 0.0490 0.8177 -0.5736
vn 0.0800 0.8188 -0.5685
vn 0.1069 0.8259 -0.5535
vn 0.1253 0.8379 -0.5312
vn 0.1327 0.8530 -0.5047
vn 0.1279 0.8690 -0.4780
vn 0.1118 0.8832 -0.4554
vn 0.0864 0.8939 -0.4398
vn 0.0561 0.8991 -0.4341
vn 0.0248 0.8981 -0.4391
vn -0.0021 0.8911 -0.4538
vn -0.0207 0.8791 -0.4762
vn -0.0283 0.8638 -0.5031
vn -0.0234 0.8478 -0.5298
vn -0.7622 0.3528 -0.5428
vn -0.5873 0.2109 -0.7814
vn -0.3203 0.1135 -0.9405
vn -0.0052 0.0743 -0.9972
vn 0.3093 0.0980 -0.9459
vn 0.5769 0.1795 -0.7968
vn 0.7601 0.3056 -0.5734
vn 0.8338 0.4579 -0.3085
vn 0.7877 0.6148 -0.0396
vn 0.6276 0.7539 0.1944
vn 0.3748 0.8546 0.3595
vn 0.0651 0.9007 0.4295
vn -0.2563 0.8844 0.3901
vn -0.5386 0.8061 0.2452
vn -0.7360 0.6768 0.0160
vn -0.8149 0.5170 -0.2618
vn -0.7365 -0.3382 -0.5858
vn -0.4216 -0.4534 -0.7853
vn -0.0425 -0.4995 -0.8652
vn 0.3431 -0.4696 -0.8135
vn 0.6764 -0.3683 -0.6379
vn 0.9068 -0.2108 -0.3651
vn 0.9991 -0.0212 -0.0368
vn 0.9393 0.1715 0.2971
vn 0.7365 0.3382 0.5858
vn 0.4216 0.4534 0.7853
vn 0.0425 0.4996 0.8652
vn -0.3431 0.4697 0.8135
vn -0.6764 0.3682 0.6378
vn -0.9068 0.2108 0.3651
vn -0.9991 0.0212 0.0368
vn -0.9393 -0.1715 -0.2971
vn -0.2202 0.6881 -0.6914
vn -0.1042 0.6418 -0.7598
vn 0.0337 0.6206 -0.7834
vn 0.1721 0.6273 -0.7596
vn 0.2902 0.6602 -0.6928
vn 0.3714 0.7141 -0.5934
vn 0.4039 0.7812 -0.4760
vn 0.3834 0.8514 -0.3579
vn 0.3125 0.9148 -0.2559
vn 0.2009 0.9619 -0.1856
vn 0.0647 0.9853 -0.1580
vn -0.0758 0.9811 -0.1780
vn -0.1988 0.9493 -0.2434
vn -0.2843 0.8946 -0.3448
vn -0.3186 0.8253 -0.4663
vn -0.2959 0.7526 -0.5882
# 80 vertex normals

vt 0.6778 0.6237 0.0000
vt 0.6863 0.6176 0.0000
vt 0.6910 0.6220 0.0000
vt 0.6855 0.6310 0.0000
vt 0.6971 0.6243 0.0000
vt 0.6954 0.6348 0.0000
vt 0.7035 0.6242 0.0000
vt 0.7060 0.6345 0.0000
vt 0.7095 0.6215 0.0000
vt 0.7157 0.6302 0.0000
vt 0.7139 0.6168 0.0000
vt 0.7230 0.6225 0.0000
vt 0.7162 0.6108 0.0000
vt 0.7268 0.6126 0.0000
vt 0.7161 0.6043 0.0000
vt 0.7265 0.6020 0.0000
vt 0.7134 0.5984 0.0000
vt 0.7222 0.5923 0.0000
vt 0.7087 0.5939 0.0000
vt 0.7145 0.5850 0.0000
vt 0.7027 0.5916 0.0000
vt 0.7046 0.5812 0.0000
vt 0.6962 0.5918 0.0000
vt 0.6940 0.5815 0.0000
vt 0.6903 0.5944 0.0000
vt 0.6843 0.5858 0.0000
vt 0.6858 0.5991 0.0000
vt 0.6770 0.5935 0.0000
vt 0.6835 0.6052 0.0000
vt 0.6732 0.6034 0.0000
vt 0.6837 0.6117 0.0000
vt 0.6735 0.6140 0.0000
vt 0.6998 0.6080 0.0000
vt 0.6710 0.6287 0.0000
vt 0.6653 0.6159 0.0000
vt 0.6676 0.6154 0.0000
vt 0.6729 0.6272 0.0000
vt 0.6824 0.6361 0.0000
vt 0.6811 0.6382 0.0000
vt 0.6945 0.6407 0.0000
vt 0.6942 0.6432 0.0000
vt 0.7075 0.6404 0.0000
vt 0.7081 0.6428 0.0000
vt 0.7193 0.6351 0.0000
vt 0.7208 0.6371 0.0000
vt 0.7282 0.6257 0.0000
vt 0.7304 0.6270 0.0000
vt 0.7329 0.6136 0.0000
vt 0.7354 0.6140 0.0000
vt 0.7325 0.6007 0.0000
vt 0.7350 0.6001 0.0000
vt 0.7272 0.5888 0.0000
vt 0.7294 0.5874 0.0000
vt 0.7178 0.5799 0.0000
vt 0.7193 0.5778 0.0000
vt 0.7057 0.5753 0.0000
vt 0.7062 0.5728 0.0000
vt 0.6927 0.5756 0.0000
vt 0.6923 0.5732 0.0000
vt 0.6809 0.5809 0.0000
vt 0.6795 0.5788 0.0000
vt 0.6719 0.5903 0.0000
vt 0.6699 0.5889 0.0000
vt 0.6673 0.6024 0.0000
vt 0.6649 0.6020 0.0000
vt 0.9591 0.9721 0.0000
vt 0.9481 0.9722 0.0000
vt 0.9481 0.9806 0.0000
vt 0.9591 0.9805 0.0000
vt 0.9481 0.9889 0.0000
vt 0.9591 0.9888 0.0000
vt 0.9481 0.9973 0.0000
vt 0.9591 0.9972 0.0000
vt 0.9591 0.8634 0.0000
vt 0.9481 0.8635 0.0000
vt 0.9481 0.8719 0.0000
vt 0.9591 0.8718 0.0000
vt 0.9481 0.8802 0.0000
vt 0.9591 0.8802 0.0000
vt 0.9481 0.8886 0.0000
vt 0.9591 0.8885 0.0000
vt 0.9481 0.8970 0.0000
vt 0.9591 0.8969 0.0000
vt 0.9481 0.9053 0.0000
vt 0.9591 0.9052 0.0000
vt 0.9481 0.9137 0.0000
vt 0.9591 0.9136 0.0000
vt 0.9481 0.9220 0.0000
vt 0.9591 0.9220 0.0000
vt 0.9481 0.9304 0.0000
vt 0.9591 0.9303 0.0000
vt 0.9481 0.9388 0.0000
vt 0.9591 0.9387 0.0000
vt 0.9481 0.9471 0.0000
vt 0.9591 0.9471 0.0000
vt 0.9481 0.9555 0.0000
vt 0.9591 0.9554 0.0000
vt 0.9481 0.9639 0.0000
vt 0.9591 0.9638 0.0000
# 99 texture coords

g yvr_d3_left_Ybutton
usemtl lambert2SG3
s off
f 1/1/1 2/2/1 3/3/1 4/4/1 
f 4/4/2 3/3/2 5/5/2 6/6/2 
f 6/6/3 5/5/3 7/7/3 8/8/3 
f 8/8/4 7/7/4 9/9/4 10/10/4 
f 10/10/5 9/9/5 11/11/5 12/12/5 
f 12/12/6 11/11/6 13/13/6 14/14/6 
f 14/14/7 13/13/7 15/15/7 16/16/7 
f 16/16/8 15/15/8 17/17/8 18/18/8 
f 18/18/9 17/17/9 19/19/9 20/20/9 
f 20/20/10 19/19/10 21/21/10 22/22/10 
f 22/22/11 21/21/11 23/23/11 24/24/11 
f 24/24/12 23/23/12 25/25/12 26/26/12 
f 26/26/13 25/25/13 27/27/13 28/28/13 
f 28/28/14 27/27/14 29/29/14 30/30/14 
f 30/30/15 29/29/15 31/31/15 32/32/15 
f 32/32/16 31/31/16 2/2/16 1/1/16 
f 2/2/17 33/33/17 3/3/17 
f 3/3/18 33/33/18 5/5/18 
f 5/5/19 33/33/19 7/7/19 
f 7/7/20 33/33/20 9/9/20 
f 9/9/21 33/33/21 11/11/21 
f 11/11/22 33/33/22 13/13/22 
f 13/13/23 33/33/23 15/15/23 
f 15/15/24 33/33/24 17/17/24 
f 17/17/25 33/33/25 19/19/25 
f 19/19/26 33/33/26 21/21/26 
f 21/21/27 33/33/27 23/23/27 
f 23/23/28 33/33/28 25/25/28 
f 25/25/29 33/33/29 27/27/29 
f 27/27/30 33/33/30 29/29/30 
f 29/29/31 33/33/31 31/31/31 
f 31/31/32 33/33/32 2/2/32 
f 34/34/33 35/35/33 36/36/33 37/37/33 
f 37/37/34 38/38/34 39/39/34 34/34/34 
f 38/38/35 40/40/35 41/41/35 39/39/35 
f 40/40/36 42/42/36 43/43/36 41/41/36 
f 42/42/37 44/44/37 45/45/37 43/43/37 
f 44/44/38 46/46/38 47/47/38 45/45/38 
f 46/46/39 48/48/39 49/49/39 47/47/39 
f 48/48/40 50/50/40 51/51/40 49/49/40 
f 50/50/41 52/52/41 53/53/41 51/51/41 
f 52/52/42 54/54/42 55/55/42 53/53/42 
f 54/54/43 56/56/43 57/57/43 55/55/43 
f 56/56/44 58/58/44 59/59/44 57/57/44 
f 58/58/45 60/60/45 61/61/45 59/59/45 
f 60/60/46 62/62/46 63/63/46 61/61/46 
f 62/62/47 64/64/47 65/65/47 63/63/47 
f 64/64/48 36/36/48 35/35/48 65/65/48 
f 66/66/49 34/67/49 39/68/49 67/69/49 
f 67/69/50 39/68/50 41/70/50 68/71/50 
f 68/71/51 41/70/51 43/72/51 69/73/51 
f 69/74/52 43/75/52 45/76/52 70/77/52 
f 70/77/53 45/76/53 47/78/53 71/79/53 
f 71/79/54 47/78/54 49/80/54 72/81/54 
f 72/81/55 49/80/55 51/82/55 73/83/55 
f 73/83/56 51/82/56 53/84/56 74/85/56 
f 74/85/57 53/84/57 55/86/57 75/87/57 
f 75/87/58 55/86/58 57/88/58 76/89/58 
f 76/89/59 57/88/59 59/90/59 77/91/59 
f 77/91/60 59/90/60 61/92/60 78/93/60 
f 78/93/61 61/92/61 63/94/61 79/95/61 
f 79/95/62 63/94/62 65/96/62 80/97/62 
f 80/97/63 65/96/63 35/98/63 81/99/63 
f 81/99/64 35/98/64 34/67/64 66/66/64 
f 37/37/65 1/1/65 4/4/65 38/38/65 
f 38/38/66 4/4/66 6/6/66 40/40/66 
f 40/40/67 6/6/67 8/8/67 42/42/67 
f 42/42/68 8/8/68 10/10/68 44/44/68 
f 44/44/69 10/10/69 12/12/69 46/46/69 
f 46/46/70 12/12/70 14/14/70 48/48/70 
f 48/48/71 14/14/71 16/16/71 50/50/71 
f 50/50/72 16/16/72 18/18/72 52/52/72 
f 52/52/73 18/18/73 20/20/73 54/54/73 
f 54/54/74 20/20/74 22/22/74 56/56/74 
f 56/56/75 22/22/75 24/24/75 58/58/75 
f 58/58/76 24/24/76 26/26/76 60/60/76 
f 60/60/77 26/26/77 28/28/77 62/62/77 
f 62/62/78 28/28/78 30/30/78 64/64/78 
f 64/64/79 30/30/79 32/32/79 36/36/79 
f 36/36/80 32/32/80 1/1/80 37/37/80 
# 64 polygons - 16 triangles

