# 3ds Max Wavefront OBJ Exporter v0.97b - (c)2007 guruware
# File Created: 26.12.2024 12:46:41

mtllib yvr_d3_left_trigger.mtl

#
# object yvr_d3_left_trigger
#

v  0.0161 -0.0303 -0.0098
v  0.0167 -0.0290 -0.0113
v  0.0194 -0.0290 -0.0104
v  0.0177 -0.0313 -0.0082
v  0.0140 -0.0308 -0.0094
v  0.0138 -0.0292 -0.0116
v  0.0160 -0.0324 -0.0075
v  0.0086 -0.0308 -0.0093
v  0.0075 -0.0294 -0.0107
v  0.0103 -0.0294 -0.0113
v  0.0107 -0.0312 -0.0090
v  0.0073 -0.0321 -0.0076
v  0.0050 -0.0299 -0.0093
v  0.0093 -0.0331 -0.0070
v  0.0190 -0.0240 -0.0210
v  0.0197 -0.0243 -0.0194
v  0.0168 -0.0249 -0.0196
v  0.0173 -0.0241 -0.0221
v  0.0047 -0.0240 -0.0207
v  0.0063 -0.0240 -0.0219
v  0.0067 -0.0249 -0.0194
v  0.0038 -0.0243 -0.0188
v  0.0050 -0.0234 -0.0235
v  0.0075 -0.0236 -0.0249
v  0.0092 -0.0242 -0.0230
v  0.0030 -0.0232 -0.0217
v  0.0014 -0.0233 -0.0194
v  0.0003 -0.0237 -0.0168
v  -0.0014 -0.0230 -0.0165
v  -0.0002 -0.0225 -0.0195
v  -0.0001 -0.0247 -0.0142
v  -0.0018 -0.0240 -0.0135
v  0.0001 -0.0261 -0.0119
v  -0.0015 -0.0256 -0.0110
v  0.0009 -0.0298 -0.0072
v  0.0010 -0.0261 -0.0033
v  -0.0009 -0.0241 -0.0056
v  -0.0006 -0.0277 -0.0088
v  0.0030 -0.0321 -0.0060
v  0.0030 -0.0278 -0.0018
v  0.0055 -0.0340 -0.0051
v  0.0057 -0.0294 -0.0006
v  0.0144 -0.0305 0.0004
v  0.0140 -0.0263 0.0033
v  0.0115 -0.0265 0.0034
v  0.0115 -0.0307 0.0005
v  0.0172 -0.0297 -0.0001
v  0.0165 -0.0255 0.0030
v  0.0199 -0.0283 -0.0011
v  0.0192 -0.0243 0.0021
v  0.0220 -0.0269 -0.0024
v  0.0216 -0.0228 0.0007
v  0.0240 -0.0251 -0.0042
v  0.0238 -0.0210 -0.0014
v  0.0256 -0.0233 -0.0067
v  0.0256 -0.0192 -0.0042
v  0.0265 -0.0218 -0.0098
v  0.0270 -0.0176 -0.0077
v  0.0267 -0.0207 -0.0131
v  0.0274 -0.0167 -0.0120
v  0.0261 -0.0203 -0.0166
v  0.0267 -0.0169 -0.0163
v  0.0247 -0.0203 -0.0199
v  0.0250 -0.0178 -0.0202
v  0.0224 -0.0209 -0.0230
v  0.0227 -0.0190 -0.0231
v  0.0202 -0.0194 -0.0254
v  0.0199 -0.0211 -0.0253
v  0.0167 -0.0214 -0.0271
v  0.0168 -0.0197 -0.0273
v  0.0134 -0.0215 -0.0279
v  0.0134 -0.0199 -0.0281
v  0.0034 -0.0211 -0.0248
v  0.0066 -0.0214 -0.0268
v  0.0068 -0.0232 -0.0262
v  0.0038 -0.0228 -0.0245
v  0.0016 -0.0225 -0.0222
v  0.0009 -0.0207 -0.0222
v  -0.0010 -0.0205 -0.0191
v  -0.0023 -0.0205 -0.0155
v  -0.0008 -0.0200 -0.0028
v  -0.0025 -0.0182 -0.0062
v  -0.0022 -0.0224 -0.0084
v  0.0013 -0.0220 -0.0002
v  0.0037 -0.0237 0.0015
v  0.0063 -0.0250 0.0027
v  0.0086 -0.0303 0.0002
v  0.0090 -0.0261 0.0032
v  -0.0027 -0.0211 -0.0118
v  0.0099 -0.0235 -0.0271
v  0.0098 -0.0215 -0.0278
v  0.0133 -0.0235 -0.0271
v  0.0165 -0.0233 -0.0264
v  0.0115 -0.0359 -0.0043
v  0.0147 -0.0356 -0.0044
v  0.0083 -0.0353 -0.0046
v  0.0022 -0.0297 -0.0082
v  0.0039 -0.0316 -0.0070
v  0.0009 -0.0278 -0.0098
v  0.0030 -0.0253 -0.0156
v  0.0037 -0.0274 -0.0121
v  0.0064 -0.0258 -0.0167
v  0.0098 -0.0251 -0.0201
v  0.0099 -0.0261 -0.0172
v  0.0140 -0.0243 -0.0232
v  0.0138 -0.0251 -0.0202
v  0.0103 -0.0238 -0.0256
v  0.0131 -0.0238 -0.0256
v  0.0195 -0.0230 -0.0248
v  0.0219 -0.0226 -0.0227
v  0.0238 -0.0225 -0.0201
v  0.0251 -0.0228 -0.0174
v  0.0257 -0.0236 -0.0146
v  0.0258 -0.0249 -0.0120
v  0.0251 -0.0267 -0.0098
v  0.0241 -0.0286 -0.0080
v  0.0224 -0.0308 -0.0065
v  0.0200 -0.0330 -0.0054
v  0.0176 -0.0346 -0.0047
v  0.0087 -0.0345 -0.0056
v  0.0116 -0.0350 -0.0055
v  0.0061 -0.0333 -0.0061
v  0.0066 -0.0275 -0.0134
v  0.0101 -0.0276 -0.0141
v  0.0136 -0.0261 -0.0174
v  0.0138 -0.0276 -0.0141
v  0.0169 -0.0258 -0.0171
v  0.0160 -0.0237 -0.0251
v  0.0185 -0.0234 -0.0238
v  0.0207 -0.0232 -0.0220
v  0.0170 -0.0337 -0.0060
v  0.0193 -0.0323 -0.0067
v  0.0145 -0.0347 -0.0056
v  0.0116 -0.0334 -0.0069
v  0.0139 -0.0331 -0.0071
v  0.0211 -0.0305 -0.0077
v  0.0225 -0.0288 -0.0090
v  0.0234 -0.0270 -0.0107
v  0.0239 -0.0255 -0.0127
v  0.0239 -0.0244 -0.0150
v  0.0234 -0.0236 -0.0175
v  0.0223 -0.0233 -0.0198
v  0.0205 -0.0251 -0.0164
v  0.0204 -0.0268 -0.0131
v  0.0170 -0.0274 -0.0138
v  -0.0034 -0.0169 -0.0103
v  -0.0031 -0.0168 -0.0149
v  -0.0016 -0.0175 -0.0191
v  0.0007 -0.0187 -0.0224
v  0.0031 -0.0193 -0.0248
v  0.0065 -0.0197 -0.0270
v  0.0100 -0.0199 -0.0280
# 152 vertices

vn 0.1882 -0.7597 -0.6225
vn 0.1143 -0.7834 -0.6109
vn 0.1349 -0.7318 -0.6680
vn -0.1036 -0.7746 -0.6239
vn -0.1768 -0.7451 -0.6431
vn -0.1081 -0.7177 -0.6879
vn 0.2177 -0.9413 -0.2579
vn -0.2288 -0.9363 -0.2665
vn -0.1693 -0.9633 -0.2084
vn -0.2523 -0.9389 -0.2342
vn -0.3057 -0.9139 -0.2671
vn -0.4235 -0.8524 -0.3067
vn -0.4444 -0.8178 -0.3657
vn -0.4469 -0.7824 -0.4337
vn -0.8621 -0.3695 0.3469
vn -0.7533 -0.4625 0.4676
vn -0.6021 -0.5523 0.5766
vn 0.0696 -0.5628 0.8236
vn 0.2811 -0.5351 0.7967
vn 0.4798 -0.4802 0.7343
vn 0.6508 -0.4042 0.6427
vn 0.7831 -0.3250 0.5302
vn 0.8824 -0.2509 0.3980
vn 0.9518 -0.1921 0.2391
vn 0.9869 -0.1534 0.0494
vn 0.9750 -0.1391 -0.1733
vn 0.9125 -0.1441 -0.3828
vn 0.8134 -0.1584 -0.5598
vn 0.6788 -0.1475 -0.7194
vn 0.4890 -0.1294 -0.8626
vn 0.2415 -0.1371 -0.9607
vn -0.5148 -0.2998 -0.8032
vn -0.7058 -0.2810 -0.6503
vn -0.8154 -0.2778 -0.5079
vn -0.8977 -0.2568 -0.3579
vn -0.9248 -0.2145 0.3143
vn -0.8388 -0.2860 0.4632
vn -0.7183 -0.3667 0.5913
vn -0.5633 -0.4497 0.6932
vn -0.3671 -0.5165 0.7736
vn -0.1496 -0.5564 0.8173
vn -0.9349 -0.2988 0.1917
vn -0.9674 -0.2528 0.0128
vn -0.9531 -0.2429 -0.1808
vn -0.0299 -0.3469 -0.9374
vn -0.2852 -0.3354 -0.8979
vn 0.2365 -0.3614 -0.9019
vn 0.0791 -0.6802 0.7287
vn -0.1692 -0.6747 0.7184
vn -0.4072 -0.6262 0.6649
vn -0.3699 -0.7028 -0.6077
vn -0.4080 -0.7202 -0.5611
vn -0.4341 -0.7471 -0.5034
vn -0.3637 -0.8218 -0.4385
vn -0.3533 -0.8604 -0.3672
vn -0.3450 -0.8782 -0.3311
vn -0.2410 -0.9065 -0.3467
vn -0.1289 -0.9318 -0.3393
vn -0.1385 -0.9546 -0.2637
vn -0.0117 -0.9637 -0.2666
vn -0.0109 -0.9852 -0.1709
vn -0.1163 -0.9705 -0.2112
vn -0.2439 -0.9422 -0.2297
vn -0.3208 -0.9151 -0.2444
vn -0.1305 -0.9674 -0.2169
vn -0.0160 -0.9772 -0.2115
vn 0.6525 -0.3207 -0.6866
vn 0.4655 -0.3435 -0.8157
vn 0.7890 -0.2864 -0.5435
vn 0.8786 -0.2577 -0.4021
vn 0.9398 -0.2453 -0.2381
vn 0.9676 -0.2430 -0.0678
vn 0.9553 -0.2703 0.1197
vn 0.9058 -0.3194 0.2782
vn 0.8170 -0.3962 0.4190
vn 0.6845 -0.4918 0.5381
vn 0.5253 -0.5691 0.6327
vn 0.3115 -0.6422 0.7004
vn -0.0979 -0.7700 -0.6305
vn -0.2229 -0.7368 -0.6383
vn -0.3110 -0.7071 -0.6351
vn -0.3014 -0.6949 -0.6529
vn -0.3186 -0.7597 -0.5669
vn -0.3408 -0.7720 -0.5365
vn -0.2450 -0.8594 -0.4487
vn -0.1251 -0.8918 -0.4347
vn -0.0075 -0.9022 -0.4312
vn -0.0092 -0.9410 -0.3382
vn 0.1132 -0.9361 -0.3329
vn 0.1214 -0.9568 -0.2643
vn 0.1477 -0.9680 -0.2030
vn 0.0934 -0.9737 -0.2076
vn 0.2055 -0.9570 -0.2049
vn 0.0970 -0.9744 -0.2026
vn 0.2943 -0.9296 -0.2220
vn 0.2972 -0.7355 -0.6088
vn 0.2042 -0.7594 -0.6178
vn 0.0591 -0.7761 -0.6279
vn -0.0624 -0.6657 -0.7436
vn -0.1486 -0.6729 -0.7247
vn -0.2199 -0.7039 -0.6754
vn 0.0128 -0.7132 -0.7008
vn -0.0583 -0.7173 -0.6943
vn 0.0317 -0.6668 -0.7446
vn 0.1189 -0.6723 -0.7307
vn 0.1940 -0.6859 -0.7014
vn 0.3730 -0.7133 -0.5934
vn 0.4079 -0.7182 -0.5637
vn 0.4256 -0.7357 -0.5269
vn 0.4394 -0.7628 -0.4745
vn 0.4431 -0.7986 -0.4073
vn 0.4363 -0.8300 -0.3474
vn 0.4138 -0.8620 -0.2927
vn 0.3651 -0.8967 -0.2504
vn 0.3260 -0.8904 -0.3177
vn 0.3407 -0.8743 -0.3458
vn 0.3568 -0.8354 -0.4182
vn 0.3439 -0.7926 -0.5035
vn 0.3283 -0.7788 -0.5344
vn 0.3219 -0.7136 -0.6223
vn 0.2543 -0.7250 -0.6401
vn 0.2180 -0.8164 -0.5348
vn 0.1146 -0.8396 -0.5309
vn 0.0064 -0.7838 -0.6210
vn -0.1181 -0.8310 -0.5435
vn -0.2167 -0.8004 -0.5589
vn 0.0009 -0.8456 -0.5338
vn 0.1133 -0.8968 -0.4277
vn 0.2290 -0.8737 -0.4291
vn 0.2212 -0.9170 -0.3318
vn 0.2906 -0.9231 -0.2518
vn 0.2398 -0.9436 -0.2284
vn 0.1156 -0.7185 -0.6858
vn -0.3796 -0.8872 -0.2622
vn -0.9775 -0.1668 0.1293
vn -0.9851 -0.1432 -0.0947
vn -0.9355 -0.1440 -0.3225
vn -0.8446 -0.1521 -0.5133
vn -0.7186 -0.1513 -0.6787
vn -0.5366 -0.1310 -0.8336
vn -0.2956 -0.1323 -0.9461
vn -0.0293 -0.1501 -0.9882
# 142 vertex normals

vt 0.7053 0.7862 0.0000
vt 0.7115 0.7982 0.0000
vt 0.7286 0.7911 0.0000
vt 0.7143 0.7725 0.0000
vt 0.6910 0.7841 0.0000
vt 0.6925 0.8017 0.0000
vt 0.7019 0.7660 0.0000
vt 0.6560 0.7879 0.0000
vt 0.6503 0.8014 0.0000
vt 0.6692 0.8024 0.0000
vt 0.6696 0.7831 0.0000
vt 0.6464 0.7744 0.0000
vt 0.6331 0.7939 0.0000
vt 0.6586 0.7657 0.0000
vt 0.7344 0.8673 0.0000
vt 0.7382 0.8569 0.0000
vt 0.7189 0.8590 0.0000
vt 0.7244 0.8757 0.0000
vt 0.6412 0.8775 0.0000
vt 0.6529 0.8833 0.0000
vt 0.6535 0.8659 0.0000
vt 0.6335 0.8664 0.0000
vt 0.6463 0.8955 0.0000
vt 0.6634 0.9010 0.0000
vt 0.6726 0.8867 0.0000
vt 0.6313 0.8863 0.0000
vt 0.6185 0.8742 0.0000
vt 0.6085 0.8592 0.0000
vt 0.5964 0.8610 0.0000
vt 0.6076 0.8781 0.0000
vt 0.6031 0.8421 0.0000
vt 0.5904 0.8417 0.0000
vt 0.6024 0.8246 0.0000
vt 0.5902 0.8225 0.0000
vt 0.4315 0.1054 0.0000
vt 0.4634 0.0901 0.0000
vt 0.4514 0.0703 0.0000
vt 0.4246 0.0869 0.0000
vt 0.4375 0.1265 0.0000
vt 0.4715 0.1078 0.0000
vt 0.4434 0.1470 0.0000
vt 0.4804 0.1269 0.0000
vt 0.0408 0.1561 0.0000
vt 0.0113 0.1402 0.0000
vt 0.0033 0.1542 0.0000
vt 0.0310 0.1723 0.0000
vt 0.0487 0.1393 0.0000
vt 0.0176 0.1239 0.0000
vt 0.0566 0.1202 0.0000
vt 0.0262 0.1058 0.0000
vt 0.0644 0.1032 0.0000
vt 0.0356 0.0871 0.0000
vt 0.0741 0.0849 0.0000
vt 0.0468 0.0673 0.0000
vt 0.0862 0.0660 0.0000
vt 0.0615 0.0470 0.0000
vt 0.1018 0.0496 0.0000
vt 0.0806 0.0281 0.0000
vt 0.1198 0.0362 0.0000
vt 0.1049 0.0137 0.0000
vt 0.1414 0.0270 0.0000
vt 0.1328 0.0067 0.0000
vt 0.1642 0.0219 0.0000
vt 0.1608 0.0056 0.0000
vt 0.1887 0.0200 0.0000
vt 0.1858 0.0083 0.0000
vt 0.2079 0.0071 0.0000
vt 0.2109 0.0178 0.0000
vt 0.2343 0.0167 0.0000
vt 0.2331 0.0059 0.0000
vt 0.2564 0.0163 0.0000
vt 0.2564 0.0054 0.0000
vt 0.3254 0.0182 0.0000
vt 0.3009 0.0169 0.0000
vt 0.3005 0.0294 0.0000
vt 0.3231 0.0290 0.0000
vt 0.3439 0.0308 0.0000
vt 0.3486 0.0190 0.0000
vt 0.3649 0.0347 0.0000
vt 0.3721 0.0224 0.0000
vt 0.3846 0.0420 0.0000
vt 0.3962 0.0277 0.0000
vt 0.4775 0.0516 0.0000
vt 0.4591 0.0313 0.0000
vt 0.4370 0.0531 0.0000
vt 0.4915 0.0723 0.0000
vt 0.5024 0.0919 0.0000
vt 0.5119 0.1101 0.0000
vt 0.4902 0.1452 0.0000
vt 0.5196 0.1282 0.0000
vt 0.4999 0.1615 0.0000
vt 0.5273 0.1428 0.0000
vt 0.4148 0.0687 0.0000
vt 0.4184 0.0382 0.0000
vt 0.4018 0.0538 0.0000
vt 0.2790 0.0297 0.0000
vt 0.2793 0.0159 0.0000
vt 0.2572 0.0300 0.0000
vt 0.2355 0.0303 0.0000
vt 0.0714 0.1958 0.0000
vt 0.0811 0.1770 0.0000
vt 0.4504 0.1663 0.0000
vt 0.4597 0.1854 0.0000
vt 0.6039 0.7861 0.0000
vt 0.6133 0.7905 0.0000
vt 0.6238 0.7758 0.0000
vt 0.6170 0.7695 0.0000
vt 0.5953 0.8032 0.0000
vt 0.6059 0.8071 0.0000
vt 0.6249 0.8451 0.0000
vt 0.6265 0.8187 0.0000
vt 0.6487 0.8473 0.0000
vt 0.6737 0.8668 0.0000
vt 0.6717 0.8469 0.0000
vt 0.7038 0.8840 0.0000
vt 0.6997 0.8644 0.0000
vt 0.6815 0.9028 0.0000
vt 0.6999 0.9008 0.0000
vt 0.6394 0.9035 0.0000
vt 0.6601 0.9104 0.0000
vt 0.6225 0.8924 0.0000
vt 0.6808 0.9128 0.0000
vt 0.7018 0.9106 0.0000
vt 0.2134 0.0304 0.0000
vt 0.1922 0.0317 0.0000
vt 0.1713 0.0352 0.0000
vt 0.1522 0.0416 0.0000
vt 0.1358 0.0518 0.0000
vt 0.1221 0.0650 0.0000
vt 0.1119 0.0813 0.0000
vt 0.1045 0.0985 0.0000
vt 0.0983 0.1182 0.0000
vt 0.0931 0.1396 0.0000
vt 0.0877 0.1583 0.0000
vt 0.6496 0.7455 0.0000
vt 0.6530 0.7537 0.0000
vt 0.6710 0.7486 0.0000
vt 0.6695 0.7394 0.0000
vt 0.6324 0.7558 0.0000
vt 0.6371 0.7631 0.0000
vt 0.6470 0.8231 0.0000
vt 0.6705 0.8239 0.0000
vt 0.6965 0.8451 0.0000
vt 0.6945 0.8214 0.0000
vt 0.7176 0.8417 0.0000
vt 0.7175 0.8954 0.0000
vt 0.7334 0.8865 0.0000
vt 0.7216 0.9037 0.0000
vt 0.7401 0.8930 0.0000
vt 0.7552 0.8792 0.0000
vt 0.7466 0.8743 0.0000
vt 0.7093 0.7421 0.0000
vt 0.7070 0.7524 0.0000
vt 0.7227 0.7597 0.0000
vt 0.7267 0.7496 0.0000
vt 0.6903 0.7386 0.0000
vt 0.6897 0.7485 0.0000
vt 0.6731 0.7625 0.0000
vt 0.6879 0.7627 0.0000
vt 0.7367 0.7698 0.0000
vt 0.7446 0.7612 0.0000
vt 0.7482 0.7820 0.0000
vt 0.7587 0.7753 0.0000
vt 0.7570 0.7961 0.0000
vt 0.7687 0.7904 0.0000
vt 0.7626 0.8115 0.0000
vt 0.7757 0.8077 0.0000
vt 0.7645 0.8278 0.0000
vt 0.7776 0.8261 0.0000
vt 0.7625 0.8443 0.0000
vt 0.7750 0.8447 0.0000
vt 0.7563 0.8601 0.0000
vt 0.7672 0.8626 0.0000
vt 0.7416 0.8364 0.0000
vt 0.7381 0.8123 0.0000
vt 0.7157 0.8177 0.0000
vt 0.4356 0.0143 0.0000
vt 0.4073 0.0054 0.0000
vt 0.3779 0.0033 0.0000
vt 0.3511 0.0059 0.0000
vt 0.3282 0.0066 0.0000
vt 0.3020 0.0058 0.0000
vt 0.2787 0.0054 0.0000
# 183 texture coords

g yvr_d3_left_trigger
usemtl lambert2SG3
s off
f 1/1/1 2/2/1 3/3/1 4/4/1 
f 1/1/2 5/5/2 6/6/2 2/2/2 
f 1/1/3 4/4/3 7/7/3 5/5/3 
f 8/8/4 9/9/4 10/10/4 11/11/4 
f 8/8/5 12/12/5 13/13/5 9/9/5 
f 8/8/6 11/11/6 14/14/6 12/12/6 
f 15/15/7 16/16/7 17/17/7 18/18/7 
f 19/19/8 20/20/8 21/21/8 22/22/8 
f 20/20/9 23/23/9 24/24/9 25/25/9 
f 20/20/10 19/19/10 26/26/10 23/23/10 
f 26/26/11 19/19/11 22/22/11 27/27/11 
f 28/28/12 29/29/12 30/30/12 27/27/12 
f 28/28/13 31/31/13 32/32/13 29/29/13 
f 32/32/14 31/31/14 33/33/14 34/34/14 
f 35/35/15 36/36/15 37/37/15 38/38/15 
f 35/35/16 39/39/16 40/40/16 36/36/16 
f 40/40/17 39/39/17 41/41/17 42/42/17 
f 43/43/18 44/44/18 45/45/18 46/46/18 
f 43/43/19 47/47/19 48/48/19 44/44/19 
f 48/48/20 47/47/20 49/49/20 50/50/20 
f 49/49/21 51/51/21 52/52/21 50/50/21 
f 52/52/22 51/51/22 53/53/22 54/54/22 
f 53/53/23 55/55/23 56/56/23 54/54/23 
f 56/56/24 55/55/24 57/57/24 58/58/24 
f 57/57/25 59/59/25 60/60/25 58/58/25 
f 60/60/26 59/59/26 61/61/26 62/62/26 
f 61/61/27 63/63/27 64/64/27 62/62/27 
f 64/64/28 63/63/28 65/65/28 66/66/28 
f 67/67/29 66/66/29 65/65/29 68/68/29 
f 67/67/30 68/68/30 69/69/30 70/70/30 
f 69/69/31 71/71/31 72/72/31 70/70/31 
f 73/73/32 74/74/32 75/75/32 76/76/32 
f 73/73/33 76/76/33 77/77/33 78/78/33 
f 77/77/34 30/79/34 79/80/34 78/78/34 
f 79/80/35 30/79/35 29/81/35 80/82/35 
f 37/37/36 81/83/36 82/84/36 83/85/36 
f 37/37/37 36/36/37 84/86/37 81/83/37 
f 84/86/38 36/36/38 40/40/38 85/87/38 
f 40/40/39 42/42/39 86/88/39 85/87/39 
f 86/88/40 42/42/40 87/89/40 88/90/40 
f 88/90/41 87/89/41 46/91/41 45/92/41 
f 83/85/42 34/93/42 38/38/42 37/37/42 
f 83/85/43 89/94/43 32/95/43 34/93/43 
f 32/95/44 89/94/44 80/82/44 29/81/44 
f 90/96/45 91/97/45 71/71/45 92/98/45 
f 90/96/46 75/75/46 74/74/46 91/97/46 
f 71/71/47 69/69/47 93/99/47 92/98/47 
f 46/46/48 94/100/48 95/101/48 43/43/48 
f 46/91/49 87/89/49 96/102/49 94/103/49 
f 96/102/50 87/89/50 42/42/50 41/41/50 
f 35/104/51 97/105/51 98/106/51 39/107/51 
f 35/104/52 38/108/52 99/109/52 97/105/52 
f 99/109/53 38/108/53 34/34/53 33/33/53 
f 31/31/54 100/110/54 101/111/54 33/33/54 
f 31/31/55 28/28/55 100/110/55 
f 100/110/56 28/28/56 27/27/56 22/22/56 
f 100/110/57 22/22/57 21/21/57 102/112/57 
f 102/112/58 21/21/58 103/113/58 104/114/58 
f 103/113/59 21/21/59 20/20/59 25/25/59 
f 25/25/60 105/115/60 106/116/60 103/113/60 
f 25/25/61 107/117/61 108/118/61 105/115/61 
f 25/25/62 24/24/62 107/117/62 
f 23/23/63 76/119/63 75/120/63 24/24/63 
f 23/23/64 26/26/64 77/121/64 76/119/64 
f 24/24/65 75/120/65 90/122/65 107/117/65 
f 90/122/66 92/123/66 108/118/66 107/117/66 
f 109/124/67 68/68/67 65/65/67 110/125/67 
f 109/124/68 93/99/68 69/69/68 68/68/68 
f 65/65/69 63/63/69 111/126/69 110/125/69 
f 63/63/70 61/61/70 112/127/70 111/126/70 
f 61/61/71 59/59/71 113/128/71 112/127/71 
f 59/59/72 57/57/72 114/129/72 113/128/72 
f 57/57/73 55/55/73 115/130/73 114/129/73 
f 55/55/74 53/53/74 116/131/74 115/130/74 
f 53/53/75 51/51/75 117/132/75 116/131/75 
f 51/51/76 49/49/76 118/133/76 117/132/76 
f 49/49/77 47/47/77 119/134/77 118/133/77 
f 119/134/78 47/47/78 43/43/78 95/101/78 
f 96/135/79 120/136/79 121/137/79 94/138/79 
f 96/135/80 41/139/80 122/140/80 120/136/80 
f 122/140/81 41/139/81 39/107/81 98/106/81 
f 97/105/82 13/13/82 98/106/82 
f 97/105/83 99/109/83 101/111/83 13/13/83 
f 101/111/84 99/109/84 33/33/84 
f 101/111/85 100/110/85 102/112/85 123/141/85 
f 123/141/86 102/112/86 104/114/86 124/142/86 
f 104/114/87 125/143/87 126/144/87 124/142/87 
f 125/143/88 104/114/88 103/113/88 106/116/88 
f 106/116/89 17/17/89 127/145/89 125/143/89 
f 106/116/90 105/115/90 18/18/90 17/17/90 
f 105/115/91 128/146/91 129/147/91 18/18/91 
f 105/115/92 108/118/92 128/146/92 
f 128/146/93 93/148/93 109/149/93 129/147/93 
f 128/146/94 108/118/94 92/123/94 93/148/94 
f 109/149/95 110/150/95 130/151/95 129/147/95 
f 119/152/96 131/153/96 132/154/96 118/155/96 
f 119/152/97 95/156/97 133/157/97 131/153/97 
f 133/157/98 95/156/98 94/138/98 121/137/98 
f 120/136/99 14/14/99 134/158/99 121/137/99 
f 120/136/100 122/140/100 12/12/100 14/14/100 
f 12/12/101 122/140/101 98/106/101 13/13/101 
f 134/158/102 11/11/102 5/5/102 135/159/102 
f 134/158/103 14/14/103 11/11/103 
f 135/159/104 133/157/104 121/137/104 134/158/104 
f 135/159/105 7/7/105 131/153/105 133/157/105 
f 131/153/106 7/7/106 4/4/106 132/154/106 
f 136/160/107 117/161/107 118/155/107 132/154/107 
f 136/160/108 137/162/108 116/163/108 117/161/108 
f 116/163/109 137/162/109 138/164/109 115/165/109 
f 138/164/110 139/166/110 114/167/110 115/165/110 
f 114/167/111 139/166/111 140/168/111 113/169/111 
f 140/168/112 141/170/112 112/171/112 113/169/112 
f 112/171/113 141/170/113 142/172/113 111/173/113 
f 142/172/114 130/151/114 110/150/114 111/173/114 
f 141/170/115 143/174/115 16/16/115 142/172/115 
f 141/170/116 140/168/116 143/174/116 
f 140/168/117 139/166/117 144/175/117 143/174/117 
f 139/166/118 138/164/118 144/175/118 
f 138/164/119 137/162/119 3/3/119 144/175/119 
f 137/162/120 136/160/120 3/3/120 
f 3/3/121 136/160/121 132/154/121 4/4/121 
f 3/3/122 2/2/122 145/176/122 144/175/122 
f 2/2/123 6/6/123 126/144/123 145/176/123 
f 6/6/124 5/5/124 11/11/124 10/10/124 
f 10/10/125 9/9/125 123/141/125 124/142/125 
f 9/9/126 13/13/126 101/111/126 123/141/126 
f 10/10/127 124/142/127 126/144/127 6/6/127 
f 126/144/128 125/143/128 127/145/128 145/176/128 
f 127/145/129 143/174/129 144/175/129 145/176/129 
f 143/174/130 127/145/130 17/17/130 16/16/130 
f 142/172/131 16/16/131 15/15/131 130/151/131 
f 130/151/132 15/15/132 18/18/132 129/147/132 
f 5/5/133 7/7/133 135/159/133 
f 77/121/134 26/26/134 27/27/134 30/30/134 
f 82/84/135 146/177/135 89/94/135 83/85/135 
f 146/177/136 147/178/136 80/82/136 89/94/136 
f 147/178/137 148/179/137 79/80/137 80/82/137 
f 148/179/138 149/180/138 78/78/138 79/80/138 
f 150/181/139 73/73/139 78/78/139 149/180/139 
f 150/181/140 151/182/140 74/74/140 73/73/140 
f 151/182/141 152/183/141 91/97/141 74/74/141 
f 152/183/142 72/72/142 71/71/142 91/97/142 
# 132 polygons - 10 triangles

