# 3ds Max Wavefront OBJ Exporter v0.97b - (c)2007 guruware
# File Created: 26.12.2024 12:46:31

mtllib yvr_d3_left_joystick.mtl

#
# object yvr_d3_left_joystick
#

v  0.0003 0.0090 -0.0206
v  0.0026 0.0074 -0.0240
v  0.0016 0.0071 -0.0243
v  0.0035 0.0077 -0.0234
v  0.0041 0.0081 -0.0227
v  0.0046 0.0086 -0.0219
v  0.0048 0.0092 -0.0210
v  0.0047 0.0097 -0.0201
v  0.0044 0.0102 -0.0192
v  0.0039 0.0107 -0.0184
v  0.0031 0.0111 -0.0177
v  0.0023 0.0114 -0.0173
v  0.0013 0.0115 -0.0170
v  0.0002 0.0116 -0.0169
v  -0.0009 0.0115 -0.0171
v  -0.0018 0.0113 -0.0174
v  -0.0026 0.0109 -0.0179
v  -0.0033 0.0105 -0.0186
v  -0.0038 0.0100 -0.0195
v  -0.0015 0.0073 -0.0241
v  -0.0005 0.0071 -0.0244
v  0.0005 0.0071 -0.0245
v  -0.0040 0.0095 -0.0203
v  -0.0024 0.0076 -0.0236
v  -0.0006 0.0072 -0.0250
v  -0.0018 0.0074 -0.0247
v  0.0006 0.0072 -0.0251
v  0.0017 0.0073 -0.0250
v  0.0028 0.0075 -0.0245
v  0.0038 0.0079 -0.0239
v  0.0045 0.0084 -0.0231
v  0.0050 0.0089 -0.0222
v  0.0053 0.0095 -0.0212
v  0.0052 0.0101 -0.0202
v  0.0049 0.0107 -0.0192
v  0.0043 0.0112 -0.0184
v  0.0034 0.0116 -0.0176
v  0.0025 0.0119 -0.0171
v  0.0014 0.0121 -0.0168
v  0.0002 0.0122 -0.0167
v  -0.0010 0.0121 -0.0169
v  -0.0020 0.0119 -0.0173
v  -0.0030 0.0115 -0.0178
v  -0.0037 0.0110 -0.0186
v  -0.0042 0.0105 -0.0195
v  -0.0045 0.0099 -0.0205
v  -0.0045 0.0093 -0.0215
v  -0.0040 0.0090 -0.0212
v  -0.0037 0.0085 -0.0221
v  -0.0042 0.0087 -0.0225
v  -0.0032 0.0080 -0.0229
v  -0.0036 0.0082 -0.0234
v  -0.0028 0.0078 -0.0241
v  -0.0021 0.0070 -0.0251
v  -0.0032 0.0073 -0.0245
v  -0.0008 0.0067 -0.0255
v  -0.0009 0.0062 -0.0257
v  -0.0023 0.0064 -0.0253
v  0.0006 0.0067 -0.0256
v  0.0006 0.0061 -0.0259
v  0.0019 0.0068 -0.0254
v  0.0021 0.0062 -0.0256
v  0.0032 0.0071 -0.0249
v  0.0034 0.0065 -0.0251
v  0.0043 0.0075 -0.0242
v  0.0046 0.0070 -0.0244
v  0.0051 0.0080 -0.0233
v  0.0055 0.0076 -0.0234
v  0.0057 0.0086 -0.0223
v  0.0061 0.0083 -0.0222
v  0.0059 0.0093 -0.0212
v  0.0064 0.0090 -0.0210
v  0.0059 0.0100 -0.0200
v  0.0063 0.0098 -0.0198
v  0.0055 0.0107 -0.0189
v  0.0059 0.0105 -0.0186
v  0.0048 0.0112 -0.0179
v  0.0052 0.0111 -0.0175
v  0.0039 0.0117 -0.0171
v  0.0042 0.0116 -0.0166
v  0.0027 0.0121 -0.0165
v  0.0030 0.0120 -0.0159
v  0.0015 0.0123 -0.0161
v  0.0016 0.0123 -0.0155
v  0.0002 0.0124 -0.0161
v  0.0002 0.0123 -0.0154
v  -0.0011 0.0123 -0.0162
v  -0.0013 0.0122 -0.0156
v  -0.0024 0.0120 -0.0167
v  -0.0026 0.0119 -0.0161
v  -0.0034 0.0116 -0.0173
v  -0.0038 0.0115 -0.0168
v  -0.0043 0.0111 -0.0182
v  -0.0047 0.0109 -0.0178
v  -0.0049 0.0105 -0.0192
v  -0.0053 0.0103 -0.0189
v  -0.0052 0.0098 -0.0203
v  -0.0057 0.0095 -0.0201
v  -0.0051 0.0091 -0.0215
v  -0.0056 0.0088 -0.0214
v  -0.0048 0.0085 -0.0226
v  -0.0053 0.0081 -0.0226
v  -0.0041 0.0079 -0.0236
v  -0.0045 0.0074 -0.0237
v  -0.0035 0.0069 -0.0246
v  -0.0038 0.0063 -0.0246
v  -0.0048 0.0069 -0.0236
v  -0.0025 0.0058 -0.0253
v  -0.0025 0.0052 -0.0252
v  -0.0039 0.0057 -0.0244
v  -0.0010 0.0056 -0.0258
v  -0.0010 0.0050 -0.0256
v  0.0006 0.0055 -0.0259
v  0.0006 0.0049 -0.0258
v  0.0022 0.0056 -0.0257
v  0.0022 0.0050 -0.0255
v  0.0036 0.0060 -0.0252
v  0.0037 0.0054 -0.0250
v  0.0049 0.0064 -0.0243
v  0.0050 0.0059 -0.0241
v  0.0058 0.0071 -0.0233
v  0.0060 0.0065 -0.0231
v  0.0065 0.0078 -0.0221
v  0.0067 0.0072 -0.0218
v  0.0068 0.0086 -0.0208
v  0.0070 0.0080 -0.0205
v  0.0067 0.0093 -0.0194
v  0.0069 0.0088 -0.0191
v  0.0063 0.0101 -0.0182
v  0.0064 0.0096 -0.0178
v  0.0055 0.0108 -0.0170
v  0.0056 0.0103 -0.0166
v  0.0044 0.0113 -0.0161
v  0.0045 0.0109 -0.0156
v  0.0031 0.0118 -0.0154
v  0.0032 0.0113 -0.0149
v  0.0017 0.0120 -0.0150
v  0.0017 0.0116 -0.0145
v  0.0001 0.0121 -0.0149
v  0.0001 0.0116 -0.0144
v  -0.0014 0.0120 -0.0151
v  -0.0014 0.0115 -0.0146
v  -0.0028 0.0117 -0.0156
v  -0.0029 0.0112 -0.0151
v  -0.0040 0.0112 -0.0163
v  -0.0041 0.0107 -0.0159
v  -0.0050 0.0106 -0.0173
v  -0.0051 0.0101 -0.0169
v  -0.0057 0.0099 -0.0185
v  -0.0059 0.0094 -0.0182
v  -0.0060 0.0091 -0.0198
v  -0.0062 0.0086 -0.0195
v  -0.0060 0.0083 -0.0211
v  -0.0062 0.0078 -0.0209
v  -0.0056 0.0076 -0.0224
v  -0.0058 0.0070 -0.0222
v  -0.0050 0.0063 -0.0234
v  -0.0050 0.0058 -0.0230
v  -0.0057 0.0065 -0.0218
v  -0.0039 0.0051 -0.0241
v  -0.0037 0.0047 -0.0236
v  -0.0048 0.0053 -0.0226
v  -0.0025 0.0047 -0.0248
v  -0.0024 0.0043 -0.0243
v  -0.0010 0.0044 -0.0253
v  -0.0009 0.0040 -0.0248
v  0.0006 0.0044 -0.0254
v  0.0006 0.0040 -0.0249
v  0.0022 0.0045 -0.0252
v  0.0022 0.0041 -0.0247
v  0.0037 0.0048 -0.0246
v  0.0036 0.0044 -0.0242
v  0.0050 0.0053 -0.0238
v  0.0048 0.0049 -0.0233
v  0.0060 0.0060 -0.0227
v  0.0058 0.0055 -0.0223
v  0.0067 0.0067 -0.0215
v  0.0064 0.0062 -0.0211
v  0.0069 0.0075 -0.0201
v  0.0067 0.0070 -0.0198
v  0.0069 0.0083 -0.0188
v  0.0066 0.0078 -0.0185
v  0.0064 0.0091 -0.0175
v  0.0062 0.0085 -0.0173
v  0.0056 0.0098 -0.0163
v  0.0054 0.0092 -0.0161
v  0.0045 0.0103 -0.0153
v  0.0044 0.0097 -0.0152
v  0.0032 0.0108 -0.0146
v  0.0031 0.0101 -0.0145
v  0.0017 0.0110 -0.0142
v  0.0017 0.0104 -0.0141
v  0.0002 0.0111 -0.0141
v  0.0002 0.0105 -0.0140
v  -0.0014 0.0110 -0.0143
v  -0.0013 0.0103 -0.0142
v  -0.0028 0.0107 -0.0148
v  -0.0027 0.0100 -0.0147
v  -0.0041 0.0102 -0.0156
v  -0.0039 0.0096 -0.0154
v  -0.0051 0.0096 -0.0166
v  -0.0049 0.0090 -0.0164
v  -0.0058 0.0089 -0.0178
v  -0.0056 0.0083 -0.0176
v  -0.0062 0.0081 -0.0191
v  -0.0059 0.0076 -0.0189
v  -0.0061 0.0073 -0.0205
v  -0.0059 0.0068 -0.0202
v  -0.0055 0.0060 -0.0215
v  -0.0051 0.0057 -0.0211
v  -0.0055 0.0064 -0.0199
v  -0.0045 0.0050 -0.0222
v  -0.0040 0.0050 -0.0217
v  -0.0047 0.0055 -0.0207
v  -0.0035 0.0045 -0.0231
v  -0.0031 0.0045 -0.0226
v  -0.0022 0.0041 -0.0238
v  -0.0020 0.0041 -0.0232
v  -0.0009 0.0038 -0.0242
v  -0.0008 0.0038 -0.0236
v  0.0006 0.0038 -0.0243
v  0.0006 0.0038 -0.0237
v  0.0021 0.0039 -0.0241
v  0.0019 0.0039 -0.0235
v  0.0034 0.0042 -0.0236
v  0.0031 0.0042 -0.0231
v  0.0045 0.0047 -0.0228
v  0.0042 0.0046 -0.0223
v  0.0054 0.0052 -0.0219
v  0.0050 0.0051 -0.0215
v  0.0060 0.0059 -0.0207
v  0.0055 0.0057 -0.0204
v  0.0063 0.0066 -0.0195
v  0.0058 0.0064 -0.0193
v  0.0062 0.0073 -0.0183
v  0.0057 0.0070 -0.0182
v  0.0058 0.0080 -0.0172
v  0.0053 0.0077 -0.0172
v  0.0051 0.0086 -0.0161
v  0.0047 0.0082 -0.0162
v  0.0041 0.0092 -0.0152
v  0.0038 0.0087 -0.0154
v  0.0029 0.0095 -0.0146
v  0.0027 0.0090 -0.0149
v  0.0016 0.0098 -0.0142
v  0.0015 0.0093 -0.0145
v  0.0002 0.0098 -0.0141
v  0.0002 0.0093 -0.0144
v  -0.0012 0.0097 -0.0143
v  -0.0010 0.0092 -0.0146
v  -0.0025 0.0095 -0.0147
v  -0.0022 0.0090 -0.0150
v  -0.0036 0.0090 -0.0155
v  -0.0033 0.0086 -0.0156
v  -0.0046 0.0085 -0.0164
v  -0.0041 0.0081 -0.0165
v  -0.0052 0.0078 -0.0175
v  -0.0047 0.0075 -0.0175
v  -0.0055 0.0071 -0.0186
v  -0.0050 0.0069 -0.0185
v  -0.0050 0.0062 -0.0196
v  -0.0043 0.0062 -0.0195
v  -0.0043 0.0067 -0.0185
v  -0.0040 0.0056 -0.0204
v  -0.0023 0.0059 -0.0199
v  -0.0025 0.0063 -0.0193
v  -0.0035 0.0051 -0.0213
v  -0.0020 0.0056 -0.0204
v  -0.0027 0.0046 -0.0221
v  -0.0015 0.0053 -0.0209
v  -0.0017 0.0043 -0.0226
v  -0.0009 0.0051 -0.0212
v  -0.0006 0.0041 -0.0230
v  -0.0002 0.0050 -0.0214
v  0.0006 0.0040 -0.0230
v  0.0005 0.0050 -0.0215
v  0.0017 0.0041 -0.0229
v  0.0012 0.0050 -0.0214
v  0.0028 0.0044 -0.0225
v  0.0019 0.0052 -0.0211
v  0.0037 0.0047 -0.0219
v  0.0025 0.0054 -0.0207
v  0.0044 0.0052 -0.0211
v  0.0029 0.0057 -0.0203
v  0.0049 0.0057 -0.0202
v  0.0032 0.0060 -0.0197
v  0.0051 0.0063 -0.0192
v  0.0033 0.0064 -0.0191
v  0.0050 0.0069 -0.0183
v  0.0032 0.0067 -0.0185
v  0.0047 0.0074 -0.0174
v  0.0030 0.0071 -0.0180
v  0.0041 0.0079 -0.0165
v  0.0027 0.0074 -0.0175
v  0.0033 0.0083 -0.0159
v  0.0022 0.0076 -0.0171
v  0.0024 0.0086 -0.0153
v  0.0016 0.0078 -0.0167
v  0.0013 0.0088 -0.0150
v  0.0010 0.0079 -0.0166
v  0.0002 0.0089 -0.0150
v  0.0003 0.0079 -0.0165
v  -0.0009 0.0088 -0.0151
v  -0.0004 0.0079 -0.0166
v  -0.0019 0.0086 -0.0154
v  -0.0010 0.0078 -0.0168
v  -0.0028 0.0082 -0.0160
v  -0.0015 0.0076 -0.0171
v  -0.0035 0.0078 -0.0167
v  -0.0020 0.0073 -0.0176
v  -0.0040 0.0073 -0.0176
v  -0.0023 0.0070 -0.0181
v  -0.0025 0.0067 -0.0187
v  -0.0023 0.0050 -0.0168
v  -0.0019 0.0053 -0.0163
v  -0.0025 0.0047 -0.0173
v  -0.0025 0.0043 -0.0179
v  -0.0024 0.0040 -0.0185
v  -0.0021 0.0036 -0.0191
v  -0.0016 0.0033 -0.0196
v  -0.0010 0.0031 -0.0200
v  -0.0003 0.0030 -0.0202
v  0.0005 0.0029 -0.0203
v  0.0013 0.0030 -0.0201
v  0.0020 0.0032 -0.0198
v  0.0026 0.0034 -0.0194
v  0.0029 0.0037 -0.0190
v  0.0032 0.0040 -0.0184
v  0.0033 0.0043 -0.0179
v  0.0032 0.0047 -0.0173
v  0.0030 0.0050 -0.0167
v  0.0027 0.0053 -0.0162
v  0.0022 0.0056 -0.0158
v  0.0016 0.0057 -0.0155
v  0.0010 0.0059 -0.0153
v  0.0003 0.0059 -0.0153
v  -0.0004 0.0058 -0.0154
v  -0.0010 0.0057 -0.0156
v  -0.0015 0.0055 -0.0159
v  -0.0031 0.0051 -0.0152
v  -0.0025 0.0055 -0.0146
v  -0.0036 0.0047 -0.0160
v  -0.0048 0.0043 -0.0154
v  -0.0042 0.0049 -0.0144
v  -0.0039 0.0042 -0.0169
v  -0.0051 0.0036 -0.0165
v  -0.0039 0.0037 -0.0178
v  -0.0051 0.0029 -0.0177
v  -0.0037 0.0031 -0.0187
v  -0.0047 0.0023 -0.0188
v  -0.0032 0.0026 -0.0195
v  -0.0041 0.0017 -0.0199
v  -0.0025 0.0022 -0.0202
v  -0.0032 0.0012 -0.0207
v  -0.0016 0.0019 -0.0207
v  -0.0021 0.0008 -0.0213
v  -0.0005 0.0018 -0.0210
v  -0.0007 0.0006 -0.0217
v  0.0006 0.0017 -0.0211
v  0.0006 0.0006 -0.0218
v  0.0017 0.0018 -0.0209
v  0.0019 0.0007 -0.0216
v  0.0027 0.0020 -0.0205
v  0.0032 0.0009 -0.0211
v  0.0036 0.0024 -0.0200
v  0.0043 0.0013 -0.0204
v  0.0042 0.0028 -0.0193
v  0.0051 0.0018 -0.0196
v  0.0045 0.0032 -0.0185
v  0.0057 0.0023 -0.0186
v  0.0047 0.0037 -0.0177
v  0.0059 0.0030 -0.0175
v  0.0046 0.0042 -0.0168
v  0.0059 0.0037 -0.0164
v  0.0043 0.0047 -0.0160
v  0.0055 0.0043 -0.0153
v  0.0038 0.0052 -0.0152
v  0.0049 0.0049 -0.0143
v  0.0031 0.0056 -0.0146
v  0.0040 0.0054 -0.0134
v  0.0023 0.0058 -0.0141
v  0.0028 0.0058 -0.0128
v  0.0013 0.0060 -0.0138
v  0.0016 0.0060 -0.0124
v  0.0003 0.0061 -0.0137
v  0.0002 0.0061 -0.0123
v  -0.0008 0.0060 -0.0138
v  -0.0011 0.0060 -0.0124
v  -0.0017 0.0058 -0.0141
v  -0.0023 0.0058 -0.0128
v  -0.0034 0.0054 -0.0135
v  -0.0054 0.0042 -0.0134
v  -0.0043 0.0049 -0.0123
v  -0.0061 0.0034 -0.0147
v  -0.0064 0.0026 -0.0161
v  -0.0063 0.0018 -0.0175
v  -0.0058 0.0009 -0.0188
v  -0.0050 0.0002 -0.0200
v  -0.0039 -0.0004 -0.0211
v  -0.0025 -0.0008 -0.0218
v  -0.0010 -0.0011 -0.0222
v  0.0006 -0.0011 -0.0223
v  0.0021 -0.0010 -0.0221
v  0.0036 -0.0007 -0.0216
v  0.0050 -0.0002 -0.0208
v  0.0060 0.0004 -0.0198
v  0.0067 0.0011 -0.0186
v  0.0071 0.0019 -0.0172
v  0.0071 0.0027 -0.0158
v  0.0067 0.0036 -0.0145
v  0.0059 0.0043 -0.0132
v  0.0048 0.0050 -0.0121
v  0.0035 0.0054 -0.0113
v  0.0019 0.0057 -0.0108
v  0.0003 0.0058 -0.0107
v  -0.0014 0.0057 -0.0109
v  -0.0030 0.0053 -0.0114
# 417 vertices

vn -0.0282 0.8917 -0.4518
vn -0.0434 0.8870 -0.4597
vn -0.0571 0.8800 -0.4715
vn -0.0666 0.8719 -0.4851
vn -0.0711 0.8646 -0.4975
vn -0.0723 0.8543 -0.5148
vn -0.0697 0.8466 -0.5276
vn -0.0639 0.8400 -0.5389
vn -0.0522 0.8322 -0.5520
vn -0.0375 0.8262 -0.5622
vn -0.0228 0.8226 -0.5682
vn -0.0051 0.8206 -0.5714
vn 0.0096 0.8209 -0.5710
vn 0.0261 0.8232 -0.5672
vn 0.0400 0.8271 -0.5606
vn 0.0542 0.8338 -0.5494
vn 0.0630 0.8405 -0.5382
vn 0.0222 0.8920 -0.4515
vn 0.0011 0.8941 -0.4478
vn -0.0154 0.8937 -0.4484
vn 0.0696 0.8499 -0.5224
vn 0.0417 0.8872 -0.4595
vn 0.2113 0.9680 0.1354
vn 0.0603 0.9837 0.1691
vn -0.1021 0.9798 0.1721
vn -0.2615 0.9554 0.1369
vn -0.3999 0.9142 0.0657
vn -0.5133 0.8577 -0.0293
vn -0.5990 0.7877 -0.1439
vn -0.6495 0.7089 -0.2750
vn -0.6620 0.6272 -0.4103
vn -0.6357 0.5451 -0.5466
vn -0.5688 0.4719 -0.6737
vn -0.4704 0.4115 -0.7807
vn -0.3486 0.3623 -0.8644
vn -0.2072 0.3281 -0.9216
vn -0.0529 0.3136 -0.9481
vn 0.1059 0.3159 -0.9429
vn 0.2549 0.3415 -0.9047
vn 0.3878 0.3848 -0.8376
vn 0.4973 0.4423 -0.7464
vn 0.5810 0.5103 -0.6341
vn 0.6304 0.5847 -0.5106
vn 0.6465 0.6625 -0.3782
vn 0.6254 0.7408 -0.2452
vn 0.0692 0.8671 -0.4932
vn 0.0715 0.8585 -0.5079
vn 0.5687 0.8140 -0.1184
vn 0.0623 0.8759 -0.4785
vn 0.4751 0.8799 -0.0065
vn 0.0533 0.8822 -0.4679
vn 0.3508 0.9331 0.0788
vn -0.1422 0.7184 -0.6809
vn -0.0844 0.7046 -0.7045
vn -0.1866 0.4267 -0.8849
vn -0.0495 0.4109 -0.9103
vn -0.0223 0.6976 -0.7161
vn 0.0907 0.4138 -0.9059
vn 0.0418 0.6982 -0.7147
vn 0.2270 0.4344 -0.8717
vn 0.1031 0.7070 -0.6997
vn 0.3484 0.4706 -0.8106
vn 0.1582 0.7235 -0.6719
vn 0.4481 0.5204 -0.7269
vn 0.2039 0.7460 -0.6339
vn 0.5215 0.5805 -0.6253
vn 0.2377 0.7734 -0.5877
vn 0.5634 0.6487 -0.5116
vn 0.2564 0.8040 -0.5365
vn 0.5730 0.7189 -0.3936
vn 0.2607 0.8367 -0.4816
vn 0.5503 0.7881 -0.2758
vn 0.2508 0.8681 -0.4284
vn 0.4959 0.8522 -0.1667
vn 0.2256 0.8976 -0.3786
vn 0.4129 0.9079 -0.0721
vn 0.1879 0.9231 -0.3356
vn 0.3055 0.9522 0.0017
vn 0.1395 0.9430 -0.3021
vn 0.1815 0.9821 0.0510
vn 0.0825 0.9565 -0.2799
vn 0.0470 0.9962 0.0730
vn 0.0217 0.9625 -0.2704
vn -0.0888 0.9937 0.0690
vn -0.0417 0.9614 -0.2720
vn -0.2209 0.9746 0.0378
vn -0.1009 0.9531 -0.2853
vn -0.3397 0.9403 -0.0204
vn -0.1550 0.9373 -0.3122
vn -0.4393 0.8927 -0.1004
vn -0.2002 0.9155 -0.3490
vn -0.5149 0.8340 -0.1985
vn -0.2349 0.8887 -0.3937
vn -0.5614 0.7675 -0.3095
vn -0.2560 0.8586 -0.4442
vn -0.5750 0.6975 -0.4276
vn -0.2621 0.8267 -0.4978
vn -0.5551 0.6276 -0.5459
vn -0.2528 0.7950 -0.5514
vn -0.2281 0.7658 -0.6013
vn -0.5018 0.5625 -0.6571
vn -0.4203 0.5052 -0.7537
vn -0.1901 0.7390 -0.6463
vn -0.5937 0.2234 -0.7731
vn -0.4425 0.1578 -0.8828
vn -0.3126 0.4582 -0.8320
vn -0.5239 -0.1630 -0.8360
vn -0.3121 -0.2159 -0.9252
vn -0.2641 0.1123 -0.9579
vn -0.0820 -0.2406 -0.9672
vn -0.0696 0.0906 -0.9934
vn 0.1532 -0.2359 -0.9596
vn 0.1296 0.0956 -0.9869
vn 0.3794 -0.2019 -0.9029
vn 0.3202 0.1251 -0.9391
vn 0.5820 -0.1407 -0.8009
vn 0.4914 0.1761 -0.8530
vn 0.7484 -0.0571 -0.6608
vn 0.6322 0.2466 -0.7345
vn 0.8702 0.0437 -0.4908
vn 0.7352 0.3317 -0.5911
vn 0.9408 0.1555 -0.3012
vn 0.7951 0.4268 -0.4309
vn 0.9567 0.2723 -0.1032
vn 0.8085 0.5260 -0.2638
vn 0.9174 0.3872 0.0917
vn 0.7757 0.6233 -0.0988
vn 0.8257 0.4940 0.2724
vn 0.6985 0.7135 0.0548
vn 0.6868 0.5869 0.4288
vn 0.5810 0.7921 0.1871
vn 0.5091 0.6607 0.5517
vn 0.4304 0.8545 0.2910
vn 0.3033 0.7107 0.6347
vn 0.2560 0.8967 0.3612
vn 0.0806 0.7345 0.6738
vn 0.0673 0.9167 0.3938
vn -0.1466 0.7306 0.6669
vn -0.1249 0.9133 0.3876
vn -0.3655 0.6996 0.6140
vn -0.3100 0.8869 0.3426
vn -0.5638 0.6430 0.5184
vn -0.4773 0.8388 0.2618
vn -0.7306 0.5639 0.3850
vn -0.6185 0.7715 0.1491
vn -0.8566 0.4662 0.2212
vn -0.7249 0.6888 0.0106
vn -0.9340 0.3555 0.0358
vn -0.7901 0.5953 -0.1461
vn -0.9577 0.2384 -0.1609
vn -0.8097 0.4967 -0.3126
vn -0.9259 0.1216 -0.3577
vn -0.7824 0.3980 -0.4789
vn -0.8395 0.0115 -0.5432
vn -0.7092 0.3050 -0.6356
vn -0.8762 -0.2855 -0.3884
vn -0.7341 -0.3864 -0.5584
vn -0.7033 -0.0855 -0.7058
vn -0.6816 -0.6440 -0.3474
vn -0.5082 -0.7190 -0.4741
vn -0.5469 -0.4672 -0.6947
vn -0.3027 -0.7703 -0.5612
vn -0.3258 -0.5225 -0.7880
vn -0.0793 -0.7941 -0.6026
vn -0.0855 -0.5483 -0.8319
vn 0.1490 -0.7893 -0.5957
vn 0.1601 -0.5430 -0.8243
vn 0.3689 -0.7559 -0.5409
vn 0.3963 -0.5073 -0.7652
vn 0.5653 -0.6965 -0.4419
vn 0.6079 -0.4434 -0.6587
vn 0.7266 -0.6155 -0.3052
vn 0.7816 -0.3565 -0.5120
vn 0.8438 -0.5182 -0.1397
vn 0.9083 -0.2515 -0.3342
vn 0.9110 -0.4101 0.0442
vn 0.9814 -0.1348 -0.1365
vn 0.9253 -0.2974 0.2354
vn 0.9975 -0.0135 0.0700
vn 0.8867 -0.1864 0.4231
vn 0.9562 0.1062 0.2728
vn 0.7978 -0.0832 0.5971
vn 0.8604 0.2177 0.4608
vn 0.6640 0.0062 0.7477
vn 0.7160 0.3145 0.6232
vn 0.4930 0.0772 0.8666
vn 0.5311 0.3911 0.7516
vn 0.2946 0.1259 0.9473
vn 0.3170 0.4432 0.8385
vn 0.0797 0.1492 0.9856
vn 0.0850 0.4681 0.8796
vn -0.1397 0.1461 0.9794
vn -0.1517 0.4643 0.8726
vn -0.3512 0.1165 0.9290
vn -0.3797 0.4323 0.8179
vn -0.5434 0.0623 0.8372
vn -0.5867 0.3735 0.7185
vn -0.7054 -0.0140 0.7087
vn -0.7611 0.2914 0.5796
vn -0.8279 -0.1082 0.5504
vn -0.8927 0.1897 0.4087
vn -0.9033 -0.2155 0.3711
vn -0.9737 0.0743 0.2154
vn -0.9267 -0.3295 0.1809
vn -0.9988 -0.0481 0.0104
vn -0.8964 -0.4432 -0.0093
vn -0.9659 -0.1705 -0.1948
vn -0.7261 -0.6647 0.1759
vn -0.6592 -0.7514 0.0303
vn -0.8133 -0.5503 -0.1891
vn -0.4349 -0.8673 0.2422
vn -0.3650 -0.9176 0.1572
vn -0.5528 -0.8275 -0.0982
vn -0.2732 -0.9579 0.0882
vn -0.4125 -0.8884 -0.2016
vn -0.1633 -0.9858 0.0396
vn -0.2457 -0.9301 -0.2729
vn -0.0425 -0.9990 0.0157
vn -0.0644 -0.9495 -0.3071
vn 0.0811 -0.9965 0.0184
vn 0.1213 -0.9455 -0.3023
vn 0.2003 -0.9785 0.0482
vn 0.3005 -0.9183 -0.2579
vn 0.3060 -0.9465 0.1030
vn 0.4601 -0.8700 -0.1772
vn 0.3915 -0.9028 0.1778
vn 0.5908 -0.8041 -0.0659
vn 0.4532 -0.8505 0.2671
vn 0.6850 -0.7253 0.0694
vn 0.4871 -0.7925 0.3671
vn 0.7383 -0.6380 0.2189
vn 0.4931 -0.7332 0.4682
vn 0.7491 -0.5470 0.3736
vn 0.4728 -0.6737 0.5680
vn 0.7176 -0.4574 0.5253
vn 0.4254 -0.6187 0.6605
vn 0.6456 -0.3739 0.6658
vn 0.3542 -0.5709 0.7407
vn 0.5374 -0.3014 0.7876
vn 0.2634 -0.5329 0.8041
vn 0.3993 -0.2438 0.8838
vn 0.1579 -0.5064 0.8477
vn 0.2389 -0.2042 0.9493
vn 0.0434 -0.4930 0.8689
vn 0.0652 -0.1848 0.9806
vn -0.0739 -0.4944 0.8661
vn -0.1125 -0.1872 0.9758
vn -0.1871 -0.5097 0.8398
vn -0.2838 -0.2109 0.9354
vn -0.2910 -0.5378 0.7912
vn -0.4398 -0.2545 0.8613
vn -0.3782 -0.5793 0.7221
vn -0.5714 -0.3161 0.7573
vn -0.4430 -0.6300 0.6379
vn -0.6707 -0.3928 0.6292
vn -0.4836 -0.6876 0.5416
vn -0.7317 -0.4799 0.4842
vn -0.4960 -0.7487 0.4398
vn -0.7507 -0.5723 0.3301
vn -0.1623 -0.8485 0.5036
vn -0.1569 -0.8683 0.4706
vn -0.4794 -0.8098 0.3383
vn 0.0020 -0.8592 0.5116
vn 0.0018 -0.8590 0.5120
vn -0.1431 -0.8872 0.4387
vn 0.0016 -0.8588 0.5123
vn -0.1202 -0.9040 0.4102
vn 0.0012 -0.8586 0.5126
vn -0.0898 -0.9176 0.3872
vn 0.0007 -0.8585 0.5128
vn -0.0539 -0.9273 0.3704
vn 0.0001 -0.8584 0.5129
vn -0.0142 -0.9321 0.3619
vn -0.0003 -0.8584 0.5129
vn 0.0271 -0.9316 0.3624
vn -0.0008 -0.8585 0.5127
vn 0.0671 -0.9258 0.3719
vn -0.0012 -0.8587 0.5125
vn 0.1021 -0.9146 0.3912
vn -0.0015 -0.8589 0.5121
vn 0.1291 -0.8996 0.4172
vn -0.0018 -0.8591 0.5118
vn 0.1493 -0.8821 0.4468
vn -0.0021 -0.8594 0.5113
vn 0.1592 -0.8634 0.4787
vn -0.0021 -0.8595 0.5110
vn 0.1604 -0.8432 0.5131
vn -0.0020 -0.8598 0.5106
vn 0.1542 -0.8242 0.5449
vn -0.0018 -0.8601 0.5102
vn 0.1391 -0.8062 0.5751
vn -0.0015 -0.8602 0.5099
vn 0.1159 -0.7905 0.6014
vn -0.0011 -0.8604 0.5096
vn 0.0862 -0.7780 0.6223
vn -0.0006 -0.8605 0.5094
vn 0.0515 -0.7694 0.6367
vn -0.0001 -0.8606 0.5093
vn 0.0145 -0.7650 0.6439
vn 0.0002 -0.8606 0.5093
vn -0.0239 -0.7651 0.6435
vn 0.0008 -0.8605 0.5095
vn -0.0618 -0.7697 0.6354
vn 0.0010 -0.8604 0.5096
vn -0.0966 -0.7789 0.6196
vn 0.0015 -0.8602 0.5100
vn -0.1241 -0.7927 0.5968
vn 0.0018 -0.8599 0.5104
vn -0.1457 -0.8099 0.5681
vn 0.0020 -0.8597 0.5107
vn -0.1589 -0.8286 0.5369
vn 0.0021 -0.8595 0.5111
vn -0.8714 0.2523 0.4207
vn -0.9613 0.1415 0.2362
vn -0.9993 0.0201 0.0329
vn -0.9787 -0.1056 -0.1762
vn -0.8974 -0.2272 -0.3782
vn -0.7582 -0.3350 -0.5594
vn -0.5715 -0.4211 -0.7043
vn -0.3442 -0.4832 -0.8050
vn -0.0829 -0.5138 -0.8539
vn 0.1875 -0.5062 -0.8418
vn 0.4372 -0.4627 -0.7712
vn 0.6468 -0.3914 -0.6545
vn 0.8085 -0.3014 -0.5055
vn 0.9227 -0.1970 -0.3313
vn 0.9868 -0.0824 -0.1391
vn 0.9974 0.0376 0.0619
vn 0.9529 0.1560 0.2603
vn 0.8558 0.2658 0.4439
vn 0.7119 0.3608 0.6025
vn 0.5288 0.4359 0.7283
vn 0.3172 0.4872 0.8137
vn 0.0897 0.5115 0.8546
vn -0.1426 0.5083 0.8493
vn -0.3646 0.4787 0.7987
vn -0.5647 0.4243 0.7079
vn -0.7369 0.3474 0.5799
vn -0.3070 0.9261 -0.2195
vn -0.3624 0.8874 -0.2850
vn -0.4277 0.8691 -0.2485
vn -0.4715 0.8132 -0.3411
vn -0.3996 0.8416 -0.3634
vn -0.4892 0.7537 -0.4389
vn -0.4151 0.7923 -0.4473
vn -0.4785 0.6910 -0.5418
vn -0.4066 0.7407 -0.5348
vn -0.4345 0.6304 -0.6432
vn -0.3707 0.6900 -0.6217
vn -0.3660 0.5792 -0.7284
vn -0.3129 0.6459 -0.6963
vn -0.2758 0.5381 -0.7965
vn -0.2378 0.6111 -0.7550
vn -0.1653 0.5083 -0.8452
vn -0.1445 0.5870 -0.7966
vn -0.0400 0.4936 -0.8687
vn -0.0337 0.5755 -0.8171
vn 0.0873 0.4972 -0.8632
vn 0.0796 0.5782 -0.8120
vn 0.2068 0.5176 -0.8303
vn 0.1852 0.5945 -0.7825
vn 0.3115 0.5530 -0.7728
vn 0.2753 0.6221 -0.7329
vn 0.3901 0.5980 -0.7001
vn 0.3413 0.6576 -0.6716
vn 0.4452 0.6487 -0.6173
vn 0.3867 0.6991 -0.6015
vn 0.4780 0.7027 -0.5270
vn 0.4126 0.7450 -0.5242
vn 0.4865 0.7611 -0.4290
vn 0.4176 0.7945 -0.4408
vn 0.4678 0.8192 -0.3318
vn 0.3998 0.8437 -0.3581
vn 0.4225 0.8739 -0.2403
vn 0.3597 0.8898 -0.2807
vn 0.3534 0.9216 -0.1608
vn 0.2999 0.9297 -0.2138
vn 0.2634 0.9598 -0.0971
vn 0.2232 0.9616 -0.1600
vn 0.1603 0.9856 -0.0543
vn 0.1344 0.9832 -0.1238
vn 0.0454 0.9984 -0.0334
vn 0.0379 0.9936 -0.1065
vn -0.0703 0.9969 -0.0363
vn -0.0610 0.9922 -0.1084
vn -0.1806 0.9816 -0.0623
vn -0.1539 0.9796 -0.1290
vn -0.2775 0.9547 -0.1071
vn -0.2354 0.9577 -0.1656
vn -0.3619 0.9165 -0.1706
vn -0.5130 0.8584 -0.0077
vn -0.5995 0.7902 -0.1270
vn -0.6509 0.7134 -0.2596
vn -0.6633 0.6339 -0.3979
vn -0.6365 0.5538 -0.5368
vn -0.5735 0.4777 -0.6655
vn -0.4804 0.4102 -0.7752
vn -0.3566 0.3587 -0.8627
vn -0.2100 0.3270 -0.9214
vn -0.0554 0.3130 -0.9481
vn 0.1015 0.3154 -0.9435
vn 0.2533 0.3335 -0.9081
vn 0.3946 0.3677 -0.8421
vn 0.5161 0.4158 -0.7489
vn 0.6056 0.4809 -0.6341
vn 0.6572 0.5579 -0.5068
vn 0.6711 0.6416 -0.3716
vn 0.6478 0.7242 -0.2363
vn 0.5880 0.8016 -0.1079
vn 0.4935 0.8697 0.0054
vn 0.3691 0.9246 0.0941
vn 0.2264 0.9613 0.1567
vn 0.0676 0.9796 0.1890
vn -0.0938 0.9775 0.1892
vn -0.2544 0.9545 0.1555
vn -0.3960 0.9142 0.0862
# 416 vertex normals

vt 0.3069 0.7719 0.0000
vt 0.2805 0.7614 0.0000
vt 0.2788 0.7682 0.0000
vt 0.2837 0.7553 0.0000
vt 0.2883 0.7502 0.0000
vt 0.2939 0.7462 0.0000
vt 0.3004 0.7438 0.0000
vt 0.3072 0.7430 0.0000
vt 0.3141 0.7439 0.0000
vt 0.3204 0.7464 0.0000
vt 0.3260 0.7503 0.0000
vt 0.3305 0.7554 0.0000
vt 0.3336 0.7613 0.0000
vt 0.3353 0.7681 0.0000
vt 0.3353 0.7748 0.0000
vt 0.3337 0.7813 0.0000
vt 0.3306 0.7872 0.0000
vt 0.3261 0.7924 0.0000
vt 0.3206 0.7963 0.0000
vt 0.2841 0.7879 0.0000
vt 0.2808 0.7820 0.0000
vt 0.2789 0.7753 0.0000
vt 0.3144 0.7988 0.0000
vt 0.2886 0.7930 0.0000
vt 0.2768 0.7835 0.0000
vt 0.2806 0.7904 0.0000
vt 0.2748 0.7757 0.0000
vt 0.2748 0.7677 0.0000
vt 0.2766 0.7600 0.0000
vt 0.2803 0.7530 0.0000
vt 0.2856 0.7471 0.0000
vt 0.2921 0.7426 0.0000
vt 0.2995 0.7399 0.0000
vt 0.3073 0.7390 0.0000
vt 0.3150 0.7400 0.0000
vt 0.3223 0.7428 0.0000
vt 0.3287 0.7472 0.0000
vt 0.3339 0.7530 0.0000
vt 0.3374 0.7599 0.0000
vt 0.3394 0.7674 0.0000
vt 0.3394 0.7752 0.0000
vt 0.3376 0.7827 0.0000
vt 0.3342 0.7896 0.0000
vt 0.3291 0.7955 0.0000
vt 0.3228 0.8000 0.0000
vt 0.3156 0.8030 0.0000
vt 0.3079 0.8041 0.0000
vt 0.3077 0.7998 0.0000
vt 0.3009 0.7991 0.0000
vt 0.3000 0.8033 0.0000
vt 0.2944 0.7969 0.0000
vt 0.2925 0.8007 0.0000
vt 0.2859 0.7963 0.0000
vt 0.2770 0.7930 0.0000
vt 0.2831 0.7997 0.0000
vt 0.2727 0.7851 0.0000
vt 0.2689 0.7865 0.0000
vt 0.2738 0.7953 0.0000
vt 0.2705 0.7763 0.0000
vt 0.2664 0.7768 0.0000
vt 0.2704 0.7672 0.0000
vt 0.2664 0.7667 0.0000
vt 0.2725 0.7584 0.0000
vt 0.2688 0.7570 0.0000
vt 0.2767 0.7504 0.0000
vt 0.2735 0.7481 0.0000
vt 0.2827 0.7437 0.0000
vt 0.2801 0.7407 0.0000
vt 0.2901 0.7387 0.0000
vt 0.2883 0.7352 0.0000
vt 0.2985 0.7356 0.0000
vt 0.2976 0.7317 0.0000
vt 0.3073 0.7346 0.0000
vt 0.3074 0.7306 0.0000
vt 0.3161 0.7357 0.0000
vt 0.3171 0.7318 0.0000
vt 0.3244 0.7389 0.0000
vt 0.3262 0.7354 0.0000
vt 0.3317 0.7439 0.0000
vt 0.3343 0.7409 0.0000
vt 0.3375 0.7505 0.0000
vt 0.3407 0.7482 0.0000
vt 0.3416 0.7583 0.0000
vt 0.3453 0.7568 0.0000
vt 0.3437 0.7668 0.0000
vt 0.3477 0.7663 0.0000
vt 0.3438 0.7756 0.0000
vt 0.3478 0.7760 0.0000
vt 0.3418 0.7842 0.0000
vt 0.3456 0.7855 0.0000
vt 0.3379 0.7920 0.0000
vt 0.3412 0.7941 0.0000
vt 0.3321 0.7987 0.0000
vt 0.3349 0.8016 0.0000
vt 0.3250 0.8039 0.0000
vt 0.3270 0.8073 0.0000
vt 0.3168 0.8072 0.0000
vt 0.3179 0.8110 0.0000
vt 0.3080 0.8085 0.0000
vt 0.3082 0.8124 0.0000
vt 0.2991 0.8076 0.0000
vt 0.2983 0.8115 0.0000
vt 0.2907 0.8046 0.0000
vt 0.2889 0.8082 0.0000
vt 0.2806 0.8027 0.0000
vt 0.4423 0.1890 0.0000
vt 0.4383 0.1890 0.0000
vt 0.4383 0.1990 0.0000
vt 0.4423 0.1990 0.0000
vt 0.4423 0.1788 0.0000
vt 0.4383 0.1788 0.0000
vt 0.4342 0.1788 0.0000
vt 0.4342 0.1890 0.0000
vt 0.4383 0.1688 0.0000
vt 0.4342 0.1688 0.0000
vt 0.4423 0.1688 0.0000
vt 0.4383 0.1578 0.0000
vt 0.4342 0.1578 0.0000
vt 0.4423 0.1578 0.0000
vt 0.4383 0.4180 0.0000
vt 0.4383 0.4069 0.0000
vt 0.4342 0.4069 0.0000
vt 0.4342 0.4180 0.0000
vt 0.4423 0.4180 0.0000
vt 0.4423 0.4069 0.0000
vt 0.4383 0.3969 0.0000
vt 0.4342 0.3969 0.0000
vt 0.4423 0.3969 0.0000
vt 0.4383 0.3869 0.0000
vt 0.4342 0.3869 0.0000
vt 0.4423 0.3869 0.0000
vt 0.4383 0.3768 0.0000
vt 0.4342 0.3768 0.0000
vt 0.4423 0.3768 0.0000
vt 0.4383 0.3669 0.0000
vt 0.4342 0.3669 0.0000
vt 0.4423 0.3669 0.0000
vt 0.4383 0.3569 0.0000
vt 0.4342 0.3569 0.0000
vt 0.4423 0.3569 0.0000
vt 0.4383 0.3470 0.0000
vt 0.4342 0.3470 0.0000
vt 0.4423 0.3470 0.0000
vt 0.4383 0.3372 0.0000
vt 0.4342 0.3372 0.0000
vt 0.4423 0.3372 0.0000
vt 0.4383 0.3273 0.0000
vt 0.4342 0.3273 0.0000
vt 0.4423 0.3273 0.0000
vt 0.4383 0.3175 0.0000
vt 0.4342 0.3175 0.0000
vt 0.4423 0.3175 0.0000
vt 0.4383 0.3077 0.0000
vt 0.4342 0.3077 0.0000
vt 0.4423 0.3077 0.0000
vt 0.4383 0.2978 0.0000
vt 0.4342 0.2978 0.0000
vt 0.4423 0.2978 0.0000
vt 0.4383 0.2880 0.0000
vt 0.4342 0.2880 0.0000
vt 0.4423 0.2880 0.0000
vt 0.4383 0.2782 0.0000
vt 0.4342 0.2782 0.0000
vt 0.4423 0.2782 0.0000
vt 0.4383 0.2684 0.0000
vt 0.4342 0.2684 0.0000
vt 0.4423 0.2684 0.0000
vt 0.4383 0.2586 0.0000
vt 0.4342 0.2586 0.0000
vt 0.4423 0.2586 0.0000
vt 0.4383 0.2488 0.0000
vt 0.4342 0.2488 0.0000
vt 0.4423 0.2488 0.0000
vt 0.4383 0.2389 0.0000
vt 0.4342 0.2389 0.0000
vt 0.4423 0.2389 0.0000
vt 0.4383 0.2290 0.0000
vt 0.4342 0.2290 0.0000
vt 0.4423 0.2290 0.0000
vt 0.4383 0.2191 0.0000
vt 0.4342 0.2191 0.0000
vt 0.4423 0.2191 0.0000
vt 0.4383 0.2091 0.0000
vt 0.4342 0.2091 0.0000
vt 0.4423 0.2091 0.0000
vt 0.4342 0.1990 0.0000
vt 0.4300 0.1990 0.0000
vt 0.4300 0.2091 0.0000
vt 0.4300 0.1890 0.0000
vt 0.4259 0.1890 0.0000
vt 0.4259 0.1990 0.0000
vt 0.4300 0.1788 0.0000
vt 0.4259 0.1788 0.0000
vt 0.4300 0.1688 0.0000
vt 0.4259 0.1688 0.0000
vt 0.4300 0.1578 0.0000
vt 0.4259 0.1578 0.0000
vt 0.4300 0.4180 0.0000
vt 0.4300 0.4069 0.0000
vt 0.4259 0.4069 0.0000
vt 0.4259 0.4180 0.0000
vt 0.4300 0.3969 0.0000
vt 0.4259 0.3969 0.0000
vt 0.4300 0.3869 0.0000
vt 0.4259 0.3869 0.0000
vt 0.4300 0.3768 0.0000
vt 0.4259 0.3768 0.0000
vt 0.4300 0.3669 0.0000
vt 0.4259 0.3669 0.0000
vt 0.4300 0.3569 0.0000
vt 0.4259 0.3569 0.0000
vt 0.4300 0.3470 0.0000
vt 0.4259 0.3470 0.0000
vt 0.4300 0.3372 0.0000
vt 0.4259 0.3372 0.0000
vt 0.4300 0.3273 0.0000
vt 0.4259 0.3273 0.0000
vt 0.4300 0.3175 0.0000
vt 0.4259 0.3175 0.0000
vt 0.4300 0.3077 0.0000
vt 0.4259 0.3077 0.0000
vt 0.4300 0.2978 0.0000
vt 0.4259 0.2978 0.0000
vt 0.4300 0.2880 0.0000
vt 0.4259 0.2880 0.0000
vt 0.4300 0.2782 0.0000
vt 0.4259 0.2782 0.0000
vt 0.4300 0.2684 0.0000
vt 0.4259 0.2684 0.0000
vt 0.4300 0.2586 0.0000
vt 0.4259 0.2586 0.0000
vt 0.4300 0.2488 0.0000
vt 0.4259 0.2488 0.0000
vt 0.4300 0.2389 0.0000
vt 0.4259 0.2389 0.0000
vt 0.4300 0.2290 0.0000
vt 0.4259 0.2290 0.0000
vt 0.4300 0.2191 0.0000
vt 0.4259 0.2191 0.0000
vt 0.4259 0.2091 0.0000
vt 0.4219 0.2091 0.0000
vt 0.4219 0.2191 0.0000
vt 0.4219 0.1990 0.0000
vt 0.9373 0.6210 0.0000
vt 0.9341 0.6234 0.0000
vt 0.9383 0.6309 0.0000
vt 0.9419 0.6293 0.0000
vt 0.9307 0.6140 0.0000
vt 0.9282 0.6171 0.0000
vt 0.4219 0.1890 0.0000
vt 0.9226 0.6088 0.0000
vt 0.9209 0.6124 0.0000
vt 0.4219 0.1788 0.0000
vt 0.9134 0.6058 0.0000
vt 0.9127 0.6096 0.0000
vt 0.4219 0.1688 0.0000
vt 0.9037 0.6051 0.0000
vt 0.9039 0.6090 0.0000
vt 0.4219 0.1578 0.0000
vt 0.8942 0.6068 0.0000
vt 0.8953 0.6105 0.0000
vt 0.4219 0.4180 0.0000
vt 0.4219 0.4069 0.0000
vt 0.8854 0.6108 0.0000
vt 0.8874 0.6142 0.0000
vt 0.4219 0.3969 0.0000
vt 0.8779 0.6167 0.0000
vt 0.8807 0.6196 0.0000
vt 0.4219 0.3869 0.0000
vt 0.8722 0.6243 0.0000
vt 0.8756 0.6264 0.0000
vt 0.4219 0.3768 0.0000
vt 0.8684 0.6330 0.0000
vt 0.8722 0.6342 0.0000
vt 0.4219 0.3669 0.0000
vt 0.8669 0.6422 0.0000
vt 0.8709 0.6424 0.0000
vt 0.4219 0.3569 0.0000
vt 0.8676 0.6515 0.0000
vt 0.8714 0.6508 0.0000
vt 0.4219 0.3470 0.0000
vt 0.8704 0.6603 0.0000
vt 0.8740 0.6587 0.0000
vt 0.4219 0.3372 0.0000
vt 0.8752 0.6682 0.0000
vt 0.8783 0.6658 0.0000
vt 0.4219 0.3273 0.0000
vt 0.8818 0.6748 0.0000
vt 0.8842 0.6717 0.0000
vt 0.4219 0.3175 0.0000
vt 0.8897 0.6796 0.0000
vt 0.8913 0.6760 0.0000
vt 0.4219 0.3077 0.0000
vt 0.8985 0.6824 0.0000
vt 0.8992 0.6785 0.0000
vt 0.4219 0.2978 0.0000
vt 0.9077 0.6831 0.0000
vt 0.9074 0.6791 0.0000
vt 0.4219 0.2880 0.0000
vt 0.9168 0.6815 0.0000
vt 0.9156 0.6778 0.0000
vt 0.4219 0.2782 0.0000
vt 0.9252 0.6779 0.0000
vt 0.9232 0.6746 0.0000
vt 0.4219 0.2684 0.0000
vt 0.9327 0.6724 0.0000
vt 0.9299 0.6696 0.0000
vt 0.4219 0.2586 0.0000
vt 0.9386 0.6653 0.0000
vt 0.9352 0.6632 0.0000
vt 0.4219 0.2488 0.0000
vt 0.9427 0.6569 0.0000
vt 0.9390 0.6557 0.0000
vt 0.4219 0.2389 0.0000
vt 0.9447 0.6478 0.0000
vt 0.9408 0.6475 0.0000
vt 0.4219 0.2290 0.0000
vt 0.9444 0.6384 0.0000
vt 0.9405 0.6391 0.0000
vt 0.9360 0.6398 0.0000
vt 0.9361 0.6471 0.0000
vt 0.9341 0.6327 0.0000
vt 0.9234 0.6373 0.0000
vt 0.9245 0.6418 0.0000
vt 0.9305 0.6262 0.0000
vt 0.9212 0.6332 0.0000
vt 0.9254 0.6207 0.0000
vt 0.9180 0.6297 0.0000
vt 0.9190 0.6166 0.0000
vt 0.9140 0.6271 0.0000
vt 0.9118 0.6142 0.0000
vt 0.9095 0.6256 0.0000
vt 0.9042 0.6136 0.0000
vt 0.9047 0.6253 0.0000
vt 0.8967 0.6149 0.0000
vt 0.9000 0.6262 0.0000
vt 0.8898 0.6181 0.0000
vt 0.8957 0.6282 0.0000
vt 0.8839 0.6228 0.0000
vt 0.8922 0.6311 0.0000
vt 0.8795 0.6288 0.0000
vt 0.8895 0.6348 0.0000
vt 0.8766 0.6356 0.0000
vt 0.8878 0.6389 0.0000
vt 0.8754 0.6427 0.0000
vt 0.8871 0.6433 0.0000
vt 0.8760 0.6499 0.0000
vt 0.8874 0.6478 0.0000
vt 0.8782 0.6568 0.0000
vt 0.8888 0.6520 0.0000
vt 0.8819 0.6630 0.0000
vt 0.8912 0.6558 0.0000
vt 0.8870 0.6680 0.0000
vt 0.8943 0.6589 0.0000
vt 0.8932 0.6718 0.0000
vt 0.8981 0.6612 0.0000
vt 0.9000 0.6740 0.0000
vt 0.9023 0.6625 0.0000
vt 0.9072 0.6745 0.0000
vt 0.9066 0.6628 0.0000
vt 0.9143 0.6734 0.0000
vt 0.9110 0.6621 0.0000
vt 0.9209 0.6706 0.0000
vt 0.9150 0.6604 0.0000
vt 0.9267 0.6663 0.0000
vt 0.9185 0.6579 0.0000
vt 0.9314 0.6608 0.0000
vt 0.9214 0.6546 0.0000
vt 0.9346 0.6542 0.0000
vt 0.9234 0.6507 0.0000
vt 0.9245 0.6464 0.0000
vt 0.9777 0.9115 0.0000
vt 0.9777 0.9072 0.0000
vt 0.9622 0.9072 0.0000
vt 0.9622 0.9115 0.0000
vt 0.9777 0.9027 0.0000
vt 0.9622 0.9027 0.0000
vt 0.9777 0.8981 0.0000
vt 0.9622 0.8981 0.0000
vt 0.9622 0.8935 0.0000
vt 0.9777 0.8935 0.0000
vt 0.9622 0.8887 0.0000
vt 0.9777 0.8887 0.0000
vt 0.9622 0.8840 0.0000
vt 0.9777 0.8840 0.0000
vt 0.9622 0.8793 0.0000
vt 0.9777 0.8793 0.0000
vt 0.9622 0.9922 0.0000
vt 0.9622 0.9972 0.0000
vt 0.9777 0.9972 0.0000
vt 0.9777 0.9922 0.0000
vt 0.9622 0.9871 0.0000
vt 0.9777 0.9871 0.0000
vt 0.9622 0.9821 0.0000
vt 0.9777 0.9821 0.0000
vt 0.9622 0.9772 0.0000
vt 0.9777 0.9772 0.0000
vt 0.9622 0.9726 0.0000
vt 0.9777 0.9726 0.0000
vt 0.9622 0.9683 0.0000
vt 0.9777 0.9683 0.0000
vt 0.9622 0.9639 0.0000
vt 0.9777 0.9639 0.0000
vt 0.9622 0.9595 0.0000
vt 0.9777 0.9595 0.0000
vt 0.9622 0.9551 0.0000
vt 0.9777 0.9551 0.0000
vt 0.9622 0.9506 0.0000
vt 0.9777 0.9507 0.0000
vt 0.9622 0.9462 0.0000
vt 0.9777 0.9463 0.0000
vt 0.9622 0.9418 0.0000
vt 0.9777 0.9419 0.0000
vt 0.9622 0.9374 0.0000
vt 0.9777 0.9375 0.0000
vt 0.9622 0.9330 0.0000
vt 0.9777 0.9331 0.0000
vt 0.9622 0.9287 0.0000
vt 0.9777 0.9287 0.0000
vt 0.9622 0.9243 0.0000
vt 0.9777 0.9243 0.0000
vt 0.9622 0.9200 0.0000
vt 0.9777 0.9200 0.0000
vt 0.9622 0.9158 0.0000
vt 0.9777 0.9158 0.0000
vt 0.8726 0.3784 0.0000
vt 0.8819 0.3745 0.0000
vt 0.8786 0.3690 0.0000
vt 0.8705 0.3749 0.0000
vt 0.8740 0.3823 0.0000
vt 0.8838 0.3809 0.0000
vt 0.8928 0.3803 0.0000
vt 0.8906 0.3716 0.0000
vt 0.8842 0.3875 0.0000
vt 0.8930 0.3891 0.0000
vt 0.8744 0.3866 0.0000
vt 0.8830 0.3941 0.0000
vt 0.8911 0.3978 0.0000
vt 0.8738 0.3909 0.0000
vt 0.8800 0.4006 0.0000
vt 0.8867 0.4061 0.0000
vt 0.8721 0.3951 0.0000
vt 0.8756 0.4061 0.0000
vt 0.8808 0.4130 0.0000
vt 0.8693 0.3989 0.0000
vt 0.8702 0.4103 0.0000
vt 0.8738 0.4182 0.0000
vt 0.8657 0.4018 0.0000
vt 0.8639 0.4129 0.0000
vt 0.8655 0.4214 0.0000
vt 0.8615 0.4037 0.0000
vt 0.8566 0.4139 0.0000
vt 0.8564 0.4223 0.0000
vt 0.8566 0.4045 0.0000
vt 0.8492 0.4130 0.0000
vt 0.8474 0.4212 0.0000
vt 0.8514 0.4039 0.0000
vt 0.8424 0.4103 0.0000
vt 0.8391 0.4181 0.0000
vt 0.8467 0.4019 0.0000
vt 0.8366 0.4060 0.0000
vt 0.8315 0.4131 0.0000
vt 0.8429 0.3988 0.0000
vt 0.8321 0.4007 0.0000
vt 0.8252 0.4064 0.0000
vt 0.8403 0.3953 0.0000
vt 0.8293 0.3949 0.0000
vt 0.8211 0.3988 0.0000
vt 0.8386 0.3915 0.0000
vt 0.8280 0.3888 0.0000
vt 0.8191 0.3908 0.0000
vt 0.8379 0.3874 0.0000
vt 0.8282 0.3823 0.0000
vt 0.8191 0.3821 0.0000
vt 0.8381 0.3833 0.0000
vt 0.8299 0.3760 0.0000
vt 0.8212 0.3735 0.0000
vt 0.8393 0.3792 0.0000
vt 0.8330 0.3701 0.0000
vt 0.8252 0.3655 0.0000
vt 0.8414 0.3755 0.0000
vt 0.8375 0.3651 0.0000
vt 0.8310 0.3587 0.0000
vt 0.8443 0.3723 0.0000
vt 0.8429 0.3613 0.0000
vt 0.8382 0.3535 0.0000
vt 0.8478 0.3700 0.0000
vt 0.8492 0.3589 0.0000
vt 0.8466 0.3502 0.0000
vt 0.8518 0.3685 0.0000
vt 0.8559 0.3580 0.0000
vt 0.8555 0.3489 0.0000
vt 0.8560 0.3680 0.0000
vt 0.8625 0.3587 0.0000
vt 0.8645 0.3498 0.0000
vt 0.8602 0.3685 0.0000
vt 0.8688 0.3609 0.0000
vt 0.8730 0.3527 0.0000
vt 0.8642 0.3699 0.0000
vt 0.8742 0.3643 0.0000
vt 0.8804 0.3575 0.0000
vt 0.8676 0.3720 0.0000
vt 0.8864 0.3640 0.0000
vt 0.9007 0.3690 0.0000
vt 0.8952 0.3587 0.0000
vt 0.9035 0.3802 0.0000
vt 0.9035 0.3919 0.0000
vt 0.9008 0.4030 0.0000
vt 0.8952 0.4135 0.0000
vt 0.8876 0.4220 0.0000
vt 0.8781 0.4284 0.0000
vt 0.8677 0.4323 0.0000
vt 0.8565 0.4337 0.0000
vt 0.8453 0.4325 0.0000
vt 0.8348 0.4287 0.0000
vt 0.8253 0.4224 0.0000
vt 0.8176 0.4141 0.0000
vt 0.8121 0.4043 0.0000
vt 0.8091 0.3937 0.0000
vt 0.8086 0.3823 0.0000
vt 0.8109 0.3711 0.0000
vt 0.8158 0.3607 0.0000
vt 0.8232 0.3516 0.0000
vt 0.8327 0.3446 0.0000
vt 0.8433 0.3401 0.0000
vt 0.8549 0.3384 0.0000
vt 0.8664 0.3394 0.0000
vt 0.8777 0.3434 0.0000
vt 0.8876 0.3501 0.0000
# 529 texture coords

g yvr_d3_left_joystick
usemtl lambert2SG3
s off
f 1/1/1 2/2/1 3/3/1 
f 2/2/2 1/1/2 4/4/2 
f 4/4/3 1/1/3 5/5/3 
f 5/5/4 1/1/4 6/6/4 
f 6/6/5 1/1/5 7/7/5 
f 7/7/6 1/1/6 8/8/6 
f 8/8/7 1/1/7 9/9/7 
f 9/9/8 1/1/8 10/10/8 
f 10/10/9 1/1/9 11/11/9 
f 1/1/10 12/12/10 11/11/10 
f 12/12/11 1/1/11 13/13/11 
f 13/13/12 1/1/12 14/14/12 
f 14/14/13 1/1/13 15/15/13 
f 1/1/14 16/16/14 15/15/14 
f 16/16/15 1/1/15 17/17/15 
f 17/17/16 1/1/16 18/18/16 
f 18/18/17 1/1/17 19/19/17 
f 20/20/18 1/1/18 21/21/18 
f 21/21/19 1/1/19 22/22/19 
f 1/1/20 3/3/20 22/22/20 
f 19/19/21 1/1/21 23/23/21 
f 1/1/22 20/20/22 24/24/22 
f 21/21/23 25/25/23 26/26/23 20/20/23 
f 21/21/24 22/22/24 27/27/24 25/25/24 
f 27/27/25 22/22/25 3/3/25 28/28/25 
f 29/29/26 28/28/26 3/3/26 2/2/26 
f 30/30/27 29/29/27 2/2/27 4/4/27 
f 31/31/28 30/30/28 4/4/28 5/5/28 
f 32/32/29 31/31/29 5/5/29 6/6/29 
f 33/33/30 32/32/30 6/6/30 7/7/30 
f 34/34/31 33/33/31 7/7/31 8/8/31 
f 35/35/32 34/34/32 8/8/32 9/9/32 
f 36/36/33 35/35/33 9/9/33 10/10/33 
f 37/37/34 36/36/34 10/10/34 11/11/34 
f 38/38/35 37/37/35 11/11/35 12/12/35 
f 39/39/36 38/38/36 12/12/36 13/13/36 
f 40/40/37 39/39/37 13/13/37 14/14/37 
f 41/41/38 40/40/38 14/14/38 15/15/38 
f 42/42/39 41/41/39 15/15/39 16/16/39 
f 43/43/40 42/42/40 16/16/40 17/17/40 
f 44/44/41 43/43/41 17/17/41 18/18/41 
f 45/45/42 44/44/42 18/18/42 19/19/42 
f 46/46/43 45/45/43 19/19/43 23/23/43 
f 47/47/44 46/46/44 23/23/44 48/48/44 
f 48/48/45 49/49/45 50/50/45 47/47/45 
f 48/48/46 1/1/46 49/49/46 
f 48/48/47 23/23/47 1/1/47 
f 49/49/48 51/51/48 52/52/48 50/50/48 
f 49/49/49 1/1/49 51/51/49 
f 51/51/50 24/24/50 53/53/50 52/52/50 
f 51/51/51 1/1/51 24/24/51 
f 53/53/52 24/24/52 20/20/52 26/26/52 
f 26/26/53 54/54/53 55/55/53 53/53/53 
f 26/26/54 25/25/54 56/56/54 54/54/54 
f 56/56/55 57/57/55 58/58/55 54/54/55 
f 56/56/56 59/59/56 60/60/56 57/57/56 
f 56/56/57 25/25/57 27/27/57 59/59/57 
f 59/59/58 61/61/58 62/62/58 60/60/58 
f 59/59/59 27/27/59 28/28/59 61/61/59 
f 61/61/60 63/63/60 64/64/60 62/62/60 
f 61/61/61 28/28/61 29/29/61 63/63/61 
f 63/63/62 65/65/62 66/66/62 64/64/62 
f 63/63/63 29/29/63 30/30/63 65/65/63 
f 65/65/64 67/67/64 68/68/64 66/66/64 
f 65/65/65 30/30/65 31/31/65 67/67/65 
f 67/67/66 69/69/66 70/70/66 68/68/66 
f 67/67/67 31/31/67 32/32/67 69/69/67 
f 69/69/68 71/71/68 72/72/68 70/70/68 
f 69/69/69 32/32/69 33/33/69 71/71/69 
f 71/71/70 73/73/70 74/74/70 72/72/70 
f 71/71/71 33/33/71 34/34/71 73/73/71 
f 73/73/72 75/75/72 76/76/72 74/74/72 
f 73/73/73 34/34/73 35/35/73 75/75/73 
f 75/75/74 77/77/74 78/78/74 76/76/74 
f 75/75/75 35/35/75 36/36/75 77/77/75 
f 77/77/76 79/79/76 80/80/76 78/78/76 
f 77/77/77 36/36/77 37/37/77 79/79/77 
f 79/79/78 81/81/78 82/82/78 80/80/78 
f 79/79/79 37/37/79 38/38/79 81/81/79 
f 81/81/80 83/83/80 84/84/80 82/82/80 
f 81/81/81 38/38/81 39/39/81 83/83/81 
f 83/83/82 85/85/82 86/86/82 84/84/82 
f 83/83/83 39/39/83 40/40/83 85/85/83 
f 85/85/84 87/87/84 88/88/84 86/86/84 
f 85/85/85 40/40/85 41/41/85 87/87/85 
f 87/87/86 89/89/86 90/90/86 88/88/86 
f 87/87/87 41/41/87 42/42/87 89/89/87 
f 89/89/88 91/91/88 92/92/88 90/90/88 
f 89/89/89 42/42/89 43/43/89 91/91/89 
f 91/91/90 93/93/90 94/94/90 92/92/90 
f 91/91/91 43/43/91 44/44/91 93/93/91 
f 93/93/92 95/95/92 96/96/92 94/94/92 
f 93/93/93 44/44/93 45/45/93 95/95/93 
f 95/95/94 97/97/94 98/98/94 96/96/94 
f 95/95/95 45/45/95 46/46/95 97/97/95 
f 97/97/96 99/99/96 100/100/96 98/98/96 
f 97/97/97 46/46/97 47/47/97 99/99/97 
f 99/99/98 101/101/98 102/102/98 100/100/98 
f 99/99/99 47/47/99 50/50/99 101/101/99 
f 50/50/100 52/52/100 103/103/100 101/101/100 
f 103/103/101 104/104/101 102/102/101 101/101/101 
f 103/103/102 55/55/102 105/105/102 104/104/102 
f 103/103/103 52/52/103 53/53/103 55/55/103 
f 105/106/104 106/107/104 107/108/104 104/109/104 
f 105/106/105 58/110/105 108/111/105 106/107/105 
f 105/105/106 55/55/106 54/54/106 58/58/106 
f 108/111/107 109/112/107 110/113/107 106/107/107 
f 108/111/108 111/114/108 112/115/108 109/112/108 
f 108/111/109 58/110/109 57/116/109 111/114/109 
f 111/114/110 113/117/110 114/118/110 112/115/110 
f 111/114/111 57/116/111 60/119/111 113/117/111 
f 113/120/112 115/121/112 116/122/112 114/123/112 
f 113/120/113 60/124/113 62/125/113 115/121/113 
f 115/121/114 117/126/114 118/127/114 116/122/114 
f 115/121/115 62/125/115 64/128/115 117/126/115 
f 117/126/116 119/129/116 120/130/116 118/127/116 
f 117/126/117 64/128/117 66/131/117 119/129/117 
f 119/129/118 121/132/118 122/133/118 120/130/118 
f 119/129/119 66/131/119 68/134/119 121/132/119 
f 121/132/120 123/135/120 124/136/120 122/133/120 
f 121/132/121 68/134/121 70/137/121 123/135/121 
f 123/135/122 125/138/122 126/139/122 124/136/122 
f 123/135/123 70/137/123 72/140/123 125/138/123 
f 125/138/124 127/141/124 128/142/124 126/139/124 
f 125/138/125 72/140/125 74/143/125 127/141/125 
f 127/141/126 129/144/126 130/145/126 128/142/126 
f 127/141/127 74/143/127 76/146/127 129/144/127 
f 129/144/128 131/147/128 132/148/128 130/145/128 
f 129/144/129 76/146/129 78/149/129 131/147/129 
f 131/147/130 133/150/130 134/151/130 132/148/130 
f 131/147/131 78/149/131 80/152/131 133/150/131 
f 133/150/132 135/153/132 136/154/132 134/151/132 
f 133/150/133 80/152/133 82/155/133 135/153/133 
f 135/153/134 137/156/134 138/157/134 136/154/134 
f 135/153/135 82/155/135 84/158/135 137/156/135 
f 137/156/136 139/159/136 140/160/136 138/157/136 
f 137/156/137 84/158/137 86/161/137 139/159/137 
f 139/159/138 141/162/138 142/163/138 140/160/138 
f 139/159/139 86/161/139 88/164/139 141/162/139 
f 141/162/140 143/165/140 144/166/140 142/163/140 
f 141/162/141 88/164/141 90/167/141 143/165/141 
f 143/165/142 145/168/142 146/169/142 144/166/142 
f 143/165/143 90/167/143 92/170/143 145/168/143 
f 145/168/144 147/171/144 148/172/144 146/169/144 
f 145/168/145 92/170/145 94/173/145 147/171/145 
f 147/171/146 149/174/146 150/175/146 148/172/146 
f 147/171/147 94/173/147 96/176/147 149/174/147 
f 149/174/148 151/177/148 152/178/148 150/175/148 
f 149/174/149 96/176/149 98/179/149 151/177/149 
f 151/177/150 153/180/150 154/181/150 152/178/150 
f 151/177/151 98/179/151 100/182/151 153/180/151 
f 153/180/152 155/183/152 156/184/152 154/181/152 
f 153/180/153 100/182/153 102/185/153 155/183/153 
f 155/183/154 107/108/154 157/186/154 156/184/154 
f 155/183/155 102/185/155 104/109/155 107/108/155 
f 157/186/156 158/187/156 159/188/156 156/184/156 
f 157/186/157 110/113/157 160/189/157 158/187/157 
f 157/186/158 107/108/158 106/107/158 110/113/158 
f 160/189/159 161/190/159 162/191/159 158/187/159 
f 160/189/160 163/192/160 164/193/160 161/190/160 
f 160/189/161 110/113/161 109/112/161 163/192/161 
f 163/192/162 165/194/162 166/195/162 164/193/162 
f 163/192/163 109/112/163 112/115/163 165/194/163 
f 165/194/164 167/196/164 168/197/164 166/195/164 
f 165/194/165 112/115/165 114/118/165 167/196/165 
f 167/198/166 169/199/166 170/200/166 168/201/166 
f 167/198/167 114/123/167 116/122/167 169/199/167 
f 169/199/168 171/202/168 172/203/168 170/200/168 
f 169/199/169 116/122/169 118/127/169 171/202/169 
f 171/202/170 173/204/170 174/205/170 172/203/170 
f 171/202/171 118/127/171 120/130/171 173/204/171 
f 173/204/172 175/206/172 176/207/172 174/205/172 
f 173/204/173 120/130/173 122/133/173 175/206/173 
f 175/206/174 177/208/174 178/209/174 176/207/174 
f 175/206/175 122/133/175 124/136/175 177/208/175 
f 177/208/176 179/210/176 180/211/176 178/209/176 
f 177/208/177 124/136/177 126/139/177 179/210/177 
f 179/210/178 181/212/178 182/213/178 180/211/178 
f 179/210/179 126/139/179 128/142/179 181/212/179 
f 181/212/180 183/214/180 184/215/180 182/213/180 
f 181/212/181 128/142/181 130/145/181 183/214/181 
f 183/214/182 185/216/182 186/217/182 184/215/182 
f 183/214/183 130/145/183 132/148/183 185/216/183 
f 185/216/184 187/218/184 188/219/184 186/217/184 
f 185/216/185 132/148/185 134/151/185 187/218/185 
f 187/218/186 189/220/186 190/221/186 188/219/186 
f 187/218/187 134/151/187 136/154/187 189/220/187 
f 189/220/188 191/222/188 192/223/188 190/221/188 
f 189/220/189 136/154/189 138/157/189 191/222/189 
f 191/222/190 193/224/190 194/225/190 192/223/190 
f 191/222/191 138/157/191 140/160/191 193/224/191 
f 193/224/192 195/226/192 196/227/192 194/225/192 
f 193/224/193 140/160/193 142/163/193 195/226/193 
f 195/226/194 197/228/194 198/229/194 196/227/194 
f 195/226/195 142/163/195 144/166/195 197/228/195 
f 197/228/196 199/230/196 200/231/196 198/229/196 
f 197/228/197 144/166/197 146/169/197 199/230/197 
f 199/230/198 201/232/198 202/233/198 200/231/198 
f 199/230/199 146/169/199 148/172/199 201/232/199 
f 201/232/200 203/234/200 204/235/200 202/233/200 
f 201/232/201 148/172/201 150/175/201 203/234/201 
f 203/234/202 205/236/202 206/237/202 204/235/202 
f 203/234/203 150/175/203 152/178/203 205/236/203 
f 205/236/204 207/238/204 208/239/204 206/237/204 
f 205/236/205 152/178/205 154/181/205 207/238/205 
f 207/238/206 159/188/206 209/240/206 208/239/206 
f 207/238/207 154/181/207 156/184/207 159/188/207 
f 209/240/208 210/241/208 211/242/208 208/239/208 
f 209/240/209 162/191/209 212/243/209 210/241/209 
f 209/240/210 159/188/210 158/187/210 162/191/210 
f 212/244/211 213/245/211 214/246/211 210/247/211 
f 212/244/212 215/248/212 216/249/212 213/245/212 
f 212/243/213 162/191/213 161/190/213 215/250/213 
f 215/248/214 217/251/214 218/252/214 216/249/214 
f 215/250/215 161/190/215 164/193/215 217/253/215 
f 217/251/216 219/254/216 220/255/216 218/252/216 
f 217/253/217 164/193/217 166/195/217 219/256/217 
f 219/254/218 221/257/218 222/258/218 220/255/218 
f 219/256/219 166/195/219 168/197/219 221/259/219 
f 221/257/220 223/260/220 224/261/220 222/258/220 
f 221/262/221 168/201/221 170/200/221 223/263/221 
f 223/260/222 225/264/222 226/265/222 224/261/222 
f 223/263/223 170/200/223 172/203/223 225/266/223 
f 225/264/224 227/267/224 228/268/224 226/265/224 
f 225/266/225 172/203/225 174/205/225 227/269/225 
f 227/267/226 229/270/226 230/271/226 228/268/226 
f 227/269/227 174/205/227 176/207/227 229/272/227 
f 229/270/228 231/273/228 232/274/228 230/271/228 
f 229/272/229 176/207/229 178/209/229 231/275/229 
f 231/273/230 233/276/230 234/277/230 232/274/230 
f 231/275/231 178/209/231 180/211/231 233/278/231 
f 233/276/232 235/279/232 236/280/232 234/277/232 
f 233/278/233 180/211/233 182/213/233 235/281/233 
f 235/279/234 237/282/234 238/283/234 236/280/234 
f 235/281/235 182/213/235 184/215/235 237/284/235 
f 237/282/236 239/285/236 240/286/236 238/283/236 
f 237/284/237 184/215/237 186/217/237 239/287/237 
f 239/285/238 241/288/238 242/289/238 240/286/238 
f 239/287/239 186/217/239 188/219/239 241/290/239 
f 241/288/240 243/291/240 244/292/240 242/289/240 
f 241/290/241 188/219/241 190/221/241 243/293/241 
f 243/291/242 245/294/242 246/295/242 244/292/242 
f 243/293/243 190/221/243 192/223/243 245/296/243 
f 245/294/244 247/297/244 248/298/244 246/295/244 
f 245/296/245 192/223/245 194/225/245 247/299/245 
f 247/297/246 249/300/246 250/301/246 248/298/246 
f 247/299/247 194/225/247 196/227/247 249/302/247 
f 249/300/248 251/303/248 252/304/248 250/301/248 
f 249/302/249 196/227/249 198/229/249 251/305/249 
f 251/303/250 253/306/250 254/307/250 252/304/250 
f 251/305/251 198/229/251 200/231/251 253/308/251 
f 253/306/252 255/309/252 256/310/252 254/307/252 
f 253/308/253 200/231/253 202/233/253 255/311/253 
f 255/309/254 257/312/254 258/313/254 256/310/254 
f 255/311/255 202/233/255 204/235/255 257/314/255 
f 257/312/256 259/315/256 260/316/256 258/313/256 
f 257/314/257 204/235/257 206/237/257 259/317/257 
f 259/315/258 211/318/258 261/319/258 260/316/258 
f 259/317/259 206/237/259 208/239/259 211/242/259 
f 261/319/260 262/320/260 263/321/260 260/316/260 
f 261/319/261 214/246/261 264/322/261 262/320/261 
f 261/319/262 211/318/262 210/247/262 214/246/262 
f 264/322/263 265/323/263 266/324/263 262/320/263 
f 264/322/264 267/325/264 268/326/264 265/323/264 
f 264/322/265 214/246/265 213/245/265 267/325/265 
f 267/325/266 269/327/266 270/328/266 268/326/266 
f 267/325/267 213/245/267 216/249/267 269/327/267 
f 269/327/268 271/329/268 272/330/268 270/328/268 
f 269/327/269 216/249/269 218/252/269 271/329/269 
f 271/329/270 273/331/270 274/332/270 272/330/270 
f 271/329/271 218/252/271 220/255/271 273/331/271 
f 273/331/272 275/333/272 276/334/272 274/332/272 
f 273/331/273 220/255/273 222/258/273 275/333/273 
f 275/333/274 277/335/274 278/336/274 276/334/274 
f 275/333/275 222/258/275 224/261/275 277/335/275 
f 277/335/276 279/337/276 280/338/276 278/336/276 
f 277/335/277 224/261/277 226/265/277 279/337/277 
f 279/337/278 281/339/278 282/340/278 280/338/278 
f 279/337/279 226/265/279 228/268/279 281/339/279 
f 281/339/280 283/341/280 284/342/280 282/340/280 
f 281/339/281 228/268/281 230/271/281 283/341/281 
f 283/341/282 285/343/282 286/344/282 284/342/282 
f 283/341/283 230/271/283 232/274/283 285/343/283 
f 285/343/284 287/345/284 288/346/284 286/344/284 
f 285/343/285 232/274/285 234/277/285 287/345/285 
f 287/345/286 289/347/286 290/348/286 288/346/286 
f 287/345/287 234/277/287 236/280/287 289/347/287 
f 289/347/288 291/349/288 292/350/288 290/348/288 
f 289/347/289 236/280/289 238/283/289 291/349/289 
f 291/349/290 293/351/290 294/352/290 292/350/290 
f 291/349/291 238/283/291 240/286/291 293/351/291 
f 293/351/292 295/353/292 296/354/292 294/352/292 
f 293/351/293 240/286/293 242/289/293 295/353/293 
f 295/353/294 297/355/294 298/356/294 296/354/294 
f 295/353/295 242/289/295 244/292/295 297/355/295 
f 297/355/296 299/357/296 300/358/296 298/356/296 
f 297/355/297 244/292/297 246/295/297 299/357/297 
f 299/357/298 301/359/298 302/360/298 300/358/298 
f 299/357/299 246/295/299 248/298/299 301/359/299 
f 301/359/300 303/361/300 304/362/300 302/360/300 
f 301/359/301 248/298/301 250/301/301 303/361/301 
f 303/361/302 305/363/302 306/364/302 304/362/302 
f 303/361/303 250/301/303 252/304/303 305/363/303 
f 305/363/304 307/365/304 308/366/304 306/364/304 
f 305/363/305 252/304/305 254/307/305 307/365/305 
f 307/365/306 309/367/306 310/368/306 308/366/306 
f 307/365/307 254/307/307 256/310/307 309/367/307 
f 309/367/308 311/369/308 312/370/308 310/368/308 
f 309/367/309 256/310/309 258/313/309 311/369/309 
f 311/369/310 263/321/310 313/371/310 312/370/310 
f 311/369/311 258/313/311 260/316/311 263/321/311 
f 313/371/312 263/321/312 262/320/312 266/324/312 
f 310/372/313 312/373/313 314/374/313 315/375/313 
f 314/374/314 312/373/314 313/376/314 316/377/314 
f 316/377/315 313/376/315 266/378/315 317/379/315 
f 318/380/316 317/379/316 266/378/316 265/381/316 
f 319/382/317 318/380/317 265/381/317 268/383/317 
f 320/384/318 319/382/318 268/383/318 270/385/318 
f 321/386/319 320/384/319 270/385/319 272/387/319 
f 322/388/320 321/389/320 272/390/320 274/391/320 
f 323/392/321 322/388/321 274/391/321 276/393/321 
f 324/394/322 323/392/322 276/393/322 278/395/322 
f 325/396/323 324/394/323 278/395/323 280/397/323 
f 326/398/324 325/396/324 280/397/324 282/399/324 
f 327/400/325 326/398/325 282/399/325 284/401/325 
f 328/402/326 327/400/326 284/401/326 286/403/326 
f 329/404/327 328/402/327 286/403/327 288/405/327 
f 330/406/328 329/404/328 288/405/328 290/407/328 
f 331/408/329 330/406/329 290/407/329 292/409/329 
f 332/410/330 331/408/330 292/409/330 294/411/330 
f 333/412/331 332/410/331 294/411/331 296/413/331 
f 334/414/332 333/412/332 296/413/332 298/415/332 
f 335/416/333 334/414/333 298/415/333 300/417/333 
f 336/418/334 335/416/334 300/417/334 302/419/334 
f 337/420/335 336/418/335 302/419/335 304/421/335 
f 338/422/336 337/420/336 304/421/336 306/423/336 
f 339/424/337 338/422/337 306/423/337 308/425/337 
f 315/375/338 339/424/338 308/425/338 310/372/338 
f 315/426/339 340/427/339 341/428/339 339/429/339 
f 315/426/340 314/430/340 342/431/340 340/427/340 
f 342/431/341 343/432/341 344/433/341 340/427/341 
f 342/431/342 345/434/342 346/435/342 343/432/342 
f 342/431/343 314/430/343 316/436/343 345/434/343 
f 345/434/344 347/437/344 348/438/344 346/435/344 
f 345/434/345 316/436/345 317/439/345 347/437/345 
f 347/437/346 349/440/346 350/441/346 348/438/346 
f 347/437/347 317/439/347 318/442/347 349/440/347 
f 349/440/348 351/443/348 352/444/348 350/441/348 
f 349/440/349 318/442/349 319/445/349 351/443/349 
f 351/443/350 353/446/350 354/447/350 352/444/350 
f 351/443/351 319/445/351 320/448/351 353/446/351 
f 353/446/352 355/449/352 356/450/352 354/447/352 
f 353/446/353 320/448/353 321/451/353 355/449/353 
f 355/449/354 357/452/354 358/453/354 356/450/354 
f 355/449/355 321/451/355 322/454/355 357/452/355 
f 357/452/356 359/455/356 360/456/356 358/453/356 
f 357/452/357 322/454/357 323/457/357 359/455/357 
f 359/455/358 361/458/358 362/459/358 360/456/358 
f 359/455/359 323/457/359 324/460/359 361/458/359 
f 361/458/360 363/461/360 364/462/360 362/459/360 
f 361/458/361 324/460/361 325/463/361 363/461/361 
f 363/461/362 365/464/362 366/465/362 364/462/362 
f 363/461/363 325/463/363 326/466/363 365/464/363 
f 365/464/364 367/467/364 368/468/364 366/465/364 
f 365/464/365 326/466/365 327/469/365 367/467/365 
f 367/467/366 369/470/366 370/471/366 368/468/366 
f 367/467/367 327/469/367 328/472/367 369/470/367 
f 369/470/368 371/473/368 372/474/368 370/471/368 
f 369/470/369 328/472/369 329/475/369 371/473/369 
f 371/473/370 373/476/370 374/477/370 372/474/370 
f 371/473/371 329/475/371 330/478/371 373/476/371 
f 373/476/372 375/479/372 376/480/372 374/477/372 
f 373/476/373 330/478/373 331/481/373 375/479/373 
f 375/479/374 377/482/374 378/483/374 376/480/374 
f 375/479/375 331/481/375 332/484/375 377/482/375 
f 377/482/376 379/485/376 380/486/376 378/483/376 
f 377/482/377 332/484/377 333/487/377 379/485/377 
f 379/485/378 381/488/378 382/489/378 380/486/378 
f 379/485/379 333/487/379 334/490/379 381/488/379 
f 381/488/380 383/491/380 384/492/380 382/489/380 
f 381/488/381 334/490/381 335/493/381 383/491/381 
f 383/491/382 385/494/382 386/495/382 384/492/382 
f 383/491/383 335/493/383 336/496/383 385/494/383 
f 385/494/384 387/497/384 388/498/384 386/495/384 
f 385/494/385 336/496/385 337/499/385 387/497/385 
f 387/497/386 389/500/386 390/501/386 388/498/386 
f 387/497/387 337/499/387 338/502/387 389/500/387 
f 389/500/388 341/428/388 391/503/388 390/501/388 
f 389/500/389 338/502/389 339/429/389 341/428/389 
f 391/503/390 341/428/390 340/427/390 344/433/390 
f 391/503/391 344/433/391 392/504/391 393/505/391 
f 344/433/392 343/432/392 394/506/392 392/504/392 
f 343/432/393 346/435/393 395/507/393 394/506/393 
f 346/435/394 348/438/394 396/508/394 395/507/394 
f 348/438/395 350/441/395 397/509/395 396/508/395 
f 350/441/396 352/444/396 398/510/396 397/509/396 
f 352/444/397 354/447/397 399/511/397 398/510/397 
f 354/447/398 356/450/398 400/512/398 399/511/398 
f 356/450/399 358/453/399 401/513/399 400/512/399 
f 358/453/400 360/456/400 402/514/400 401/513/400 
f 360/456/401 362/459/401 403/515/401 402/514/401 
f 362/459/402 364/462/402 404/516/402 403/515/402 
f 364/462/403 366/465/403 405/517/403 404/516/403 
f 366/465/404 368/468/404 406/518/404 405/517/404 
f 368/468/405 370/471/405 407/519/405 406/518/405 
f 370/471/406 372/474/406 408/520/406 407/519/406 
f 372/474/407 374/477/407 409/521/407 408/520/407 
f 374/477/408 376/480/408 410/522/408 409/521/408 
f 376/480/409 378/483/409 411/523/409 410/522/409 
f 378/483/410 380/486/410 412/524/410 411/523/410 
f 380/486/411 382/489/411 413/525/411 412/524/411 
f 382/489/412 384/492/412 414/526/412 413/525/412 
f 384/492/413 386/495/413 415/527/413 414/526/413 
f 386/495/414 388/498/414 416/528/414 415/527/414 
f 416/528/415 388/498/415 390/501/415 417/529/415 
f 390/501/416 391/503/416 393/505/416 417/529/416 
# 390 polygons - 26 triangles

