# 3ds Max Wavefront OBJ Exporter v0.97b - (c)2007 guruware
# File Created: 01.07.2022 10:04:58

mtllib YVR_d1_right_Bbutton.mtl

#
# object Object012
#

v  -0.0052 -0.0069 -0.0260
v  -0.0056 -0.0060 -0.0244
v  -0.0054 -0.0091 -0.0225
v  -0.0050 -0.0101 -0.0242
v  -0.0067 -0.0052 -0.0230
v  -0.0064 -0.0084 -0.0211
v  -0.0082 -0.0048 -0.0220
v  -0.0080 -0.0080 -0.0202
v  -0.0101 -0.0047 -0.0216
v  -0.0099 -0.0079 -0.0198
v  -0.0120 -0.0050 -0.0219
v  -0.0117 -0.0082 -0.0201
v  -0.0135 -0.0056 -0.0228
v  -0.0133 -0.0088 -0.0209
v  -0.0146 -0.0065 -0.0241
v  -0.0144 -0.0096 -0.0223
v  -0.0150 -0.0074 -0.0257
v  -0.0147 -0.0106 -0.0239
v  -0.0146 -0.0083 -0.0273
v  -0.0144 -0.0115 -0.0255
v  -0.0135 -0.0090 -0.0287
v  -0.0133 -0.0122 -0.0269
v  -0.0120 -0.0095 -0.0297
v  -0.0117 -0.0127 -0.0279
v  -0.0101 -0.0096 -0.0301
v  -0.0099 -0.0127 -0.0282
v  -0.0082 -0.0093 -0.0298
v  -0.0080 -0.0125 -0.0280
v  -0.0067 -0.0087 -0.0289
v  -0.0064 -0.0118 -0.0271
v  -0.0056 -0.0078 -0.0276
v  -0.0054 -0.0110 -0.0258
v  -0.0068 -0.0056 -0.0252
v  -0.0066 -0.0062 -0.0264
v  -0.0102 -0.0060 -0.0265
v  -0.0076 -0.0050 -0.0241
v  -0.0088 -0.0047 -0.0234
v  -0.0101 -0.0046 -0.0232
v  -0.0115 -0.0048 -0.0233
v  -0.0127 -0.0053 -0.0240
v  -0.0135 -0.0059 -0.0250
v  -0.0137 -0.0066 -0.0262
v  -0.0135 -0.0073 -0.0274
v  -0.0127 -0.0078 -0.0284
v  -0.0115 -0.0081 -0.0291
v  -0.0101 -0.0082 -0.0294
v  -0.0088 -0.0080 -0.0292
v  -0.0076 -0.0076 -0.0285
v  -0.0068 -0.0069 -0.0276
# 49 vertices

vn 0.8635 0.4367 -0.2522
vn 0.7958 0.6038 0.0457
vn 0.9222 0.2401 0.3031
vn 0.9981 0.0530 -0.0306
vn 0.6025 0.7385 0.3027
vn 0.7058 0.3910 0.5907
vn 0.3133 0.8201 0.4789
vn 0.3819 0.4822 0.7885
vn -0.0275 0.8360 0.5480
vn 0.0001 0.4999 0.8661
vn -0.3685 0.7840 0.4995
vn -0.3819 0.4416 0.8119
vn -0.6575 0.6721 0.3406
vn -0.7058 0.3161 0.6340
vn -0.8505 0.5172 0.0956
vn -0.9221 0.1426 0.3596
vn -0.9182 0.3432 -0.1978
vn -0.9981 -0.0528 0.0306
vn -0.8505 0.1758 -0.4957
vn -0.9221 -0.2404 -0.3031
vn -0.6573 0.0409 -0.7525
vn -0.7057 -0.3911 -0.5908
vn -0.3685 -0.0405 -0.9287
vn -0.3819 -0.4822 -0.7884
vn -0.0276 -0.0567 -0.9980
vn 0.0000 -0.5000 -0.8660
vn 0.3134 -0.0048 -0.9496
vn 0.3819 -0.4416 -0.8119
vn 0.6024 0.1074 -0.7909
vn 0.7059 -0.3161 -0.6339
vn 0.7959 0.2621 -0.5457
vn 0.9222 -0.1424 -0.3594
vn 0.2853 0.8917 -0.3513
vn 0.3135 0.8224 -0.4747
vn -0.0618 0.8644 -0.4990
vn 0.2050 0.9478 -0.2443
vn 0.0849 0.9816 -0.1710
vn -0.0565 0.9882 -0.1425
vn -0.1981 0.9666 -0.1625
vn -0.3182 0.9200 -0.2287
vn -0.3985 0.8556 -0.3304
vn -0.4265 0.7833 -0.4523
vn -0.3983 0.7140 -0.5758
vn -0.3182 0.6580 -0.6825
vn -0.1983 0.6240 -0.7558
vn -0.0567 0.6173 -0.7847
vn 0.0851 0.6389 -0.7645
vn 0.2050 0.6855 -0.6986
vn 0.2854 0.7500 -0.5967
# 49 vertex normals

vt 0.5163 0.1889 0.0000
vt 0.5133 0.1741 0.0000
vt 0.5263 0.1688 0.0000
vt 0.5303 0.1889 0.0000
vt 0.5049 0.1616 0.0000
vt 0.5149 0.1516 0.0000
vt 0.4924 0.1532 0.0000
vt 0.4978 0.1402 0.0000
vt 0.4776 0.1502 0.0000
vt 0.4776 0.1362 0.0000
vt 0.4628 0.1532 0.0000
vt 0.4574 0.1402 0.0000
vt 0.4502 0.1616 0.0000
vt 0.4403 0.1516 0.0000
vt 0.4418 0.1741 0.0000
vt 0.4288 0.1688 0.0000
vt 0.4389 0.1889 0.0000
vt 0.4248 0.1889 0.0000
vt 0.4418 0.2037 0.0000
vt 0.4288 0.2091 0.0000
vt 0.4502 0.2163 0.0000
vt 0.4403 0.2262 0.0000
vt 0.4628 0.2247 0.0000
vt 0.4574 0.2377 0.0000
vt 0.4776 0.2276 0.0000
vt 0.4776 0.2417 0.0000
vt 0.4924 0.2247 0.0000
vt 0.4978 0.2377 0.0000
vt 0.5049 0.2163 0.0000
vt 0.5149 0.2262 0.0000
vt 0.5133 0.2037 0.0000
vt 0.5263 0.2091 0.0000
vt 0.5039 0.1780 0.0000
vt 0.5061 0.1889 0.0000
vt 0.4776 0.1889 0.0000
vt 0.4978 0.1688 0.0000
vt 0.4885 0.1626 0.0000
vt 0.4776 0.1604 0.0000
vt 0.4667 0.1626 0.0000
vt 0.4574 0.1688 0.0000
vt 0.4512 0.1780 0.0000
vt 0.4490 0.1889 0.0000
vt 0.4512 0.1999 0.0000
vt 0.4574 0.2091 0.0000
vt 0.4667 0.2153 0.0000
vt 0.4776 0.2175 0.0000
vt 0.4885 0.2153 0.0000
vt 0.4978 0.2091 0.0000
vt 0.5039 0.1999 0.0000
# 49 texture coords

o Object012
g Object012
usemtl Material__2
s 1
f 1/1/1 2/2/2 3/3/3 
f 3/3/3 4/4/4 1/1/1 
f 5/5/5 6/6/6 3/3/3 
f 3/3/3 2/2/2 5/5/5 
f 7/7/7 8/8/8 6/6/6 
f 6/6/6 5/5/5 7/7/7 
f 9/9/9 10/10/10 8/8/8 
f 8/8/8 7/7/7 9/9/9 
f 11/11/11 12/12/12 10/10/10 
f 10/10/10 9/9/9 11/11/11 
f 13/13/13 14/14/14 12/12/12 
f 12/12/12 11/11/11 13/13/13 
f 15/15/15 16/16/16 14/14/14 
f 14/14/14 13/13/13 15/15/15 
f 17/17/17 18/18/18 16/16/16 
f 16/16/16 15/15/15 17/17/17 
f 19/19/19 20/20/20 18/18/18 
f 18/18/18 17/17/17 19/19/19 
f 21/21/21 22/22/22 20/20/20 
f 20/20/20 19/19/19 21/21/21 
f 23/23/23 24/24/24 22/22/22 
f 22/22/22 21/21/21 23/23/23 
f 25/25/25 26/26/26 24/24/24 
f 24/24/24 23/23/23 25/25/25 
f 27/27/27 28/28/28 26/26/26 
f 26/26/26 25/25/25 27/27/27 
f 29/29/29 30/30/30 28/28/28 
f 28/28/28 27/27/27 29/29/29 
f 31/31/31 32/32/32 30/30/30 
f 30/30/30 29/29/29 31/31/31 
f 1/1/1 4/4/4 32/32/32 
f 32/32/32 31/31/31 1/1/1 
f 33/33/33 34/34/34 35/35/35 
f 36/36/36 33/33/33 35/35/35 
f 37/37/37 36/36/36 35/35/35 
f 38/38/38 37/37/37 35/35/35 
f 39/39/39 38/38/38 35/35/35 
f 40/40/40 39/39/39 35/35/35 
f 41/41/41 40/40/40 35/35/35 
f 42/42/42 41/41/41 35/35/35 
f 43/43/43 42/42/42 35/35/35 
f 44/44/44 43/43/43 35/35/35 
f 45/45/45 44/44/44 35/35/35 
f 46/46/46 45/45/45 35/35/35 
f 47/47/47 46/46/46 35/35/35 
f 48/48/48 47/47/47 35/35/35 
f 49/49/49 48/48/48 35/35/35 
f 34/34/34 49/49/49 35/35/35 
f 1/1/1 34/34/34 33/33/33 
f 33/33/33 2/2/2 1/1/1 
f 2/2/2 33/33/33 36/36/36 
f 36/36/36 5/5/5 2/2/2 
f 5/5/5 36/36/36 37/37/37 
f 37/37/37 7/7/7 5/5/5 
f 7/7/7 37/37/37 38/38/38 
f 38/38/38 9/9/9 7/7/7 
f 9/9/9 38/38/38 39/39/39 
f 39/39/39 11/11/11 9/9/9 
f 11/11/11 39/39/39 40/40/40 
f 40/40/40 13/13/13 11/11/11 
f 13/13/13 40/40/40 41/41/41 
f 41/41/41 15/15/15 13/13/13 
f 15/15/15 41/41/41 42/42/42 
f 42/42/42 17/17/17 15/15/15 
f 17/17/17 42/42/42 43/43/43 
f 43/43/43 19/19/19 17/17/17 
f 19/19/19 43/43/43 44/44/44 
f 44/44/44 21/21/21 19/19/19 
f 21/21/21 44/44/44 45/45/45 
f 45/45/45 23/23/23 21/21/21 
f 23/23/23 45/45/45 46/46/46 
f 46/46/46 25/25/25 23/23/23 
f 25/25/25 46/46/46 47/47/47 
f 47/47/47 27/27/27 25/25/25 
f 27/27/27 47/47/47 48/48/48 
f 48/48/48 29/29/29 27/27/27 
f 29/29/29 48/48/48 49/49/49 
f 49/49/49 31/31/31 29/29/29 
f 31/31/31 49/49/49 34/34/34 
f 34/34/34 1/1/1 31/31/31 
# 0 polygons - 80 triangles

