# 3ds Max Wavefront OBJ Exporter v0.97b - (c)2007 guruware
# File Created: 01.07.2022 10:05:11

mtllib YVR_d1_right_home.mtl

#
# object Object010
#

v  0.0056 0.0089 0.0064
v  0.0059 0.0082 0.0047
v  0.0040 0.0080 0.0048
v  0.0038 0.0084 0.0057
v  0.0056 0.0076 0.0030
v  0.0038 0.0077 0.0038
v  0.0031 0.0098 0.0087
v  0.0047 0.0094 0.0078
v  0.0032 0.0087 0.0065
v  0.0024 0.0089 0.0070
v  0.0046 0.0071 0.0016
v  0.0031 0.0067 0.0006
v  0.0024 0.0072 0.0025
v  0.0032 0.0074 0.0030
v  0.0014 0.0099 0.0090
v  0.0014 0.0089 0.0072
v  0.0014 0.0066 0.0003
v  0.0014 0.0071 0.0023
v  -0.0031 0.0082 0.0047
v  -0.0028 0.0089 0.0064
v  -0.0010 0.0084 0.0057
v  -0.0011 0.0080 0.0048
v  -0.0028 0.0076 0.0030
v  -0.0010 0.0077 0.0038
v  -0.0019 0.0094 0.0078
v  -0.0003 0.0098 0.0087
v  0.0004 0.0089 0.0070
v  -0.0004 0.0087 0.0065
v  -0.0003 0.0067 0.0006
v  -0.0018 0.0071 0.0016
v  -0.0004 0.0074 0.0030
v  0.0004 0.0072 0.0025
v  0.0061 0.0023 0.0069
v  0.0057 0.0030 0.0086
v  0.0057 0.0017 0.0053
v  0.0047 0.0011 0.0038
v  0.0032 0.0008 0.0029
v  0.0014 0.0007 0.0025
v  -0.0004 0.0008 0.0029
v  -0.0019 0.0011 0.0038
v  -0.0029 0.0017 0.0053
v  -0.0033 0.0023 0.0069
v  -0.0029 0.0030 0.0086
v  -0.0020 0.0035 0.0100
v  -0.0004 0.0038 0.0110
v  0.0014 0.0040 0.0113
v  0.0032 0.0038 0.0110
v  0.0048 0.0035 0.0100
v  0.0034 0.0080 0.0048
v  0.0014 0.0077 0.0049
v  0.0032 0.0082 0.0055
v  0.0032 0.0077 0.0041
v  0.0028 0.0085 0.0062
v  0.0022 0.0086 0.0066
v  0.0022 0.0073 0.0030
v  0.0028 0.0074 0.0034
v  0.0014 0.0087 0.0067
v  0.0014 0.0072 0.0029
v  -0.0004 0.0082 0.0055
v  -0.0006 0.0080 0.0048
v  -0.0004 0.0077 0.0041
v  0.0006 0.0086 0.0066
v  -0.0000 0.0085 0.0062
v  0.0000 0.0074 0.0034
v  0.0006 0.0073 0.0030
v  0.0039 0.0083 0.0047
v  0.0034 0.0083 0.0047
v  0.0033 0.0085 0.0055
v  0.0037 0.0087 0.0056
v  0.0037 0.0080 0.0038
v  0.0033 0.0080 0.0039
v  0.0032 0.0089 0.0064
v  0.0029 0.0088 0.0061
v  0.0022 0.0089 0.0065
v  0.0024 0.0091 0.0069
v  0.0024 0.0075 0.0025
v  0.0022 0.0076 0.0029
v  0.0029 0.0077 0.0033
v  0.0032 0.0077 0.0030
v  0.0014 0.0090 0.0067
v  0.0014 0.0092 0.0070
v  0.0014 0.0074 0.0023
v  0.0014 0.0075 0.0027
v  -0.0009 0.0087 0.0056
v  -0.0005 0.0085 0.0055
v  -0.0006 0.0083 0.0047
v  -0.0011 0.0083 0.0047
v  -0.0005 0.0080 0.0039
v  -0.0009 0.0080 0.0038
v  0.0005 0.0091 0.0069
v  0.0006 0.0089 0.0065
v  -0.0001 0.0088 0.0061
v  -0.0004 0.0089 0.0064
v  -0.0003 0.0077 0.0030
v  -0.0000 0.0077 0.0033
v  0.0006 0.0076 0.0029
v  0.0005 0.0075 0.0025
# 97 vertices

vn 0.6495 0.7602 -0.0175
vn 0.6982 0.6693 -0.2540
vn 0.5185 0.7995 -0.3031
vn 0.4862 0.8651 -0.1236
vn 0.6498 0.5751 -0.4971
vn 0.4809 0.7308 -0.4845
vn 0.2629 0.8936 0.3639
vn 0.5072 0.8348 0.2141
vn 0.3655 0.9303 0.0298
vn 0.1946 0.9697 0.1474
vn 0.5065 0.4888 -0.7103
vn 0.2798 0.4284 -0.8592
vn 0.2029 0.6313 -0.7485
vn 0.3705 0.6722 -0.6410
vn -0.0005 0.9114 0.4116
vn -0.0001 0.9824 0.1866
vn 0.0006 0.4039 -0.9148
vn 0.0001 0.6195 -0.7850
vn -0.6983 0.6695 -0.2532
vn -0.6502 0.7596 -0.0162
vn -0.4869 0.8648 -0.1228
vn -0.5186 0.7995 -0.3030
vn -0.6491 0.5763 -0.4965
vn -0.4820 0.7299 -0.4847
vn -0.5081 0.8339 0.2155
vn -0.2640 0.8929 0.3648
vn -0.1945 0.9697 0.1481
vn -0.3662 0.9300 0.0305
vn -0.2788 0.4295 -0.8590
vn -0.5056 0.4904 -0.7098
vn -0.3708 0.6720 -0.6410
vn -0.2026 0.6319 -0.7481
vn 0.9997 0.0244 -0.0098
vn 0.9287 0.1511 0.3387
vn 0.9248 -0.1120 -0.3636
vn 0.7105 -0.2343 -0.6635
vn 0.3874 -0.3206 -0.8644
vn 0.0007 -0.3532 -0.9356
vn -0.3866 -0.3235 -0.8637
vn -0.7106 -0.2381 -0.6621
vn -0.9253 -0.1142 -0.3617
vn -0.9997 0.0247 -0.0086
vn -0.9284 0.1539 0.3382
vn -0.7078 0.2650 0.6548
vn -0.3660 0.3352 0.8681
vn -0.0006 0.3551 0.9348
vn 0.3651 0.3327 0.8695
vn 0.7079 0.2612 0.6563
vn -0.7125 0.6561 -0.2485
vn -0.0000 0.9350 -0.3546
vn -0.6625 0.5694 -0.4867
vn -0.6631 0.7485 -0.0032
vn -0.5161 0.4750 -0.7128
vn -0.2668 0.4217 -0.8666
vn -0.2853 0.8867 0.3638
vn -0.5158 0.8299 0.2127
vn -0.0002 0.4058 -0.9140
vn -0.0002 0.9070 0.4212
vn 0.6636 0.5679 -0.4869
vn 0.7124 0.6562 -0.2487
vn 0.6629 0.7487 -0.0035
vn 0.2666 0.4223 -0.8664
vn 0.5165 0.4749 -0.7125
vn 0.5165 0.8293 0.2131
vn 0.2849 0.8869 0.3636
vn 0.6281 0.7278 -0.2753
vn -0.6364 0.7213 -0.2734
vn -0.5964 0.6382 -0.4868
vn 0.5827 0.8102 -0.0639
vn 0.5825 0.6452 -0.4945
vn -0.5926 0.8037 -0.0536
vn 0.4551 0.8791 0.1417
vn -0.4503 0.5738 -0.6841
vn -0.2371 0.5160 -0.8232
vn 0.2363 0.9327 0.2723
vn 0.2494 0.5202 -0.8168
vn -0.2522 0.9297 0.2684
vn -0.4580 0.8785 0.1357
vn 0.4529 0.5707 -0.6849
vn 0.0003 0.4968 -0.8679
vn 0.0001 0.9495 0.3138
vn -0.0001 0.5014 -0.8652
vn -0.0003 0.9492 0.3146
vn -0.5841 0.8093 -0.0629
vn 0.5967 0.6377 -0.4871
vn 0.6365 0.7211 -0.2736
vn -0.6280 0.7280 -0.2751
vn 0.5928 0.8036 -0.0535
vn -0.5836 0.6441 -0.4944
vn -0.2369 0.9324 0.2728
vn 0.2366 0.5163 -0.8231
vn 0.4505 0.5745 -0.6834
vn -0.4561 0.8785 0.1422
vn -0.4527 0.5710 -0.6849
vn 0.4586 0.8781 0.1365
vn 0.2522 0.9296 0.2687
vn -0.2487 0.5207 -0.8167
# 97 vertex normals

vt 0.0037 0.8219 0.0000
vt 0.0013 0.8346 0.0000
vt 0.0153 0.8347 0.0000
vt 0.0167 0.8275 0.0000
vt 0.0037 0.8474 0.0000
vt 0.0167 0.8419 0.0000
vt 0.0211 0.8040 0.0000
vt 0.0102 0.8112 0.0000
vt 0.0204 0.8215 0.0000
vt 0.0265 0.8175 0.0000
vt 0.0107 0.8584 0.0000
vt 0.0211 0.8656 0.0000
vt 0.0265 0.8521 0.0000
vt 0.0206 0.8480 0.0000
vt 0.0334 0.8017 0.0000
vt 0.0334 0.8161 0.0000
vt 0.0334 0.8682 0.0000
vt 0.0334 0.8535 0.0000
vt 0.0654 0.8346 0.0000
vt 0.0630 0.8219 0.0000
vt 0.0501 0.8275 0.0000
vt 0.0514 0.8347 0.0000
vt 0.0630 0.8474 0.0000
vt 0.0501 0.8419 0.0000
vt 0.0565 0.8112 0.0000
vt 0.0457 0.8040 0.0000
vt 0.0403 0.8175 0.0000
vt 0.0464 0.8215 0.0000
vt 0.0456 0.8656 0.0000
vt 0.0560 0.8584 0.0000
vt 0.0461 0.8480 0.0000
vt 0.0403 0.8521 0.0000
vt 0.7097 0.1660 0.0000
vt 0.7537 0.1660 0.0000
vt 0.7537 0.1786 0.0000
vt 0.7097 0.1786 0.0000
vt 0.7097 0.1533 0.0000
vt 0.7537 0.1533 0.0000
vt 0.7097 0.1406 0.0000
vt 0.7537 0.1406 0.0000
vt 0.7097 0.1280 0.0000
vt 0.7537 0.1280 0.0000
vt 0.7097 0.1155 0.0000
vt 0.7537 0.1155 0.0000
vt 0.7097 0.1030 0.0000
vt 0.7537 0.1030 0.0000
vt 0.7097 0.0904 0.0000
vt 0.7537 0.0904 0.0000
vt 0.7097 0.0777 0.0000
vt 0.7537 0.0777 0.0000
vt 0.7097 0.0650 0.0000
vt 0.7537 0.0650 0.0000
vt 0.7097 0.0524 0.0000
vt 0.7537 0.0524 0.0000
vt 0.7097 0.0401 0.0000
vt 0.7537 0.0401 0.0000
vt 0.7097 0.0273 0.0000
vt 0.7537 0.0273 0.0000
vt 0.7097 0.0148 0.0000
vt 0.7537 0.0148 0.0000
vt 0.7097 0.2038 0.0000
vt 0.7537 0.2038 0.0000
vt 0.7537 0.2162 0.0000
vt 0.7097 0.2162 0.0000
vt 0.7097 0.1909 0.0000
vt 0.7537 0.1909 0.0000
vt 0.0271 0.3071 0.0000
vt 0.0416 0.3071 0.0000
vt 0.0282 0.3013 0.0000
vt 0.0282 0.3129 0.0000
vt 0.0311 0.2964 0.0000
vt 0.0360 0.2932 0.0000
vt 0.0360 0.3212 0.0000
vt 0.0313 0.3179 0.0000
vt 0.0416 0.2921 0.0000
vt 0.0416 0.3224 0.0000
vt 0.0551 0.3013 0.0000
vt 0.0562 0.3071 0.0000
vt 0.0551 0.3129 0.0000
vt 0.0472 0.2932 0.0000
vt 0.0521 0.2964 0.0000
vt 0.0519 0.3179 0.0000
vt 0.0472 0.3212 0.0000
vt 0.0266 0.2608 0.0000
vt 0.0299 0.2608 0.0000
vt 0.0310 0.2548 0.0000
vt 0.0280 0.2535 0.0000
vt 0.0280 0.2681 0.0000
vt 0.0310 0.2668 0.0000
vt 0.0318 0.2475 0.0000
vt 0.0341 0.2498 0.0000
vt 0.0392 0.2465 0.0000
vt 0.0379 0.2434 0.0000
vt 0.0380 0.2784 0.0000
vt 0.0392 0.2754 0.0000
vt 0.0343 0.2720 0.0000
vt 0.0320 0.2743 0.0000
vt 0.0449 0.2454 0.0000
vt 0.0449 0.2421 0.0000
vt 0.0449 0.2799 0.0000
vt 0.0449 0.2766 0.0000
vt 0.0618 0.2535 0.0000
vt 0.0588 0.2548 0.0000
vt 0.0599 0.2608 0.0000
vt 0.0632 0.2608 0.0000
vt 0.0588 0.2668 0.0000
vt 0.0618 0.2681 0.0000
vt 0.0519 0.2434 0.0000
vt 0.0507 0.2465 0.0000
vt 0.0558 0.2498 0.0000
vt 0.0581 0.2475 0.0000
vt 0.0578 0.2743 0.0000
vt 0.0556 0.2720 0.0000
vt 0.0507 0.2754 0.0000
vt 0.0519 0.2784 0.0000
vt 0.0077 0.2580 0.0000
vt 0.0061 0.2580 0.0000
vt 0.0061 0.2528 0.0000
vt 0.0077 0.2528 0.0000
vt 0.0077 0.2631 0.0000
vt 0.0061 0.2631 0.0000
vt 0.0077 0.2479 0.0000
vt 0.0061 0.2479 0.0000
vt 0.0061 0.2427 0.0000
vt 0.0077 0.2427 0.0000
vt 0.0077 0.2733 0.0000
vt 0.0061 0.2733 0.0000
vt 0.0061 0.2683 0.0000
vt 0.0077 0.2683 0.0000
vt 0.0061 0.2377 0.0000
vt 0.0077 0.2377 0.0000
vt 0.0077 0.2783 0.0000
vt 0.0061 0.2783 0.0000
vt 0.0077 0.3038 0.0000
vt 0.0061 0.3038 0.0000
vt 0.0061 0.2987 0.0000
vt 0.0077 0.2987 0.0000
vt 0.0061 0.2935 0.0000
vt 0.0077 0.2935 0.0000
vt 0.0077 0.3139 0.0000
vt 0.0061 0.3139 0.0000
vt 0.0061 0.3088 0.0000
vt 0.0077 0.3088 0.0000
vt 0.0077 0.2883 0.0000
vt 0.0061 0.2883 0.0000
vt 0.0061 0.2833 0.0000
vt 0.0077 0.2833 0.0000
vt 0.0077 0.3189 0.0000
vt 0.0061 0.3189 0.0000
vt 0.0137 0.2569 0.0000
vt 0.0117 0.2569 0.0000
vt 0.0117 0.2521 0.0000
vt 0.0137 0.2521 0.0000
vt 0.0137 0.2617 0.0000
vt 0.0117 0.2617 0.0000
vt 0.0137 0.2475 0.0000
vt 0.0117 0.2475 0.0000
vt 0.0117 0.2427 0.0000
vt 0.0137 0.2427 0.0000
vt 0.0137 0.2712 0.0000
vt 0.0117 0.2712 0.0000
vt 0.0117 0.2665 0.0000
vt 0.0137 0.2665 0.0000
vt 0.0117 0.2381 0.0000
vt 0.0137 0.2381 0.0000
vt 0.0137 0.2758 0.0000
vt 0.0117 0.2758 0.0000
vt 0.0137 0.2995 0.0000
vt 0.0117 0.2995 0.0000
vt 0.0117 0.2948 0.0000
vt 0.0137 0.2948 0.0000
vt 0.0117 0.2900 0.0000
vt 0.0137 0.2900 0.0000
vt 0.0137 0.3090 0.0000
vt 0.0117 0.3090 0.0000
vt 0.0117 0.3042 0.0000
vt 0.0137 0.3042 0.0000
vt 0.0137 0.2852 0.0000
vt 0.0117 0.2852 0.0000
vt 0.0117 0.2805 0.0000
vt 0.0137 0.2805 0.0000
vt 0.0137 0.3136 0.0000
vt 0.0117 0.3136 0.0000
# 183 texture coords

o Object010
g Object010
usemtl Material__2
s 1
f 1/1/1 2/2/2 3/3/3 
f 3/3/3 4/4/4 1/1/1 
f 5/5/5 6/6/6 3/3/3 
f 3/3/3 2/2/2 5/5/5 
f 7/7/7 8/8/8 9/9/9 
f 9/9/9 10/10/10 7/7/7 
f 11/11/11 12/12/12 13/13/13 
f 13/13/13 14/14/14 11/11/11 
f 8/8/8 1/1/1 4/4/4 
f 4/4/4 9/9/9 8/8/8 
f 11/11/11 14/14/14 6/6/6 
f 6/6/6 5/5/5 11/11/11 
f 15/15/15 7/7/7 10/10/10 
f 10/10/10 16/16/16 15/15/15 
f 17/17/17 18/18/18 13/13/13 
f 13/13/13 12/12/12 17/17/17 
f 19/19/19 20/20/20 21/21/21 
f 21/21/21 22/22/22 19/19/19 
f 23/23/23 19/19/19 22/22/22 
f 22/22/22 24/24/24 23/23/23 
f 25/25/25 26/26/26 27/27/27 
f 27/27/27 28/28/28 25/25/25 
f 29/29/29 30/30/30 31/31/31 
f 31/31/31 32/32/32 29/29/29 
f 25/25/25 28/28/28 21/21/21 
f 21/21/21 20/20/20 25/25/25 
f 30/30/30 23/23/23 24/24/24 
f 24/24/24 31/31/31 30/30/30 
f 26/26/26 15/15/15 16/16/16 
f 16/16/16 27/27/27 26/26/26 
f 29/29/29 32/32/32 18/18/18 
f 18/18/18 17/17/17 29/29/29 
f 33/33/33 2/34/2 1/35/1 
f 1/35/1 34/36/34 33/33/33 
f 35/37/35 5/38/5 2/34/2 
f 2/34/2 33/33/33 35/37/35 
f 36/39/36 11/40/11 5/38/5 
f 5/38/5 35/37/35 36/39/36 
f 37/41/37 12/42/12 11/40/11 
f 11/40/11 36/39/36 37/41/37 
f 38/43/38 17/44/17 12/42/12 
f 12/42/12 37/41/37 38/43/38 
f 39/45/39 29/46/29 17/44/17 
f 17/44/17 38/43/38 39/45/39 
f 40/47/40 30/48/30 29/46/29 
f 29/46/29 39/45/39 40/47/40 
f 41/49/41 23/50/23 30/48/30 
f 30/48/30 40/47/40 41/49/41 
f 42/51/42 19/52/19 23/50/23 
f 23/50/23 41/49/41 42/51/42 
f 43/53/43 20/54/20 19/52/19 
f 19/52/19 42/51/42 43/53/43 
f 44/55/44 25/56/25 20/54/20 
f 20/54/20 43/53/43 44/55/44 
f 45/57/45 26/58/26 25/56/25 
f 25/56/25 44/55/44 45/57/45 
f 46/59/46 15/60/15 26/58/26 
f 26/58/26 45/57/45 46/59/46 
f 47/61/47 7/62/7 15/63/15 
f 15/63/15 46/64/46 47/61/47 
f 48/65/48 8/66/8 7/62/7 
f 7/62/7 47/61/47 48/65/48 
f 34/36/34 1/35/1 8/66/8 
f 8/66/8 48/65/48 34/36/34 
f 49/67/49 50/68/50 51/69/51 
f 52/70/52 50/68/50 49/67/49 
f 53/71/53 50/68/50 54/72/54 
f 55/73/55 50/68/50 56/74/56 
f 51/69/51 50/68/50 53/71/53 
f 56/74/56 50/68/50 52/70/52 
f 54/72/54 50/68/50 57/75/57 
f 58/76/58 50/68/50 55/73/55 
f 59/77/59 50/68/50 60/78/60 
f 60/78/60 50/68/50 61/79/61 
f 62/80/62 50/68/50 63/81/63 
f 64/82/64 50/68/50 65/83/65 
f 63/81/63 50/68/50 59/77/59 
f 61/79/61 50/68/50 64/82/64 
f 57/75/57 50/68/50 62/80/62 
f 65/83/65 50/68/50 58/76/58 
f 66/84/66 67/85/67 68/86/68 
f 68/86/68 69/87/69 66/84/66 
f 70/88/70 71/89/71 67/85/67 
f 67/85/67 66/84/66 70/88/70 
f 72/90/72 73/91/73 74/92/74 
f 74/92/74 75/93/75 72/90/72 
f 76/94/76 77/95/77 78/96/78 
f 78/96/78 79/97/79 76/94/76 
f 69/87/69 68/86/68 73/91/73 
f 73/91/73 72/90/72 69/87/69 
f 79/97/79 78/96/78 71/89/71 
f 71/89/71 70/88/70 79/97/79 
f 75/93/75 74/92/74 80/98/80 
f 80/98/80 81/99/81 75/93/75 
f 82/100/82 83/101/83 77/95/77 
f 77/95/77 76/94/76 82/100/82 
f 84/102/84 85/103/85 86/104/86 
f 86/104/86 87/105/87 84/102/84 
f 87/105/87 86/104/86 88/106/88 
f 88/106/88 89/107/89 87/105/87 
f 90/108/90 91/109/91 92/110/92 
f 92/110/92 93/111/93 90/108/90 
f 94/112/94 95/113/95 96/114/96 
f 96/114/96 97/115/97 94/112/94 
f 93/111/93 92/110/92 85/103/85 
f 85/103/85 84/102/84 93/111/93 
f 89/107/89 88/106/88 95/113/95 
f 95/113/95 94/112/94 89/107/89 
f 81/99/81 80/98/80 91/109/91 
f 91/109/91 90/108/90 81/99/81 
f 97/115/97 96/114/96 83/101/83 
f 83/101/83 82/100/82 97/115/97 
f 3/116/3 66/117/66 69/118/69 
f 69/118/69 4/119/4 3/116/3 
f 6/120/6 70/121/70 66/117/66 
f 66/117/66 3/116/3 6/120/6 
f 9/122/9 72/123/72 75/124/75 
f 75/124/75 10/125/10 9/122/9 
f 13/126/13 76/127/76 79/128/79 
f 79/128/79 14/129/14 13/126/13 
f 4/119/4 69/118/69 72/123/72 
f 72/123/72 9/122/9 4/119/4 
f 14/129/14 79/128/79 70/121/70 
f 70/121/70 6/120/6 14/129/14 
f 10/125/10 75/124/75 81/130/81 
f 81/130/81 16/131/16 10/125/10 
f 18/132/18 82/133/82 76/127/76 
f 76/127/76 13/126/13 18/132/18 
f 21/134/21 84/135/84 87/136/87 
f 87/136/87 22/137/22 21/134/21 
f 22/137/22 87/136/87 89/138/89 
f 89/138/89 24/139/24 22/137/22 
f 27/140/27 90/141/90 93/142/93 
f 93/142/93 28/143/28 27/140/27 
f 31/144/31 94/145/94 97/146/97 
f 97/146/97 32/147/32 31/144/31 
f 28/143/28 93/142/93 84/135/84 
f 84/135/84 21/134/21 28/143/28 
f 24/139/24 89/138/89 94/145/94 
f 94/145/94 31/144/31 24/139/24 
f 16/148/16 81/149/81 90/141/90 
f 90/141/90 27/140/27 16/148/16 
f 32/147/32 97/146/97 82/133/82 
f 82/133/82 18/132/18 32/147/32 
f 67/150/67 49/151/49 51/152/51 
f 51/152/51 68/153/68 67/150/67 
f 71/154/71 52/155/52 49/151/49 
f 49/151/49 67/150/67 71/154/71 
f 73/156/73 53/157/53 54/158/54 
f 54/158/54 74/159/74 73/156/73 
f 77/160/77 55/161/55 56/162/56 
f 56/162/56 78/163/78 77/160/77 
f 68/153/68 51/152/51 53/157/53 
f 53/157/53 73/156/73 68/153/68 
f 78/163/78 56/162/56 52/155/52 
f 52/155/52 71/154/71 78/163/78 
f 74/159/74 54/158/54 57/164/57 
f 57/164/57 80/165/80 74/159/74 
f 83/166/83 58/167/58 55/161/55 
f 55/161/55 77/160/77 83/166/83 
f 85/168/85 59/169/59 60/170/60 
f 60/170/60 86/171/86 85/168/85 
f 86/171/86 60/170/60 61/172/61 
f 61/172/61 88/173/88 86/171/86 
f 91/174/91 62/175/62 63/176/63 
f 63/176/63 92/177/92 91/174/91 
f 95/178/95 64/179/64 65/180/65 
f 65/180/65 96/181/96 95/178/95 
f 92/177/92 63/176/63 59/169/59 
f 59/169/59 85/168/85 92/177/92 
f 88/173/88 61/172/61 64/179/64 
f 64/179/64 95/178/95 88/173/88 
f 80/182/80 57/183/57 62/175/62 
f 62/175/62 91/174/91 80/182/80 
f 96/181/96 65/180/65 58/167/58 
f 58/167/58 83/166/83 96/181/96 
# 0 polygons - 176 triangles

