# 3ds Max Wavefront OBJ Exporter v0.97b - (c)2007 guruware
# File Created: 01.07.2022 10:03:43

mtllib YVR_d1_right_joystick.mtl

#
# object default001
#

v  0.0129 -0.0040 -0.0259
v  0.0127 -0.0033 -0.0247
v  0.0127 -0.0046 -0.0240
v  0.0129 -0.0053 -0.0252
v  0.0119 -0.0028 -0.0238
v  0.0119 -0.0040 -0.0230
v  0.0108 -0.0024 -0.0231
v  0.0108 -0.0037 -0.0224
v  0.0094 -0.0023 -0.0229
v  0.0094 -0.0035 -0.0222
v  0.0081 -0.0024 -0.0231
v  0.0081 -0.0037 -0.0224
v  0.0070 -0.0028 -0.0238
v  0.0070 -0.0040 -0.0230
v  0.0062 -0.0033 -0.0247
v  0.0062 -0.0046 -0.0240
v  0.0059 -0.0040 -0.0259
v  0.0059 -0.0053 -0.0252
v  0.0062 -0.0047 -0.0271
v  0.0062 -0.0059 -0.0263
v  0.0070 -0.0052 -0.0280
v  0.0070 -0.0065 -0.0273
v  0.0081 -0.0056 -0.0287
v  0.0081 -0.0069 -0.0280
v  0.0094 -0.0058 -0.0289
v  0.0094 -0.0070 -0.0282
v  0.0108 -0.0056 -0.0287
v  0.0108 -0.0069 -0.0280
v  0.0119 -0.0052 -0.0280
v  0.0119 -0.0065 -0.0273
v  0.0127 -0.0047 -0.0271
v  0.0127 -0.0059 -0.0263
v  0.0154 -0.0011 -0.0247
v  0.0152 -0.0020 -0.0243
v  0.0156 -0.0032 -0.0264
v  0.0159 -0.0023 -0.0269
v  0.0151 -0.0064 -0.0245
v  0.0146 -0.0054 -0.0226
v  0.0140 -0.0001 -0.0229
v  0.0138 -0.0010 -0.0226
v  0.0134 -0.0044 -0.0211
v  0.0119 0.0006 -0.0217
v  0.0118 -0.0003 -0.0214
v  0.0116 -0.0038 -0.0200
v  0.0094 0.0009 -0.0213
v  0.0094 -0.0001 -0.0210
v  0.0094 -0.0036 -0.0196
v  0.0070 0.0006 -0.0217
v  0.0071 -0.0003 -0.0214
v  0.0073 -0.0038 -0.0200
v  0.0049 -0.0001 -0.0229
v  0.0051 -0.0010 -0.0226
v  0.0054 -0.0044 -0.0211
v  0.0035 -0.0011 -0.0247
v  0.0037 -0.0020 -0.0243
v  0.0042 -0.0054 -0.0226
v  0.0030 -0.0023 -0.0269
v  0.0033 -0.0032 -0.0264
v  0.0038 -0.0064 -0.0245
v  0.0035 -0.0036 -0.0290
v  0.0037 -0.0043 -0.0284
v  0.0042 -0.0075 -0.0264
v  0.0049 -0.0046 -0.0308
v  0.0051 -0.0053 -0.0302
v  0.0054 -0.0084 -0.0280
v  0.0070 -0.0053 -0.0320
v  0.0071 -0.0060 -0.0313
v  0.0073 -0.0090 -0.0290
v  0.0094 -0.0055 -0.0324
v  0.0094 -0.0062 -0.0318
v  0.0094 -0.0093 -0.0294
v  0.0119 -0.0053 -0.0320
v  0.0118 -0.0060 -0.0313
v  0.0116 -0.0090 -0.0290
v  0.0140 -0.0046 -0.0308
v  0.0138 -0.0053 -0.0302
v  0.0134 -0.0084 -0.0280
v  0.0154 -0.0036 -0.0290
v  0.0152 -0.0043 -0.0284
v  0.0146 -0.0075 -0.0264
v  0.0141 -0.0029 -0.0243
v  0.0145 -0.0039 -0.0260
v  0.0130 -0.0021 -0.0229
v  0.0114 -0.0015 -0.0220
v  0.0094 -0.0013 -0.0216
v  0.0075 -0.0015 -0.0220
v  0.0059 -0.0021 -0.0229
v  0.0048 -0.0029 -0.0243
v  0.0044 -0.0039 -0.0260
v  0.0048 -0.0048 -0.0277
v  0.0059 -0.0056 -0.0291
v  0.0075 -0.0062 -0.0300
v  0.0094 -0.0064 -0.0304
v  0.0114 -0.0062 -0.0300
v  0.0130 -0.0056 -0.0291
v  0.0141 -0.0048 -0.0277
v  0.0152 -0.0003 -0.0253
v  0.0157 -0.0015 -0.0274
v  0.0139 -0.0003 -0.0280
v  0.0136 0.0005 -0.0266
v  0.0138 0.0007 -0.0235
v  0.0126 0.0013 -0.0253
v  0.0118 0.0014 -0.0224
v  0.0112 0.0018 -0.0245
v  0.0094 0.0016 -0.0220
v  0.0094 0.0019 -0.0242
v  0.0071 0.0014 -0.0224
v  0.0077 0.0018 -0.0245
v  0.0050 0.0007 -0.0235
v  0.0063 0.0013 -0.0253
v  0.0037 -0.0003 -0.0253
v  0.0053 0.0005 -0.0266
v  0.0032 -0.0015 -0.0274
v  0.0050 -0.0003 -0.0280
v  0.0037 -0.0027 -0.0294
v  0.0053 -0.0012 -0.0295
v  0.0050 -0.0037 -0.0312
v  0.0063 -0.0019 -0.0308
v  0.0071 -0.0044 -0.0323
v  0.0077 -0.0024 -0.0316
v  0.0094 -0.0046 -0.0328
v  0.0094 -0.0026 -0.0319
v  0.0118 -0.0044 -0.0323
v  0.0112 -0.0024 -0.0316
v  0.0138 -0.0037 -0.0312
v  0.0126 -0.0019 -0.0308
v  0.0152 -0.0027 -0.0294
v  0.0136 -0.0012 -0.0295
v  0.0094 -0.0018 -0.0272
v  0.0161 -0.0065 -0.0213
v  0.0167 -0.0079 -0.0237
v  0.0146 -0.0053 -0.0192
v  0.0122 -0.0045 -0.0179
v  0.0094 -0.0043 -0.0174
v  0.0067 -0.0045 -0.0179
v  0.0043 -0.0053 -0.0192
v  0.0027 -0.0065 -0.0213
v  0.0022 -0.0079 -0.0237
v  0.0027 -0.0093 -0.0261
v  0.0043 -0.0105 -0.0281
v  0.0067 -0.0112 -0.0295
v  0.0094 -0.0115 -0.0299
v  0.0122 -0.0112 -0.0295
v  0.0146 -0.0105 -0.0281
v  0.0161 -0.0093 -0.0261
# 145 vertices

vn 1.0000 -0.0065 0.0037
vn 0.9239 0.1849 0.3351
vn 0.7071 0.3471 0.6161
vn 0.3827 0.4555 0.8038
vn 0.0000 0.4935 0.8697
vn -0.3827 0.4555 0.8038
vn -0.7071 0.3471 0.6161
vn -0.9239 0.1849 0.3351
vn -1.0000 -0.0065 0.0037
vn -0.9239 -0.1978 -0.3277
vn -0.7071 -0.3600 -0.6086
vn -0.3827 -0.4684 -0.7964
vn -0.0000 -0.5064 -0.8623
vn 0.3827 -0.4684 -0.7964
vn 0.7071 -0.3600 -0.6086
vn 0.9239 -0.1978 -0.3277
vn 0.9236 0.1708 0.3432
vn 0.7777 -0.3064 0.5489
vn 0.8418 -0.4675 0.2699
vn 0.9997 -0.0205 0.0118
vn 0.6419 0.6640 -0.3834
vn 0.5931 0.7869 -0.1706
vn 0.7069 0.3329 0.6240
vn 0.5952 -0.1699 0.7854
vn 0.4539 0.8910 0.0097
vn 0.3826 0.4413 0.8117
vn 0.3221 -0.0786 0.9434
vn 0.2457 0.9606 0.1302
vn 0.0000 0.4793 0.8776
vn 0.0000 -0.0466 0.9989
vn 0.0000 0.9850 0.1726
vn -0.3826 0.4413 0.8117
vn -0.3221 -0.0786 0.9434
vn -0.2457 0.9606 0.1302
vn -0.7069 0.3329 0.6240
vn -0.5952 -0.1699 0.7854
vn -0.4539 0.8910 0.0097
vn -0.9236 0.1708 0.3432
vn -0.7777 -0.3064 0.5489
vn -0.5931 0.7869 -0.1706
vn -0.9997 -0.0205 0.0118
vn -0.8418 -0.4675 0.2699
vn -0.6419 0.6640 -0.3834
vn -0.9236 -0.2118 -0.3195
vn -0.7777 -0.6286 -0.0091
vn -0.5931 0.5412 -0.5961
vn -0.7069 -0.3740 -0.6004
vn -0.5952 -0.7651 -0.2456
vn -0.4539 0.4371 -0.7765
vn -0.3826 -0.4823 -0.7880
vn -0.3221 -0.8563 -0.4036
vn -0.2457 0.3675 -0.8970
vn 0.0000 -0.5204 -0.8539
vn 0.0000 -0.8884 -0.4591
vn 0.0000 0.3431 -0.9393
vn 0.3826 -0.4823 -0.7880
vn 0.3221 -0.8563 -0.4036
vn 0.2457 0.3675 -0.8970
vn 0.7069 -0.3740 -0.6004
vn 0.5952 -0.7651 -0.2456
vn 0.4539 0.4371 -0.7765
vn 0.9236 -0.2118 -0.3195
vn 0.7777 -0.6286 -0.0091
vn 0.5931 0.5412 -0.5961
vn 0.3570 -0.7248 0.5892
vn 0.1147 -0.8603 0.4967
vn 0.3864 -0.7987 0.4612
vn 0.2733 -0.6621 0.6978
vn 0.1059 -0.8384 0.5347
vn 0.1479 -0.6202 0.7703
vn 0.0811 -0.8198 0.5669
vn 0.0000 -0.6055 0.7958
vn 0.0439 -0.8073 0.5884
vn -0.1479 -0.6202 0.7703
vn 0.0000 -0.8030 0.5960
vn -0.2733 -0.6621 0.6978
vn -0.0439 -0.8073 0.5884
vn -0.3570 -0.7248 0.5892
vn -0.0811 -0.8198 0.5669
vn -0.3864 -0.7987 0.4612
vn -0.1059 -0.8384 0.5347
vn -0.3570 -0.8727 0.3331
vn -0.1147 -0.8603 0.4967
vn -0.2733 -0.9354 0.2245
vn -0.1059 -0.8823 0.4587
vn -0.1479 -0.9773 0.1520
vn -0.0811 -0.9009 0.4265
vn 0.0000 -0.9920 0.1265
vn -0.0439 -0.9133 0.4050
vn 0.1479 -0.9773 0.1520
vn 0.0000 -0.9176 0.3974
vn 0.2733 -0.9354 0.2245
vn 0.0439 -0.9133 0.4050
vn 0.3570 -0.8727 0.3331
vn 0.1059 -0.8823 0.4587
vn 0.7981 0.6015 0.0345
vn 0.8639 0.4362 -0.2518
vn 0.2069 0.8473 -0.4892
vn 0.1912 0.8869 -0.4206
vn 0.6109 0.7416 0.2772
vn 0.1463 0.9204 -0.3625
vn 0.3306 0.8353 0.4394
vn 0.0792 0.9429 -0.3236
vn 0.0000 0.8681 0.4963
vn 0.0000 0.9507 -0.3100
vn -0.3306 0.8353 0.4394
vn -0.0792 0.9429 -0.3236
vn -0.6109 0.7416 0.2772
vn -0.1463 0.9204 -0.3625
vn -0.7981 0.6015 0.0345
vn -0.1912 0.8869 -0.4206
vn -0.8639 0.4362 -0.2518
vn -0.2069 0.8473 -0.4892
vn -0.7981 0.2709 -0.5381
vn -0.1912 0.8077 -0.5578
vn -0.6109 0.1307 -0.7809
vn -0.1463 0.7741 -0.6159
vn -0.3306 0.0371 -0.9430
vn -0.0792 0.7517 -0.6547
vn 0.0000 0.0042 -1.0000
vn 0.0000 0.7438 -0.6684
vn 0.3306 0.0371 -0.9430
vn 0.0792 0.7517 -0.6547
vn 0.6109 0.1307 -0.7809
vn 0.1463 0.7741 -0.6159
vn 0.7981 0.2709 -0.5381
vn 0.1912 0.8077 -0.5578
vn 0.0000 0.8660 -0.5000
vn 0.6698 0.7352 -0.1041
vn 0.7250 0.5964 -0.3444
vn 0.5127 0.8528 0.0996
vn 0.2775 0.9314 0.2357
vn 0.0000 0.9590 0.2835
vn -0.2775 0.9314 0.2357
vn -0.5127 0.8528 0.0996
vn -0.6698 0.7352 -0.1041
vn -0.7250 0.5964 -0.3444
vn -0.6698 0.4577 -0.5846
vn -0.5127 0.3401 -0.7883
vn -0.2775 0.2615 -0.9245
vn 0.0000 0.2339 -0.9723
vn 0.2775 0.2615 -0.9245
vn 0.5127 0.3401 -0.7883
vn 0.6698 0.4577 -0.5846
# 144 vertex normals

vt 0.7018 0.2984 0.0000
vt 0.7018 0.2866 0.0000
vt 0.7174 0.2866 0.0000
vt 0.7174 0.2984 0.0000
vt 0.7018 0.2756 0.0000
vt 0.7174 0.2756 0.0000
vt 0.7018 0.2656 0.0000
vt 0.7174 0.2656 0.0000
vt 0.7018 0.2567 0.0000
vt 0.7174 0.2567 0.0000
vt 0.7018 0.4407 0.0000
vt 0.7174 0.4407 0.0000
vt 0.7174 0.4502 0.0000
vt 0.7018 0.4502 0.0000
vt 0.7018 0.4305 0.0000
vt 0.7174 0.4305 0.0000
vt 0.7018 0.4195 0.0000
vt 0.7174 0.4195 0.0000
vt 0.7018 0.4077 0.0000
vt 0.7174 0.4077 0.0000
vt 0.7018 0.3950 0.0000
vt 0.7174 0.3950 0.0000
vt 0.7018 0.3817 0.0000
vt 0.7174 0.3817 0.0000
vt 0.7018 0.3679 0.0000
vt 0.7174 0.3679 0.0000
vt 0.7018 0.3537 0.0000
vt 0.7174 0.3537 0.0000
vt 0.7018 0.3395 0.0000
vt 0.7174 0.3395 0.0000
vt 0.7018 0.3254 0.0000
vt 0.7174 0.3254 0.0000
vt 0.7018 0.3117 0.0000
vt 0.7174 0.3117 0.0000
vt 0.0562 0.8882 0.0000
vt 0.0536 0.8820 0.0000
vt 0.0733 0.8781 0.0000
vt 0.0733 0.8848 0.0000
vt 0.7370 0.2951 0.0000
vt 0.7216 0.2984 0.0000
vt 0.7216 0.2866 0.0000
vt 0.7370 0.2806 0.0000
vt 0.0417 0.8979 0.0000
vt 0.0370 0.8932 0.0000
vt 0.7216 0.2756 0.0000
vt 0.7370 0.2663 0.0000
vt 0.0320 0.9124 0.0000
vt 0.0258 0.9098 0.0000
vt 0.7216 0.2656 0.0000
vt 0.7370 0.2523 0.0000
vt 0.0286 0.9295 0.0000
vt 0.0219 0.9295 0.0000
vt 0.7216 0.2567 0.0000
vt 0.7370 0.2385 0.0000
vt 0.0320 0.9466 0.0000
vt 0.0258 0.9491 0.0000
vt 0.7370 0.4642 0.0000
vt 0.7216 0.4502 0.0000
vt 0.7216 0.4407 0.0000
vt 0.7370 0.4508 0.0000
vt 0.0417 0.9611 0.0000
vt 0.0369 0.9658 0.0000
vt 0.7216 0.4305 0.0000
vt 0.7370 0.4370 0.0000
vt 0.0562 0.9707 0.0000
vt 0.0536 0.9769 0.0000
vt 0.7216 0.4195 0.0000
vt 0.7370 0.4230 0.0000
vt 0.0732 0.9741 0.0000
vt 0.0732 0.9808 0.0000
vt 0.7216 0.4077 0.0000
vt 0.7370 0.4090 0.0000
vt 0.0903 0.9707 0.0000
vt 0.0929 0.9769 0.0000
vt 0.7216 0.3950 0.0000
vt 0.7370 0.3949 0.0000
vt 0.1048 0.9611 0.0000
vt 0.1095 0.9658 0.0000
vt 0.7216 0.3817 0.0000
vt 0.7370 0.3806 0.0000
vt 0.1145 0.9466 0.0000
vt 0.1207 0.9492 0.0000
vt 0.7216 0.3679 0.0000
vt 0.7370 0.3663 0.0000
vt 0.1179 0.9295 0.0000
vt 0.1246 0.9295 0.0000
vt 0.7216 0.3537 0.0000
vt 0.7370 0.3519 0.0000
vt 0.1145 0.9124 0.0000
vt 0.1207 0.9099 0.0000
vt 0.7216 0.3395 0.0000
vt 0.7370 0.3375 0.0000
vt 0.1048 0.8979 0.0000
vt 0.1096 0.8932 0.0000
vt 0.7216 0.3254 0.0000
vt 0.7370 0.3233 0.0000
vt 0.0903 0.8882 0.0000
vt 0.0929 0.8821 0.0000
vt 0.7216 0.3117 0.0000
vt 0.7370 0.3091 0.0000
vt 0.0505 0.8739 0.0000
vt 0.0473 0.8668 0.0000
vt 0.0733 0.8616 0.0000
vt 0.0735 0.8694 0.0000
vt 0.0310 0.8868 0.0000
vt 0.0253 0.8815 0.0000
vt 0.0179 0.9063 0.0000
vt 0.0106 0.9035 0.0000
vt 0.0132 0.9292 0.0000
vt 0.0054 0.9295 0.0000
vt 0.0177 0.9522 0.0000
vt 0.0106 0.9554 0.0000
vt 0.0306 0.9718 0.0000
vt 0.0253 0.9775 0.0000
vt 0.0500 0.9849 0.0000
vt 0.0473 0.9922 0.0000
vt 0.0730 0.9895 0.0000
vt 0.0733 0.9973 0.0000
vt 0.0960 0.9851 0.0000
vt 0.0992 0.9922 0.0000
vt 0.1155 0.9721 0.0000
vt 0.1212 0.9775 0.0000
vt 0.1286 0.9527 0.0000
vt 0.1359 0.9554 0.0000
vt 0.1333 0.9297 0.0000
vt 0.1411 0.9295 0.0000
vt 0.1288 0.9067 0.0000
vt 0.1359 0.9035 0.0000
vt 0.1159 0.8872 0.0000
vt 0.1212 0.8815 0.0000
vt 0.0992 0.8668 0.0000
vt 0.0965 0.8741 0.0000
vt 0.0588 0.8945 0.0000
vt 0.0733 0.8916 0.0000
vt 0.0733 0.9027 0.0000
vt 0.0630 0.9047 0.0000
vt 0.0465 0.9027 0.0000
vt 0.0543 0.9105 0.0000
vt 0.0383 0.9150 0.0000
vt 0.0485 0.9192 0.0000
vt 0.0354 0.9295 0.0000
vt 0.0465 0.9295 0.0000
vt 0.0383 0.9440 0.0000
vt 0.0485 0.9397 0.0000
vt 0.0465 0.9562 0.0000
vt 0.0543 0.9484 0.0000
vt 0.0588 0.9645 0.0000
vt 0.0630 0.9542 0.0000
vt 0.0733 0.9673 0.0000
vt 0.0733 0.9563 0.0000
vt 0.0877 0.9645 0.0000
vt 0.0835 0.9542 0.0000
vt 0.1000 0.9562 0.0000
vt 0.0922 0.9484 0.0000
vt 0.1082 0.9440 0.0000
vt 0.0980 0.9397 0.0000
vt 0.1111 0.9295 0.0000
vt 0.1000 0.9295 0.0000
vt 0.1082 0.9150 0.0000
vt 0.0980 0.9192 0.0000
vt 0.1000 0.9027 0.0000
vt 0.0922 0.9105 0.0000
vt 0.0877 0.8945 0.0000
vt 0.0835 0.9047 0.0000
vt 0.0733 0.9295 0.0000
vt 0.7557 0.2763 0.0000
vt 0.7557 0.2923 0.0000
vt 0.7557 0.2596 0.0000
vt 0.7557 0.2423 0.0000
vt 0.7558 0.2246 0.0000
vt 0.7557 0.4601 0.0000
vt 0.7557 0.4769 0.0000
vt 0.7557 0.4424 0.0000
vt 0.7557 0.4252 0.0000
vt 0.7557 0.4087 0.0000
vt 0.7557 0.3931 0.0000
vt 0.7557 0.3781 0.0000
vt 0.7557 0.3636 0.0000
vt 0.7557 0.3493 0.0000
vt 0.7557 0.3352 0.0000
vt 0.7557 0.3210 0.0000
vt 0.7557 0.3067 0.0000
# 182 texture coords

o default001
g default001
usemtl Material__2
s 1
f 1/1/1 2/2/2 3/3/2 
f 3/3/2 4/4/1 1/1/1 
f 5/5/3 6/6/3 3/3/2 
f 3/3/2 2/2/2 5/5/3 
f 7/7/4 8/8/4 6/6/3 
f 6/6/3 5/5/3 7/7/4 
f 9/9/5 10/10/5 8/8/4 
f 8/8/4 7/7/4 9/9/5 
f 11/11/6 12/12/6 10/13/5 
f 10/13/5 9/14/5 11/11/6 
f 13/15/7 14/16/7 12/12/6 
f 12/12/6 11/11/6 13/15/7 
f 15/17/8 16/18/8 14/16/7 
f 14/16/7 13/15/7 15/17/8 
f 17/19/9 18/20/9 16/18/8 
f 16/18/8 15/17/8 17/19/9 
f 19/21/10 20/22/10 18/20/9 
f 18/20/9 17/19/9 19/21/10 
f 21/23/11 22/24/11 20/22/10 
f 20/22/10 19/21/10 21/23/11 
f 23/25/12 24/26/12 22/24/11 
f 22/24/11 21/23/11 23/25/12 
f 25/27/13 26/28/13 24/26/12 
f 24/26/12 23/25/12 25/27/13 
f 27/29/14 28/30/14 26/28/13 
f 26/28/13 25/27/13 27/29/14 
f 29/31/15 30/32/15 28/30/14 
f 28/30/14 27/29/14 29/31/15 
f 31/33/16 32/34/16 30/32/15 
f 30/32/15 29/31/15 31/33/16 
f 1/1/1 4/4/1 32/34/16 
f 32/34/16 31/33/16 1/1/1 
f 33/35/17 34/36/18 35/37/19 
f 35/37/19 36/38/20 33/35/17 
f 37/39/21 4/40/1 3/41/2 
f 3/41/2 38/42/22 37/39/21 
f 39/43/23 40/44/24 34/36/18 
f 34/36/18 33/35/17 39/43/23 
f 38/42/22 3/41/2 6/45/3 
f 6/45/3 41/46/25 38/42/22 
f 42/47/26 43/48/27 40/44/24 
f 40/44/24 39/43/23 42/47/26 
f 41/46/25 6/45/3 8/49/4 
f 8/49/4 44/50/28 41/46/25 
f 45/51/29 46/52/30 43/48/27 
f 43/48/27 42/47/26 45/51/29 
f 44/50/28 8/49/4 10/53/5 
f 10/53/5 47/54/31 44/50/28 
f 48/55/32 49/56/33 46/52/30 
f 46/52/30 45/51/29 48/55/32 
f 47/57/31 10/58/5 12/59/6 
f 12/59/6 50/60/34 47/57/31 
f 51/61/35 52/62/36 49/56/33 
f 49/56/33 48/55/32 51/61/35 
f 50/60/34 12/59/6 14/63/7 
f 14/63/7 53/64/37 50/60/34 
f 54/65/38 55/66/39 52/62/36 
f 52/62/36 51/61/35 54/65/38 
f 53/64/37 14/63/7 16/67/8 
f 16/67/8 56/68/40 53/64/37 
f 57/69/41 58/70/42 55/66/39 
f 55/66/39 54/65/38 57/69/41 
f 56/68/40 16/67/8 18/71/9 
f 18/71/9 59/72/43 56/68/40 
f 60/73/44 61/74/45 58/70/42 
f 58/70/42 57/69/41 60/73/44 
f 59/72/43 18/71/9 20/75/10 
f 20/75/10 62/76/46 59/72/43 
f 63/77/47 64/78/48 61/74/45 
f 61/74/45 60/73/44 63/77/47 
f 62/76/46 20/75/10 22/79/11 
f 22/79/11 65/80/49 62/76/46 
f 66/81/50 67/82/51 64/78/48 
f 64/78/48 63/77/47 66/81/50 
f 65/80/49 22/79/11 24/83/12 
f 24/83/12 68/84/52 65/80/49 
f 69/85/53 70/86/54 67/82/51 
f 67/82/51 66/81/50 69/85/53 
f 68/84/52 24/83/12 26/87/13 
f 26/87/13 71/88/55 68/84/52 
f 72/89/56 73/90/57 70/86/54 
f 70/86/54 69/85/53 72/89/56 
f 71/88/55 26/87/13 28/91/14 
f 28/91/14 74/92/58 71/88/55 
f 75/93/59 76/94/60 73/90/57 
f 73/90/57 72/89/56 75/93/59 
f 74/92/58 28/91/14 30/95/15 
f 30/95/15 77/96/61 74/92/58 
f 78/97/62 79/98/63 76/94/60 
f 76/94/60 75/93/59 78/97/62 
f 77/96/61 30/95/15 32/99/16 
f 32/99/16 80/100/64 77/96/61 
f 36/38/20 35/37/19 79/98/63 
f 79/98/63 78/97/62 36/38/20 
f 80/100/64 32/99/16 4/40/1 
f 4/40/1 37/39/21 80/100/64 
f 81/101/65 2/102/2 1/103/1 
f 1/103/66 82/104/67 81/101/65 
f 83/105/68 5/106/3 2/102/2 
f 2/102/69 81/101/65 83/105/68 
f 84/107/70 7/108/4 5/106/3 
f 5/106/71 83/105/68 84/107/70 
f 85/109/72 9/110/5 7/108/4 
f 7/108/73 84/107/70 85/109/72 
f 86/111/74 11/112/6 9/110/5 
f 9/110/75 85/109/72 86/111/74 
f 87/113/76 13/114/7 11/112/6 
f 11/112/77 86/111/74 87/113/76 
f 88/115/78 15/116/8 13/114/7 
f 13/114/79 87/113/76 88/115/78 
f 89/117/80 17/118/9 15/116/8 
f 15/116/81 88/115/78 89/117/80 
f 90/119/82 19/120/10 17/118/9 
f 17/118/83 89/117/80 90/119/82 
f 91/121/84 21/122/11 19/120/10 
f 19/120/85 90/119/82 91/121/84 
f 92/123/86 23/124/12 21/122/11 
f 21/122/87 91/121/84 92/123/86 
f 93/125/88 25/126/13 23/124/12 
f 23/124/89 92/123/86 93/125/88 
f 94/127/90 27/128/14 25/126/13 
f 25/126/91 93/125/88 94/127/90 
f 95/129/92 29/130/15 27/128/14 
f 27/128/93 94/127/90 95/129/92 
f 31/131/16 29/130/15 95/129/92 
f 95/129/92 96/132/94 31/131/95 
f 82/104/67 1/103/1 31/131/16 
f 31/131/95 96/132/94 82/104/67 
f 97/133/96 98/134/97 99/135/98 
f 99/135/98 100/136/99 97/133/96 
f 101/137/100 97/133/96 100/136/99 
f 100/136/99 102/138/101 101/137/100 
f 103/139/102 101/137/100 102/138/101 
f 102/138/101 104/140/103 103/139/102 
f 105/141/104 103/139/102 104/140/103 
f 104/140/103 106/142/105 105/141/104 
f 107/143/106 105/141/104 106/142/105 
f 106/142/105 108/144/107 107/143/106 
f 109/145/108 107/143/106 108/144/107 
f 108/144/107 110/146/109 109/145/108 
f 111/147/110 109/145/108 110/146/109 
f 110/146/109 112/148/111 111/147/110 
f 113/149/112 111/147/110 112/148/111 
f 112/148/111 114/150/113 113/149/112 
f 115/151/114 113/149/112 114/150/113 
f 114/150/113 116/152/115 115/151/114 
f 117/153/116 115/151/114 116/152/115 
f 116/152/115 118/154/117 117/153/116 
f 119/155/118 117/153/116 118/154/117 
f 118/154/117 120/156/119 119/155/118 
f 121/157/120 119/155/118 120/156/119 
f 120/156/119 122/158/121 121/157/120 
f 123/159/122 121/157/120 122/158/121 
f 122/158/121 124/160/123 123/159/122 
f 125/161/124 123/159/122 124/160/123 
f 124/160/123 126/162/125 125/161/124 
f 127/163/126 125/161/124 126/162/125 
f 126/162/125 128/164/127 127/163/126 
f 98/134/97 127/163/126 128/164/127 
f 128/164/127 99/135/98 98/134/97 
f 129/165/128 100/136/99 99/135/98 
f 129/165/128 102/138/101 100/136/99 
f 129/165/128 104/140/103 102/138/101 
f 129/165/128 106/142/105 104/140/103 
f 129/165/128 108/144/107 106/142/105 
f 129/165/128 110/146/109 108/144/107 
f 129/165/128 112/148/111 110/146/109 
f 129/165/128 114/150/113 112/148/111 
f 129/165/128 116/152/115 114/150/113 
f 129/165/128 118/154/117 116/152/115 
f 129/165/128 120/156/119 118/154/117 
f 129/165/128 122/158/121 120/156/119 
f 129/165/128 124/160/123 122/158/121 
f 129/165/128 126/162/125 124/160/123 
f 129/165/128 128/164/127 126/162/125 
f 129/165/128 99/135/98 128/164/127 
f 37/39/21 38/42/22 130/166/129 
f 130/166/129 131/167/130 37/39/21 
f 38/42/22 41/46/25 132/168/131 
f 132/168/131 130/166/129 38/42/22 
f 41/46/25 44/50/28 133/169/132 
f 133/169/132 132/168/131 41/46/25 
f 44/50/28 47/54/31 134/170/133 
f 134/170/133 133/169/132 44/50/28 
f 47/57/31 50/60/34 135/171/134 
f 135/171/134 134/172/133 47/57/31 
f 50/60/34 53/64/37 136/173/135 
f 136/173/135 135/171/134 50/60/34 
f 53/64/37 56/68/40 137/174/136 
f 137/174/136 136/173/135 53/64/37 
f 56/68/40 59/72/43 138/175/137 
f 138/175/137 137/174/136 56/68/40 
f 59/72/43 62/76/46 139/176/138 
f 139/176/138 138/175/137 59/72/43 
f 62/76/46 65/80/49 140/177/139 
f 140/177/139 139/176/138 62/76/46 
f 65/80/49 68/84/52 141/178/140 
f 141/178/140 140/177/139 65/80/49 
f 68/84/52 71/88/55 142/179/141 
f 142/179/141 141/178/140 68/84/52 
f 71/88/55 74/92/58 143/180/142 
f 143/180/142 142/179/141 71/88/55 
f 74/92/58 77/96/61 144/181/143 
f 144/181/143 143/180/142 74/92/58 
f 77/96/61 80/100/64 145/182/144 
f 145/182/144 144/181/143 77/96/61 
f 80/100/64 37/39/21 131/167/130 
f 131/167/130 145/182/144 80/100/64 
f 97/133/96 33/35/17 36/38/20 
f 36/38/20 98/134/97 97/133/96 
f 101/137/100 39/43/23 33/35/17 
f 33/35/17 97/133/96 101/137/100 
f 103/139/102 42/47/26 39/43/23 
f 39/43/23 101/137/100 103/139/102 
f 105/141/104 45/51/29 42/47/26 
f 42/47/26 103/139/102 105/141/104 
f 107/143/106 48/55/32 45/51/29 
f 45/51/29 105/141/104 107/143/106 
f 109/145/108 51/61/35 48/55/32 
f 48/55/32 107/143/106 109/145/108 
f 111/147/110 54/65/38 51/61/35 
f 51/61/35 109/145/108 111/147/110 
f 113/149/112 57/69/41 54/65/38 
f 54/65/38 111/147/110 113/149/112 
f 115/151/114 60/73/44 57/69/41 
f 57/69/41 113/149/112 115/151/114 
f 117/153/116 63/77/47 60/73/44 
f 60/73/44 115/151/114 117/153/116 
f 119/155/118 66/81/50 63/77/47 
f 63/77/47 117/153/116 119/155/118 
f 121/157/120 69/85/53 66/81/50 
f 66/81/50 119/155/118 121/157/120 
f 123/159/122 72/89/56 69/85/53 
f 69/85/53 121/157/120 123/159/122 
f 125/161/124 75/93/59 72/89/56 
f 72/89/56 123/159/122 125/161/124 
f 127/163/126 78/97/62 75/93/59 
f 75/93/59 125/161/124 127/163/126 
f 98/134/97 36/38/20 78/97/62 
f 78/97/62 127/163/126 98/134/97 
f 34/36/18 81/101/65 82/104/67 
f 82/104/67 35/37/19 34/36/18 
f 40/44/24 83/105/68 81/101/65 
f 81/101/65 34/36/18 40/44/24 
f 43/48/27 84/107/70 83/105/68 
f 83/105/68 40/44/24 43/48/27 
f 46/52/30 85/109/72 84/107/70 
f 84/107/70 43/48/27 46/52/30 
f 49/56/33 86/111/74 85/109/72 
f 85/109/72 46/52/30 49/56/33 
f 52/62/36 87/113/76 86/111/74 
f 86/111/74 49/56/33 52/62/36 
f 55/66/39 88/115/78 87/113/76 
f 87/113/76 52/62/36 55/66/39 
f 58/70/42 89/117/80 88/115/78 
f 88/115/78 55/66/39 58/70/42 
f 61/74/45 90/119/82 89/117/80 
f 89/117/80 58/70/42 61/74/45 
f 64/78/48 91/121/84 90/119/82 
f 90/119/82 61/74/45 64/78/48 
f 67/82/51 92/123/86 91/121/84 
f 91/121/84 64/78/48 67/82/51 
f 70/86/54 93/125/88 92/123/86 
f 92/123/86 67/82/51 70/86/54 
f 73/90/57 94/127/90 93/125/88 
f 93/125/88 70/86/54 73/90/57 
f 76/94/60 95/129/92 94/127/90 
f 94/127/90 73/90/57 76/94/60 
f 79/98/63 96/132/94 95/129/92 
f 95/129/92 76/94/60 79/98/63 
f 35/37/19 82/104/67 96/132/94 
f 96/132/94 79/98/63 35/37/19 
# 0 polygons - 272 triangles

