# 3ds Max Wavefront OBJ Exporter v0.97b - (c)2007 guruware
# File Created: 01.07.2022 10:03:32

mtllib YVR_d1_right_grip.mtl

#
# object Object009
#

v  -0.0145 -0.0011 0.0153
v  -0.0138 0.0017 0.0160
v  -0.0148 -0.0002 0.0142
v  -0.0158 -0.0035 0.0123
v  -0.0163 -0.0070 0.0102
v  -0.0158 -0.0064 0.0124
v  -0.0155 -0.0041 0.0139
v  -0.0154 -0.0080 0.0128
v  -0.0151 -0.0049 0.0151
v  -0.0147 -0.0099 0.0138
v  -0.0148 -0.0060 0.0164
v  -0.0140 -0.0017 0.0186
v  -0.0140 -0.0025 0.0204
v  -0.0129 0.0028 0.0230
v  -0.0127 0.0033 0.0204
v  -0.0140 -0.0114 0.0153
v  -0.0145 -0.0070 0.0180
v  -0.0141 -0.0035 0.0222
v  -0.0145 -0.0049 0.0237
v  -0.0141 -0.0003 0.0266
v  -0.0134 0.0015 0.0251
v  -0.0143 -0.0091 0.0212
v  -0.0143 -0.0080 0.0196
v  -0.0135 -0.0124 0.0170
v  -0.0134 -0.0132 0.0188
v  -0.0147 -0.0066 0.0250
v  -0.0150 -0.0075 0.0266
v  -0.0149 -0.0039 0.0275
v  -0.0158 -0.0106 0.0093
v  -0.0145 -0.0141 0.0101
v  -0.0131 -0.0162 0.0120
v  -0.0121 -0.0174 0.0143
v  -0.0116 -0.0178 0.0164
v  -0.0145 -0.0111 0.0244
v  -0.0144 -0.0101 0.0227
v  -0.0133 -0.0139 0.0205
v  -0.0130 -0.0153 0.0218
v  -0.0143 -0.0013 0.0169
v  -0.0119 -0.0173 0.0189
v  -0.0130 0.0029 0.0181
v  -0.0014 -0.0002 0.0142
v  -0.0013 0.0017 0.0160
v  -0.0017 -0.0070 0.0102
v  -0.0015 -0.0035 0.0123
v  -0.0012 0.0029 0.0181
v  -0.0012 0.0028 0.0230
v  -0.0012 0.0033 0.0204
v  -0.0014 -0.0003 0.0266
v  -0.0013 0.0015 0.0251
v  -0.0016 -0.0039 0.0275
v  -0.0017 -0.0075 0.0266
v  -0.0019 -0.0111 0.0244
v  -0.0021 -0.0153 0.0218
v  -0.0018 -0.0106 0.0093
v  -0.0020 -0.0141 0.0101
v  -0.0021 -0.0162 0.0120
v  -0.0021 -0.0174 0.0143
v  -0.0021 -0.0173 0.0189
v  -0.0022 -0.0178 0.0164
# 59 vertices

vn -0.9521 0.1513 0.2659
vn -0.6395 0.7017 -0.3141
vn -0.7220 0.5663 -0.3975
vn -0.7605 0.4379 -0.4794
vn -0.8008 0.2058 -0.5625
vn -0.9613 -0.0857 0.2617
vn -0.9602 0.0652 0.2716
vn -0.9458 -0.1903 0.2632
vn -0.9623 0.0204 0.2711
vn -0.9416 -0.2468 0.2289
vn -0.9786 -0.0181 0.2049
vn -0.9807 0.1491 0.1268
vn -0.9900 0.1389 0.0247
vn -0.5708 0.7893 0.2263
vn -0.5541 0.8322 0.0222
vn -0.9548 -0.2591 0.1456
vn -0.9933 -0.0579 0.1000
vn -0.9900 0.1290 -0.0571
vn -0.9905 0.0860 -0.1068
vn -0.6671 0.4504 0.5933
vn -0.6190 0.6702 0.4094
vn -0.9929 -0.0965 -0.0691
vn -0.9967 -0.0815 -0.0043
vn -0.9669 -0.2545 0.0191
vn -0.9641 -0.2599 -0.0553
vn -0.9900 0.0361 -0.1364
vn -0.7405 -0.2796 0.6112
vn -0.7152 0.0722 0.6952
vn -0.7514 -0.1580 -0.6407
vn -0.6620 -0.5432 -0.5163
vn -0.5846 -0.7494 -0.3111
vn -0.5508 -0.8208 -0.1510
vn -0.4944 -0.8688 0.0276
vn -0.7342 -0.4609 0.4985
vn -0.9849 -0.1019 -0.1402
vn -0.9576 -0.2743 -0.0879
vn -0.5887 -0.6638 0.4613
vn -0.9673 0.1628 0.1943
vn -0.5199 -0.8124 0.2641
vn -0.5790 0.8003 -0.1558
vn 0.0000 0.5924 -0.8057
vn 0.0000 0.7844 -0.6203
vn 0.0000 0.3871 -0.9220
vn -0.0000 0.5071 -0.8619
vn 0.0000 0.9460 -0.3243
vn 0.0000 0.9342 0.3567
vn 0.0000 0.9999 0.0151
vn 0.0000 0.4543 0.8908
vn 0.0000 0.7561 0.6545
vn 0.0000 0.0056 1.0000
vn 0.0000 -0.3864 0.9224
vn 0.0000 -0.5250 0.8511
vn 0.0000 -0.6893 0.7245
vn 0.0000 0.0184 -0.9998
vn 0.0000 -0.4612 -0.8873
vn 0.0000 -0.7873 -0.6165
vn 0.0000 -0.9387 -0.3447
vn 0.0000 -0.9134 0.4072
vn 0.0000 -1.0000 0.0087
# 59 vertex normals

vt 0.0885 0.1039 0.0000
vt 0.0933 0.1217 0.0000
vt 0.0973 0.1054 0.0000
vt 0.0983 0.0817 0.0000
vt 0.0991 0.0561 0.0000
vt 0.0888 0.0658 0.0000
vt 0.0878 0.0831 0.0000
vt 0.0817 0.0580 0.0000
vt 0.0785 0.0820 0.0000
vt 0.0699 0.0504 0.0000
vt 0.0677 0.0804 0.0000
vt 0.0686 0.1102 0.0000
vt 0.0562 0.1118 0.0000
vt 0.0580 0.1486 0.0000
vt 0.0734 0.1438 0.0000
vt 0.0565 0.0465 0.0000
vt 0.0558 0.0794 0.0000
vt 0.0435 0.1112 0.0000
vt 0.0310 0.1083 0.0000
vt 0.0290 0.1422 0.0000
vt 0.0429 0.1479 0.0000
vt 0.0318 0.0777 0.0000
vt 0.0437 0.0787 0.0000
vt 0.0432 0.0454 0.0000
vt 0.0309 0.0461 0.0000
vt 0.0185 0.1032 0.0000
vt 0.0070 0.1028 0.0000
vt 0.0130 0.1256 0.0000
vt 0.0928 0.0333 0.0000
vt 0.0760 0.0155 0.0000
vt 0.0575 0.0081 0.0000
vt 0.0405 0.0072 0.0000
vt 0.0271 0.0103 0.0000
vt 0.0075 0.0761 0.0000
vt 0.0200 0.0765 0.0000
vt 0.0195 0.0476 0.0000
vt 0.0075 0.0428 0.0000
vt 0.0794 0.1072 0.0000
vt 0.0157 0.0217 0.0000
vt 0.0850 0.1348 0.0000
vt 0.5569 0.0081 0.0000
vt 0.5569 0.0779 0.0000
vt 0.5725 0.0779 0.0000
vt 0.5725 0.0081 0.0000
vt 0.5104 0.0081 0.0000
vt 0.5104 0.0779 0.0000
vt 0.5345 0.0779 0.0000
vt 0.5345 0.0081 0.0000
vt 0.5870 0.0779 0.0000
vt 0.5870 0.0081 0.0000
vt 0.6164 0.0081 0.0000
vt 0.6010 0.0081 0.0000
vt 0.6010 0.0779 0.0000
vt 0.6164 0.0779 0.0000
vt 0.6449 0.0081 0.0000
vt 0.6306 0.0081 0.0000
vt 0.6306 0.0779 0.0000
vt 0.6449 0.0779 0.0000
vt 0.6668 0.0081 0.0000
vt 0.6668 0.0779 0.0000
vt 0.6890 0.0779 0.0000
vt 0.6890 0.0081 0.0000
vt 0.3331 0.0081 0.0000
vt 0.3331 0.0779 0.0000
vt 0.3578 0.0779 0.0000
vt 0.3578 0.0081 0.0000
vt 0.3872 0.0779 0.0000
vt 0.3872 0.0081 0.0000
vt 0.4887 0.0081 0.0000
vt 0.4887 0.0779 0.0000
vt 0.4676 0.0081 0.0000
vt 0.4676 0.0779 0.0000
vt 0.4508 0.0081 0.0000
vt 0.4508 0.0779 0.0000
vt 0.4357 0.0081 0.0000
vt 0.4357 0.0779 0.0000
vt 0.4077 0.0081 0.0000
vt 0.4077 0.0779 0.0000
vt 0.4229 0.0779 0.0000
vt 0.4229 0.0081 0.0000
# 80 texture coords

o Object009
g Object009
usemtl Material__2
s 1
f 1/1/1 2/2/2 3/3/3 
f 4/4/4 5/5/5 6/6/6 
f 6/6/6 7/7/7 4/4/4 
f 6/6/6 8/8/8 9/9/9 
f 9/9/9 7/7/7 6/6/6 
f 8/8/8 10/10/10 11/11/11 
f 11/11/11 9/9/9 8/8/8 
f 12/12/12 13/13/13 14/14/14 
f 14/14/14 15/15/15 12/12/12 
f 10/10/10 16/16/16 17/17/17 
f 17/17/17 11/11/11 10/10/10 
f 18/18/18 19/19/19 20/20/20 
f 20/20/20 21/21/21 18/18/18 
f 22/22/22 23/23/23 24/24/24 
f 24/24/24 25/25/25 22/22/22 
f 26/26/26 27/27/27 28/28/28 
f 29/29/29 8/8/8 6/6/6 
f 6/6/6 5/5/5 29/29/29 
f 30/30/30 10/10/10 8/8/8 
f 8/8/8 29/29/29 30/30/30 
f 31/31/31 16/16/16 10/10/10 
f 10/10/10 30/30/30 31/31/31 
f 32/32/32 24/24/24 16/16/16 
f 16/16/16 31/31/31 32/32/32 
f 33/33/33 25/25/25 24/24/24 
f 24/24/24 32/32/32 33/33/33 
f 34/34/34 35/35/35 36/36/36 
f 36/36/36 37/37/37 34/34/34 
f 1/1/1 7/7/7 9/9/9 
f 9/9/9 38/38/38 1/1/1 
f 38/38/38 9/9/9 11/11/11 
f 11/11/11 12/12/12 38/38/38 
f 12/12/12 11/11/11 17/17/17 
f 17/17/17 13/13/13 12/12/12 
f 19/19/19 18/18/18 23/23/23 
f 23/23/23 22/22/22 19/19/19 
f 33/33/33 39/39/39 36/36/36 
f 36/36/36 25/25/25 33/33/33 
f 28/28/28 20/20/20 19/19/19 
f 19/19/19 26/26/26 28/28/28 
f 26/26/26 19/19/19 22/22/22 
f 22/22/22 35/35/35 26/26/26 
f 22/22/22 25/25/25 36/36/36 
f 36/36/36 35/35/35 22/22/22 
f 17/17/17 16/16/16 24/24/24 
f 24/24/24 23/23/23 17/17/17 
f 17/17/17 23/23/23 18/18/18 
f 18/18/18 13/13/13 17/17/17 
f 13/13/13 18/18/18 21/21/21 
f 21/21/21 14/14/14 13/13/13 
f 2/2/2 1/1/1 38/38/38 
f 38/38/38 40/40/40 2/2/2 
f 40/40/40 38/38/38 12/12/12 
f 12/12/12 15/15/15 40/40/40 
f 27/27/27 26/26/26 35/35/35 
f 35/35/35 34/34/34 27/27/27 
f 7/7/7 1/1/1 3/3/3 
f 3/3/3 4/4/4 7/7/7 
f 37/37/37 36/36/36 39/39/39 
f 41/41/41 3/42/3 2/43/2 
f 2/43/2 42/44/42 41/41/41 
f 43/45/43 5/46/5 4/47/4 
f 4/47/4 44/48/44 43/45/43 
f 44/48/44 4/47/4 3/42/3 
f 3/42/3 41/41/41 44/48/44 
f 42/44/42 2/43/2 40/49/40 
f 40/49/40 45/50/45 42/44/42 
f 46/51/46 47/52/47 15/53/15 
f 15/53/15 14/54/14 46/51/46 
f 45/50/45 40/49/40 15/53/15 
f 15/53/15 47/52/47 45/50/45 
f 48/55/48 49/56/49 21/57/21 
f 21/57/21 20/58/20 48/55/48 
f 49/56/49 46/51/46 14/54/14 
f 14/54/14 21/57/21 49/56/49 
f 50/59/50 48/55/48 20/58/20 
f 20/58/20 28/60/28 50/59/50 
f 50/59/50 28/60/28 27/61/27 
f 27/61/27 51/62/51 50/59/50 
f 51/63/51 27/64/27 34/65/34 
f 34/65/34 52/66/52 51/63/51 
f 52/66/52 34/65/34 37/67/37 
f 37/67/37 53/68/53 52/66/52 
f 43/45/43 54/69/54 29/70/29 
f 29/70/29 5/46/5 43/45/43 
f 54/69/54 55/71/55 30/72/30 
f 30/72/30 29/70/29 54/69/54 
f 55/71/55 56/73/56 31/74/31 
f 31/74/31 30/72/30 55/71/55 
f 56/73/56 57/75/57 32/76/32 
f 32/76/32 31/74/31 56/73/56 
f 58/77/58 39/78/39 33/79/33 
f 33/79/33 59/80/59 58/77/58 
f 57/75/57 59/80/59 33/79/33 
f 33/79/33 32/76/32 57/75/57 
f 53/68/53 37/67/37 39/78/39 
f 39/78/39 58/77/58 53/68/53 
# 0 polygons - 97 triangles

