# 3ds Max Wavefront OBJ Exporter v0.97b - (c)2007 guruware
# File Created: 01.07.2022 10:04:46

mtllib YVR_d1_right_Abutton.mtl

#
# object Object011
#

v  -0.0014 0.0005 -0.0141
v  -0.0018 0.0014 -0.0125
v  -0.0015 -0.0017 -0.0107
v  -0.0011 -0.0026 -0.0123
v  -0.0028 0.0020 -0.0111
v  -0.0025 -0.0010 -0.0093
v  -0.0043 0.0025 -0.0101
v  -0.0040 -0.0006 -0.0083
v  -0.0062 0.0025 -0.0097
v  -0.0059 -0.0006 -0.0079
v  -0.0080 0.0022 -0.0100
v  -0.0077 -0.0009 -0.0082
v  -0.0095 0.0015 -0.0108
v  -0.0092 -0.0016 -0.0090
v  -0.0106 0.0007 -0.0121
v  -0.0103 -0.0024 -0.0103
v  -0.0109 -0.0002 -0.0137
v  -0.0106 -0.0033 -0.0119
v  -0.0106 -0.0011 -0.0153
v  -0.0103 -0.0042 -0.0135
v  -0.0095 -0.0018 -0.0166
v  -0.0092 -0.0049 -0.0149
v  -0.0080 -0.0022 -0.0176
v  -0.0077 -0.0053 -0.0158
v  -0.0062 -0.0023 -0.0180
v  -0.0059 -0.0054 -0.0162
v  -0.0043 -0.0020 -0.0178
v  -0.0040 -0.0051 -0.0160
v  -0.0028 -0.0013 -0.0169
v  -0.0025 -0.0044 -0.0151
v  -0.0018 -0.0005 -0.0156
v  -0.0015 -0.0036 -0.0138
v  -0.0030 0.0017 -0.0133
v  -0.0027 0.0011 -0.0144
v  -0.0063 0.0012 -0.0145
v  -0.0038 0.0023 -0.0122
v  -0.0049 0.0026 -0.0115
v  -0.0062 0.0026 -0.0112
v  -0.0076 0.0024 -0.0114
v  -0.0087 0.0019 -0.0120
v  -0.0095 0.0013 -0.0130
v  -0.0097 0.0006 -0.0141
v  -0.0095 -0.0001 -0.0153
v  -0.0087 -0.0006 -0.0163
v  -0.0076 -0.0009 -0.0170
v  -0.0062 -0.0009 -0.0173
v  -0.0049 -0.0007 -0.0172
v  -0.0038 -0.0002 -0.0165
v  -0.0030 0.0004 -0.0156
# 49 vertices

vn 0.8516 0.4540 -0.2621
vn 0.7837 0.6201 0.0368
vn 0.9204 0.2602 0.2918
vn 0.9963 0.0745 -0.0430
vn 0.5907 0.7505 0.2963
vn 0.7045 0.4062 0.5820
vn 0.3017 0.8260 0.4761
vn 0.3812 0.4904 0.7837
vn -0.0391 0.8347 0.5493
vn -0.0001 0.5000 0.8660
vn -0.3793 0.7755 0.5047
vn -0.3811 0.4334 0.8166
vn -0.6676 0.6576 0.3491
vn -0.7044 0.3009 0.6428
vn -0.8603 0.4985 0.1065
vn -0.9205 0.1225 0.3712
vn -0.9280 0.3228 -0.1864
vn -0.9963 -0.0745 0.0431
vn -0.8603 0.1572 -0.4849
vn -0.9205 -0.2601 -0.2916
vn -0.6677 0.0263 -0.7440
vn -0.7044 -0.4062 -0.5821
vn -0.3793 -0.0492 -0.9240
vn -0.3813 -0.4904 -0.7837
vn -0.0392 -0.0582 -0.9975
vn 0.0000 -0.5000 -0.8660
vn 0.3017 0.0007 -0.9534
vn 0.3814 -0.4335 -0.8164
vn 0.5906 0.1188 -0.7982
vn 0.7044 -0.3010 -0.6428
vn 0.7839 0.2778 -0.5553
vn 0.9205 -0.1225 -0.3712
vn 0.2629 0.8976 -0.3539
vn 0.2912 0.8285 -0.4782
vn -0.0868 0.8627 -0.4981
vn 0.1826 0.9519 -0.2460
vn 0.0620 0.9833 -0.1711
vn -0.0796 0.9868 -0.1407
vn -0.2212 0.9621 -0.1596
vn -0.3409 0.9129 -0.2243
vn -0.4206 0.8470 -0.3250
vn -0.4488 0.7738 -0.4470
vn -0.4208 0.7050 -0.5708
vn -0.3409 0.6508 -0.6784
vn -0.2210 0.6191 -0.7536
vn -0.0797 0.6153 -0.7842
vn 0.0622 0.6399 -0.7660
vn 0.1824 0.6889 -0.7015
vn 0.2630 0.7551 -0.6005
# 49 vertex normals

vt 0.4212 0.1352 0.0000
vt 0.4182 0.1202 0.0000
vt 0.4297 0.1154 0.0000
vt 0.4337 0.1352 0.0000
vt 0.4097 0.1074 0.0000
vt 0.4185 0.0986 0.0000
vt 0.3970 0.0989 0.0000
vt 0.4018 0.0874 0.0000
vt 0.3820 0.0960 0.0000
vt 0.3820 0.0835 0.0000
vt 0.3670 0.0989 0.0000
vt 0.3622 0.0874 0.0000
vt 0.3542 0.1074 0.0000
vt 0.3454 0.0986 0.0000
vt 0.3457 0.1202 0.0000
vt 0.3342 0.1154 0.0000
vt 0.3427 0.1352 0.0000
vt 0.3303 0.1352 0.0000
vt 0.3457 0.1502 0.0000
vt 0.3342 0.1550 0.0000
vt 0.3542 0.1629 0.0000
vt 0.3454 0.1717 0.0000
vt 0.3670 0.1714 0.0000
vt 0.3622 0.1830 0.0000
vt 0.3820 0.1744 0.0000
vt 0.3820 0.1869 0.0000
vt 0.3970 0.1714 0.0000
vt 0.4018 0.1830 0.0000
vt 0.4097 0.1629 0.0000
vt 0.4185 0.1717 0.0000
vt 0.4182 0.1502 0.0000
vt 0.4297 0.1550 0.0000
vt 0.4087 0.1241 0.0000
vt 0.4109 0.1352 0.0000
vt 0.3820 0.1352 0.0000
vt 0.4024 0.1147 0.0000
vt 0.3931 0.1085 0.0000
vt 0.3820 0.1063 0.0000
vt 0.3709 0.1085 0.0000
vt 0.3615 0.1147 0.0000
vt 0.3552 0.1241 0.0000
vt 0.3530 0.1352 0.0000
vt 0.3552 0.1463 0.0000
vt 0.3615 0.1557 0.0000
vt 0.3709 0.1619 0.0000
vt 0.3820 0.1641 0.0000
vt 0.3931 0.1619 0.0000
vt 0.4024 0.1557 0.0000
vt 0.4087 0.1463 0.0000
# 49 texture coords

o Object011
g Object011
usemtl Material__2
s 1
f 1/1/1 2/2/2 3/3/3 
f 3/3/3 4/4/4 1/1/1 
f 5/5/5 6/6/6 3/3/3 
f 3/3/3 2/2/2 5/5/5 
f 7/7/7 8/8/8 6/6/6 
f 6/6/6 5/5/5 7/7/7 
f 9/9/9 10/10/10 8/8/8 
f 8/8/8 7/7/7 9/9/9 
f 11/11/11 12/12/12 10/10/10 
f 10/10/10 9/9/9 11/11/11 
f 13/13/13 14/14/14 12/12/12 
f 12/12/12 11/11/11 13/13/13 
f 15/15/15 16/16/16 14/14/14 
f 14/14/14 13/13/13 15/15/15 
f 17/17/17 18/18/18 16/16/16 
f 16/16/16 15/15/15 17/17/17 
f 19/19/19 20/20/20 18/18/18 
f 18/18/18 17/17/17 19/19/19 
f 21/21/21 22/22/22 20/20/20 
f 20/20/20 19/19/19 21/21/21 
f 23/23/23 24/24/24 22/22/22 
f 22/22/22 21/21/21 23/23/23 
f 25/25/25 26/26/26 24/24/24 
f 24/24/24 23/23/23 25/25/25 
f 27/27/27 28/28/28 26/26/26 
f 26/26/26 25/25/25 27/27/27 
f 29/29/29 30/30/30 28/28/28 
f 28/28/28 27/27/27 29/29/29 
f 31/31/31 32/32/32 30/30/30 
f 30/30/30 29/29/29 31/31/31 
f 1/1/1 4/4/4 32/32/32 
f 32/32/32 31/31/31 1/1/1 
f 33/33/33 34/34/34 35/35/35 
f 36/36/36 33/33/33 35/35/35 
f 37/37/37 36/36/36 35/35/35 
f 38/38/38 37/37/37 35/35/35 
f 39/39/39 38/38/38 35/35/35 
f 40/40/40 39/39/39 35/35/35 
f 41/41/41 40/40/40 35/35/35 
f 42/42/42 41/41/41 35/35/35 
f 43/43/43 42/42/42 35/35/35 
f 44/44/44 43/43/43 35/35/35 
f 45/45/45 44/44/44 35/35/35 
f 46/46/46 45/45/45 35/35/35 
f 47/47/47 46/46/46 35/35/35 
f 48/48/48 47/47/47 35/35/35 
f 49/49/49 48/48/48 35/35/35 
f 34/34/34 49/49/49 35/35/35 
f 1/1/1 34/34/34 33/33/33 
f 33/33/33 2/2/2 1/1/1 
f 2/2/2 33/33/33 36/36/36 
f 36/36/36 5/5/5 2/2/2 
f 5/5/5 36/36/36 37/37/37 
f 37/37/37 7/7/7 5/5/5 
f 7/7/7 37/37/37 38/38/38 
f 38/38/38 9/9/9 7/7/7 
f 9/9/9 38/38/38 39/39/39 
f 39/39/39 11/11/11 9/9/9 
f 11/11/11 39/39/39 40/40/40 
f 40/40/40 13/13/13 11/11/11 
f 13/13/13 40/40/40 41/41/41 
f 41/41/41 15/15/15 13/13/13 
f 15/15/15 41/41/41 42/42/42 
f 42/42/42 17/17/17 15/15/15 
f 17/17/17 42/42/42 43/43/43 
f 43/43/43 19/19/19 17/17/17 
f 19/19/19 43/43/43 44/44/44 
f 44/44/44 21/21/21 19/19/19 
f 21/21/21 44/44/44 45/45/45 
f 45/45/45 23/23/23 21/21/21 
f 23/23/23 45/45/45 46/46/46 
f 46/46/46 25/25/25 23/23/23 
f 25/25/25 46/46/46 47/47/47 
f 47/47/47 27/27/27 25/25/25 
f 27/27/27 47/47/47 48/48/48 
f 48/48/48 29/29/29 27/27/27 
f 29/29/29 48/48/48 49/49/49 
f 49/49/49 31/31/31 29/29/29 
f 31/31/31 49/49/49 34/34/34 
f 34/34/34 1/1/1 31/31/31 
# 0 polygons - 80 triangles

