# 3ds Max Wavefront OBJ Exporter v0.97b - (c)2007 guruware
# File Created: 01.07.2022 10:03:54

mtllib YVR_d1_right_trigger.mtl

#
# object Object008
#

v  0.0071 -0.0272 -0.0334
v  0.0014 -0.0277 -0.0346
v  0.0014 -0.0267 -0.0342
v  0.0071 -0.0261 -0.0329
v  0.0095 -0.0268 -0.0317
v  0.0095 -0.0255 -0.0312
v  0.0119 -0.0265 -0.0292
v  0.0119 -0.0249 -0.0286
v  0.0138 -0.0267 -0.0260
v  0.0139 -0.0247 -0.0252
v  0.0149 -0.0276 -0.0226
v  0.0149 -0.0251 -0.0215
v  0.0149 -0.0292 -0.0195
v  0.0150 -0.0261 -0.0180
v  0.0140 -0.0314 -0.0167
v  0.0141 -0.0278 -0.0147
v  0.0123 -0.0300 -0.0120
v  0.0122 -0.0340 -0.0144
v  0.0102 -0.0318 -0.0103
v  0.0102 -0.0362 -0.0130
v  0.0064 -0.0341 -0.0086
v  0.0064 -0.0389 -0.0117
v  0.0014 -0.0349 -0.0081
v  0.0014 -0.0399 -0.0114
v  -0.0043 -0.0272 -0.0334
v  -0.0043 -0.0261 -0.0329
v  -0.0067 -0.0268 -0.0317
v  -0.0067 -0.0255 -0.0312
v  -0.0091 -0.0265 -0.0292
v  -0.0091 -0.0249 -0.0286
v  -0.0110 -0.0267 -0.0260
v  -0.0111 -0.0247 -0.0252
v  -0.0121 -0.0276 -0.0226
v  -0.0121 -0.0251 -0.0215
v  -0.0121 -0.0292 -0.0195
v  -0.0122 -0.0261 -0.0180
v  -0.0112 -0.0314 -0.0167
v  -0.0113 -0.0278 -0.0147
v  -0.0094 -0.0340 -0.0144
v  -0.0095 -0.0300 -0.0120
v  -0.0074 -0.0362 -0.0130
v  -0.0074 -0.0318 -0.0103
v  -0.0036 -0.0389 -0.0117
v  -0.0036 -0.0341 -0.0086
v  0.0014 -0.0289 -0.0352
v  0.0071 -0.0287 -0.0341
v  0.0042 -0.0294 -0.0342
v  0.0014 -0.0296 -0.0346
v  0.0054 -0.0298 -0.0330
v  0.0014 -0.0302 -0.0332
v  0.0014 -0.0310 -0.0314
v  0.0065 -0.0304 -0.0311
v  0.0014 -0.0323 -0.0289
v  0.0075 -0.0316 -0.0285
v  0.0014 -0.0338 -0.0265
v  0.0080 -0.0330 -0.0260
v  0.0080 -0.0348 -0.0234
v  0.0014 -0.0356 -0.0240
v  0.0076 -0.0372 -0.0209
v  0.0014 -0.0379 -0.0214
v  0.0067 -0.0393 -0.0190
v  0.0014 -0.0398 -0.0195
v  0.0057 -0.0411 -0.0176
v  0.0014 -0.0416 -0.0180
v  0.0014 -0.0438 -0.0162
v  0.0038 -0.0432 -0.0163
v  0.0064 -0.0427 -0.0159
v  0.0014 -0.0437 -0.0157
v  -0.0014 -0.0294 -0.0342
v  -0.0043 -0.0287 -0.0341
v  -0.0026 -0.0298 -0.0330
v  -0.0037 -0.0304 -0.0311
v  -0.0047 -0.0316 -0.0285
v  -0.0052 -0.0330 -0.0260
v  -0.0052 -0.0348 -0.0234
v  -0.0048 -0.0372 -0.0209
v  -0.0039 -0.0393 -0.0190
v  -0.0029 -0.0411 -0.0176
v  -0.0010 -0.0432 -0.0163
v  -0.0036 -0.0427 -0.0159
v  0.0095 -0.0284 -0.0324
v  0.0119 -0.0284 -0.0301
v  0.0138 -0.0289 -0.0272
v  0.0148 -0.0302 -0.0243
v  0.0149 -0.0321 -0.0216
v  0.0140 -0.0347 -0.0194
v  0.0122 -0.0375 -0.0177
v  0.0101 -0.0399 -0.0167
v  -0.0067 -0.0284 -0.0324
v  -0.0090 -0.0284 -0.0301
v  -0.0110 -0.0289 -0.0272
v  -0.0120 -0.0302 -0.0243
v  -0.0121 -0.0321 -0.0216
v  -0.0112 -0.0347 -0.0194
v  -0.0094 -0.0375 -0.0177
v  -0.0073 -0.0399 -0.0167
# 96 vertices

vn 0.3328 0.3753 -0.8651
vn -0.0000 0.4276 -0.9040
vn -0.0002 0.4275 -0.9040
vn 0.3631 0.3696 -0.8553
vn 0.5914 0.3091 -0.7448
vn 0.6190 0.2923 -0.7290
vn 0.7655 0.2454 -0.5948
vn 0.7938 0.2166 -0.5682
vn 0.9098 0.1648 -0.3808
vn 0.9242 0.1345 -0.3574
vn 0.9888 0.0534 -0.1393
vn 0.9912 0.0401 -0.1259
vn 0.9927 -0.0742 0.0953
vn 0.9927 -0.0675 0.0999
vn 0.9307 -0.2116 0.2984
vn 0.9364 -0.1775 0.3027
vn 0.8321 -0.2853 0.4756
vn 0.8223 -0.3425 0.4545
vn 0.6829 -0.3862 0.6201
vn 0.6719 -0.4597 0.5807
vn 0.3987 -0.5004 0.7685
vn 0.3823 -0.6003 0.7025
vn -0.0001 -0.5533 0.8330
vn 0.0000 -0.6625 0.7491
vn -0.3331 0.3743 -0.8654
vn -0.3638 0.3684 -0.8555
vn -0.5919 0.3074 -0.7451
vn -0.6197 0.2905 -0.7291
vn -0.7659 0.2436 -0.5950
vn -0.7944 0.2146 -0.5683
vn -0.9100 0.1628 -0.3812
vn -0.9244 0.1321 -0.3578
vn -0.9888 0.0517 -0.1401
vn -0.9912 0.0383 -0.1264
vn -0.9927 -0.0753 0.0946
vn -0.9927 -0.0685 0.0996
vn -0.9307 -0.2124 0.2978
vn -0.9364 -0.1783 0.3022
vn -0.8224 -0.3431 0.4538
vn -0.8322 -0.2858 0.4751
vn -0.6720 -0.4602 0.5802
vn -0.6831 -0.3867 0.6196
vn -0.3823 -0.6005 0.7023
vn -0.3989 -0.5006 0.7683
vn 0.0001 -0.1312 -0.9914
vn 0.4054 -0.3095 -0.8601
vn 0.1703 -0.7850 -0.5957
vn 0.0000 -0.8012 -0.5984
vn 0.2176 -0.8788 -0.4247
vn 0.0000 -0.9201 -0.3916
vn -0.0000 -0.9016 -0.4326
vn 0.2782 -0.8356 -0.4736
vn -0.0000 -0.8708 -0.4917
vn 0.2938 -0.8223 -0.4873
vn 0.0000 -0.8298 -0.5581
vn 0.3006 -0.7872 -0.5385
vn 0.2944 -0.7469 -0.5963
vn -0.0000 -0.7765 -0.6301
vn 0.2788 -0.7132 -0.6431
vn -0.0000 -0.7292 -0.6843
vn 0.2491 -0.6836 -0.6860
vn -0.0000 -0.6816 -0.7317
vn 0.2254 -0.6501 -0.7256
vn 0.0000 -0.6411 -0.7674
vn 0.0000 -0.9366 -0.3505
vn 0.1958 -0.8144 -0.5463
vn 0.4240 -0.9056 -0.0097
vn 0.0000 -0.9157 0.4019
vn -0.1704 -0.7849 -0.5957
vn -0.4051 -0.3099 -0.8602
vn -0.2083 -0.8786 -0.4297
vn -0.2572 -0.8524 -0.4554
vn -0.2866 -0.8268 -0.4840
vn -0.2983 -0.7891 -0.5370
vn -0.2979 -0.7482 -0.5928
vn -0.2928 -0.7170 -0.6326
vn -0.2663 -0.6867 -0.6764
vn -0.2306 -0.6469 -0.7269
vn -0.1958 -0.8144 -0.5463
vn -0.4239 -0.9057 -0.0098
vn 0.6013 -0.3514 -0.7176
vn 0.7063 -0.3034 -0.6395
vn 0.8017 -0.3053 -0.5138
vn 0.8593 -0.3527 -0.3704
vn 0.8655 -0.4356 -0.2472
vn 0.8256 -0.5412 -0.1596
vn 0.7530 -0.6467 -0.1220
vn 0.6515 -0.7547 -0.0768
vn -0.6027 -0.3063 -0.7368
vn -0.7114 -0.2905 -0.6399
vn -0.8040 -0.3017 -0.5124
vn -0.8599 -0.3528 -0.3690
vn -0.8639 -0.4389 -0.2471
vn -0.8209 -0.5464 -0.1662
vn -0.7467 -0.6494 -0.1440
vn -0.6486 -0.7539 -0.1045
# 96 vertex normals

vt 0.5495 0.3994 0.0000
vt 0.5216 0.4046 0.0000
vt 0.5217 0.4091 0.0000
vt 0.5530 0.4038 0.0000
vt 0.5635 0.3931 0.0000
vt 0.5694 0.3966 0.0000
vt 0.5774 0.3819 0.0000
vt 0.5854 0.3846 0.0000
vt 0.5887 0.3665 0.0000
vt 0.5992 0.3686 0.0000
vt 0.5955 0.3492 0.0000
vt 0.6087 0.3503 0.0000
vt 0.5969 0.3308 0.0000
vt 0.6128 0.3299 0.0000
vt 0.5924 0.3095 0.0000
vt 0.6104 0.3048 0.0000
vt 0.6002 0.2798 0.0000
vt 0.5818 0.2901 0.0000
vt 0.5842 0.2604 0.0000
vt 0.5685 0.2769 0.0000
vt 0.5556 0.2444 0.0000
vt 0.5462 0.2665 0.0000
vt 0.5206 0.2396 0.0000
vt 0.5211 0.2651 0.0000
vt 0.4934 0.4008 0.0000
vt 0.4902 0.4053 0.0000
vt 0.4793 0.3949 0.0000
vt 0.4735 0.3986 0.0000
vt 0.4653 0.3839 0.0000
vt 0.4573 0.3867 0.0000
vt 0.4540 0.3686 0.0000
vt 0.4435 0.3707 0.0000
vt 0.4473 0.3512 0.0000
vt 0.4341 0.3524 0.0000
vt 0.4459 0.3331 0.0000
vt 0.4300 0.3323 0.0000
vt 0.4504 0.3116 0.0000
vt 0.4323 0.3072 0.0000
vt 0.4608 0.2920 0.0000
vt 0.4421 0.2822 0.0000
vt 0.4739 0.2784 0.0000
vt 0.4577 0.2624 0.0000
vt 0.4960 0.2674 0.0000
vt 0.4858 0.2456 0.0000
vt 0.5215 0.4004 0.0000
vt 0.5464 0.3952 0.0000
vt 0.5334 0.3943 0.0000
vt 0.5214 0.3960 0.0000
vt 0.5386 0.3887 0.0000
vt 0.5213 0.3893 0.0000
vt 0.5213 0.3797 0.0000
vt 0.5440 0.3793 0.0000
vt 0.5213 0.3660 0.0000
vt 0.5482 0.3657 0.0000
vt 0.5214 0.3519 0.0000
vt 0.5503 0.3513 0.0000
vt 0.5500 0.3349 0.0000
vt 0.5214 0.3349 0.0000
vt 0.5475 0.3199 0.0000
vt 0.5215 0.3207 0.0000
vt 0.5429 0.3075 0.0000
vt 0.5215 0.3086 0.0000
vt 0.5385 0.2984 0.0000
vt 0.5215 0.3001 0.0000
vt 0.5215 0.2916 0.0000
vt 0.5301 0.2926 0.0000
vt 0.5399 0.2904 0.0000
vt 0.5216 0.2885 0.0000
vt 0.5093 0.3949 0.0000
vt 0.4964 0.3965 0.0000
vt 0.5040 0.3895 0.0000
vt 0.4987 0.3801 0.0000
vt 0.4945 0.3666 0.0000
vt 0.4925 0.3521 0.0000
vt 0.4928 0.3349 0.0000
vt 0.4955 0.3206 0.0000
vt 0.5000 0.3081 0.0000
vt 0.5045 0.2989 0.0000
vt 0.5128 0.2929 0.0000
vt 0.5029 0.2910 0.0000
vt 0.5579 0.3897 0.0000
vt 0.5697 0.3796 0.0000
vt 0.5791 0.3654 0.0000
vt 0.5837 0.3494 0.0000
vt 0.5832 0.3349 0.0000
vt 0.5776 0.3183 0.0000
vt 0.5675 0.3057 0.0000
vt 0.5570 0.2979 0.0000
vt 0.4848 0.3913 0.0000
vt 0.4729 0.3814 0.0000
vt 0.4636 0.3672 0.0000
vt 0.4591 0.3512 0.0000
vt 0.4596 0.3349 0.0000
vt 0.4653 0.3198 0.0000
vt 0.4754 0.3069 0.0000
vt 0.4859 0.2989 0.0000
# 96 texture coords

o Object008
g Object008
usemtl Material__2
s 1
f 1/1/1 2/2/2 3/3/3 
f 3/3/3 4/4/4 1/1/1 
f 5/5/5 1/1/1 4/4/4 
f 4/4/4 6/6/6 5/5/5 
f 7/7/7 5/5/5 6/6/6 
f 6/6/6 8/8/8 7/7/7 
f 9/9/9 7/7/7 8/8/8 
f 8/8/8 10/10/10 9/9/9 
f 11/11/11 9/9/9 10/10/10 
f 10/10/10 12/12/12 11/11/11 
f 13/13/13 11/11/11 12/12/12 
f 12/12/12 14/14/14 13/13/13 
f 15/15/15 13/13/13 14/14/14 
f 14/14/14 16/16/16 15/15/15 
f 15/15/15 16/16/16 17/17/17 
f 17/17/17 18/18/18 15/15/15 
f 18/18/18 17/17/17 19/19/19 
f 19/19/19 20/20/20 18/18/18 
f 20/20/20 19/19/19 21/21/21 
f 21/21/21 22/22/22 20/20/20 
f 22/22/22 21/21/21 23/23/23 
f 23/23/23 24/24/24 22/22/22 
f 25/25/25 26/26/26 3/3/3 
f 3/3/3 2/2/2 25/25/25 
f 27/27/27 28/28/28 26/26/26 
f 26/26/26 25/25/25 27/27/27 
f 29/29/29 30/30/30 28/28/28 
f 28/28/28 27/27/27 29/29/29 
f 31/31/31 32/32/32 30/30/30 
f 30/30/30 29/29/29 31/31/31 
f 33/33/33 34/34/34 32/32/32 
f 32/32/32 31/31/31 33/33/33 
f 35/35/35 36/36/36 34/34/34 
f 34/34/34 33/33/33 35/35/35 
f 37/37/37 38/38/38 36/36/36 
f 36/36/36 35/35/35 37/37/37 
f 37/37/37 39/39/39 40/40/40 
f 40/40/40 38/38/38 37/37/37 
f 39/39/39 41/41/41 42/42/42 
f 42/42/42 40/40/40 39/39/39 
f 41/41/41 43/43/43 44/44/44 
f 44/44/44 42/42/42 41/41/41 
f 43/43/43 24/24/24 23/23/23 
f 23/23/23 44/44/44 43/43/43 
f 45/45/45 46/46/46 47/47/47 
f 47/47/47 48/48/48 45/45/45 
f 47/47/47 49/49/49 50/50/50 
f 50/50/50 48/48/48 47/47/47 
f 51/51/51 50/50/50 49/49/49 
f 49/49/49 52/52/52 51/51/51 
f 53/53/53 51/51/51 52/52/52 
f 52/52/52 54/54/54 53/53/53 
f 55/55/55 53/53/53 54/54/54 
f 54/54/54 56/56/56 55/55/55 
f 57/57/57 58/58/58 55/55/55 
f 55/55/55 56/56/56 57/57/57 
f 59/59/59 60/60/60 58/58/58 
f 58/58/58 57/57/57 59/59/59 
f 61/61/61 62/62/62 60/60/60 
f 60/60/60 59/59/59 61/61/61 
f 63/63/63 64/64/64 62/62/62 
f 62/62/62 61/61/61 63/63/63 
f 65/65/65 64/64/64 63/63/63 
f 63/63/63 66/66/66 65/65/65 
f 67/67/67 68/68/68 65/65/65 
f 65/65/65 66/66/66 67/67/67 
f 45/45/45 48/48/48 69/69/69 
f 69/69/69 70/70/70 45/45/45 
f 69/69/69 48/48/48 50/50/50 
f 50/50/50 71/71/71 69/69/69 
f 71/71/71 50/50/50 51/51/51 
f 51/51/51 72/72/72 71/71/71 
f 72/72/72 51/51/51 53/53/53 
f 53/53/53 73/73/73 72/72/72 
f 73/73/73 53/53/53 55/55/55 
f 55/55/55 74/74/74 73/73/73 
f 55/55/55 58/58/58 75/75/75 
f 75/75/75 74/74/74 55/55/55 
f 58/58/58 60/60/60 76/76/76 
f 76/76/76 75/75/75 58/58/58 
f 60/60/60 62/62/62 77/77/77 
f 77/77/77 76/76/76 60/60/60 
f 62/62/62 64/64/64 78/78/78 
f 78/78/78 77/77/77 62/62/62 
f 65/65/65 79/79/79 78/78/78 
f 78/78/78 64/64/64 65/65/65 
f 65/65/65 68/68/68 80/80/80 
f 80/80/80 79/79/79 65/65/65 
f 49/49/49 47/47/47 46/46/46 
f 46/46/46 81/81/81 49/49/49 
f 82/82/82 52/52/52 49/49/49 
f 49/49/49 81/81/81 82/82/82 
f 83/83/83 54/54/54 52/52/52 
f 52/52/52 82/82/82 83/83/83 
f 84/84/84 56/56/56 54/54/54 
f 54/54/54 83/83/83 84/84/84 
f 85/85/85 57/57/57 56/56/56 
f 56/56/56 84/84/84 85/85/85 
f 86/86/86 59/59/59 57/57/57 
f 57/57/57 85/85/85 86/86/86 
f 87/87/87 61/61/61 59/59/59 
f 59/59/59 86/86/86 87/87/87 
f 88/88/88 63/63/63 61/61/61 
f 61/61/61 87/87/87 88/88/88 
f 63/63/63 88/88/88 67/67/67 
f 67/67/67 66/66/66 63/63/63 
f 70/70/70 69/69/69 71/71/71 
f 71/71/71 89/89/89 70/70/70 
f 89/89/89 71/71/71 72/72/72 
f 72/72/72 90/90/90 89/89/89 
f 90/90/90 72/72/72 73/73/73 
f 73/73/73 91/91/91 90/90/90 
f 91/91/91 73/73/73 74/74/74 
f 74/74/74 92/92/92 91/91/91 
f 92/92/92 74/74/74 75/75/75 
f 75/75/75 93/93/93 92/92/92 
f 93/93/93 75/75/75 76/76/76 
f 76/76/76 94/94/94 93/93/93 
f 94/94/94 76/76/76 77/77/77 
f 77/77/77 95/95/95 94/94/94 
f 95/95/95 77/77/77 78/78/78 
f 78/78/78 96/96/96 95/95/95 
f 78/78/78 79/79/79 80/80/80 
f 80/80/80 96/96/96 78/78/78 
f 46/46/46 45/45/45 2/2/2 
f 2/2/2 1/1/1 46/46/46 
f 1/1/1 5/5/5 81/81/81 
f 81/81/81 46/46/46 1/1/1 
f 5/5/5 7/7/7 82/82/82 
f 82/82/82 81/81/81 5/5/5 
f 7/7/7 9/9/9 83/83/83 
f 83/83/83 82/82/82 7/7/7 
f 9/9/9 11/11/11 84/84/84 
f 84/84/84 83/83/83 9/9/9 
f 84/84/84 11/11/11 13/13/13 
f 13/13/13 85/85/85 84/84/84 
f 85/85/85 13/13/13 15/15/15 
f 15/15/15 86/86/86 85/85/85 
f 86/86/86 15/15/15 18/18/18 
f 18/18/18 87/87/87 86/86/86 
f 87/87/87 18/18/18 20/20/20 
f 20/20/20 88/88/88 87/87/87 
f 22/22/22 67/67/67 88/88/88 
f 88/88/88 20/20/20 22/22/22 
f 24/24/24 68/68/68 67/67/67 
f 67/67/67 22/22/22 24/24/24 
f 2/2/2 45/45/45 70/70/70 
f 70/70/70 25/25/25 2/2/2 
f 89/89/89 27/27/27 25/25/25 
f 25/25/25 70/70/70 89/89/89 
f 90/90/90 29/29/29 27/27/27 
f 27/27/27 89/89/89 90/90/90 
f 91/91/91 31/31/31 29/29/29 
f 29/29/29 90/90/90 91/91/91 
f 92/92/92 33/33/33 31/31/31 
f 31/31/31 91/91/91 92/92/92 
f 35/35/35 33/33/33 92/92/92 
f 92/92/92 93/93/93 35/35/35 
f 37/37/37 35/35/35 93/93/93 
f 93/93/93 94/94/94 37/37/37 
f 39/39/39 37/37/37 94/94/94 
f 94/94/94 95/95/95 39/39/39 
f 41/41/41 39/39/39 95/95/95 
f 95/95/95 96/96/96 41/41/41 
f 43/43/43 41/41/41 96/96/96 
f 96/96/96 80/80/80 43/43/43 
f 24/24/24 43/43/43 80/80/80 
f 80/80/80 68/68/68 24/24/24 
# 0 polygons - 168 triangles

