# 3ds Max Wavefront OBJ Exporter v0.97b - (c)2007 guruware
# File Created: 26.12.2024 12:38:05

mtllib yvr_d3_right_Bbutton.mtl

#
# object yvr_d3_right_Bbutton
#

v  -0.0186 0.0045 -0.0134
v  -0.0197 0.0038 -0.0143
v  -0.0207 0.0048 -0.0134
v  -0.0200 0.0052 -0.0128
v  -0.0212 0.0034 -0.0149
v  -0.0216 0.0045 -0.0138
v  -0.0228 0.0034 -0.0150
v  -0.0226 0.0044 -0.0138
v  -0.0243 0.0036 -0.0144
v  -0.0235 0.0046 -0.0135
v  -0.0255 0.0040 -0.0134
v  -0.0242 0.0048 -0.0128
v  -0.0262 0.0047 -0.0122
v  -0.0247 0.0053 -0.0121
v  -0.0263 0.0056 -0.0107
v  -0.0247 0.0058 -0.0112
v  -0.0257 0.0064 -0.0095
v  -0.0244 0.0064 -0.0104
v  -0.0246 0.0070 -0.0084
v  -0.0237 0.0067 -0.0098
v  -0.0232 0.0075 -0.0079
v  -0.0228 0.0070 -0.0095
v  -0.0215 0.0075 -0.0079
v  -0.0218 0.0071 -0.0094
v  -0.0200 0.0074 -0.0084
v  -0.0208 0.0069 -0.0098
v  -0.0188 0.0068 -0.0094
v  -0.0201 0.0066 -0.0104
v  -0.0181 0.0061 -0.0107
v  -0.0197 0.0061 -0.0112
v  -0.0181 0.0053 -0.0121
v  -0.0196 0.0056 -0.0120
v  -0.0222 0.0059 -0.0117
v  -0.0179 0.0040 -0.0136
v  -0.0172 0.0050 -0.0120
v  -0.0170 0.0047 -0.0119
v  -0.0177 0.0037 -0.0136
v  -0.0191 0.0029 -0.0148
v  -0.0192 0.0032 -0.0148
v  -0.0209 0.0023 -0.0156
v  -0.0210 0.0027 -0.0155
v  -0.0230 0.0022 -0.0156
v  -0.0229 0.0026 -0.0156
v  -0.0249 0.0025 -0.0149
v  -0.0248 0.0028 -0.0149
v  -0.0264 0.0031 -0.0137
v  -0.0262 0.0035 -0.0137
v  -0.0273 0.0040 -0.0120
v  -0.0271 0.0043 -0.0122
v  -0.0274 0.0050 -0.0103
v  -0.0272 0.0053 -0.0104
v  -0.0267 0.0061 -0.0086
v  -0.0265 0.0063 -0.0088
v  -0.0253 0.0069 -0.0073
v  -0.0252 0.0071 -0.0077
v  -0.0234 0.0074 -0.0067
v  -0.0234 0.0076 -0.0070
v  -0.0214 0.0076 -0.0067
v  -0.0214 0.0077 -0.0070
v  -0.0194 0.0073 -0.0073
v  -0.0196 0.0075 -0.0077
v  -0.0179 0.0066 -0.0086
v  -0.0181 0.0068 -0.0088
v  -0.0171 0.0058 -0.0102
v  -0.0173 0.0060 -0.0104
v  -0.0177 0.0014 -0.0122
v  -0.0191 0.0005 -0.0135
v  -0.0209 -0.0000 -0.0142
v  -0.0230 -0.0001 -0.0142
v  -0.0249 0.0001 -0.0136
v  -0.0264 0.0007 -0.0123
v  -0.0273 0.0017 -0.0107
v  -0.0274 0.0027 -0.0089
v  -0.0267 0.0038 -0.0073
v  -0.0253 0.0045 -0.0060
v  -0.0234 0.0050 -0.0053
v  -0.0214 0.0052 -0.0053
v  -0.0194 0.0049 -0.0059
v  -0.0179 0.0043 -0.0072
v  -0.0171 0.0035 -0.0088
v  -0.0170 0.0023 -0.0106
# 81 vertices

vn 0.0846 0.7566 -0.6484
vn 0.0650 0.7389 -0.6706
vn -0.0289 0.7331 -0.6795
vn -0.1140 0.7456 -0.6566
vn -0.2278 0.7687 -0.5977
vn -0.2226 0.7802 -0.5846
vn -0.2496 0.8340 -0.4922
vn -0.2601 0.8443 -0.4685
vn -0.1847 0.9250 -0.3320
vn -0.1742 0.9313 -0.3200
vn -0.0442 0.9535 -0.2980
vn -0.0048 0.9499 -0.3125
vn 0.1273 0.9182 -0.3750
vn 0.1665 0.8895 -0.4254
vn 0.1896 0.8539 -0.4846
vn 0.1798 0.8162 -0.5491
vn -0.0243 0.8010 -0.5982
vn 0.0391 0.8280 -0.5593
vn -0.0990 0.8057 -0.5840
vn -0.0377 0.8033 -0.5944
vn -0.1728 0.8365 -0.5201
vn -0.1394 0.8162 -0.5607
vn -0.1580 0.8551 -0.4937
vn -0.1654 0.8286 -0.5348
vn -0.0828 0.9015 -0.4249
vn -0.1312 0.8814 -0.4538
vn -0.0078 0.9023 -0.4310
vn -0.0648 0.9042 -0.4222
vn 0.0278 0.8792 -0.4756
vn 0.0361 0.8734 -0.4857
vn 0.0390 0.8673 -0.4962
vn 0.0360 0.8574 -0.5135
vn 0.7540 0.3766 -0.5382
vn 0.5774 0.2113 -0.7887
vn 0.3319 0.1523 -0.9310
vn 0.0139 0.0644 -0.9978
vn -0.3049 0.1454 -0.9412
vn -0.5773 0.2113 -0.7887
vn -0.7596 0.2838 -0.5852
vn -0.8313 0.4592 -0.3131
vn -0.7850 0.6161 -0.0638
vn -0.6350 0.7351 0.2376
vn -0.3746 0.7960 0.4754
vn -0.0804 0.8610 0.5022
vn 0.2506 0.8964 0.3657
vn 0.5179 0.8359 0.1819
vn 0.7198 0.6941 0.0070
vn 0.8320 0.4873 -0.2653
vn 0.7311 -0.3412 -0.5909
vn 0.4472 -0.4472 -0.7746
vn 0.0476 -0.4994 -0.8650
vn -0.3457 -0.4692 -0.8126
vn -0.6823 -0.3655 -0.6331
vn -0.9037 -0.2140 -0.3707
vn -0.9988 -0.0250 -0.0432
vn -0.9439 0.1652 0.2861
vn -0.7311 0.3412 0.5909
vn -0.3881 0.4608 0.7982
vn -0.0499 0.4994 0.8649
vn 0.3304 0.4719 0.8174
vn 0.6823 0.3655 0.6331
vn 0.9138 0.2031 0.3517
vn 0.9989 0.0238 0.0412
vn 0.9383 -0.1729 -0.2994
vn 0.2073 0.6840 -0.6995
vn 0.0945 0.6619 -0.7436
vn -0.0059 0.6257 -0.7801
vn -0.1919 0.6093 -0.7693
vn -0.2739 0.6810 -0.6791
vn -0.3420 0.7306 -0.5910
vn -0.4050 0.7806 -0.4760
vn -0.3954 0.8397 -0.3723
vn -0.2781 0.9200 -0.2762
vn -0.1885 0.9543 -0.2318
vn -0.0598 0.9807 -0.1862
vn 0.0640 0.9812 -0.1822
vn 0.2298 0.9418 -0.2453
vn 0.2520 0.9006 -0.3542
vn 0.2832 0.8208 -0.4962
vn 0.3125 0.7620 -0.5673
# 80 vertex normals

vt 0.0907 0.4211 0.0000
vt 0.0844 0.4297 0.0000
vt 0.0774 0.4219 0.0000
vt 0.0812 0.4167 0.0000
vt 0.0754 0.4353 0.0000
vt 0.0718 0.4253 0.0000
vt 0.0649 0.4369 0.0000
vt 0.0654 0.4263 0.0000
vt 0.0546 0.4344 0.0000
vt 0.0591 0.4248 0.0000
vt 0.0460 0.4282 0.0000
vt 0.0539 0.4210 0.0000
vt 0.0405 0.4192 0.0000
vt 0.0505 0.4155 0.0000
vt 0.0388 0.4087 0.0000
vt 0.0495 0.4091 0.0000
vt 0.0413 0.3984 0.0000
vt 0.0510 0.4028 0.0000
vt 0.0475 0.3898 0.0000
vt 0.0548 0.3976 0.0000
vt 0.0566 0.3843 0.0000
vt 0.0604 0.3942 0.0000
vt 0.0671 0.3827 0.0000
vt 0.0668 0.3932 0.0000
vt 0.0774 0.3851 0.0000
vt 0.0731 0.3947 0.0000
vt 0.0860 0.3914 0.0000
vt 0.0783 0.3985 0.0000
vt 0.0915 0.4004 0.0000
vt 0.0817 0.4040 0.0000
vt 0.0931 0.4108 0.0000
vt 0.0827 0.4104 0.0000
vt 0.0662 0.4097 0.0000
vt 0.0961 0.4237 0.0000
vt 0.0991 0.4111 0.0000
vt 0.1015 0.4113 0.0000
vt 0.0983 0.4248 0.0000
vt 0.0900 0.4361 0.0000
vt 0.0884 0.4342 0.0000
vt 0.0781 0.4434 0.0000
vt 0.0774 0.4410 0.0000
vt 0.0643 0.4455 0.0000
vt 0.0645 0.4430 0.0000
vt 0.0508 0.4422 0.0000
vt 0.0519 0.4400 0.0000
vt 0.0395 0.4340 0.0000
vt 0.0414 0.4324 0.0000
vt 0.0323 0.4222 0.0000
vt 0.0347 0.4213 0.0000
vt 0.0301 0.4085 0.0000
vt 0.0326 0.4085 0.0000
vt 0.0333 0.3949 0.0000
vt 0.0357 0.3959 0.0000
vt 0.0415 0.3836 0.0000
vt 0.0433 0.3854 0.0000
vt 0.0534 0.3763 0.0000
vt 0.0544 0.3786 0.0000
vt 0.0672 0.3741 0.0000
vt 0.0672 0.3766 0.0000
vt 0.0808 0.3774 0.0000
vt 0.0798 0.3796 0.0000
vt 0.0921 0.3856 0.0000
vt 0.0903 0.3872 0.0000
vt 0.0994 0.3974 0.0000
vt 0.0971 0.3983 0.0000
vt 0.9727 0.1757 0.0000
vt 0.9727 0.1890 0.0000
vt 0.9551 0.1891 0.0000
vt 0.9551 0.1758 0.0000
vt 0.9727 0.2023 0.0000
vt 0.9551 0.2024 0.0000
vt 0.9727 0.2156 0.0000
vt 0.9551 0.2158 0.0000
vt 0.9727 0.0025 0.0000
vt 0.9727 0.0158 0.0000
vt 0.9551 0.0159 0.0000
vt 0.9551 0.0026 0.0000
vt 0.9727 0.0291 0.0000
vt 0.9551 0.0292 0.0000
vt 0.9727 0.0424 0.0000
vt 0.9551 0.0426 0.0000
vt 0.9727 0.0558 0.0000
vt 0.9551 0.0559 0.0000
vt 0.9727 0.0691 0.0000
vt 0.9551 0.0692 0.0000
vt 0.9727 0.0824 0.0000
vt 0.9551 0.0825 0.0000
vt 0.9727 0.0957 0.0000
vt 0.9551 0.0959 0.0000
vt 0.9727 0.1091 0.0000
vt 0.9551 0.1092 0.0000
vt 0.9727 0.1224 0.0000
vt 0.9551 0.1225 0.0000
vt 0.9727 0.1357 0.0000
vt 0.9551 0.1358 0.0000
vt 0.9727 0.1490 0.0000
vt 0.9551 0.1492 0.0000
vt 0.9727 0.1624 0.0000
vt 0.9551 0.1625 0.0000
# 99 texture coords

g yvr_d3_right_Bbutton
usemtl lambert2SG9
s off
f 1/1/1 2/2/1 3/3/1 4/4/1 
f 2/2/2 5/5/2 6/6/2 3/3/2 
f 5/5/3 7/7/3 8/8/3 6/6/3 
f 7/7/4 9/9/4 10/10/4 8/8/4 
f 9/9/5 11/11/5 12/12/5 10/10/5 
f 13/13/6 14/14/6 12/12/6 11/11/6 
f 15/15/7 16/16/7 14/14/7 13/13/7 
f 17/17/8 18/18/8 16/16/8 15/15/8 
f 19/19/9 20/20/9 18/18/9 17/17/9 
f 21/21/10 22/22/10 20/20/10 19/19/10 
f 23/23/11 24/24/11 22/22/11 21/21/11 
f 25/25/12 26/26/12 24/24/12 23/23/12 
f 27/27/13 28/28/13 26/26/13 25/25/13 
f 29/29/14 30/30/14 28/28/14 27/27/14 
f 31/31/15 32/32/15 30/30/15 29/29/15 
f 1/1/16 4/4/16 32/32/16 31/31/16 
f 4/4/17 3/3/17 33/33/17 
f 3/3/18 6/6/18 33/33/18 
f 6/6/19 8/8/19 33/33/19 
f 8/8/20 10/10/20 33/33/20 
f 10/10/21 12/12/21 33/33/21 
f 12/12/22 14/14/22 33/33/22 
f 14/14/23 16/16/23 33/33/23 
f 16/16/24 18/18/24 33/33/24 
f 18/18/25 20/20/25 33/33/25 
f 20/20/26 22/22/26 33/33/26 
f 22/22/27 24/24/27 33/33/27 
f 24/24/28 26/26/28 33/33/28 
f 26/26/29 28/28/29 33/33/29 
f 28/28/30 30/30/30 33/33/30 
f 30/30/31 32/32/31 33/33/31 
f 32/32/32 4/4/32 33/33/32 
f 34/34/33 35/35/33 36/36/33 37/37/33 
f 37/37/34 38/38/34 39/39/34 34/34/34 
f 38/38/35 40/40/35 41/41/35 39/39/35 
f 40/40/36 42/42/36 43/43/36 41/41/36 
f 42/42/37 44/44/37 45/45/37 43/43/37 
f 44/44/38 46/46/38 47/47/38 45/45/38 
f 46/46/39 48/48/39 49/49/39 47/47/39 
f 48/48/40 50/50/40 51/51/40 49/49/40 
f 51/51/41 50/50/41 52/52/41 53/53/41 
f 53/53/42 52/52/42 54/54/42 55/55/42 
f 55/55/43 54/54/43 56/56/43 57/57/43 
f 57/57/44 56/56/44 58/58/44 59/59/44 
f 59/59/45 58/58/45 60/60/45 61/61/45 
f 61/61/46 60/60/46 62/62/46 63/63/46 
f 62/62/47 64/64/47 65/65/47 63/63/47 
f 64/64/48 36/36/48 35/35/48 65/65/48 
f 66/66/49 67/67/49 38/68/49 37/69/49 
f 67/67/50 68/70/50 40/71/50 38/68/50 
f 68/70/51 69/72/51 42/73/51 40/71/51 
f 69/74/52 70/75/52 44/76/52 42/77/52 
f 70/75/53 71/78/53 46/79/53 44/76/53 
f 71/78/54 72/80/54 48/81/54 46/79/54 
f 73/82/55 50/83/55 48/81/55 72/80/55 
f 74/84/56 52/85/56 50/83/56 73/82/56 
f 75/86/57 54/87/57 52/85/57 74/84/57 
f 76/88/58 56/89/58 54/87/58 75/86/58 
f 77/90/59 58/91/59 56/89/59 76/88/59 
f 78/92/60 60/93/60 58/91/60 77/90/60 
f 79/94/61 62/95/61 60/93/61 78/92/61 
f 80/96/62 64/97/62 62/95/62 79/94/62 
f 81/98/63 36/99/63 64/97/63 80/96/63 
f 81/98/64 66/66/64 37/69/64 36/99/64 
f 34/34/65 39/39/65 2/2/65 1/1/65 
f 39/39/66 41/41/66 5/5/66 2/2/66 
f 41/41/67 43/43/67 7/7/67 5/5/67 
f 43/43/68 45/45/68 9/9/68 7/7/68 
f 45/45/69 47/47/69 11/11/69 9/9/69 
f 47/47/70 49/49/70 13/13/70 11/11/70 
f 51/51/71 15/15/71 13/13/71 49/49/71 
f 53/53/72 17/17/72 15/15/72 51/51/72 
f 55/55/73 19/19/73 17/17/73 53/53/73 
f 57/57/74 21/21/74 19/19/74 55/55/74 
f 59/59/75 23/23/75 21/21/75 57/57/75 
f 61/61/76 25/25/76 23/23/76 59/59/76 
f 63/63/77 27/27/77 25/25/77 61/61/77 
f 65/65/78 29/29/78 27/27/78 63/63/78 
f 35/35/79 31/31/79 29/29/79 65/65/79 
f 35/35/80 34/34/80 1/1/80 31/31/80 
# 64 polygons - 16 triangles

