# 3ds Max Wavefront OBJ Exporter v0.97b - (c)2007 guruware
# File Created: 26.12.2024 12:38:22

mtllib yvr_d3_right_Abutton.mtl

#
# object yvr_d3_right_Abutton
#

v  -0.0121 0.0106 -0.0030
v  -0.0130 0.0115 -0.0021
v  -0.0123 0.0118 -0.0014
v  -0.0110 0.0111 -0.0019
v  -0.0135 0.0104 -0.0037
v  -0.0139 0.0113 -0.0025
v  -0.0152 0.0103 -0.0038
v  -0.0149 0.0113 -0.0025
v  -0.0167 0.0106 -0.0032
v  -0.0158 0.0114 -0.0022
v  -0.0179 0.0111 -0.0022
v  -0.0166 0.0118 -0.0016
v  -0.0186 0.0117 -0.0010
v  -0.0170 0.0121 -0.0008
v  -0.0186 0.0124 0.0006
v  -0.0171 0.0126 0.0001
v  -0.0181 0.0131 0.0019
v  -0.0167 0.0131 0.0010
v  -0.0170 0.0136 0.0030
v  -0.0160 0.0133 0.0017
v  -0.0155 0.0139 0.0036
v  -0.0151 0.0135 0.0020
v  -0.0139 0.0139 0.0036
v  -0.0141 0.0135 0.0021
v  -0.0123 0.0136 0.0032
v  -0.0132 0.0134 0.0018
v  -0.0111 0.0132 0.0022
v  -0.0124 0.0130 0.0011
v  -0.0105 0.0125 0.0009
v  -0.0120 0.0127 0.0003
v  -0.0104 0.0118 -0.0006
v  -0.0120 0.0122 -0.0006
v  -0.0145 0.0125 -0.0003
v  -0.0100 0.0103 -0.0021
v  -0.0102 0.0106 -0.0022
v  -0.0095 0.0114 -0.0006
v  -0.0093 0.0112 -0.0004
v  -0.0114 0.0096 -0.0035
v  -0.0115 0.0100 -0.0036
v  -0.0133 0.0093 -0.0043
v  -0.0133 0.0096 -0.0043
v  -0.0153 0.0093 -0.0045
v  -0.0153 0.0097 -0.0044
v  -0.0172 0.0096 -0.0038
v  -0.0171 0.0099 -0.0038
v  -0.0188 0.0102 -0.0025
v  -0.0186 0.0105 -0.0026
v  -0.0196 0.0111 -0.0008
v  -0.0194 0.0113 -0.0010
v  -0.0197 0.0120 0.0009
v  -0.0195 0.0122 0.0008
v  -0.0190 0.0128 0.0028
v  -0.0188 0.0130 0.0024
v  -0.0176 0.0135 0.0041
v  -0.0175 0.0136 0.0038
v  -0.0158 0.0138 0.0049
v  -0.0157 0.0139 0.0045
v  -0.0137 0.0138 0.0049
v  -0.0137 0.0140 0.0046
v  -0.0118 0.0135 0.0043
v  -0.0119 0.0136 0.0040
v  -0.0103 0.0129 0.0031
v  -0.0104 0.0131 0.0028
v  -0.0094 0.0121 0.0015
v  -0.0096 0.0123 0.0012
v  -0.0114 0.0073 -0.0021
v  -0.0100 0.0080 -0.0008
v  -0.0133 0.0069 -0.0030
v  -0.0153 0.0070 -0.0031
v  -0.0172 0.0072 -0.0025
v  -0.0188 0.0079 -0.0012
v  -0.0196 0.0087 0.0005
v  -0.0197 0.0095 0.0023
v  -0.0190 0.0105 0.0041
v  -0.0176 0.0111 0.0055
v  -0.0158 0.0114 0.0062
v  -0.0137 0.0114 0.0063
v  -0.0118 0.0111 0.0057
v  -0.0103 0.0105 0.0044
v  -0.0094 0.0097 0.0028
v  -0.0093 0.0087 0.0010
# 81 vertices

vn 0.1955 0.8075 -0.5565
vn 0.1058 0.7878 -0.6068
vn 0.0047 0.7950 -0.6066
vn -0.0444 0.7998 -0.5986
vn -0.1322 0.8087 -0.5732
vn -0.1984 0.8439 -0.4984
vn -0.1916 0.8808 -0.4330
vn -0.1940 0.8987 -0.3932
vn -0.1275 0.9483 -0.2906
vn -0.0792 0.9635 -0.2556
vn 0.0261 0.9711 -0.2371
vn 0.0606 0.9684 -0.2418
vn 0.1517 0.9452 -0.2892
vn 0.1954 0.9187 -0.3433
vn 0.2172 0.8673 -0.4478
vn 0.2042 0.8502 -0.4851
vn 0.0783 0.8900 -0.4493
vn -0.0000 0.8660 -0.5000
vn 0.0000 0.8660 -0.5000
vn -0.0599 0.9034 -0.4247
vn -0.0621 0.9072 -0.4162
vn -0.0722 0.8778 -0.4735
vn -0.0000 0.9280 -0.3725
vn -0.0479 0.9138 -0.4033
vn 0.0848 0.9239 -0.3732
vn -0.0395 0.9334 -0.3566
vn 0.0781 0.9045 -0.4192
vn 0.0477 0.9232 -0.3815
vn 0.0797 0.8633 -0.4984
vn 0.0921 0.8994 -0.4274
vn 0.7813 0.3568 -0.5121
vn 0.6549 0.1663 -0.7372
vn 0.3906 0.0031 -0.9206
vn 0.0692 0.0642 -0.9955
vn -0.3191 0.1051 -0.9419
vn -0.5572 0.2013 -0.8056
vn -0.7691 0.3366 -0.5432
vn -0.8320 0.4734 -0.2893
vn -0.7301 0.6833 -0.0113
vn -0.5522 0.8202 0.1493
vn -0.2981 0.8891 0.3474
vn -0.0404 0.8981 0.4378
vn 0.2923 0.8745 0.3872
vn 0.5553 0.7714 0.3109
vn 0.7651 0.6387 0.0813
vn 0.8209 0.5352 -0.1993
vn 0.7311 -0.3412 -0.5909
vn 0.4281 -0.4519 -0.7827
vn 0.0499 -0.4994 -0.8649
vn -0.3457 -0.4692 -0.8126
vn -0.6585 -0.3763 -0.6518
vn -0.9216 -0.1940 -0.3361
vn -0.9988 -0.0250 -0.0432
vn -0.9439 0.1652 0.2861
vn -0.7311 0.3412 0.5909
vn -0.4061 0.4569 0.7914
vn -0.0476 0.4994 0.8650
vn 0.3457 0.4692 0.8126
vn 0.6823 0.3655 0.6331
vn 0.8944 0.2236 0.3873
vn 0.9989 0.0238 0.0412
vn 0.9383 -0.1729 -0.2994
vn 0.2595 0.7447 -0.6148
vn 0.1776 0.6977 -0.6940
vn 0.0404 0.7016 -0.7114
vn -0.1259 0.7095 -0.6933
vn -0.2532 0.7155 -0.6511
vn -0.3261 0.7676 -0.5518
vn -0.3347 0.8362 -0.4345
vn -0.3374 0.8985 -0.2807
vn -0.2958 0.9412 -0.1631
vn -0.1349 0.9869 -0.0888
vn -0.0118 0.9964 -0.0837
vn 0.1411 0.9842 -0.1065
vn 0.2560 0.9574 -0.1339
vn 0.3627 0.8910 -0.2732
vn 0.3607 0.8520 -0.3795
vn 0.3086 0.7899 -0.5300
# 78 vertex normals

vt 0.3886 0.1063 0.0000
vt 0.3816 0.0986 0.0000
vt 0.3854 0.0934 0.0000
vt 0.3950 0.0978 0.0000
vt 0.3795 0.1117 0.0000
vt 0.3760 0.1019 0.0000
vt 0.3690 0.1133 0.0000
vt 0.3696 0.1029 0.0000
vt 0.3588 0.1107 0.0000
vt 0.3633 0.1013 0.0000
vt 0.3503 0.1043 0.0000
vt 0.3581 0.0974 0.0000
vt 0.3449 0.0952 0.0000
vt 0.3548 0.0918 0.0000
vt 0.3433 0.0847 0.0000
vt 0.3539 0.0854 0.0000
vt 0.3459 0.0744 0.0000
vt 0.3555 0.0791 0.0000
vt 0.3523 0.0659 0.0000
vt 0.3593 0.0739 0.0000
vt 0.3614 0.0604 0.0000
vt 0.3649 0.0706 0.0000
vt 0.3719 0.0589 0.0000
vt 0.3713 0.0696 0.0000
vt 0.3821 0.0615 0.0000
vt 0.3776 0.0712 0.0000
vt 0.3906 0.0678 0.0000
vt 0.3828 0.0751 0.0000
vt 0.3960 0.0770 0.0000
vt 0.3861 0.0807 0.0000
vt 0.3976 0.0875 0.0000
vt 0.3870 0.0871 0.0000
vt 0.3704 0.0863 0.0000
vt 0.4027 0.1011 0.0000
vt 0.4005 0.1002 0.0000
vt 0.4036 0.0876 0.0000
vt 0.4061 0.0876 0.0000
vt 0.3944 0.1124 0.0000
vt 0.3927 0.1107 0.0000
vt 0.3824 0.1196 0.0000
vt 0.3816 0.1173 0.0000
vt 0.3686 0.1216 0.0000
vt 0.3687 0.1192 0.0000
vt 0.3551 0.1181 0.0000
vt 0.3562 0.1160 0.0000
vt 0.3439 0.1098 0.0000
vt 0.3458 0.1082 0.0000
vt 0.3368 0.0977 0.0000
vt 0.3391 0.0970 0.0000
vt 0.3348 0.0839 0.0000
vt 0.3373 0.0842 0.0000
vt 0.3383 0.0704 0.0000
vt 0.3405 0.0716 0.0000
vt 0.3466 0.0592 0.0000
vt 0.3482 0.0612 0.0000
vt 0.3586 0.0521 0.0000
vt 0.3594 0.0545 0.0000
vt 0.3723 0.0501 0.0000
vt 0.3722 0.0527 0.0000
vt 0.3858 0.0535 0.0000
vt 0.3847 0.0558 0.0000
vt 0.3969 0.0618 0.0000
vt 0.3951 0.0636 0.0000
vt 0.4041 0.0738 0.0000
vt 0.4018 0.0748 0.0000
vt 0.9321 0.1098 0.0000
vt 0.9496 0.1097 0.0000
vt 0.9496 0.1231 0.0000
vt 0.9321 0.1231 0.0000
vt 0.9321 0.0964 0.0000
vt 0.9496 0.0964 0.0000
vt 0.9321 0.0831 0.0000
vt 0.9496 0.0831 0.0000
vt 0.9321 0.0698 0.0000
vt 0.9496 0.0698 0.0000
vt 0.9321 0.0565 0.0000
vt 0.9496 0.0565 0.0000
vt 0.9321 0.0431 0.0000
vt 0.9496 0.0431 0.0000
vt 0.9321 0.0298 0.0000
vt 0.9496 0.0298 0.0000
vt 0.9321 0.0165 0.0000
vt 0.9496 0.0165 0.0000
vt 0.9321 0.0032 0.0000
vt 0.9496 0.0032 0.0000
vt 0.9321 0.2163 0.0000
vt 0.9321 0.2030 0.0000
vt 0.9496 0.2030 0.0000
vt 0.9496 0.2163 0.0000
vt 0.9321 0.1897 0.0000
vt 0.9496 0.1897 0.0000
vt 0.9321 0.1764 0.0000
vt 0.9496 0.1764 0.0000
vt 0.9321 0.1630 0.0000
vt 0.9496 0.1630 0.0000
vt 0.9321 0.1497 0.0000
vt 0.9496 0.1497 0.0000
vt 0.9321 0.1364 0.0000
vt 0.9496 0.1364 0.0000
# 99 texture coords

g yvr_d3_right_Abutton
usemtl lambert2SG7
s off
f 1/1/1 2/2/1 3/3/1 4/4/1 
f 5/5/2 6/6/2 2/2/2 1/1/2 
f 7/7/3 8/8/3 6/6/3 5/5/3 
f 9/9/4 10/10/4 8/8/4 7/7/4 
f 9/9/5 11/11/5 12/12/5 10/10/5 
f 11/11/6 13/13/6 14/14/6 12/12/6 
f 13/13/7 15/15/7 16/16/7 14/14/7 
f 15/15/8 17/17/8 18/18/8 16/16/8 
f 17/17/9 19/19/9 20/20/9 18/18/9 
f 19/19/10 21/21/10 22/22/10 20/20/10 
f 23/23/11 24/24/11 22/22/11 21/21/11 
f 25/25/12 26/26/12 24/24/12 23/23/12 
f 27/27/13 28/28/13 26/26/13 25/25/13 
f 29/29/14 30/30/14 28/28/14 27/27/14 
f 31/31/15 32/32/15 30/30/15 29/29/15 
f 4/4/16 3/3/16 32/32/16 31/31/16 
f 3/3/17 2/2/17 33/33/17 
f 2/2/18 6/6/18 33/33/18 
f 6/6/19 8/8/19 33/33/19 
f 8/8/18 10/10/18 33/33/18 
f 10/10/19 12/12/19 33/33/19 
f 12/12/20 14/14/20 33/33/20 
f 14/14/21 16/16/21 33/33/21 
f 16/16/22 18/18/22 33/33/22 
f 18/18/23 20/20/23 33/33/23 
f 20/20/24 22/22/24 33/33/24 
f 22/22/25 24/24/25 33/33/25 
f 24/24/26 26/26/26 33/33/26 
f 26/26/27 28/28/27 33/33/27 
f 28/28/28 30/30/28 33/33/28 
f 30/30/29 32/32/29 33/33/29 
f 32/32/30 3/3/30 33/33/30 
f 34/34/31 35/35/31 36/36/31 37/37/31 
f 35/35/32 34/34/32 38/38/32 39/39/32 
f 39/39/33 38/38/33 40/40/33 41/41/33 
f 40/40/34 42/42/34 43/43/34 41/41/34 
f 42/42/35 44/44/35 45/45/35 43/43/35 
f 44/44/36 46/46/36 47/47/36 45/45/36 
f 46/46/37 48/48/37 49/49/37 47/47/37 
f 48/48/38 50/50/38 51/51/38 49/49/38 
f 50/50/39 52/52/39 53/53/39 51/51/39 
f 52/52/40 54/54/40 55/55/40 53/53/40 
f 54/54/41 56/56/41 57/57/41 55/55/41 
f 56/56/42 58/58/42 59/59/42 57/57/42 
f 58/58/43 60/60/43 61/61/43 59/59/43 
f 61/61/44 60/60/44 62/62/44 63/63/44 
f 63/63/45 62/62/45 64/64/45 65/65/45 
f 65/65/46 64/64/46 37/37/46 36/36/46 
f 66/66/47 38/67/47 34/68/47 67/69/47 
f 68/70/48 40/71/48 38/67/48 66/66/48 
f 69/72/49 42/73/49 40/71/49 68/70/49 
f 69/72/50 70/74/50 44/75/50 42/73/50 
f 70/74/51 71/76/51 46/77/51 44/75/51 
f 71/76/52 72/78/52 48/79/52 46/77/52 
f 72/78/53 73/80/53 50/81/53 48/79/53 
f 73/80/54 74/82/54 52/83/54 50/81/54 
f 74/82/55 75/84/55 54/85/55 52/83/55 
f 75/86/56 76/87/56 56/88/56 54/89/56 
f 76/87/57 77/90/57 58/91/57 56/88/57 
f 78/92/58 60/93/58 58/91/58 77/90/58 
f 79/94/59 62/95/59 60/93/59 78/92/59 
f 80/96/60 64/97/60 62/95/60 79/94/60 
f 81/98/61 37/99/61 64/97/61 80/96/61 
f 67/69/62 34/68/62 37/99/62 81/98/62 
f 39/39/63 1/1/63 4/4/63 35/35/63 
f 41/41/64 5/5/64 1/1/64 39/39/64 
f 43/43/65 7/7/65 5/5/65 41/41/65 
f 45/45/66 9/9/66 7/7/66 43/43/66 
f 45/45/67 47/47/67 11/11/67 9/9/67 
f 47/47/68 49/49/68 13/13/68 11/11/68 
f 49/49/69 51/51/69 15/15/69 13/13/69 
f 51/51/70 53/53/70 17/17/70 15/15/70 
f 53/53/71 55/55/71 19/19/71 17/17/71 
f 55/55/72 57/57/72 21/21/72 19/19/72 
f 57/57/73 59/59/73 23/23/73 21/21/73 
f 61/61/74 25/25/74 23/23/74 59/59/74 
f 63/63/75 27/27/75 25/25/75 61/61/75 
f 65/65/76 29/29/76 27/27/76 63/63/76 
f 36/36/77 31/31/77 29/29/77 65/65/77 
f 35/35/78 4/4/78 31/31/78 36/36/78 
# 64 polygons - 16 triangles

