# 3ds Max Wavefront OBJ Exporter v0.97b - (c)2007 guruware
# File Created: 26.12.2024 12:33:58

mtllib yvr_d3_right_home.mtl

#
# object yvr_d3_right_home
#

v  -0.0010 0.0104 -0.0004
v  -0.0018 0.0107 0.0003
v  0.0016 0.0115 0.0033
v  -0.0023 0.0110 0.0010
v  0.0010 0.0101 -0.0011
v  -0.0001 0.0103 -0.0008
v  0.0026 0.0102 -0.0011
v  0.0037 0.0104 -0.0007
v  0.0054 0.0111 0.0008
v  0.0046 0.0107 -0.0001
v  0.0061 0.0119 0.0027
v  0.0059 0.0114 0.0018
v  -0.0026 0.0113 0.0018
v  -0.0028 0.0115 0.0025
v  0.0057 0.0125 0.0048
v  0.0060 0.0122 0.0037
v  0.0039 0.0130 0.0068
v  0.0050 0.0129 0.0059
v  0.0024 0.0133 0.0074
v  -0.0013 0.0129 0.0064
v  -0.0005 0.0131 0.0069
v  0.0009 0.0133 0.0074
v  -0.0021 0.0127 0.0056
v  -0.0029 0.0118 0.0033
v  -0.0028 0.0121 0.0041
v  -0.0025 0.0124 0.0049
v  -0.0011 0.0092 0.0001
v  -0.0018 0.0095 0.0008
v  -0.0024 0.0098 0.0015
v  0.0010 0.0089 -0.0008
v  -0.0001 0.0090 -0.0004
v  0.0026 0.0090 -0.0007
v  0.0038 0.0092 -0.0003
v  0.0055 0.0098 0.0012
v  0.0048 0.0094 0.0003
v  0.0062 0.0106 0.0031
v  0.0060 0.0103 0.0022
v  -0.0027 0.0101 0.0023
v  -0.0029 0.0103 0.0029
v  0.0058 0.0112 0.0053
v  0.0061 0.0109 0.0041
v  0.0040 0.0119 0.0072
v  0.0051 0.0116 0.0063
v  0.0025 0.0120 0.0078
v  -0.0014 0.0117 0.0069
v  -0.0006 0.0119 0.0074
v  0.0009 0.0120 0.0078
v  -0.0021 0.0115 0.0061
v  -0.0030 0.0106 0.0037
v  -0.0029 0.0109 0.0045
v  -0.0026 0.0112 0.0053
# 51 vertices

vn 0.0532 0.9475 -0.3154
vn 0.0791 0.9364 -0.3418
vn 0.0752 0.9482 -0.3087
vn -0.0748 0.9541 -0.2901
vn -0.0815 0.9531 -0.2914
vn -0.1040 0.9439 -0.3133
vn -0.1231 0.9143 -0.3858
vn 0.0416 0.9719 -0.2315
vn 0.0885 0.9300 -0.3566
vn -0.0022 0.9601 -0.2797
vn -0.1243 0.9507 -0.2840
vn -0.1219 0.9341 -0.3354
vn -0.0196 0.9182 -0.3957
vn 0.0452 0.9212 -0.3864
vn 0.0000 0.9169 -0.3990
vn 0.0859 0.9316 -0.3531
vn 0.0750 0.9562 -0.2830
vn 0.0468 0.9134 -0.4043
vn 0.0447 0.9116 -0.4087
vn 0.0713 0.9167 -0.3931
vn -0.0708 0.9555 -0.2864
vn -0.0921 0.9506 -0.2965
vn -0.0805 0.9203 -0.3830
vn -0.1179 0.9369 -0.3291
vn 0.0290 0.9184 -0.3946
vn -0.6856 -0.2394 -0.6875
vn -0.8252 -0.1752 -0.5370
vn -0.3422 -0.2669 -0.9009
vn 0.0534 -0.2837 -0.9574
vn 0.3201 -0.2656 -0.9094
vn 0.7787 -0.1200 -0.6158
vn 0.9755 0.0064 -0.2198
vn -0.9613 -0.0236 -0.2746
vn -0.9341 -0.0606 -0.3517
vn -0.4365 -0.2790 -0.8553
vn 0.9657 0.1505 0.2114
vn 0.6413 0.3206 0.6972
vn 0.3789 0.3581 0.8534
vn -0.5358 0.3437 0.7712
vn 0.0000 0.3625 0.9320
vn -0.7368 0.2710 0.6195
vn -0.9905 0.1098 0.0822
vn -0.9351 0.1927 0.2975
vn -0.8730 0.2073 0.4414
vn -0.9901 0.0362 -0.1353
vn 0.5917 -0.1714 -0.7878
vn 0.9088 -0.0796 -0.4096
vn 0.8450 0.2523 0.4716
vn 0.9927 0.0990 0.0693
vn -0.3312 0.3537 0.8747
# 50 vertex normals

vt 0.0346 0.5243 0.0000
vt 0.0291 0.5208 0.0000
vt 0.0472 0.4975 0.0000
vt 0.0247 0.5164 0.0000
vt 0.0485 0.5273 0.0000
vt 0.0410 0.5264 0.0000
vt 0.0585 0.5252 0.0000
vt 0.0653 0.5213 0.0000
vt 0.0744 0.5092 0.0000
vt 0.0706 0.5160 0.0000
vt 0.0763 0.4951 0.0000
vt 0.0762 0.5014 0.0000
vt 0.0218 0.5116 0.0000
vt 0.0196 0.5070 0.0000
vt 0.0712 0.4813 0.0000
vt 0.0748 0.4885 0.0000
vt 0.0577 0.4703 0.0000
vt 0.0658 0.4753 0.0000
vt 0.0476 0.4684 0.0000
vt 0.0246 0.4792 0.0000
vt 0.0291 0.4747 0.0000
vt 0.0376 0.4698 0.0000
vt 0.0209 0.4851 0.0000
vt 0.0184 0.5017 0.0000
vt 0.0182 0.4962 0.0000
vt 0.0191 0.4904 0.0000
vt 0.5222 0.0715 0.0000
vt 0.5173 0.0777 0.0000
vt 0.5114 0.0719 0.0000
vt 0.5178 0.0669 0.0000
vt 0.5072 0.0652 0.0000
vt 0.5146 0.0617 0.0000
vt 0.5349 0.0773 0.0000
vt 0.5334 0.0855 0.0000
vt 0.5243 0.0826 0.0000
vt 0.5279 0.0748 0.0000
vt 0.5449 0.0776 0.0000
vt 0.5461 0.0854 0.0000
vt 0.5523 0.0752 0.0000
vt 0.5558 0.0829 0.0000
vt 0.5635 0.0657 0.0000
vt 0.5703 0.0703 0.0000
vt 0.5635 0.0775 0.0000
vt 0.5584 0.0714 0.0000
vt 0.5684 0.0528 0.0000
vt 0.5766 0.0538 0.0000
vt 0.5750 0.0615 0.0000
vt 0.5670 0.0587 0.0000
vt 0.5118 0.0516 0.0000
vt 0.5129 0.0565 0.0000
vt 0.5047 0.0588 0.0000
vt 0.5038 0.0524 0.0000
vt 0.5667 0.0385 0.0000
vt 0.5743 0.0355 0.0000
vt 0.5767 0.0453 0.0000
vt 0.5685 0.0462 0.0000
vt 0.5563 0.0250 0.0000
vt 0.5607 0.0185 0.0000
vt 0.5694 0.0266 0.0000
vt 0.5629 0.0316 0.0000
vt 0.5470 0.0210 0.0000
vt 0.5491 0.0128 0.0000
vt 0.5227 0.0263 0.0000
vt 0.5175 0.0196 0.0000
vt 0.5245 0.0154 0.0000
vt 0.5279 0.0230 0.0000
vt 0.5371 0.0201 0.0000
vt 0.5363 0.0123 0.0000
vt 0.5179 0.0311 0.0000
vt 0.5116 0.0261 0.0000
vt 0.5119 0.0464 0.0000
vt 0.5035 0.0456 0.0000
vt 0.5051 0.0388 0.0000
vt 0.5128 0.0410 0.0000
vt 0.5076 0.0319 0.0000
vt 0.5150 0.0358 0.0000
# 76 texture coords

g yvr_d3_right_home
usemtl lambert2SG17
s off
f 1/1/1 2/2/1 3/3/1 
f 2/2/2 4/4/2 3/3/2 
f 5/5/3 6/6/3 3/3/3 
f 7/7/4 5/5/4 3/3/4 
f 8/8/5 7/7/5 3/3/5 
f 9/9/6 10/10/6 3/3/6 
f 11/11/7 12/12/7 3/3/7 
f 13/13/8 14/14/8 3/3/8 
f 4/4/9 13/13/9 3/3/9 
f 6/6/10 1/1/10 3/3/10 
f 15/15/11 16/16/11 3/3/11 
f 17/17/12 18/18/12 3/3/12 
f 19/19/13 17/17/13 3/3/13 
f 20/20/14 21/21/14 3/3/14 
f 22/22/15 19/19/15 3/3/15 
f 23/23/16 20/20/16 3/3/16 
f 24/24/17 25/25/17 3/3/17 
f 25/25/18 26/26/18 3/3/18 
f 26/26/19 23/23/19 3/3/19 
f 14/14/20 24/24/20 3/3/20 
f 10/10/21 8/8/21 3/3/21 
f 12/12/22 9/9/22 3/3/22 
f 18/18/23 15/15/23 3/3/23 
f 16/16/24 11/11/24 3/3/24 
f 21/21/25 22/22/25 3/3/25 
f 1/27/26 27/28/26 28/29/26 2/30/26 
f 2/30/27 28/29/27 29/31/27 4/32/27 
f 5/33/28 30/34/28 31/35/28 6/36/28 
f 7/37/29 32/38/29 30/34/29 5/33/29 
f 7/37/30 8/39/30 33/40/30 32/38/30 
f 9/41/31 34/42/31 35/43/31 10/44/31 
f 11/45/32 36/46/32 37/47/32 12/48/32 
f 14/49/33 13/50/33 38/51/33 39/52/33 
f 4/32/34 29/31/34 38/51/34 13/50/34 
f 1/27/35 6/36/35 31/35/35 27/28/35 
f 15/53/36 40/54/36 41/55/36 16/56/36 
f 17/57/37 42/58/37 43/59/37 18/60/37 
f 19/61/38 44/62/38 42/58/38 17/57/38 
f 20/63/39 45/64/39 46/65/39 21/66/39 
f 22/67/40 47/68/40 44/62/40 19/61/40 
f 23/69/41 48/70/41 45/64/41 20/63/41 
f 24/71/42 49/72/42 50/73/42 25/74/42 
f 25/74/43 50/73/43 51/75/43 26/76/43 
f 23/69/44 26/76/44 51/75/44 48/70/44 
f 14/49/45 39/52/45 49/72/45 24/71/45 
f 10/44/46 35/43/46 33/40/46 8/39/46 
f 9/41/47 12/48/47 37/47/47 34/42/47 
f 18/60/48 43/59/48 40/54/48 15/53/48 
f 16/56/49 41/55/49 36/46/49 11/45/49 
f 22/67/50 21/66/50 46/65/50 47/68/50 
# 25 polygons - 25 triangles

