# 3ds Max Wavefront OBJ Exporter v0.97b - (c)2007 guruware
# File Created: 26.12.2024 12:37:25

mtllib yvr_d3_right_grip.mtl

#
# object yvr_d3_right_grip
#

v  -0.0223 0.0029 0.0220
v  -0.0218 0.0002 0.0207
v  -0.0206 0.0004 0.0218
v  -0.0211 0.0027 0.0229
v  -0.0215 0.0051 0.0242
v  -0.0226 0.0057 0.0234
v  -0.0214 0.0085 0.0264
v  -0.0210 0.0095 0.0276
v  -0.0220 0.0105 0.0272
v  -0.0225 0.0095 0.0257
v  -0.0228 0.0077 0.0244
v  -0.0216 0.0071 0.0252
v  -0.0188 0.0087 0.0300
v  -0.0196 0.0104 0.0305
v  -0.0204 0.0100 0.0290
v  -0.0202 0.0091 0.0284
v  -0.0164 0.0062 0.0378
v  -0.0169 0.0078 0.0367
v  -0.0163 0.0059 0.0354
v  -0.0159 0.0043 0.0376
v  -0.0210 -0.0019 0.0197
v  -0.0209 0.0005 0.0204
v  -0.0200 -0.0015 0.0196
v  -0.0136 -0.0051 0.0289
v  -0.0132 -0.0075 0.0274
v  -0.0129 -0.0073 0.0292
v  -0.0131 -0.0062 0.0316
v  -0.0181 -0.0019 0.0225
v  -0.0200 -0.0015 0.0211
v  -0.0191 -0.0028 0.0209
v  -0.0181 -0.0039 0.0212
v  -0.0169 -0.0004 0.0252
v  -0.0188 0.0003 0.0233
v  -0.0163 -0.0028 0.0241
v  -0.0148 -0.0040 0.0262
v  -0.0153 -0.0014 0.0275
v  -0.0158 0.0012 0.0289
v  -0.0175 0.0024 0.0265
v  -0.0146 -0.0005 0.0319
v  -0.0152 0.0017 0.0331
v  -0.0163 0.0034 0.0301
v  -0.0157 0.0038 0.0343
v  -0.0169 0.0057 0.0312
v  -0.0150 0.0000 0.0357
v  -0.0155 0.0024 0.0368
v  -0.0165 0.0065 0.0389
v  -0.0171 0.0088 0.0379
v  -0.0179 0.0104 0.0362
v  -0.0175 0.0090 0.0353
v  -0.0187 0.0113 0.0344
v  -0.0181 0.0098 0.0337
v  -0.0159 0.0091 0.0378
v  -0.0168 0.0106 0.0361
v  -0.0175 0.0116 0.0342
v  -0.0174 0.0120 0.0320
v  -0.0184 0.0119 0.0323
v  -0.0165 0.0116 0.0339
v  -0.0195 0.0117 0.0325
v  -0.0195 0.0119 0.0303
v  -0.0204 0.0117 0.0307
v  -0.0205 0.0077 0.0242
v  -0.0217 0.0077 0.0242
v  -0.0215 0.0093 0.0253
v  -0.0204 0.0092 0.0252
v  -0.0204 0.0062 0.0233
v  -0.0216 0.0059 0.0233
v  -0.0202 0.0031 0.0218
v  -0.0214 0.0030 0.0217
v  -0.0200 -0.0037 0.0196
v  -0.0191 -0.0031 0.0194
v  -0.0179 -0.0028 0.0194
v  -0.0168 -0.0041 0.0195
v  -0.0180 -0.0046 0.0195
v  -0.0157 -0.0053 0.0198
v  -0.0166 -0.0058 0.0202
v  -0.0139 -0.0065 0.0209
v  -0.0126 -0.0073 0.0219
v  -0.0136 -0.0079 0.0229
v  -0.0151 -0.0069 0.0213
v  -0.0112 -0.0091 0.0268
v  -0.0124 -0.0087 0.0248
v  -0.0110 -0.0083 0.0238
v  -0.0096 -0.0090 0.0261
v  -0.0094 -0.0082 0.0318
v  -0.0109 -0.0083 0.0317
v  -0.0108 -0.0090 0.0293
v  -0.0090 -0.0091 0.0290
v  -0.0111 -0.0050 0.0349
v  -0.0122 -0.0052 0.0348
v  -0.0116 -0.0070 0.0335
v  -0.0102 -0.0067 0.0338
v  -0.0131 0.0015 0.0382
v  -0.0143 0.0016 0.0382
v  -0.0138 -0.0007 0.0370
v  -0.0126 -0.0006 0.0371
v  -0.0135 0.0043 0.0392
v  -0.0147 0.0040 0.0391
v  -0.0153 0.0069 0.0390
v  -0.0142 0.0073 0.0389
v  -0.0149 0.0093 0.0377
v  -0.0159 0.0040 0.0390
v  -0.0144 -0.0030 0.0358
v  -0.0131 -0.0028 0.0360
v  -0.0150 -0.0006 0.0370
v  -0.0135 -0.0054 0.0344
v  -0.0124 -0.0082 0.0314
v  -0.0129 -0.0071 0.0332
v  -0.0127 -0.0090 0.0274
v  -0.0123 -0.0089 0.0293
v  -0.0147 -0.0081 0.0236
v  -0.0134 -0.0088 0.0255
v  -0.0161 -0.0072 0.0218
v  -0.0177 -0.0060 0.0207
v  -0.0187 -0.0051 0.0200
v  -0.0192 0.0025 0.0245
v  -0.0195 0.0041 0.0253
v  -0.0198 0.0059 0.0263
v  -0.0199 0.0077 0.0275
v  -0.0180 0.0047 0.0277
v  -0.0183 0.0068 0.0290
v  -0.0175 0.0078 0.0323
v  -0.0188 0.0102 0.0321
v  -0.0212 0.0113 0.0288
v  -0.0203 0.0114 0.0285
v  -0.0210 0.0106 0.0268
v  -0.0171 -0.0049 0.0218
v  -0.0160 -0.0058 0.0227
v  -0.0149 -0.0066 0.0241
v  -0.0139 -0.0071 0.0257
v  -0.0137 -0.0043 0.0331
v  -0.0144 -0.0021 0.0344
v  -0.0155 0.0016 0.0382
v  -0.0141 -0.0028 0.0305
v  -0.0196 0.0006 0.0205
v  -0.0189 -0.0012 0.0197
v  -0.0156 0.0107 0.0360
v  -0.0185 0.0118 0.0299
v  -0.0120 -0.0026 0.0361
v  -0.0193 0.0114 0.0283
v  -0.0198 0.0105 0.0266
# 140 vertices

vn -0.5820 -0.4371 0.6857
vn -0.6422 -0.4130 0.6458
vn -0.7089 -0.4435 0.5484
vn -0.6837 -0.3643 0.6324
vn -0.7251 -0.4704 0.5030
vn -0.9619 -0.2733 -0.0036
vn -0.2958 0.2849 -0.9118
vn -0.9397 -0.2818 0.1939
vn -0.9524 -0.3000 0.0549
vn -0.5974 -0.4664 0.6524
vn -0.6410 -0.4107 0.6484
vn -0.7122 -0.4212 0.5615
vn -0.8374 -0.3609 0.4105
vn -0.8286 -0.3839 0.4074
vn -0.9304 -0.3255 0.1688
vn -0.9331 -0.3179 0.1680
vn -0.9802 -0.1943 -0.0393
vn -0.9712 -0.2365 -0.0282
vn -0.9651 -0.2605 0.0266
vn -0.9339 -0.3343 0.1268
vn -0.9027 -0.3941 0.1727
vn -0.0968 0.7002 0.7073
vn -0.1148 0.8779 0.4649
vn -0.0179 0.9802 0.1973
vn -0.1642 0.9844 0.0635
vn -0.0368 0.5727 -0.8189
vn -0.0263 0.4680 -0.8833
vn -0.0037 0.4650 -0.8853
vn -0.1701 0.0012 -0.9854
vn 0.0190 -0.0610 -0.9980
vn -0.0050 -0.4018 -0.9157
vn -0.0186 -0.8356 -0.5490
vn 0.0114 -0.9598 -0.2805
vn 0.0172 -0.9501 0.3114
vn -0.0279 -0.5766 0.8166
vn -0.0352 -0.4641 0.8851
vn 0.0060 -0.3552 0.9348
vn -0.0386 0.4723 0.8806
vn -0.0701 0.0278 0.9972
vn -0.0658 -0.4477 0.8918
vn -0.0999 -0.5005 0.8599
vn -0.1131 -0.8410 0.5291
vn -0.0612 -0.9968 0.0509
vn -0.0833 -0.9419 -0.3253
vn -0.1138 -0.7703 -0.6274
vn -0.6255 -0.3821 0.6802
vn -0.6248 -0.4302 0.6516
vn -0.5845 -0.4998 0.6392
vn -0.6022 -0.4519 0.6582
vn -0.6108 -0.4145 0.6746
vn -0.6567 -0.4301 0.6195
vn -0.7136 -0.4262 0.5560
vn -0.7290 -0.4232 0.5380
vn -0.8491 -0.3772 0.3697
vn -0.8528 -0.4075 0.3267
vn -0.9257 -0.3469 0.1508
vn -0.9280 -0.3590 0.0993
vn -0.9200 -0.3655 0.1412
vn -0.8618 -0.4415 0.2497
vn -0.7475 -0.4728 0.4666
vn -0.7245 -0.4322 0.5370
vn -0.1752 0.9733 -0.1484
vn -0.2106 0.9164 -0.3403
vn -0.7866 -0.5031 0.3579
vn -0.8540 -0.4542 0.2536
vn -0.8371 -0.4393 0.3260
vn -0.8326 -0.3943 0.3889
vn -0.6990 -0.4170 0.5810
vn -0.5903 -0.4548 0.6668
vn -0.6982 -0.4360 0.5678
vn -0.5854 -0.4537 0.6719
vn -0.6814 -0.3106 0.6628
vn -0.7270 -0.3058 0.6147
vn -0.8239 -0.2869 0.4888
vn -0.8425 -0.2867 0.4561
vn -0.9043 -0.2989 0.3047
vn -0.9277 -0.3151 0.2003
vn -0.9384 -0.3376 0.0742
vn -0.9437 -0.3258 -0.0574
vn -0.9576 -0.2823 -0.0573
vn -0.9589 -0.2559 -0.1229
vn -0.9731 -0.1975 -0.1184
vn -0.9821 -0.1657 -0.0896
vn -0.9849 -0.1624 -0.0605
vn -0.7710 -0.3297 0.5448
vn -0.7147 -0.3840 0.5845
vn -0.8397 -0.3082 0.4472
vn -0.9167 -0.3197 0.2397
vn -0.9287 -0.3096 0.2042
vn -0.9712 -0.2368 -0.0274
vn -0.9611 -0.2745 0.0288
vn -0.8390 -0.3212 0.4392
vn -0.9047 -0.3209 0.2804
vn -0.9698 -0.2335 -0.0703
vn -0.9704 -0.2398 -0.0272
vn 0.0319 0.4530 -0.8910
vn -0.6809 -0.3803 0.6259
vn -0.1767 0.8069 -0.5637
vn 0.0239 0.3968 -0.9176
vn -0.0172 0.7580 0.6520
vn 0.0077 0.9058 0.4236
vn -0.1495 0.9520 0.2669
vn -0.0374 0.9985 -0.0395
vn -0.1538 0.5942 -0.7895
vn -0.1692 0.4434 -0.8802
vn -0.2668 0.4197 -0.8675
vn 0.0226 0.1871 -0.9821
vn -0.1877 -0.3494 -0.9180
vn -0.1549 -0.6474 -0.7463
vn -0.0600 -0.8894 -0.4532
vn -0.0725 -0.9882 -0.1350
vn -0.0847 -0.9437 0.3198
vn -0.1328 -0.6185 0.7745
vn -0.0356 -0.4824 0.8752
vn -0.0586 -0.3462 0.9363
vn -0.1029 0.4227 0.9004
vn -0.0082 0.0881 0.9961
vn -0.0356 -0.4467 0.8940
vn -0.0217 -0.4585 0.8884
vn 0.0152 -0.8053 0.5926
vn 0.0122 -0.9999 0.0090
vn 0.0150 -0.9035 -0.4282
vn -0.0153 -0.6900 -0.7236
vn -0.0592 0.9701 -0.2352
vn -0.0293 0.9062 -0.4218
vn -0.3787 0.3477 -0.8577
vn -0.0342 0.7504 -0.6601
vn -0.7120 -0.4867 0.5060
vn -0.6948 -0.4605 0.5524
vn -0.7291 -0.4668 0.5005
# 130 vertex normals

vt 0.0107 0.2710 0.0000
vt 0.0112 0.2512 0.0000
vt 0.0212 0.2542 0.0000
vt 0.0208 0.2711 0.0000
vt 0.0218 0.2887 0.0000
vt 0.0120 0.2920 0.0000
vt 0.0277 0.3143 0.0000
vt 0.0341 0.3227 0.0000
vt 0.0261 0.3291 0.0000
vt 0.0184 0.3197 0.0000
vt 0.0138 0.3063 0.0000
vt 0.0233 0.3036 0.0000
vt 0.0557 0.3226 0.0000
vt 0.0522 0.3351 0.0000
vt 0.0421 0.3296 0.0000
vt 0.0415 0.3219 0.0000
vt 0.1111 0.3282 0.0000
vt 0.0999 0.3351 0.0000
vt 0.0982 0.3192 0.0000
vt 0.1156 0.3162 0.0000
vt 0.9785 0.3245 0.0000
vt 0.9785 0.3128 0.0000
vt 0.9883 0.3128 0.0000
vt 0.9883 0.3245 0.0000
vt 0.0939 0.2345 0.0000
vt 0.0916 0.2168 0.0000
vt 0.1021 0.2223 0.0000
vt 0.1128 0.2358 0.0000
vt 0.0384 0.2401 0.0000
vt 0.0233 0.2404 0.0000
vt 0.0284 0.2314 0.0000
vt 0.0356 0.2249 0.0000
vt 0.0538 0.2554 0.0000
vt 0.0364 0.2555 0.0000
vt 0.0553 0.2375 0.0000
vt 0.0735 0.2351 0.0000
vt 0.0735 0.2542 0.0000
vt 0.0741 0.2731 0.0000
vt 0.0536 0.2750 0.0000
vt 0.0980 0.2709 0.0000
vt 0.0981 0.2874 0.0000
vt 0.0748 0.2902 0.0000
vt 0.0980 0.3042 0.0000
vt 0.0742 0.3064 0.0000
vt 0.1177 0.2856 0.0000
vt 0.1171 0.3027 0.0000
vt 0.1165 0.3341 0.0000
vt 0.1034 0.3445 0.0000
vt 0.0885 0.3494 0.0000
vt 0.0878 0.3382 0.0000
vt 0.0740 0.3501 0.0000
vt 0.0757 0.3386 0.0000
vt 0.9785 0.1724 0.0000
vt 0.9883 0.1724 0.0000
vt 0.9883 0.1862 0.0000
vt 0.9785 0.1862 0.0000
vt 0.9883 0.1994 0.0000
vt 0.9785 0.1994 0.0000
vt 0.9972 0.2120 0.0000
vt 0.9883 0.2120 0.0000
vt 0.9972 0.1994 0.0000
vt 0.9785 0.2120 0.0000
vt 0.9883 0.2245 0.0000
vt 0.9785 0.2245 0.0000
vt 0.9972 0.2694 0.0000
vt 0.9883 0.2694 0.0000
vt 0.9883 0.2586 0.0000
vt 0.9972 0.2586 0.0000
vt 0.9972 0.2799 0.0000
vt 0.9883 0.2799 0.0000
vt 0.9972 0.2979 0.0000
vt 0.9883 0.2979 0.0000
vt 0.9785 0.3341 0.0000
vt 0.9883 0.3341 0.0000
vt 0.9972 0.3341 0.0000
vt 0.9972 0.3432 0.0000
vt 0.9883 0.3432 0.0000
vt 0.9972 0.3511 0.0000
vt 0.9883 0.3511 0.0000
vt 0.9972 0.3637 0.0000
vt 0.9972 0.3763 0.0000
vt 0.9883 0.3763 0.0000
vt 0.9883 0.3637 0.0000
vt 0.9883 0.0327 0.0000
vt 0.9883 0.0189 0.0000
vt 0.9972 0.0189 0.0000
vt 0.9972 0.0327 0.0000
vt 0.9972 0.0595 0.0000
vt 0.9883 0.0595 0.0000
vt 0.9883 0.0466 0.0000
vt 0.9972 0.0466 0.0000
vt 0.9972 0.0815 0.0000
vt 0.9883 0.0815 0.0000
vt 0.9883 0.0709 0.0000
vt 0.9972 0.0709 0.0000
vt 0.9972 0.1254 0.0000
vt 0.9883 0.1254 0.0000
vt 0.9883 0.1108 0.0000
vt 0.9972 0.1108 0.0000
vt 0.9972 0.1414 0.0000
vt 0.9883 0.1414 0.0000
vt 0.9883 0.1581 0.0000
vt 0.9972 0.1581 0.0000
vt 0.9972 0.1724 0.0000
vt 0.9785 0.1414 0.0000
vt 0.9785 0.1581 0.0000
vt 0.9785 0.0967 0.0000
vt 0.9883 0.0967 0.0000
vt 0.9785 0.1108 0.0000
vt 0.9785 0.0815 0.0000
vt 0.9785 0.0595 0.0000
vt 0.9785 0.0709 0.0000
vt 0.9785 0.0327 0.0000
vt 0.9785 0.0466 0.0000
vt 0.9785 0.0048 0.0000
vt 0.9883 0.0048 0.0000
vt 0.9785 0.0189 0.0000
vt 0.9785 0.3637 0.0000
vt 0.9785 0.3511 0.0000
vt 0.0290 0.2153 0.0000
vt 0.0194 0.2238 0.0000
vt 0.0128 0.2354 0.0000
vt 0.0369 0.2721 0.0000
vt 0.0374 0.2845 0.0000
vt 0.0376 0.2977 0.0000
vt 0.0406 0.3109 0.0000
vt 0.0541 0.2923 0.0000
vt 0.0555 0.3081 0.0000
vt 0.0738 0.3229 0.0000
vt 0.0632 0.3375 0.0000
vt 0.0481 0.3440 0.0000
vt 0.0361 0.3377 0.0000
vt 0.9883 0.2359 0.0000
vt 0.9785 0.2359 0.0000
vt 0.9883 0.2474 0.0000
vt 0.9785 0.2474 0.0000
vt 0.0608 0.3482 0.0000
vt 0.0378 0.2109 0.0000
vt 0.0438 0.2197 0.0000
vt 0.0519 0.2057 0.0000
vt 0.0547 0.2161 0.0000
vt 0.0677 0.2040 0.0000
vt 0.0671 0.2142 0.0000
vt 0.0835 0.2042 0.0000
vt 0.0796 0.2144 0.0000
vt 0.0963 0.2067 0.0000
vt 0.1081 0.2126 0.0000
vt 0.1181 0.2230 0.0000
vt 0.1245 0.2355 0.0000
vt 0.1270 0.2489 0.0000
vt 0.1158 0.2515 0.0000
vt 0.1273 0.2680 0.0000
vt 0.1170 0.2692 0.0000
vt 0.1273 0.2856 0.0000
vt 0.1270 0.3026 0.0000
vt 0.1248 0.3191 0.0000
vt 0.0965 0.2528 0.0000
vt 0.9972 0.3128 0.0000
vt 0.9785 0.2586 0.0000
vt 0.9972 0.3245 0.0000
vt 0.9972 0.1862 0.0000
vt 0.9972 0.2245 0.0000
vt 0.9785 0.2694 0.0000
vt 0.9785 0.2799 0.0000
vt 0.9785 0.2979 0.0000
vt 0.9785 0.3432 0.0000
vt 0.9785 0.3763 0.0000
vt 0.9785 0.1254 0.0000
vt 0.9972 0.0967 0.0000
vt 0.9972 0.0048 0.0000
vt 0.9972 0.2359 0.0000
vt 0.9972 0.2474 0.0000
# 172 texture coords

g yvr_d3_right_grip
usemtl lambert2SG15
s off
f 1/1/1 2/2/1 3/3/1 4/4/1 
f 1/1/2 4/4/2 5/5/2 6/6/2 
f 7/7/3 8/8/3 9/9/3 10/10/3 
f 7/7/4 10/10/4 11/11/4 12/12/4 
f 13/13/5 14/14/5 15/15/5 16/16/5 
f 17/17/6 18/18/6 19/19/6 20/20/6 
f 21/21/7 2/22/7 22/23/7 23/24/7 
f 24/25/8 25/26/8 26/27/8 
f 26/27/9 27/28/9 24/25/9 
f 28/29/10 29/30/10 30/31/10 
f 28/29/11 30/31/11 31/32/11 
f 32/33/12 33/34/12 28/29/12 34/35/12 
f 34/35/13 35/36/13 36/37/13 32/33/13 
f 32/33/14 36/37/14 37/38/14 38/39/14 
f 37/38/15 39/40/15 40/41/15 41/42/15 
f 42/43/16 43/44/16 41/42/16 40/41/16 
f 40/41/17 44/45/17 45/46/17 42/43/17 
f 20/20/18 19/19/18 42/43/18 45/46/18 
f 18/18/19 17/17/19 46/47/19 47/48/19 
f 47/48/20 48/49/20 49/50/20 18/18/20 
f 48/49/21 50/51/21 51/52/21 49/50/21 
f 47/53/22 52/54/22 53/55/22 48/56/22 
f 48/56/23 53/55/23 54/57/23 50/58/23 
f 55/59/24 56/60/24 54/57/24 57/61/24 
f 58/62/25 56/60/25 59/63/25 60/64/25 
f 61/65/26 62/66/26 63/67/26 64/68/26 
f 65/69/27 66/70/27 62/66/27 61/65/27 
f 67/71/28 68/72/28 66/70/28 65/69/28 
f 69/73/29 21/21/29 23/24/29 70/74/29 
f 71/75/30 72/76/30 73/77/30 70/74/30 
f 72/76/31 74/78/31 75/79/31 73/77/31 
f 76/80/32 77/81/32 78/82/32 79/83/32 
f 80/84/33 81/85/33 82/86/33 83/87/33 
f 84/88/34 85/89/34 86/90/34 87/91/34 
f 88/92/35 89/93/35 90/94/35 91/95/35 
f 92/96/36 93/97/36 94/98/36 95/99/36 
f 96/100/37 97/101/37 93/97/37 92/96/37 
f 52/54/38 98/102/38 99/103/38 100/104/38 
f 101/105/39 97/101/39 98/102/39 46/106/39 
f 102/107/40 103/108/40 94/98/40 104/109/40 
f 105/110/41 89/93/41 103/108/41 102/107/41 
f 106/111/42 85/89/42 90/94/42 107/112/42 
f 108/113/43 80/84/43 86/90/43 109/114/43 
f 110/115/44 78/116/44 81/85/44 111/117/44 
f 112/118/45 113/119/45 75/79/45 79/83/45 
f 114/120/46 31/32/46 30/31/46 69/121/46 
f 30/31/47 29/30/47 21/122/47 69/121/47 
f 29/30/48 3/3/48 2/2/48 21/122/48 
f 4/4/49 115/123/49 116/124/49 5/5/49 
f 5/5/50 116/124/50 117/125/50 12/12/50 
f 118/126/51 7/7/51 12/12/51 117/125/51 
f 116/124/52 38/39/52 119/127/52 117/125/52 
f 117/125/53 119/127/53 120/128/53 118/126/53 
f 119/127/54 41/42/54 43/44/54 120/128/54 
f 121/129/55 13/13/55 120/128/55 43/44/55 
f 43/44/56 42/43/56 19/19/56 121/129/56 
f 19/19/57 18/18/57 49/50/57 
f 49/50/58 51/52/58 121/129/58 19/19/58 
f 51/52/59 122/130/59 121/129/59 
f 15/15/60 14/14/60 60/131/60 123/132/60 
f 123/132/61 9/9/61 8/8/61 15/15/61 
f 60/64/62 59/63/62 124/133/62 123/134/62 
f 123/134/63 124/133/63 125/135/63 9/136/63 
f 14/14/64 122/130/64 58/137/64 60/131/64 
f 122/130/65 51/52/65 50/51/65 58/137/65 
f 13/13/66 121/129/66 122/130/66 14/14/66 
f 38/39/67 37/38/67 41/42/67 119/127/67 
f 38/39/68 116/124/68 115/123/68 
f 4/4/69 3/3/69 33/34/69 115/123/69 
f 115/123/70 33/34/70 32/33/70 38/39/70 
f 29/30/71 28/29/71 33/34/71 3/3/71 
f 31/32/72 114/120/72 113/138/72 126/139/72 
f 126/139/73 113/138/73 112/140/73 127/141/73 
f 112/140/74 110/142/74 128/143/74 127/141/74 
f 110/142/75 111/144/75 129/145/75 128/143/75 
f 111/144/76 108/146/76 25/26/76 129/145/76 
f 108/146/77 109/147/77 26/27/77 25/26/77 
f 106/148/78 27/28/78 26/27/78 109/147/78 
f 27/28/79 106/148/79 107/149/79 
f 107/149/80 105/150/80 130/151/80 27/28/80 
f 130/151/81 105/150/81 102/152/81 131/153/81 
f 131/153/82 102/152/82 104/154/82 44/45/82 
f 132/155/83 45/46/83 44/45/83 104/154/83 
f 132/155/84 101/156/84 20/20/84 45/46/84 
f 126/139/85 127/141/85 34/35/85 
f 126/139/86 34/35/86 28/29/86 31/32/86 
f 34/35/87 127/141/87 128/143/87 35/36/87 
f 24/25/88 133/157/88 36/37/88 35/36/88 
f 39/40/89 37/38/89 36/37/89 133/157/89 
f 133/157/90 130/151/90 131/153/90 39/40/90 
f 133/157/91 24/25/91 27/28/91 130/151/91 
f 35/36/92 128/143/92 129/145/92 
f 129/145/93 25/26/93 24/25/93 35/36/93 
f 44/45/94 40/41/94 39/40/94 131/153/94 
f 101/156/95 46/47/95 17/17/95 20/20/95 
f 22/23/96 68/72/96 67/71/96 134/158/96 
f 12/12/97 11/11/97 6/6/97 5/5/97 
f 125/135/98 63/67/98 10/159/98 9/136/98 
f 134/158/99 135/160/99 23/24/99 22/23/99 
f 52/54/100 100/104/100 136/161/100 53/55/100 
f 53/55/101 136/161/101 57/61/101 54/57/101 
f 56/60/102 58/62/102 50/58/102 54/57/102 
f 56/60/103 55/59/103 137/162/103 59/63/103 
f 11/163/104 10/159/104 63/67/104 62/66/104 
f 6/164/105 11/163/105 62/66/105 66/70/105 
f 1/165/106 6/164/106 66/70/106 68/72/106 
f 135/160/107 71/75/107 70/74/107 23/24/107 
f 114/166/108 69/73/108 70/74/108 73/77/108 
f 113/119/109 114/166/109 73/77/109 75/79/109 
f 110/167/110 112/118/110 79/83/110 78/82/110 
f 108/113/111 111/117/111 81/85/111 80/84/111 
f 85/89/112 106/111/112 109/114/112 86/90/112 
f 89/93/113 105/110/113 107/112/113 90/94/113 
f 93/97/114 132/168/114 104/109/114 94/98/114 
f 97/101/115 101/105/115 132/168/115 93/97/115 
f 46/106/116 98/102/116 52/54/116 47/53/116 
f 96/100/117 99/103/117 98/102/117 97/101/117 
f 103/108/118 138/169/118 95/99/118 94/98/118 
f 89/93/119 88/92/119 138/169/119 103/108/119 
f 85/89/120 84/88/120 91/95/120 90/94/120 
f 80/84/121 83/87/121 87/91/121 86/90/121 
f 78/116/122 77/170/122 82/86/122 81/85/122 
f 74/78/123 76/80/123 79/83/123 75/79/123 
f 59/63/124 137/162/124 139/171/124 124/133/124 
f 124/133/125 139/171/125 140/172/125 125/135/125 
f 2/22/126 1/165/126 68/72/126 22/23/126 
f 125/135/127 140/172/127 64/68/127 63/67/127 
f 15/15/128 8/8/128 16/16/128 
f 8/8/129 7/7/129 118/126/129 16/16/129 
f 118/126/130 120/128/130 13/13/130 16/16/130 
# 119 polygons - 11 triangles

