# 3ds Max Wavefront OBJ Exporter v0.97b - (c)2007 guruware
# File Created: 26.12.2024 11:34:33

mtllib yvr_d3_right_joystick.mtl

#
# object yvr_d3_right_joystick
#

v  -0.0003 0.0090 -0.0206
v  -0.0016 0.0072 -0.0244
v  -0.0026 0.0074 -0.0240
v  -0.0035 0.0077 -0.0234
v  -0.0041 0.0081 -0.0227
v  -0.0046 0.0086 -0.0218
v  -0.0048 0.0091 -0.0210
v  -0.0047 0.0097 -0.0200
v  -0.0044 0.0102 -0.0192
v  -0.0039 0.0107 -0.0184
v  -0.0031 0.0111 -0.0177
v  -0.0023 0.0114 -0.0173
v  -0.0013 0.0116 -0.0170
v  -0.0002 0.0116 -0.0170
v  0.0009 0.0115 -0.0170
v  0.0018 0.0113 -0.0174
v  0.0026 0.0109 -0.0179
v  0.0033 0.0105 -0.0186
v  0.0038 0.0100 -0.0194
v  0.0015 0.0073 -0.0241
v  0.0005 0.0071 -0.0244
v  -0.0005 0.0071 -0.0245
v  0.0040 0.0095 -0.0203
v  0.0024 0.0076 -0.0236
v  0.0018 0.0074 -0.0247
v  0.0006 0.0072 -0.0251
v  -0.0006 0.0072 -0.0252
v  -0.0017 0.0073 -0.0250
v  -0.0028 0.0075 -0.0246
v  -0.0038 0.0079 -0.0239
v  -0.0045 0.0083 -0.0232
v  -0.0050 0.0089 -0.0222
v  -0.0053 0.0095 -0.0212
v  -0.0052 0.0101 -0.0201
v  -0.0049 0.0107 -0.0192
v  -0.0043 0.0112 -0.0184
v  -0.0034 0.0116 -0.0177
v  -0.0025 0.0120 -0.0171
v  -0.0014 0.0121 -0.0168
v  -0.0002 0.0122 -0.0167
v  0.0010 0.0121 -0.0169
v  0.0020 0.0119 -0.0172
v  0.0030 0.0115 -0.0179
v  0.0037 0.0111 -0.0186
v  0.0042 0.0106 -0.0195
v  0.0045 0.0099 -0.0205
v  0.0040 0.0090 -0.0212
v  0.0045 0.0093 -0.0215
v  0.0042 0.0087 -0.0225
v  0.0037 0.0085 -0.0221
v  0.0036 0.0082 -0.0234
v  0.0032 0.0080 -0.0230
v  0.0028 0.0078 -0.0241
v  0.0032 0.0074 -0.0245
v  0.0021 0.0070 -0.0251
v  0.0008 0.0068 -0.0255
v  0.0023 0.0064 -0.0253
v  0.0009 0.0062 -0.0257
v  -0.0006 0.0061 -0.0258
v  -0.0006 0.0067 -0.0256
v  -0.0021 0.0062 -0.0256
v  -0.0019 0.0068 -0.0254
v  -0.0034 0.0065 -0.0251
v  -0.0032 0.0071 -0.0250
v  -0.0046 0.0070 -0.0244
v  -0.0043 0.0075 -0.0242
v  -0.0055 0.0076 -0.0234
v  -0.0051 0.0080 -0.0233
v  -0.0061 0.0083 -0.0222
v  -0.0057 0.0086 -0.0223
v  -0.0064 0.0090 -0.0210
v  -0.0059 0.0093 -0.0212
v  -0.0063 0.0097 -0.0197
v  -0.0059 0.0100 -0.0200
v  -0.0059 0.0104 -0.0185
v  -0.0055 0.0107 -0.0189
v  -0.0052 0.0111 -0.0175
v  -0.0048 0.0112 -0.0179
v  -0.0042 0.0117 -0.0166
v  -0.0039 0.0117 -0.0171
v  -0.0030 0.0120 -0.0160
v  -0.0027 0.0121 -0.0165
v  -0.0016 0.0123 -0.0155
v  -0.0015 0.0123 -0.0161
v  -0.0002 0.0123 -0.0154
v  -0.0002 0.0123 -0.0160
v  0.0013 0.0122 -0.0156
v  0.0011 0.0122 -0.0162
v  0.0026 0.0119 -0.0161
v  0.0024 0.0120 -0.0166
v  0.0038 0.0115 -0.0168
v  0.0034 0.0116 -0.0173
v  0.0047 0.0109 -0.0177
v  0.0043 0.0111 -0.0182
v  0.0053 0.0102 -0.0188
v  0.0049 0.0105 -0.0192
v  0.0057 0.0095 -0.0201
v  0.0052 0.0098 -0.0203
v  0.0056 0.0088 -0.0214
v  0.0051 0.0091 -0.0214
v  0.0053 0.0081 -0.0226
v  0.0048 0.0085 -0.0226
v  0.0041 0.0079 -0.0236
v  0.0045 0.0074 -0.0237
v  0.0035 0.0068 -0.0246
v  0.0048 0.0069 -0.0236
v  0.0038 0.0062 -0.0246
v  0.0025 0.0058 -0.0253
v  0.0039 0.0057 -0.0244
v  0.0025 0.0052 -0.0252
v  0.0010 0.0050 -0.0256
v  0.0010 0.0055 -0.0258
v  -0.0006 0.0049 -0.0258
v  -0.0006 0.0055 -0.0259
v  -0.0022 0.0050 -0.0255
v  -0.0022 0.0056 -0.0257
v  -0.0037 0.0053 -0.0250
v  -0.0036 0.0059 -0.0251
v  -0.0050 0.0058 -0.0241
v  -0.0049 0.0064 -0.0244
v  -0.0060 0.0065 -0.0231
v  -0.0058 0.0071 -0.0233
v  -0.0067 0.0072 -0.0219
v  -0.0065 0.0078 -0.0221
v  -0.0070 0.0080 -0.0205
v  -0.0068 0.0086 -0.0208
v  -0.0069 0.0088 -0.0191
v  -0.0067 0.0093 -0.0195
v  -0.0064 0.0096 -0.0178
v  -0.0063 0.0101 -0.0182
v  -0.0056 0.0103 -0.0166
v  -0.0055 0.0107 -0.0170
v  -0.0045 0.0109 -0.0157
v  -0.0044 0.0114 -0.0161
v  -0.0032 0.0113 -0.0150
v  -0.0031 0.0118 -0.0154
v  -0.0017 0.0116 -0.0145
v  -0.0017 0.0120 -0.0150
v  -0.0001 0.0117 -0.0144
v  -0.0001 0.0121 -0.0148
v  0.0014 0.0115 -0.0146
v  0.0014 0.0120 -0.0151
v  0.0029 0.0112 -0.0151
v  0.0028 0.0117 -0.0156
v  0.0041 0.0108 -0.0159
v  0.0040 0.0112 -0.0164
v  0.0051 0.0101 -0.0169
v  0.0050 0.0106 -0.0173
v  0.0059 0.0094 -0.0181
v  0.0057 0.0099 -0.0185
v  0.0062 0.0086 -0.0195
v  0.0060 0.0091 -0.0198
v  0.0062 0.0078 -0.0209
v  0.0060 0.0084 -0.0211
v  0.0058 0.0070 -0.0222
v  0.0056 0.0076 -0.0225
v  0.0050 0.0063 -0.0234
v  0.0057 0.0064 -0.0218
v  0.0050 0.0057 -0.0231
v  0.0039 0.0051 -0.0241
v  0.0048 0.0053 -0.0226
v  0.0037 0.0047 -0.0236
v  0.0024 0.0043 -0.0243
v  0.0025 0.0047 -0.0249
v  0.0009 0.0041 -0.0248
v  0.0010 0.0044 -0.0253
v  -0.0006 0.0040 -0.0249
v  -0.0006 0.0044 -0.0254
v  -0.0022 0.0041 -0.0247
v  -0.0022 0.0045 -0.0252
v  -0.0036 0.0044 -0.0241
v  -0.0037 0.0048 -0.0246
v  -0.0048 0.0049 -0.0234
v  -0.0050 0.0053 -0.0238
v  -0.0058 0.0055 -0.0222
v  -0.0060 0.0059 -0.0227
v  -0.0064 0.0062 -0.0210
v  -0.0067 0.0067 -0.0214
v  -0.0067 0.0071 -0.0198
v  -0.0069 0.0074 -0.0201
v  -0.0066 0.0078 -0.0185
v  -0.0069 0.0083 -0.0188
v  -0.0062 0.0085 -0.0173
v  -0.0064 0.0091 -0.0175
v  -0.0054 0.0092 -0.0161
v  -0.0056 0.0098 -0.0163
v  -0.0044 0.0097 -0.0152
v  -0.0045 0.0103 -0.0153
v  -0.0031 0.0101 -0.0145
v  -0.0032 0.0107 -0.0146
v  -0.0017 0.0104 -0.0141
v  -0.0017 0.0110 -0.0142
v  -0.0002 0.0104 -0.0140
v  -0.0002 0.0110 -0.0141
v  0.0013 0.0103 -0.0141
v  0.0014 0.0109 -0.0143
v  0.0027 0.0100 -0.0147
v  0.0028 0.0106 -0.0148
v  0.0039 0.0096 -0.0154
v  0.0041 0.0102 -0.0156
v  0.0049 0.0090 -0.0164
v  0.0051 0.0096 -0.0166
v  0.0056 0.0083 -0.0176
v  0.0058 0.0089 -0.0178
v  0.0059 0.0076 -0.0189
v  0.0062 0.0081 -0.0191
v  0.0059 0.0068 -0.0202
v  0.0061 0.0072 -0.0205
v  0.0055 0.0060 -0.0215
v  0.0055 0.0064 -0.0199
v  0.0051 0.0057 -0.0211
v  0.0045 0.0051 -0.0222
v  0.0047 0.0056 -0.0208
v  0.0040 0.0050 -0.0217
v  0.0031 0.0044 -0.0225
v  0.0035 0.0045 -0.0230
v  0.0020 0.0040 -0.0232
v  0.0022 0.0041 -0.0237
v  0.0008 0.0038 -0.0236
v  0.0009 0.0038 -0.0242
v  -0.0006 0.0038 -0.0237
v  -0.0006 0.0037 -0.0243
v  -0.0019 0.0039 -0.0235
v  -0.0021 0.0039 -0.0241
v  -0.0031 0.0041 -0.0231
v  -0.0034 0.0042 -0.0235
v  -0.0042 0.0045 -0.0224
v  -0.0045 0.0046 -0.0229
v  -0.0050 0.0052 -0.0215
v  -0.0054 0.0053 -0.0219
v  -0.0055 0.0058 -0.0204
v  -0.0060 0.0059 -0.0207
v  -0.0058 0.0064 -0.0194
v  -0.0063 0.0066 -0.0195
v  -0.0057 0.0070 -0.0183
v  -0.0062 0.0073 -0.0183
v  -0.0053 0.0076 -0.0172
v  -0.0058 0.0080 -0.0171
v  -0.0047 0.0082 -0.0162
v  -0.0051 0.0086 -0.0161
v  -0.0038 0.0088 -0.0154
v  -0.0041 0.0092 -0.0152
v  -0.0027 0.0091 -0.0148
v  -0.0029 0.0096 -0.0146
v  -0.0015 0.0093 -0.0145
v  -0.0016 0.0098 -0.0142
v  -0.0002 0.0094 -0.0144
v  -0.0002 0.0099 -0.0141
v  0.0010 0.0093 -0.0146
v  0.0012 0.0098 -0.0143
v  0.0022 0.0090 -0.0150
v  0.0025 0.0095 -0.0147
v  0.0033 0.0087 -0.0156
v  0.0036 0.0091 -0.0155
v  0.0041 0.0081 -0.0164
v  0.0046 0.0085 -0.0163
v  0.0047 0.0075 -0.0175
v  0.0052 0.0078 -0.0174
v  0.0050 0.0069 -0.0185
v  0.0055 0.0071 -0.0187
v  0.0050 0.0062 -0.0196
v  0.0043 0.0067 -0.0185
v  0.0043 0.0062 -0.0195
v  0.0040 0.0056 -0.0205
v  0.0025 0.0063 -0.0192
v  0.0023 0.0060 -0.0198
v  0.0020 0.0056 -0.0205
v  0.0035 0.0050 -0.0213
v  0.0015 0.0054 -0.0209
v  0.0027 0.0046 -0.0220
v  0.0009 0.0052 -0.0212
v  0.0017 0.0043 -0.0226
v  0.0002 0.0050 -0.0215
v  0.0006 0.0041 -0.0229
v  -0.0005 0.0049 -0.0214
v  -0.0006 0.0040 -0.0230
v  -0.0012 0.0051 -0.0214
v  -0.0017 0.0041 -0.0228
v  -0.0019 0.0052 -0.0211
v  -0.0028 0.0043 -0.0225
v  -0.0025 0.0054 -0.0208
v  -0.0037 0.0047 -0.0219
v  -0.0029 0.0057 -0.0203
v  -0.0044 0.0053 -0.0211
v  -0.0032 0.0060 -0.0198
v  -0.0049 0.0058 -0.0202
v  -0.0033 0.0064 -0.0192
v  -0.0051 0.0063 -0.0192
v  -0.0032 0.0067 -0.0185
v  -0.0050 0.0069 -0.0183
v  -0.0030 0.0071 -0.0179
v  -0.0047 0.0074 -0.0173
v  -0.0027 0.0073 -0.0175
v  -0.0041 0.0079 -0.0166
v  -0.0022 0.0076 -0.0171
v  -0.0033 0.0083 -0.0159
v  -0.0016 0.0078 -0.0167
v  -0.0024 0.0086 -0.0153
v  -0.0010 0.0079 -0.0166
v  -0.0013 0.0088 -0.0150
v  -0.0003 0.0079 -0.0165
v  -0.0002 0.0088 -0.0149
v  0.0004 0.0079 -0.0166
v  0.0009 0.0087 -0.0151
v  0.0010 0.0077 -0.0168
v  0.0019 0.0085 -0.0154
v  0.0015 0.0075 -0.0172
v  0.0028 0.0082 -0.0160
v  0.0020 0.0073 -0.0176
v  0.0035 0.0078 -0.0167
v  0.0023 0.0070 -0.0181
v  0.0040 0.0073 -0.0176
v  0.0025 0.0067 -0.0186
v  0.0019 0.0052 -0.0163
v  0.0023 0.0050 -0.0167
v  0.0025 0.0046 -0.0173
v  0.0025 0.0043 -0.0180
v  0.0024 0.0039 -0.0186
v  0.0021 0.0036 -0.0192
v  0.0016 0.0033 -0.0196
v  0.0010 0.0031 -0.0199
v  0.0003 0.0030 -0.0202
v  -0.0005 0.0029 -0.0203
v  -0.0013 0.0030 -0.0201
v  -0.0020 0.0032 -0.0199
v  -0.0026 0.0034 -0.0194
v  -0.0029 0.0037 -0.0190
v  -0.0032 0.0040 -0.0185
v  -0.0033 0.0043 -0.0179
v  -0.0032 0.0047 -0.0173
v  -0.0030 0.0050 -0.0167
v  -0.0027 0.0053 -0.0162
v  -0.0022 0.0055 -0.0158
v  -0.0016 0.0057 -0.0155
v  -0.0010 0.0058 -0.0154
v  -0.0003 0.0058 -0.0153
v  0.0004 0.0058 -0.0154
v  0.0010 0.0057 -0.0155
v  0.0015 0.0055 -0.0159
v  0.0025 0.0055 -0.0146
v  0.0031 0.0052 -0.0152
v  0.0036 0.0047 -0.0160
v  0.0042 0.0049 -0.0144
v  0.0048 0.0043 -0.0154
v  0.0051 0.0036 -0.0165
v  0.0039 0.0042 -0.0169
v  0.0051 0.0030 -0.0177
v  0.0039 0.0037 -0.0177
v  0.0047 0.0023 -0.0189
v  0.0037 0.0032 -0.0187
v  0.0041 0.0017 -0.0199
v  0.0032 0.0027 -0.0196
v  0.0032 0.0012 -0.0207
v  0.0025 0.0022 -0.0202
v  0.0021 0.0008 -0.0214
v  0.0016 0.0019 -0.0207
v  0.0007 0.0006 -0.0217
v  0.0005 0.0017 -0.0210
v  -0.0006 0.0006 -0.0218
v  -0.0006 0.0017 -0.0211
v  -0.0019 0.0007 -0.0216
v  -0.0017 0.0018 -0.0209
v  -0.0032 0.0009 -0.0212
v  -0.0027 0.0020 -0.0205
v  -0.0043 0.0012 -0.0205
v  -0.0036 0.0023 -0.0199
v  -0.0051 0.0017 -0.0196
v  -0.0042 0.0027 -0.0193
v  -0.0057 0.0023 -0.0186
v  -0.0045 0.0032 -0.0185
v  -0.0059 0.0030 -0.0176
v  -0.0047 0.0036 -0.0177
v  -0.0059 0.0037 -0.0164
v  -0.0046 0.0043 -0.0168
v  -0.0055 0.0043 -0.0153
v  -0.0043 0.0047 -0.0160
v  -0.0049 0.0049 -0.0143
v  -0.0038 0.0052 -0.0152
v  -0.0040 0.0054 -0.0134
v  -0.0031 0.0056 -0.0145
v  -0.0028 0.0058 -0.0128
v  -0.0023 0.0058 -0.0141
v  -0.0016 0.0060 -0.0124
v  -0.0013 0.0060 -0.0138
v  -0.0002 0.0061 -0.0123
v  -0.0003 0.0061 -0.0137
v  0.0011 0.0060 -0.0125
v  0.0008 0.0060 -0.0138
v  0.0023 0.0058 -0.0128
v  0.0017 0.0058 -0.0141
v  0.0034 0.0054 -0.0135
v  0.0043 0.0048 -0.0123
v  0.0054 0.0042 -0.0134
v  0.0061 0.0034 -0.0147
v  0.0064 0.0026 -0.0161
v  0.0063 0.0018 -0.0174
v  0.0058 0.0009 -0.0188
v  0.0050 0.0002 -0.0200
v  0.0039 -0.0004 -0.0210
v  0.0025 -0.0008 -0.0218
v  0.0010 -0.0011 -0.0222
v  -0.0006 -0.0011 -0.0223
v  -0.0021 -0.0010 -0.0222
v  -0.0036 -0.0007 -0.0216
v  -0.0050 -0.0002 -0.0208
v  -0.0060 0.0004 -0.0197
v  -0.0067 0.0011 -0.0185
v  -0.0071 0.0019 -0.0173
v  -0.0071 0.0028 -0.0158
v  -0.0067 0.0036 -0.0144
v  -0.0059 0.0043 -0.0132
v  -0.0048 0.0049 -0.0121
v  -0.0035 0.0055 -0.0113
v  -0.0019 0.0058 -0.0108
v  -0.0003 0.0059 -0.0107
v  0.0014 0.0057 -0.0109
v  0.0030 0.0054 -0.0114
# 417 vertices

vn 0.0254 0.8957 -0.4439
vn 0.0417 0.8908 -0.4525
vn 0.0542 0.8844 -0.4637
vn 0.0605 0.8792 -0.4727
vn 0.0656 0.8706 -0.4875
vn 0.0669 0.8610 -0.5041
vn 0.0645 0.8544 -0.5156
vn 0.0195 0.7989 -0.6011
vn 0.0632 0.8309 -0.5528
vn 0.0474 0.8246 -0.5637
vn 0.0332 0.8211 -0.5699
vn 0.0000 0.8172 -0.5764
vn -0.0082 0.8173 -0.5762
vn -0.0366 0.8213 -0.5693
vn 0.0238 0.8027 -0.5959
vn -0.0525 0.8409 -0.5386
vn -0.0607 0.8471 -0.5280
vn -0.0259 0.8963 -0.4427
vn -0.0068 0.8981 -0.4396
vn 0.0123 0.8977 -0.4404
vn -0.0680 0.8571 -0.5106
vn -0.0391 0.8932 -0.4479
vn -0.2038 0.9754 0.0841
vn -0.0567 0.9870 0.1503
vn 0.1104 0.9850 0.1326
vn 0.2545 0.9580 0.1325
vn 0.3843 0.9205 0.0708
vn 0.5019 0.8631 -0.0551
vn 0.5862 0.7983 -0.1386
vn 0.6391 0.7267 -0.2519
vn 0.6205 0.6506 -0.4379
vn 0.6177 0.5495 -0.5626
vn 0.5524 0.4716 -0.6873
vn 0.4506 0.4131 -0.7914
vn 0.3733 0.3956 -0.8391
vn 0.2039 0.3563 -0.9119
vn 0.0288 0.3172 -0.9479
vn -0.0856 0.3207 -0.9433
vn -0.2653 0.3168 -0.9106
vn -0.3846 0.3698 -0.8458
vn -0.5290 0.4128 -0.7414
vn -0.6445 0.4238 -0.6364
vn -0.6739 0.5265 -0.5184
vn -0.6247 0.6763 -0.3904
vn -0.5849 0.7709 -0.2522
vn -0.0668 0.8739 -0.4814
vn -0.0696 0.8639 -0.4988
vn -0.5436 0.8261 -0.1482
vn -0.0623 0.8795 -0.4718
vn -0.4125 0.9108 -0.0177
vn -0.0462 0.8903 -0.4530
vn -0.3247 0.9458 0.0020
vn 0.1707 0.7084 -0.6849
vn 0.0899 0.6870 -0.7211
vn 0.0429 0.3667 -0.9294
vn 0.0240 0.6661 -0.7455
vn -0.0874 0.3752 -0.9228
vn -0.0513 0.6686 -0.7418
vn -0.2457 0.3818 -0.8910
vn -0.1101 0.6976 -0.7080
vn -0.3456 0.4519 -0.8224
vn -0.1732 0.7162 -0.6761
vn -0.4045 0.5758 -0.7105
vn -0.2313 0.7363 -0.6359
vn -0.5060 0.6023 -0.6174
vn -0.2497 0.7725 -0.5839
vn -0.5982 0.6133 -0.5158
vn -0.2065 0.8043 -0.5571
vn -0.6628 0.6596 -0.3544
vn -0.1521 0.8589 -0.4891
vn -0.6562 0.7286 -0.1962
vn -0.2181 0.8564 -0.4679
vn -0.5245 0.8372 -0.1550
vn -0.2494 0.9051 -0.3443
vn -0.3847 0.9144 -0.1260
vn -0.1924 0.9296 -0.3145
vn -0.2605 0.9646 -0.0412
vn -0.1537 0.9474 -0.2807
vn -0.1706 0.9853 0.0003
vn -0.0838 0.9671 -0.2404
vn -0.0379 0.9992 0.0136
vn -0.0219 0.9695 -0.2442
vn 0.0718 0.9974 0.0045
vn 0.0435 0.9684 -0.2455
vn 0.2027 0.9792 -0.0120
vn 0.1006 0.9609 -0.2580
vn 0.3026 0.9507 -0.0684
vn 0.1693 0.9437 -0.2842
vn 0.4372 0.8903 -0.1272
vn 0.2181 0.9219 -0.3202
vn 0.5852 0.7992 -0.1371
vn 0.2408 0.8943 -0.3773
vn 0.6359 0.7335 -0.2399
vn 0.2073 0.8525 -0.4799
vn 0.5671 0.6744 -0.4729
vn 0.2281 0.8182 -0.5278
vn 0.4874 0.6962 -0.5270
vn 0.3039 0.7845 -0.5406
vn 0.2745 0.7442 -0.6089
vn 0.4319 0.6186 -0.6564
vn 0.4082 0.5030 -0.7618
vn 0.2293 0.7136 -0.6620
vn 0.5681 0.2585 -0.7813
vn 0.4261 0.1976 -0.8828
vn 0.3696 0.3945 -0.8413
vn 0.5162 -0.1952 -0.8340
vn 0.3351 -0.2591 -0.9058
vn 0.2822 0.1524 -0.9472
vn 0.0906 -0.2739 -0.9575
vn 0.0502 0.1542 -0.9868
vn -0.1751 -0.1974 -0.9646
vn -0.1300 0.0969 -0.9868
vn -0.3620 -0.1588 -0.9186
vn -0.3374 0.1025 -0.9358
vn -0.5651 -0.1377 -0.8135
vn -0.4618 0.1632 -0.8718
vn -0.7627 -0.0410 -0.6455
vn -0.6586 0.2155 -0.7210
vn -0.8381 0.0929 -0.5375
vn -0.7364 0.3347 -0.5880
vn -0.9286 0.1912 -0.3179
vn -0.7633 0.4635 -0.4500
vn -0.9454 0.3078 -0.1073
vn -0.7798 0.5663 -0.2669
vn -0.9206 0.3773 0.1011
vn -0.7536 0.6440 -0.1318
vn -0.8304 0.4724 0.2954
vn -0.7162 0.6944 0.0691
vn -0.6821 0.6127 0.3992
vn -0.6368 0.7274 0.2556
vn -0.5241 0.6500 0.5503
vn -0.4484 0.8309 0.3293
vn -0.2866 0.6824 0.6724
vn -0.2474 0.8944 0.3725
vn -0.1178 0.7430 0.6589
vn -0.0817 0.9032 0.4213
vn 0.1864 0.7351 0.6518
vn 0.1332 0.9072 0.3991
vn 0.3620 0.7161 0.5968
vn 0.3374 0.8617 0.3791
vn 0.5633 0.6737 0.4783
vn 0.4870 0.8102 0.3262
vn 0.7369 0.5482 0.3956
vn 0.6610 0.7279 0.1823
vn 0.8445 0.4744 0.2485
vn 0.7171 0.6970 -0.0038
vn 0.9286 0.3709 -0.0066
vn 0.7876 0.6012 -0.1349
vn 0.9487 0.2739 -0.1581
vn 0.8202 0.4806 -0.3102
vn 0.9157 0.1632 -0.3671
vn 0.7876 0.4174 -0.4532
vn 0.8186 0.0032 -0.5744
vn 0.6909 0.2937 -0.6606
vn 0.8805 -0.2933 -0.3725
vn 0.7372 -0.3379 -0.5852
vn 0.7202 -0.0912 -0.6877
vn 0.6669 -0.6746 -0.3164
vn 0.4793 -0.7590 -0.4407
vn 0.5408 -0.4206 -0.7285
vn 0.2798 -0.8234 -0.4937
vn 0.3162 -0.4743 -0.8216
vn 0.0887 -0.7956 -0.5993
vn 0.0930 -0.5677 -0.8179
vn -0.1428 -0.7865 -0.6009
vn -0.1539 -0.5634 -0.8117
vn -0.3779 -0.7530 -0.5387
vn -0.3965 -0.5235 -0.7542
vn -0.5711 -0.6620 -0.4854
vn -0.6045 -0.5063 -0.6150
vn -0.7209 -0.6213 -0.3072
vn -0.7809 -0.3529 -0.5154
vn -0.8219 -0.5605 -0.1018
vn -0.9001 -0.2442 -0.3608
vn -0.8927 -0.4398 0.0987
vn -0.9839 -0.1500 -0.0966
vn -0.9110 -0.3339 0.2420
vn -0.9965 -0.0496 0.0674
vn -0.8797 -0.2006 0.4311
vn -0.9487 0.1581 0.2739
vn -0.7948 -0.0959 0.5992
vn -0.8682 0.2481 0.4297
vn -0.6691 -0.0099 0.7432
vn -0.7071 0.3536 0.6124
vn -0.4913 0.0978 0.8655
vn -0.5241 0.4258 0.7376
vn -0.3084 0.1668 0.9365
vn -0.3162 0.4743 0.8216
vn -0.0631 0.2001 0.9777
vn -0.0961 0.4412 0.8923
vn 0.1211 0.1896 0.9744
vn 0.1587 0.4213 0.8929
vn 0.3692 0.1288 0.9204
vn 0.3822 0.4382 0.8136
vn 0.5394 0.0415 0.8410
vn 0.5838 0.3693 0.7230
vn 0.6968 -0.0294 0.7166
vn 0.7682 0.3201 0.5544
vn 0.8381 -0.0929 0.5375
vn 0.8791 0.1720 0.4445
vn 0.8902 -0.2473 0.3826
vn 0.9735 0.0555 0.2218
vn 0.9108 -0.3653 0.1923
vn 0.9963 -0.0845 0.0157
vn 0.9094 -0.4156 -0.0179
vn 0.9567 -0.2571 -0.1367
vn 0.7073 -0.6797 0.1944
vn 0.6305 -0.7719 0.0816
vn 0.8211 -0.5421 -0.1786
vn 0.4279 -0.8725 0.2361
vn 0.3662 -0.9034 0.2231
vn 0.5633 -0.8183 -0.1142
vn 0.2857 -0.9566 0.0574
vn 0.3913 -0.8940 -0.2181
vn 0.1811 -0.9834 -0.0131
vn 0.2600 -0.9134 -0.3133
vn 0.0491 -0.9984 0.0281
vn 0.1036 -0.9264 -0.3619
vn -0.0831 -0.9958 0.0374
vn -0.1481 -0.9253 -0.3491
vn -0.2034 -0.9786 0.0311
vn -0.3090 -0.9096 -0.2777
vn -0.3026 -0.9507 0.0684
vn -0.4506 -0.8696 -0.2020
vn -0.4599 -0.8668 0.1930
vn -0.5886 -0.8082 -0.0180
vn -0.4623 -0.8491 0.2553
vn -0.6252 -0.7706 0.1241
vn -0.4943 -0.8034 0.3321
vn -0.7340 -0.6419 0.2218
vn -0.5113 -0.7246 0.4621
vn -0.7771 -0.5163 0.3599
vn -0.4663 -0.6842 0.5607
vn -0.7420 -0.4448 0.5016
vn -0.4279 -0.6407 0.6375
vn -0.6845 -0.3163 0.6568
vn -0.3208 -0.5338 0.7824
vn -0.5322 -0.2971 0.7928
vn -0.2790 -0.5015 0.8189
vn -0.3510 -0.3408 0.8722
vn -0.1811 -0.4804 0.8582
vn -0.2374 -0.3117 0.9201
vn -0.0379 -0.4879 0.8721
vn -0.0485 -0.2627 0.9637
vn 0.0772 -0.4954 0.8652
vn 0.0962 -0.2658 0.9592
vn 0.1761 -0.5424 0.8215
vn 0.2733 -0.2617 0.9257
vn 0.3026 -0.5345 0.7891
vn 0.4411 -0.3230 0.8373
vn 0.3435 -0.5410 0.7677
vn 0.5322 -0.2971 0.7928
vn 0.4263 -0.6607 0.6178
vn 0.7171 -0.3518 0.6017
vn 0.4943 -0.6893 0.5297
vn 0.7633 -0.4635 0.4500
vn 0.5145 -0.7426 0.4287
vn 0.7809 -0.5410 0.3123
vn 0.1414 -0.8573 0.4950
vn 0.1321 -0.8745 0.4667
vn 0.5183 -0.7986 0.3059
vn -0.0000 -0.8660 0.5000
vn -0.0000 -0.8352 0.5500
vn 0.2035 -0.8806 0.4279
vn -0.0405 -0.8459 0.5318
vn 0.1980 -0.9048 0.3769
vn -0.0294 -0.8412 0.5399
vn 0.0792 -0.9165 0.3920
vn -0.0206 -0.8381 0.5451
vn 0.0438 -0.9213 0.3865
vn 0.0508 -0.8480 0.5276
vn 0.0108 -0.9274 0.3739
vn -0.0493 -0.8459 0.5311
vn -0.0230 -0.9266 0.3754
vn 0.0202 -0.8387 0.5442
vn -0.0518 -0.9234 0.3803
vn 0.0330 -0.8422 0.5382
vn -0.0873 -0.9150 0.3939
vn -0.0089 -0.8365 0.5479
vn -0.1617 -0.8652 0.4746
vn -0.1343 -0.8871 0.4417
vn -0.1449 -0.8722 0.4672
vn -0.1414 -0.8514 0.5051
vn -0.1422 -0.8348 0.5319
vn 0.0000 -0.8660 0.5000
vn -0.1237 -0.8218 0.5561
vn -0.1049 -0.7683 0.6314
vn -0.1382 -0.7314 0.6678
vn -0.0854 -0.7136 0.6954
vn -0.0226 -0.6974 0.7163
vn 0.0472 -0.6969 0.7156
vn 0.1072 -0.6995 0.7065
vn 0.1540 -0.7123 0.6848
vn 0.1364 -0.7672 0.6267
vn 0.1238 -0.8267 0.5488
vn 0.1340 -0.8402 0.5255
vn 0.8436 0.2822 0.4569
vn 0.9556 0.1629 0.2455
vn 1.0000 0.0000 -0.0000
vn 0.9777 -0.0947 -0.1873
vn 0.9189 -0.1780 -0.3520
vn 0.7071 -0.3536 -0.6124
vn 0.5547 -0.4260 -0.7148
vn 0.3938 -0.4784 -0.7849
vn 0.0678 -0.5159 -0.8540
vn -0.1972 -0.5045 -0.8406
vn -0.3938 -0.4784 -0.7849
vn -0.5998 -0.4215 -0.6801
vn -0.8436 -0.2822 -0.4569
vn -0.8943 -0.2397 -0.3779
vn -0.9899 -0.0758 -0.1195
vn -0.9899 0.0758 0.1195
vn -0.9558 0.1523 0.2516
vn -0.8779 0.2481 0.4097
vn -0.7068 0.3789 0.5974
vn -0.5038 0.4474 0.7389
vn -0.1414 0.4950 0.8573
vn 0.1414 0.4950 0.8573
vn 0.3845 0.4781 0.7896
vn 0.6244 0.4184 0.6596
vn 0.7432 0.3452 0.5731
vn 0.2878 0.9229 -0.2559
vn 0.3255 0.9032 -0.2799
vn 0.4388 0.8672 -0.2353
vn 0.4879 0.8115 -0.3216
vn 0.3793 0.8512 -0.3626
vn 0.5039 0.7481 -0.4319
vn 0.3939 0.7960 -0.4596
vn 0.4978 0.6842 -0.5330
vn 0.3931 0.7615 -0.5153
vn 0.4613 0.6266 -0.6281
vn 0.3646 0.7068 -0.6062
vn 0.3276 0.5767 -0.7484
vn 0.2778 0.6196 -0.7341
vn 0.2629 0.5819 -0.7696
vn 0.2460 0.5917 -0.7677
vn 0.1204 0.5598 -0.8199
vn 0.1447 0.5529 -0.8206
vn 0.0370 0.5529 -0.8324
vn 0.0497 0.5262 -0.8489
vn -0.0735 0.5541 -0.8292
vn -0.0963 0.5368 -0.8382
vn -0.1631 0.5660 -0.8081
vn -0.1737 0.5597 -0.8103
vn -0.3157 0.5782 -0.7523
vn -0.2810 0.5979 -0.7507
vn -0.4017 0.5893 -0.7010
vn -0.3616 0.6526 -0.6659
vn -0.4571 0.6534 -0.6034
vn -0.4126 0.6933 -0.5908
vn -0.4436 0.7050 -0.5534
vn -0.4441 0.7310 -0.5182
vn -0.4607 0.7599 -0.4585
vn -0.4211 0.7837 -0.4566
vn -0.4594 0.8343 -0.3049
vn -0.3757 0.8578 -0.3507
vn -0.4266 0.8707 -0.2447
vn -0.3551 0.8875 -0.2937
vn -0.3589 0.9192 -0.1624
vn -0.2931 0.9294 -0.2242
vn -0.2564 0.9645 -0.0634
vn -0.1910 0.9664 -0.1721
vn -0.1889 0.9814 -0.0334
vn -0.1314 0.9783 -0.1601
vn -0.0417 0.9991 0.0015
vn -0.0432 0.9883 -0.1464
vn 0.0820 0.9966 -0.0073
vn 0.0624 0.9884 -0.1385
vn 0.1561 0.9873 -0.0293
vn 0.1206 0.9815 -0.1489
vn 0.2898 0.9523 -0.0956
vn 0.2305 0.9516 -0.2034
vn 0.3775 0.9109 -0.1669
vn 0.5155 0.8569 -0.0031
vn 0.5877 0.7979 -0.1339
vn 0.6373 0.7234 -0.2654
vn 0.6579 0.6406 -0.3960
vn 0.6415 0.5288 -0.5558
vn 0.6194 0.4487 -0.6442
vn 0.5047 0.3806 -0.7748
vn 0.3878 0.3421 -0.8559
vn 0.2012 0.3116 -0.9287
vn 0.0465 0.3007 -0.9526
vn -0.0959 0.3010 -0.9488
vn -0.2508 0.3110 -0.9167
vn -0.4220 0.3540 -0.8346
vn -0.5256 0.4207 -0.7394
vn -0.6147 0.4754 -0.6294
vn -0.6511 0.5349 -0.5385
vn -0.6757 0.6384 -0.3686
vn -0.6472 0.7330 -0.2097
vn -0.5935 0.7995 -0.0926
vn -0.5166 0.8559 0.0246
vn -0.3683 0.9268 0.0741
vn -0.2281 0.9672 0.1119
vn -0.0617 0.9878 0.1426
vn 0.1027 0.9843 0.1434
vn 0.2149 0.9671 0.1364
vn 0.4144 0.9078 0.0655
# 399 vertex normals

vt 0.3069 0.7719 0.0000
vt 0.2788 0.7682 0.0000
vt 0.2805 0.7614 0.0000
vt 0.2837 0.7553 0.0000
vt 0.2883 0.7502 0.0000
vt 0.2939 0.7462 0.0000
vt 0.3004 0.7438 0.0000
vt 0.3072 0.7430 0.0000
vt 0.3141 0.7439 0.0000
vt 0.3204 0.7464 0.0000
vt 0.3260 0.7503 0.0000
vt 0.3305 0.7554 0.0000
vt 0.3336 0.7613 0.0000
vt 0.3353 0.7681 0.0000
vt 0.3353 0.7748 0.0000
vt 0.3337 0.7813 0.0000
vt 0.3306 0.7872 0.0000
vt 0.3261 0.7924 0.0000
vt 0.3206 0.7963 0.0000
vt 0.2841 0.7879 0.0000
vt 0.2808 0.7820 0.0000
vt 0.2789 0.7753 0.0000
vt 0.3144 0.7988 0.0000
vt 0.2886 0.7930 0.0000
vt 0.2806 0.7904 0.0000
vt 0.2768 0.7835 0.0000
vt 0.2748 0.7757 0.0000
vt 0.2748 0.7677 0.0000
vt 0.2766 0.7600 0.0000
vt 0.2803 0.7530 0.0000
vt 0.2856 0.7471 0.0000
vt 0.2921 0.7426 0.0000
vt 0.2995 0.7399 0.0000
vt 0.3073 0.7390 0.0000
vt 0.3150 0.7400 0.0000
vt 0.3223 0.7428 0.0000
vt 0.3287 0.7472 0.0000
vt 0.3339 0.7530 0.0000
vt 0.3374 0.7599 0.0000
vt 0.3394 0.7674 0.0000
vt 0.3394 0.7752 0.0000
vt 0.3376 0.7827 0.0000
vt 0.3342 0.7896 0.0000
vt 0.3291 0.7955 0.0000
vt 0.3228 0.8000 0.0000
vt 0.3156 0.8030 0.0000
vt 0.3077 0.7998 0.0000
vt 0.3079 0.8041 0.0000
vt 0.3000 0.8033 0.0000
vt 0.3009 0.7991 0.0000
vt 0.2925 0.8007 0.0000
vt 0.2944 0.7969 0.0000
vt 0.2859 0.7963 0.0000
vt 0.2831 0.7997 0.0000
vt 0.2770 0.7930 0.0000
vt 0.2727 0.7851 0.0000
vt 0.2738 0.7953 0.0000
vt 0.2689 0.7865 0.0000
vt 0.2664 0.7768 0.0000
vt 0.2705 0.7763 0.0000
vt 0.2664 0.7667 0.0000
vt 0.2704 0.7672 0.0000
vt 0.2688 0.7570 0.0000
vt 0.2725 0.7584 0.0000
vt 0.2735 0.7481 0.0000
vt 0.2767 0.7504 0.0000
vt 0.2801 0.7407 0.0000
vt 0.2827 0.7437 0.0000
vt 0.2883 0.7352 0.0000
vt 0.2901 0.7387 0.0000
vt 0.2976 0.7317 0.0000
vt 0.2985 0.7356 0.0000
vt 0.3074 0.7306 0.0000
vt 0.3073 0.7346 0.0000
vt 0.3171 0.7318 0.0000
vt 0.3161 0.7357 0.0000
vt 0.3262 0.7354 0.0000
vt 0.3244 0.7389 0.0000
vt 0.3343 0.7409 0.0000
vt 0.3317 0.7439 0.0000
vt 0.3407 0.7482 0.0000
vt 0.3375 0.7505 0.0000
vt 0.3453 0.7568 0.0000
vt 0.3416 0.7583 0.0000
vt 0.3477 0.7663 0.0000
vt 0.3437 0.7668 0.0000
vt 0.3478 0.7760 0.0000
vt 0.3438 0.7756 0.0000
vt 0.3456 0.7855 0.0000
vt 0.3418 0.7842 0.0000
vt 0.3412 0.7941 0.0000
vt 0.3379 0.7920 0.0000
vt 0.3349 0.8016 0.0000
vt 0.3321 0.7987 0.0000
vt 0.3270 0.8073 0.0000
vt 0.3250 0.8039 0.0000
vt 0.3179 0.8110 0.0000
vt 0.3168 0.8072 0.0000
vt 0.3082 0.8124 0.0000
vt 0.3080 0.8085 0.0000
vt 0.2983 0.8115 0.0000
vt 0.2991 0.8076 0.0000
vt 0.2907 0.8046 0.0000
vt 0.2889 0.8082 0.0000
vt 0.2806 0.8027 0.0000
vt 0.4423 0.1990 0.0000
vt 0.4383 0.1990 0.0000
vt 0.4383 0.1890 0.0000
vt 0.4423 0.1890 0.0000
vt 0.4383 0.1788 0.0000
vt 0.4423 0.1788 0.0000
vt 0.4342 0.1890 0.0000
vt 0.4342 0.1788 0.0000
vt 0.4342 0.1688 0.0000
vt 0.4383 0.1688 0.0000
vt 0.4423 0.1688 0.0000
vt 0.4342 0.1578 0.0000
vt 0.4383 0.1578 0.0000
vt 0.4423 0.1578 0.0000
vt 0.4342 0.4180 0.0000
vt 0.4342 0.4069 0.0000
vt 0.4383 0.4069 0.0000
vt 0.4383 0.4180 0.0000
vt 0.4423 0.4069 0.0000
vt 0.4423 0.4180 0.0000
vt 0.4342 0.3969 0.0000
vt 0.4383 0.3969 0.0000
vt 0.4423 0.3969 0.0000
vt 0.4342 0.3869 0.0000
vt 0.4383 0.3869 0.0000
vt 0.4423 0.3869 0.0000
vt 0.4342 0.3768 0.0000
vt 0.4383 0.3768 0.0000
vt 0.4423 0.3768 0.0000
vt 0.4342 0.3669 0.0000
vt 0.4383 0.3669 0.0000
vt 0.4423 0.3669 0.0000
vt 0.4342 0.3569 0.0000
vt 0.4383 0.3569 0.0000
vt 0.4423 0.3569 0.0000
vt 0.4342 0.3470 0.0000
vt 0.4383 0.3470 0.0000
vt 0.4423 0.3470 0.0000
vt 0.4342 0.3372 0.0000
vt 0.4383 0.3372 0.0000
vt 0.4423 0.3372 0.0000
vt 0.4342 0.3273 0.0000
vt 0.4383 0.3273 0.0000
vt 0.4423 0.3273 0.0000
vt 0.4342 0.3175 0.0000
vt 0.4383 0.3175 0.0000
vt 0.4423 0.3175 0.0000
vt 0.4342 0.3077 0.0000
vt 0.4383 0.3077 0.0000
vt 0.4423 0.3077 0.0000
vt 0.4342 0.2978 0.0000
vt 0.4383 0.2978 0.0000
vt 0.4423 0.2978 0.0000
vt 0.4342 0.2880 0.0000
vt 0.4383 0.2880 0.0000
vt 0.4423 0.2880 0.0000
vt 0.4342 0.2782 0.0000
vt 0.4383 0.2782 0.0000
vt 0.4423 0.2782 0.0000
vt 0.4342 0.2684 0.0000
vt 0.4383 0.2684 0.0000
vt 0.4423 0.2684 0.0000
vt 0.4342 0.2586 0.0000
vt 0.4383 0.2586 0.0000
vt 0.4423 0.2586 0.0000
vt 0.4342 0.2488 0.0000
vt 0.4383 0.2488 0.0000
vt 0.4423 0.2488 0.0000
vt 0.4342 0.2389 0.0000
vt 0.4383 0.2389 0.0000
vt 0.4423 0.2389 0.0000
vt 0.4342 0.2290 0.0000
vt 0.4383 0.2290 0.0000
vt 0.4423 0.2290 0.0000
vt 0.4342 0.2191 0.0000
vt 0.4383 0.2191 0.0000
vt 0.4423 0.2191 0.0000
vt 0.4342 0.2091 0.0000
vt 0.4383 0.2091 0.0000
vt 0.4423 0.2091 0.0000
vt 0.4342 0.1990 0.0000
vt 0.4300 0.2091 0.0000
vt 0.4300 0.1990 0.0000
vt 0.4300 0.1890 0.0000
vt 0.4259 0.1990 0.0000
vt 0.4259 0.1890 0.0000
vt 0.4259 0.1788 0.0000
vt 0.4300 0.1788 0.0000
vt 0.4259 0.1688 0.0000
vt 0.4300 0.1688 0.0000
vt 0.4259 0.1578 0.0000
vt 0.4300 0.1578 0.0000
vt 0.4259 0.4180 0.0000
vt 0.4259 0.4069 0.0000
vt 0.4300 0.4069 0.0000
vt 0.4300 0.4180 0.0000
vt 0.4259 0.3969 0.0000
vt 0.4300 0.3969 0.0000
vt 0.4259 0.3869 0.0000
vt 0.4300 0.3869 0.0000
vt 0.4259 0.3768 0.0000
vt 0.4300 0.3768 0.0000
vt 0.4259 0.3669 0.0000
vt 0.4300 0.3669 0.0000
vt 0.4259 0.3569 0.0000
vt 0.4300 0.3569 0.0000
vt 0.4259 0.3470 0.0000
vt 0.4300 0.3470 0.0000
vt 0.4259 0.3372 0.0000
vt 0.4300 0.3372 0.0000
vt 0.4259 0.3273 0.0000
vt 0.4300 0.3273 0.0000
vt 0.4259 0.3175 0.0000
vt 0.4300 0.3175 0.0000
vt 0.4259 0.3077 0.0000
vt 0.4300 0.3077 0.0000
vt 0.4259 0.2978 0.0000
vt 0.4300 0.2978 0.0000
vt 0.4259 0.2880 0.0000
vt 0.4300 0.2880 0.0000
vt 0.4259 0.2782 0.0000
vt 0.4300 0.2782 0.0000
vt 0.4259 0.2684 0.0000
vt 0.4300 0.2684 0.0000
vt 0.4259 0.2586 0.0000
vt 0.4300 0.2586 0.0000
vt 0.4259 0.2488 0.0000
vt 0.4300 0.2488 0.0000
vt 0.4259 0.2389 0.0000
vt 0.4300 0.2389 0.0000
vt 0.4259 0.2290 0.0000
vt 0.4300 0.2290 0.0000
vt 0.4259 0.2191 0.0000
vt 0.4300 0.2191 0.0000
vt 0.4259 0.2091 0.0000
vt 0.4219 0.2191 0.0000
vt 0.4219 0.2091 0.0000
vt 0.4219 0.1990 0.0000
vt 0.9419 0.6293 0.0000
vt 0.9383 0.6309 0.0000
vt 0.9341 0.6234 0.0000
vt 0.9373 0.6210 0.0000
vt 0.9282 0.6171 0.0000
vt 0.9307 0.6140 0.0000
vt 0.4219 0.1890 0.0000
vt 0.9209 0.6124 0.0000
vt 0.9226 0.6088 0.0000
vt 0.4219 0.1788 0.0000
vt 0.9127 0.6096 0.0000
vt 0.9134 0.6058 0.0000
vt 0.4219 0.1688 0.0000
vt 0.9039 0.6090 0.0000
vt 0.9037 0.6051 0.0000
vt 0.4219 0.1578 0.0000
vt 0.8953 0.6105 0.0000
vt 0.8942 0.6068 0.0000
vt 0.4219 0.4069 0.0000
vt 0.4219 0.4180 0.0000
vt 0.8874 0.6142 0.0000
vt 0.8854 0.6108 0.0000
vt 0.4219 0.3969 0.0000
vt 0.8807 0.6196 0.0000
vt 0.8779 0.6167 0.0000
vt 0.4219 0.3869 0.0000
vt 0.8756 0.6264 0.0000
vt 0.8722 0.6243 0.0000
vt 0.4219 0.3768 0.0000
vt 0.8722 0.6342 0.0000
vt 0.8684 0.6330 0.0000
vt 0.4219 0.3669 0.0000
vt 0.8709 0.6424 0.0000
vt 0.8669 0.6422 0.0000
vt 0.4219 0.3569 0.0000
vt 0.8714 0.6508 0.0000
vt 0.8676 0.6515 0.0000
vt 0.4219 0.3470 0.0000
vt 0.8740 0.6587 0.0000
vt 0.8704 0.6603 0.0000
vt 0.4219 0.3372 0.0000
vt 0.8783 0.6658 0.0000
vt 0.8752 0.6682 0.0000
vt 0.4219 0.3273 0.0000
vt 0.8842 0.6717 0.0000
vt 0.8818 0.6748 0.0000
vt 0.4219 0.3175 0.0000
vt 0.8913 0.6760 0.0000
vt 0.8897 0.6796 0.0000
vt 0.4219 0.3077 0.0000
vt 0.8992 0.6785 0.0000
vt 0.8985 0.6824 0.0000
vt 0.4219 0.2978 0.0000
vt 0.9074 0.6791 0.0000
vt 0.9077 0.6831 0.0000
vt 0.4219 0.2880 0.0000
vt 0.9156 0.6778 0.0000
vt 0.9168 0.6815 0.0000
vt 0.4219 0.2782 0.0000
vt 0.9232 0.6746 0.0000
vt 0.9252 0.6779 0.0000
vt 0.4219 0.2684 0.0000
vt 0.9299 0.6696 0.0000
vt 0.9327 0.6724 0.0000
vt 0.4219 0.2586 0.0000
vt 0.9352 0.6632 0.0000
vt 0.9386 0.6653 0.0000
vt 0.4219 0.2488 0.0000
vt 0.9390 0.6557 0.0000
vt 0.9427 0.6569 0.0000
vt 0.4219 0.2389 0.0000
vt 0.9408 0.6475 0.0000
vt 0.9447 0.6478 0.0000
vt 0.4219 0.2290 0.0000
vt 0.9405 0.6391 0.0000
vt 0.9444 0.6384 0.0000
vt 0.9361 0.6471 0.0000
vt 0.9360 0.6398 0.0000
vt 0.9341 0.6327 0.0000
vt 0.9245 0.6418 0.0000
vt 0.9234 0.6373 0.0000
vt 0.9212 0.6332 0.0000
vt 0.9305 0.6262 0.0000
vt 0.9180 0.6297 0.0000
vt 0.9254 0.6207 0.0000
vt 0.9140 0.6271 0.0000
vt 0.9190 0.6166 0.0000
vt 0.9095 0.6256 0.0000
vt 0.9118 0.6142 0.0000
vt 0.9047 0.6253 0.0000
vt 0.9042 0.6136 0.0000
vt 0.9000 0.6262 0.0000
vt 0.8967 0.6149 0.0000
vt 0.8957 0.6282 0.0000
vt 0.8898 0.6181 0.0000
vt 0.8922 0.6311 0.0000
vt 0.8839 0.6228 0.0000
vt 0.8895 0.6348 0.0000
vt 0.8795 0.6288 0.0000
vt 0.8878 0.6389 0.0000
vt 0.8766 0.6356 0.0000
vt 0.8871 0.6433 0.0000
vt 0.8754 0.6427 0.0000
vt 0.8874 0.6478 0.0000
vt 0.8760 0.6499 0.0000
vt 0.8888 0.6520 0.0000
vt 0.8782 0.6568 0.0000
vt 0.8912 0.6558 0.0000
vt 0.8819 0.6630 0.0000
vt 0.8943 0.6589 0.0000
vt 0.8870 0.6680 0.0000
vt 0.8981 0.6612 0.0000
vt 0.8932 0.6718 0.0000
vt 0.9023 0.6625 0.0000
vt 0.9000 0.6740 0.0000
vt 0.9066 0.6628 0.0000
vt 0.9072 0.6745 0.0000
vt 0.9110 0.6621 0.0000
vt 0.9143 0.6734 0.0000
vt 0.9150 0.6604 0.0000
vt 0.9209 0.6706 0.0000
vt 0.9185 0.6579 0.0000
vt 0.9267 0.6663 0.0000
vt 0.9214 0.6546 0.0000
vt 0.9314 0.6608 0.0000
vt 0.9234 0.6507 0.0000
vt 0.9346 0.6542 0.0000
vt 0.9245 0.6464 0.0000
vt 0.9777 0.9115 0.0000
vt 0.9622 0.9115 0.0000
vt 0.9622 0.9072 0.0000
vt 0.9777 0.9072 0.0000
vt 0.9622 0.9027 0.0000
vt 0.9777 0.9027 0.0000
vt 0.9622 0.8981 0.0000
vt 0.9777 0.8981 0.0000
vt 0.9622 0.8935 0.0000
vt 0.9777 0.8935 0.0000
vt 0.9622 0.8887 0.0000
vt 0.9777 0.8887 0.0000
vt 0.9622 0.8840 0.0000
vt 0.9777 0.8840 0.0000
vt 0.9622 0.8793 0.0000
vt 0.9777 0.8793 0.0000
vt 0.9622 0.9922 0.0000
vt 0.9777 0.9922 0.0000
vt 0.9777 0.9972 0.0000
vt 0.9622 0.9972 0.0000
vt 0.9777 0.9871 0.0000
vt 0.9622 0.9871 0.0000
vt 0.9777 0.9821 0.0000
vt 0.9622 0.9821 0.0000
vt 0.9777 0.9772 0.0000
vt 0.9622 0.9772 0.0000
vt 0.9777 0.9726 0.0000
vt 0.9622 0.9726 0.0000
vt 0.9777 0.9683 0.0000
vt 0.9622 0.9683 0.0000
vt 0.9777 0.9639 0.0000
vt 0.9622 0.9639 0.0000
vt 0.9777 0.9595 0.0000
vt 0.9622 0.9595 0.0000
vt 0.9777 0.9551 0.0000
vt 0.9622 0.9551 0.0000
vt 0.9777 0.9507 0.0000
vt 0.9622 0.9506 0.0000
vt 0.9777 0.9463 0.0000
vt 0.9622 0.9462 0.0000
vt 0.9777 0.9419 0.0000
vt 0.9622 0.9418 0.0000
vt 0.9777 0.9375 0.0000
vt 0.9622 0.9374 0.0000
vt 0.9777 0.9331 0.0000
vt 0.9622 0.9330 0.0000
vt 0.9777 0.9287 0.0000
vt 0.9622 0.9287 0.0000
vt 0.9777 0.9243 0.0000
vt 0.9622 0.9243 0.0000
vt 0.9622 0.9200 0.0000
vt 0.9777 0.9200 0.0000
vt 0.9622 0.9158 0.0000
vt 0.9777 0.9158 0.0000
vt 0.8726 0.3784 0.0000
vt 0.8705 0.3749 0.0000
vt 0.8786 0.3690 0.0000
vt 0.8819 0.3745 0.0000
vt 0.8838 0.3809 0.0000
vt 0.8740 0.3823 0.0000
vt 0.8906 0.3716 0.0000
vt 0.8928 0.3803 0.0000
vt 0.8930 0.3891 0.0000
vt 0.8842 0.3875 0.0000
vt 0.8744 0.3866 0.0000
vt 0.8911 0.3978 0.0000
vt 0.8830 0.3941 0.0000
vt 0.8738 0.3909 0.0000
vt 0.8867 0.4061 0.0000
vt 0.8800 0.4006 0.0000
vt 0.8721 0.3951 0.0000
vt 0.8808 0.4130 0.0000
vt 0.8756 0.4061 0.0000
vt 0.8693 0.3989 0.0000
vt 0.8738 0.4182 0.0000
vt 0.8702 0.4103 0.0000
vt 0.8657 0.4018 0.0000
vt 0.8655 0.4214 0.0000
vt 0.8639 0.4129 0.0000
vt 0.8615 0.4037 0.0000
vt 0.8564 0.4223 0.0000
vt 0.8566 0.4139 0.0000
vt 0.8566 0.4045 0.0000
vt 0.8474 0.4212 0.0000
vt 0.8492 0.4130 0.0000
vt 0.8514 0.4039 0.0000
vt 0.8391 0.4181 0.0000
vt 0.8424 0.4103 0.0000
vt 0.8467 0.4019 0.0000
vt 0.8315 0.4131 0.0000
vt 0.8366 0.4060 0.0000
vt 0.8429 0.3988 0.0000
vt 0.8252 0.4064 0.0000
vt 0.8321 0.4007 0.0000
vt 0.8403 0.3953 0.0000
vt 0.8211 0.3988 0.0000
vt 0.8293 0.3949 0.0000
vt 0.8386 0.3915 0.0000
vt 0.8191 0.3908 0.0000
vt 0.8280 0.3888 0.0000
vt 0.8379 0.3874 0.0000
vt 0.8191 0.3821 0.0000
vt 0.8282 0.3823 0.0000
vt 0.8381 0.3833 0.0000
vt 0.8212 0.3735 0.0000
vt 0.8299 0.3760 0.0000
vt 0.8393 0.3792 0.0000
vt 0.8252 0.3655 0.0000
vt 0.8330 0.3701 0.0000
vt 0.8414 0.3755 0.0000
vt 0.8310 0.3587 0.0000
vt 0.8375 0.3651 0.0000
vt 0.8443 0.3723 0.0000
vt 0.8382 0.3535 0.0000
vt 0.8429 0.3613 0.0000
vt 0.8478 0.3700 0.0000
vt 0.8466 0.3502 0.0000
vt 0.8492 0.3589 0.0000
vt 0.8518 0.3685 0.0000
vt 0.8555 0.3489 0.0000
vt 0.8559 0.3580 0.0000
vt 0.8560 0.3680 0.0000
vt 0.8645 0.3498 0.0000
vt 0.8625 0.3587 0.0000
vt 0.8602 0.3685 0.0000
vt 0.8730 0.3527 0.0000
vt 0.8688 0.3609 0.0000
vt 0.8642 0.3699 0.0000
vt 0.8804 0.3575 0.0000
vt 0.8742 0.3643 0.0000
vt 0.8676 0.3720 0.0000
vt 0.8864 0.3640 0.0000
vt 0.8952 0.3587 0.0000
vt 0.9007 0.3690 0.0000
vt 0.9035 0.3802 0.0000
vt 0.9035 0.3919 0.0000
vt 0.9008 0.4030 0.0000
vt 0.8952 0.4135 0.0000
vt 0.8876 0.4220 0.0000
vt 0.8781 0.4284 0.0000
vt 0.8677 0.4323 0.0000
vt 0.8565 0.4337 0.0000
vt 0.8453 0.4325 0.0000
vt 0.8348 0.4287 0.0000
vt 0.8253 0.4224 0.0000
vt 0.8176 0.4141 0.0000
vt 0.8121 0.4043 0.0000
vt 0.8091 0.3937 0.0000
vt 0.8086 0.3823 0.0000
vt 0.8109 0.3711 0.0000
vt 0.8158 0.3607 0.0000
vt 0.8232 0.3516 0.0000
vt 0.8327 0.3446 0.0000
vt 0.8433 0.3401 0.0000
vt 0.8549 0.3384 0.0000
vt 0.8664 0.3394 0.0000
vt 0.8777 0.3434 0.0000
vt 0.8876 0.3501 0.0000
# 529 texture coords

g yvr_d3_right_joystick
usemtl lambert2SG19
s off
f 1/1/1 2/2/1 3/3/1 
f 3/3/2 4/4/2 1/1/2 
f 4/4/3 5/5/3 1/1/3 
f 5/5/4 6/6/4 1/1/4 
f 6/6/5 7/7/5 1/1/5 
f 7/7/6 8/8/6 1/1/6 
f 8/8/7 9/9/7 1/1/7 
f 9/9/8 10/10/8 1/1/8 
f 10/10/9 11/11/9 1/1/9 
f 1/1/10 11/11/10 12/12/10 
f 12/12/11 13/13/11 1/1/11 
f 13/13/12 14/14/12 1/1/12 
f 14/14/13 15/15/13 1/1/13 
f 1/1/14 15/15/14 16/16/14 
f 16/16/15 17/17/15 1/1/15 
f 17/17/16 18/18/16 1/1/16 
f 18/18/17 19/19/17 1/1/17 
f 20/20/18 21/21/18 1/1/18 
f 21/21/19 22/22/19 1/1/19 
f 1/1/20 22/22/20 2/2/20 
f 19/19/21 23/23/21 1/1/21 
f 1/1/22 24/24/22 20/20/22 
f 20/20/23 25/25/23 26/26/23 21/21/23 
f 26/26/24 27/27/24 22/22/24 21/21/24 
f 27/27/25 28/28/25 2/2/25 22/22/25 
f 29/29/26 3/3/26 2/2/26 28/28/26 
f 4/4/27 3/3/27 29/29/27 30/30/27 
f 5/5/28 4/4/28 30/30/28 31/31/28 
f 6/6/29 5/5/29 31/31/29 32/32/29 
f 7/7/30 6/6/30 32/32/30 33/33/30 
f 8/8/31 7/7/31 33/33/31 34/34/31 
f 9/9/32 8/8/32 34/34/32 35/35/32 
f 36/36/33 10/10/33 9/9/33 35/35/33 
f 37/37/34 11/11/34 10/10/34 36/36/34 
f 38/38/35 12/12/35 11/11/35 37/37/35 
f 13/13/36 12/12/36 38/38/36 39/39/36 
f 40/40/37 14/14/37 13/13/37 39/39/37 
f 41/41/38 15/15/38 14/14/38 40/40/38 
f 42/42/39 16/16/39 15/15/39 41/41/39 
f 43/43/40 17/17/40 16/16/40 42/42/40 
f 44/44/41 18/18/41 17/17/41 43/43/41 
f 45/45/42 19/19/42 18/18/42 44/44/42 
f 46/46/43 23/23/43 19/19/43 45/45/43 
f 47/47/44 23/23/44 46/46/44 48/48/44 
f 48/48/45 49/49/45 50/50/45 47/47/45 
f 47/47/46 50/50/46 1/1/46 
f 47/47/47 1/1/47 23/23/47 
f 49/49/48 51/51/48 52/52/48 50/50/48 
f 50/50/49 52/52/49 1/1/49 
f 52/52/50 51/51/50 53/53/50 24/24/50 
f 52/52/51 24/24/51 1/1/51 
f 25/25/52 20/20/52 24/24/52 53/53/52 
f 53/53/53 54/54/53 55/55/53 25/25/53 
f 55/55/54 56/56/54 26/26/54 25/25/54 
f 55/55/36 57/57/36 58/58/36 56/56/36 
f 58/58/55 59/59/55 60/60/55 56/56/55 
f 60/60/56 27/27/56 26/26/56 56/56/56 
f 59/59/57 61/61/57 62/62/57 60/60/57 
f 62/62/58 28/28/58 27/27/58 60/60/58 
f 61/61/59 63/63/59 64/64/59 62/62/59 
f 64/64/60 29/29/60 28/28/60 62/62/60 
f 63/63/61 65/65/61 66/66/61 64/64/61 
f 66/66/62 30/30/62 29/29/62 64/64/62 
f 65/65/63 67/67/63 68/68/63 66/66/63 
f 68/68/64 31/31/64 30/30/64 66/66/64 
f 67/67/65 69/69/65 70/70/65 68/68/65 
f 68/68/66 70/70/66 32/32/66 31/31/66 
f 69/69/67 71/71/67 72/72/67 70/70/67 
f 72/72/68 33/33/68 32/32/68 70/70/68 
f 71/71/69 73/73/69 74/74/69 72/72/69 
f 72/72/70 74/74/70 34/34/70 33/33/70 
f 73/73/71 75/75/71 76/76/71 74/74/71 
f 76/76/72 35/35/72 34/34/72 74/74/72 
f 75/75/73 77/77/73 78/78/73 76/76/73 
f 78/78/74 36/36/74 35/35/74 76/76/74 
f 77/77/75 79/79/75 80/80/75 78/78/75 
f 80/80/76 37/37/76 36/36/76 78/78/76 
f 79/79/77 81/81/77 82/82/77 80/80/77 
f 82/82/78 38/38/78 37/37/78 80/80/78 
f 81/81/79 83/83/79 84/84/79 82/82/79 
f 84/84/80 39/39/80 38/38/80 82/82/80 
f 84/84/81 83/83/81 85/85/81 86/86/81 
f 86/86/82 40/40/82 39/39/82 84/84/82 
f 86/86/83 85/85/83 87/87/83 88/88/83 
f 88/88/84 41/41/84 40/40/84 86/86/84 
f 88/88/85 87/87/85 89/89/85 90/90/85 
f 90/90/86 42/42/86 41/41/86 88/88/86 
f 90/90/87 89/89/87 91/91/87 92/92/87 
f 92/92/88 43/43/88 42/42/88 90/90/88 
f 92/92/89 91/91/89 93/93/89 94/94/89 
f 94/94/90 44/44/90 43/43/90 92/92/90 
f 94/94/91 93/93/91 95/95/91 96/96/91 
f 96/96/92 45/45/92 44/44/92 94/94/92 
f 96/96/93 95/95/93 97/97/93 98/98/93 
f 98/98/94 46/46/94 45/45/94 96/96/94 
f 98/98/95 97/97/95 99/99/95 100/100/95 
f 100/100/96 48/48/96 46/46/96 98/98/96 
f 100/100/97 99/99/97 101/101/97 102/102/97 
f 102/102/98 49/49/98 48/48/98 100/100/98 
f 49/49/99 102/102/99 103/103/99 51/51/99 
f 102/102/100 101/101/100 104/104/100 103/103/100 
f 103/103/101 104/104/101 105/105/101 54/54/101 
f 54/54/102 53/53/102 51/51/102 103/103/102 
f 104/106/103 106/107/103 107/108/103 105/109/103 
f 107/108/104 108/110/104 57/111/104 105/109/104 
f 57/57/105 55/55/105 54/54/105 105/105/105 
f 107/108/106 109/112/106 110/113/106 108/110/106 
f 110/113/107 111/114/107 112/115/107 108/110/107 
f 112/115/108 58/116/108 57/111/108 108/110/108 
f 111/114/109 113/117/109 114/118/109 112/115/109 
f 114/118/110 59/119/110 58/116/110 112/115/110 
f 113/120/111 115/121/111 116/122/111 114/123/111 
f 116/122/112 61/124/112 59/125/112 114/123/112 
f 115/121/113 117/126/113 118/127/113 116/122/113 
f 118/127/114 63/128/114 61/124/114 116/122/114 
f 117/126/115 119/129/115 120/130/115 118/127/115 
f 120/130/116 65/131/116 63/128/116 118/127/116 
f 119/129/117 121/132/117 122/133/117 120/130/117 
f 120/130/118 122/133/118 67/134/118 65/131/118 
f 121/132/119 123/135/119 124/136/119 122/133/119 
f 122/133/120 124/136/120 69/137/120 67/134/120 
f 123/135/121 125/138/121 126/139/121 124/136/121 
f 124/136/122 126/139/122 71/140/122 69/137/122 
f 125/138/123 127/141/123 128/142/123 126/139/123 
f 126/139/124 128/142/124 73/143/124 71/140/124 
f 127/141/125 129/144/125 130/145/125 128/142/125 
f 130/145/126 75/146/126 73/143/126 128/142/126 
f 129/144/127 131/147/127 132/148/127 130/145/127 
f 132/148/128 77/149/128 75/146/128 130/145/128 
f 131/147/129 133/150/129 134/151/129 132/148/129 
f 134/151/130 79/152/130 77/149/130 132/148/130 
f 133/150/131 135/153/131 136/154/131 134/151/131 
f 136/154/132 81/155/132 79/152/132 134/151/132 
f 136/154/133 135/153/133 137/156/133 138/157/133 
f 138/157/134 83/158/134 81/155/134 136/154/134 
f 138/157/135 137/156/135 139/159/135 140/160/135 
f 140/160/136 85/161/136 83/158/136 138/157/136 
f 140/160/137 139/159/137 141/162/137 142/163/137 
f 142/163/138 87/164/138 85/161/138 140/160/138 
f 142/163/139 141/162/139 143/165/139 144/166/139 
f 144/166/140 89/167/140 87/164/140 142/163/140 
f 144/166/141 143/165/141 145/168/141 146/169/141 
f 146/169/142 91/170/142 89/167/142 144/166/142 
f 146/169/143 145/168/143 147/171/143 148/172/143 
f 148/172/144 93/173/144 91/170/144 146/169/144 
f 148/172/145 147/171/145 149/174/145 150/175/145 
f 150/175/146 95/176/146 93/173/146 148/172/146 
f 150/175/147 149/174/147 151/177/147 152/178/147 
f 152/178/148 97/179/148 95/176/148 150/175/148 
f 152/178/149 151/177/149 153/180/149 154/181/149 
f 154/181/150 99/182/150 97/179/150 152/178/150 
f 154/181/151 153/180/151 155/183/151 156/184/151 
f 156/184/152 101/185/152 99/182/152 154/181/152 
f 156/184/153 155/183/153 157/186/153 106/107/153 
f 106/107/154 104/106/154 101/185/154 156/184/154 
f 155/183/155 158/187/155 159/188/155 157/186/155 
f 157/186/156 159/188/156 160/189/156 109/112/156 
f 109/112/157 107/108/157 106/107/157 157/186/157 
f 159/188/158 161/190/158 162/191/158 160/189/158 
f 160/189/159 162/191/159 163/192/159 164/193/159 
f 164/193/160 110/113/160 109/112/160 160/189/160 
f 163/192/161 165/194/161 166/195/161 164/193/161 
f 166/195/162 111/114/162 110/113/162 164/193/162 
f 165/194/163 167/196/163 168/197/163 166/195/163 
f 168/197/164 113/117/164 111/114/164 166/195/164 
f 167/198/165 169/199/165 170/200/165 168/201/165 
f 170/200/166 115/121/166 113/120/166 168/201/166 
f 169/199/167 171/202/167 172/203/167 170/200/167 
f 172/203/168 117/126/168 115/121/168 170/200/168 
f 171/202/169 173/204/169 174/205/169 172/203/169 
f 172/203/170 174/205/170 119/129/170 117/126/170 
f 173/204/171 175/206/171 176/207/171 174/205/171 
f 174/205/172 176/207/172 121/132/172 119/129/172 
f 175/206/173 177/208/173 178/209/173 176/207/173 
f 176/207/174 178/209/174 123/135/174 121/132/174 
f 177/208/175 179/210/175 180/211/175 178/209/175 
f 178/209/176 180/211/176 125/138/176 123/135/176 
f 179/210/177 181/212/177 182/213/177 180/211/177 
f 180/211/178 182/213/178 127/141/178 125/138/178 
f 181/212/179 183/214/179 184/215/179 182/213/179 
f 184/215/180 129/144/180 127/141/180 182/213/180 
f 183/214/181 185/216/181 186/217/181 184/215/181 
f 186/217/182 131/147/182 129/144/182 184/215/182 
f 185/216/183 187/218/183 188/219/183 186/217/183 
f 188/219/184 133/150/184 131/147/184 186/217/184 
f 187/218/185 189/220/185 190/221/185 188/219/185 
f 190/221/186 135/153/186 133/150/186 188/219/186 
f 189/220/187 191/222/187 192/223/187 190/221/187 
f 192/223/188 137/156/188 135/153/188 190/221/188 
f 192/223/189 191/222/189 193/224/189 194/225/189 
f 194/225/190 139/159/190 137/156/190 192/223/190 
f 194/225/191 193/224/191 195/226/191 196/227/191 
f 196/227/192 141/162/192 139/159/192 194/225/192 
f 196/227/193 195/226/193 197/228/193 198/229/193 
f 198/229/194 143/165/194 141/162/194 196/227/194 
f 198/229/195 197/228/195 199/230/195 200/231/195 
f 200/231/196 145/168/196 143/165/196 198/229/196 
f 200/231/197 199/230/197 201/232/197 202/233/197 
f 202/233/198 147/171/198 145/168/198 200/231/198 
f 202/233/199 201/232/199 203/234/199 204/235/199 
f 204/235/200 149/174/200 147/171/200 202/233/200 
f 204/235/201 203/234/201 205/236/201 206/237/201 
f 206/237/202 151/177/202 149/174/202 204/235/202 
f 206/237/203 205/236/203 207/238/203 208/239/203 
f 208/239/204 153/180/204 151/177/204 206/237/204 
f 208/239/205 207/238/205 209/240/205 158/187/205 
f 158/187/206 155/183/206 153/180/206 208/239/206 
f 207/238/207 210/241/207 211/242/207 209/240/207 
f 209/240/208 211/242/208 212/243/208 161/190/208 
f 161/190/209 159/188/209 158/187/209 209/240/209 
f 211/244/210 213/245/210 214/246/210 212/247/210 
f 212/247/211 214/246/211 215/248/211 216/249/211 
f 216/250/212 162/191/212 161/190/212 212/243/212 
f 216/249/213 215/248/213 217/251/213 218/252/213 
f 218/253/214 163/192/214 162/191/214 216/250/214 
f 218/252/215 217/251/215 219/254/215 220/255/215 
f 220/256/216 165/194/216 163/192/216 218/253/216 
f 219/254/217 221/257/217 222/258/217 220/255/217 
f 222/259/218 167/196/218 165/194/218 220/256/218 
f 221/257/219 223/260/219 224/261/219 222/258/219 
f 224/262/220 169/199/220 167/198/220 222/263/220 
f 223/260/221 225/264/221 226/265/221 224/261/221 
f 224/262/222 226/266/222 171/202/222 169/199/222 
f 225/264/223 227/267/223 228/268/223 226/265/223 
f 226/266/224 228/269/224 173/204/224 171/202/224 
f 227/267/225 229/270/225 230/271/225 228/268/225 
f 228/269/226 230/272/226 175/206/226 173/204/226 
f 229/270/227 231/273/227 232/274/227 230/271/227 
f 230/272/228 232/275/228 177/208/228 175/206/228 
f 231/273/229 233/276/229 234/277/229 232/274/229 
f 232/275/230 234/278/230 179/210/230 177/208/230 
f 233/276/231 235/279/231 236/280/231 234/277/231 
f 234/278/232 236/281/232 181/212/232 179/210/232 
f 235/279/233 237/282/233 238/283/233 236/280/233 
f 236/281/234 238/284/234 183/214/234 181/212/234 
f 237/282/235 239/285/235 240/286/235 238/283/235 
f 240/287/236 185/216/236 183/214/236 238/284/236 
f 239/285/237 241/288/237 242/289/237 240/286/237 
f 242/290/238 187/218/238 185/216/238 240/287/238 
f 241/288/239 243/291/239 244/292/239 242/289/239 
f 244/293/240 189/220/240 187/218/240 242/290/240 
f 243/291/241 245/294/241 246/295/241 244/292/241 
f 246/296/242 191/222/242 189/220/242 244/293/242 
f 246/295/243 245/294/243 247/297/243 248/298/243 
f 248/299/244 193/224/244 191/222/244 246/296/244 
f 248/298/245 247/297/245 249/300/245 250/301/245 
f 250/302/246 195/226/246 193/224/246 248/299/246 
f 250/301/247 249/300/247 251/303/247 252/304/247 
f 252/305/248 197/228/248 195/226/248 250/302/248 
f 252/304/249 251/303/249 253/306/249 254/307/249 
f 254/308/250 199/230/250 197/228/250 252/305/250 
f 254/307/251 253/306/251 255/309/251 256/310/251 
f 256/311/252 201/232/252 199/230/252 254/308/252 
f 256/310/253 255/309/253 257/312/253 258/313/253 
f 258/314/254 203/234/254 201/232/254 256/311/254 
f 258/313/255 257/312/255 259/315/255 260/316/255 
f 260/317/256 205/236/256 203/234/256 258/314/256 
f 260/316/257 259/315/257 261/318/257 210/319/257 
f 210/241/258 207/238/258 205/236/258 260/317/258 
f 259/315/259 262/320/259 263/321/259 261/318/259 
f 261/318/260 263/321/260 264/322/260 213/245/260 
f 213/245/261 211/244/261 210/319/261 261/318/261 
f 263/321/262 265/323/262 266/324/262 264/322/262 
f 264/322/263 266/324/263 267/325/263 268/326/263 
f 268/326/264 214/246/264 213/245/264 264/322/264 
f 268/326/265 267/325/265 269/327/265 270/328/265 
f 270/328/266 215/248/266 214/246/266 268/326/266 
f 270/328/267 269/327/267 271/329/267 272/330/267 
f 272/330/268 217/251/268 215/248/268 270/328/268 
f 271/329/269 273/331/269 274/332/269 272/330/269 
f 274/332/270 219/254/270 217/251/270 272/330/270 
f 273/331/271 275/333/271 276/334/271 274/332/271 
f 276/334/272 221/257/272 219/254/272 274/332/272 
f 275/333/273 277/335/273 278/336/273 276/334/273 
f 278/336/274 223/260/274 221/257/274 276/334/274 
f 277/335/275 279/337/275 280/338/275 278/336/275 
f 278/336/276 280/338/276 225/264/276 223/260/276 
f 279/337/277 281/339/277 282/340/277 280/338/277 
f 280/338/278 282/340/278 227/267/278 225/264/278 
f 281/339/279 283/341/279 284/342/279 282/340/279 
f 282/340/280 284/342/280 229/270/280 227/267/280 
f 283/341/262 285/343/262 286/344/262 284/342/262 
f 284/342/281 286/344/281 231/273/281 229/270/281 
f 285/343/262 287/345/262 288/346/262 286/344/262 
f 286/344/282 288/346/282 233/276/282 231/273/282 
f 287/345/262 289/347/262 290/348/262 288/346/262 
f 288/346/283 290/348/283 235/279/283 233/276/283 
f 289/347/262 291/349/262 292/350/262 290/348/262 
f 290/348/284 292/350/284 237/282/284 235/279/284 
f 291/349/285 293/351/285 294/352/285 292/350/285 
f 294/352/286 239/285/286 237/282/286 292/350/286 
f 293/351/262 295/353/262 296/354/262 294/352/262 
f 296/354/287 241/288/287 239/285/287 294/352/287 
f 295/353/262 297/355/262 298/356/262 296/354/262 
f 298/356/288 243/291/288 241/288/288 296/354/288 
f 297/355/285 299/357/285 300/358/285 298/356/285 
f 300/358/289 245/294/289 243/291/289 298/356/289 
f 299/357/262 301/359/262 302/360/262 300/358/262 
f 302/360/290 247/297/290 245/294/290 300/358/290 
f 302/360/285 301/359/285 303/361/285 304/362/285 
f 304/362/291 249/300/291 247/297/291 302/360/291 
f 304/362/262 303/361/262 305/363/262 306/364/262 
f 306/364/292 251/303/292 249/300/292 304/362/292 
f 306/364/262 305/363/262 307/365/262 308/366/262 
f 308/366/293 253/306/293 251/303/293 306/364/293 
f 308/366/285 307/365/285 309/367/285 310/368/285 
f 310/368/294 255/309/294 253/306/294 308/366/294 
f 310/368/262 309/367/262 311/369/262 312/370/262 
f 312/370/295 257/312/295 255/309/295 310/368/295 
f 312/370/262 311/369/262 313/371/262 262/320/262 
f 262/320/296 259/315/296 257/312/296 312/370/296 
f 265/323/285 263/321/285 262/320/285 313/371/285 
f 309/372/297 314/373/297 315/374/297 311/375/297 
f 316/376/298 313/377/298 311/375/298 315/374/298 
f 317/378/299 265/379/299 313/377/299 316/376/299 
f 318/380/300 266/381/300 265/379/300 317/378/300 
f 319/382/301 267/383/301 266/381/301 318/380/301 
f 320/384/302 269/385/302 267/383/302 319/382/302 
f 321/386/303 271/387/303 269/385/303 320/384/303 
f 322/388/304 273/389/304 271/390/304 321/391/304 
f 275/392/305 273/389/305 322/388/305 323/393/305 
f 277/394/306 275/392/306 323/393/306 324/395/306 
f 279/396/307 277/394/307 324/395/307 325/397/307 
f 281/398/308 279/396/308 325/397/308 326/399/308 
f 283/400/309 281/398/309 326/399/309 327/401/309 
f 285/402/310 283/400/310 327/401/310 328/403/310 
f 287/404/311 285/402/311 328/403/311 329/405/311 
f 289/406/312 287/404/312 329/405/312 330/407/312 
f 291/408/313 289/406/313 330/407/313 331/409/313 
f 293/410/314 291/408/314 331/409/314 332/411/314 
f 295/412/315 293/410/315 332/411/315 333/413/315 
f 297/414/316 295/412/316 333/413/316 334/415/316 
f 299/416/188 297/414/188 334/415/188 335/417/188 
f 301/418/317 299/416/317 335/417/317 336/419/317 
f 303/420/318 301/418/318 336/419/318 337/421/318 
f 338/422/319 305/423/319 303/420/319 337/421/319 
f 339/424/320 307/425/320 305/423/320 338/422/320 
f 314/373/321 309/372/321 307/425/321 339/424/321 
f 314/426/322 339/427/322 340/428/322 341/429/322 
f 341/429/323 342/430/323 315/431/323 314/426/323 
f 342/430/324 341/429/324 343/432/324 344/433/324 
f 344/433/325 345/434/325 346/435/325 342/430/325 
f 342/430/326 346/435/326 316/436/326 315/431/326 
f 345/434/327 347/437/327 348/438/327 346/435/327 
f 346/435/328 348/438/328 317/439/328 316/436/328 
f 347/437/329 349/440/329 350/441/329 348/438/329 
f 348/438/330 350/441/330 318/442/330 317/439/330 
f 349/440/331 351/443/331 352/444/331 350/441/331 
f 350/441/332 352/444/332 319/445/332 318/442/332 
f 351/443/333 353/446/333 354/447/333 352/444/333 
f 352/444/334 354/447/334 320/448/334 319/445/334 
f 353/446/335 355/449/335 356/450/335 354/447/335 
f 354/447/336 356/450/336 321/451/336 320/448/336 
f 355/449/337 357/452/337 358/453/337 356/450/337 
f 356/450/338 358/453/338 322/454/338 321/451/338 
f 358/453/339 357/452/339 359/455/339 360/456/339 
f 360/456/340 323/457/340 322/454/340 358/453/340 
f 360/456/341 359/455/341 361/458/341 362/459/341 
f 362/459/342 324/460/342 323/457/342 360/456/342 
f 362/459/343 361/458/343 363/461/343 364/462/343 
f 364/462/344 325/463/344 324/460/344 362/459/344 
f 364/462/345 363/461/345 365/464/345 366/465/345 
f 366/465/346 326/466/346 325/463/346 364/462/346 
f 366/465/347 365/464/347 367/467/347 368/468/347 
f 368/468/348 327/469/348 326/466/348 366/465/348 
f 368/468/349 367/467/349 369/470/349 370/471/349 
f 370/471/350 328/472/350 327/469/350 368/468/350 
f 370/471/351 369/470/351 371/473/351 372/474/351 
f 372/474/352 329/475/352 328/472/352 370/471/352 
f 372/474/353 371/473/353 373/476/353 374/477/353 
f 374/477/354 330/478/354 329/475/354 372/474/354 
f 374/477/355 373/476/355 375/479/355 376/480/355 
f 376/480/356 331/481/356 330/478/356 374/477/356 
f 376/480/357 375/479/357 377/482/357 378/483/357 
f 378/483/358 332/484/358 331/481/358 376/480/358 
f 378/483/359 377/482/359 379/485/359 380/486/359 
f 380/486/360 333/487/360 332/484/360 378/483/360 
f 380/486/361 379/485/361 381/488/361 382/489/361 
f 382/489/362 334/490/362 333/487/362 380/486/362 
f 382/489/363 381/488/363 383/491/363 384/492/363 
f 384/492/364 335/493/364 334/490/364 382/489/364 
f 384/492/365 383/491/365 385/494/365 386/495/365 
f 386/495/366 336/496/366 335/493/366 384/492/366 
f 385/494/367 387/497/367 388/498/367 386/495/367 
f 386/495/368 388/498/368 337/499/368 336/496/368 
f 387/497/369 389/500/369 390/501/369 388/498/369 
f 388/498/370 390/501/370 338/502/370 337/499/370 
f 389/500/371 391/503/371 340/428/371 390/501/371 
f 390/501/372 340/428/372 339/427/372 338/502/372 
f 391/503/373 343/432/373 341/429/373 340/428/373 
f 392/504/374 393/505/374 343/432/374 391/503/374 
f 393/505/375 394/506/375 344/433/375 343/432/375 
f 394/506/376 395/507/376 345/434/376 344/433/376 
f 395/507/377 396/508/377 347/437/377 345/434/377 
f 396/508/378 397/509/378 349/440/378 347/437/378 
f 397/509/379 398/510/379 351/443/379 349/440/379 
f 398/510/380 399/511/380 353/446/380 351/443/380 
f 399/511/381 400/512/381 355/449/381 353/446/381 
f 400/512/382 401/513/382 357/452/382 355/449/382 
f 357/452/383 401/513/383 402/514/383 359/455/383 
f 359/455/384 402/514/384 403/515/384 361/458/384 
f 361/458/385 403/515/385 404/516/385 363/461/385 
f 363/461/386 404/516/386 405/517/386 365/464/386 
f 365/464/387 405/517/387 406/518/387 367/467/387 
f 367/467/388 406/518/388 407/519/388 369/470/388 
f 369/470/389 407/519/389 408/520/389 371/473/389 
f 371/473/390 408/520/390 409/521/390 373/476/390 
f 373/476/391 409/521/391 410/522/391 375/479/391 
f 375/479/392 410/522/392 411/523/392 377/482/392 
f 377/482/393 411/523/393 412/524/393 379/485/393 
f 379/485/394 412/524/394 413/525/394 381/488/394 
f 381/488/395 413/525/395 414/526/395 383/491/395 
f 383/491/396 414/526/396 415/527/396 385/494/396 
f 385/494/397 415/527/397 416/528/397 387/497/397 
f 416/528/398 417/529/398 389/500/398 387/497/398 
f 417/529/399 392/504/399 391/503/399 389/500/399 
# 390 polygons - 26 triangles

