# 3ds Max Wavefront OBJ Exporter v0.97b - (c)2007 guruware
# File Created: 26.12.2024 11:32:30

mtllib yvr_d3_right_trigger.mtl

#
# object yvr_d3_right_trigger
#

v  -0.0161 -0.0302 -0.0098
v  -0.0177 -0.0313 -0.0082
v  -0.0194 -0.0290 -0.0104
v  -0.0167 -0.0290 -0.0113
v  -0.0138 -0.0292 -0.0116
v  -0.0140 -0.0309 -0.0094
v  -0.0160 -0.0324 -0.0075
v  -0.0086 -0.0308 -0.0093
v  -0.0107 -0.0312 -0.0090
v  -0.0103 -0.0294 -0.0113
v  -0.0075 -0.0294 -0.0107
v  -0.0050 -0.0299 -0.0093
v  -0.0073 -0.0321 -0.0076
v  -0.0093 -0.0331 -0.0070
v  -0.0190 -0.0240 -0.0210
v  -0.0173 -0.0241 -0.0221
v  -0.0168 -0.0249 -0.0197
v  -0.0197 -0.0242 -0.0194
v  -0.0047 -0.0240 -0.0207
v  -0.0038 -0.0243 -0.0189
v  -0.0067 -0.0249 -0.0195
v  -0.0063 -0.0240 -0.0219
v  -0.0092 -0.0242 -0.0230
v  -0.0075 -0.0236 -0.0248
v  -0.0050 -0.0234 -0.0235
v  -0.0030 -0.0233 -0.0217
v  -0.0014 -0.0233 -0.0193
v  -0.0003 -0.0237 -0.0168
v  0.0002 -0.0225 -0.0194
v  0.0014 -0.0229 -0.0165
v  0.0018 -0.0240 -0.0135
v  0.0001 -0.0247 -0.0142
v  0.0015 -0.0256 -0.0110
v  -0.0001 -0.0260 -0.0119
v  0.0006 -0.0277 -0.0088
v  0.0009 -0.0241 -0.0056
v  -0.0010 -0.0261 -0.0033
v  -0.0009 -0.0298 -0.0073
v  -0.0030 -0.0278 -0.0018
v  -0.0030 -0.0321 -0.0060
v  -0.0057 -0.0293 -0.0006
v  -0.0055 -0.0340 -0.0051
v  -0.0115 -0.0307 0.0005
v  -0.0115 -0.0265 0.0034
v  -0.0140 -0.0263 0.0033
v  -0.0144 -0.0305 0.0004
v  -0.0165 -0.0255 0.0031
v  -0.0172 -0.0298 -0.0001
v  -0.0192 -0.0243 0.0021
v  -0.0199 -0.0283 -0.0011
v  -0.0216 -0.0228 0.0007
v  -0.0220 -0.0269 -0.0024
v  -0.0238 -0.0210 -0.0014
v  -0.0240 -0.0251 -0.0042
v  -0.0256 -0.0192 -0.0042
v  -0.0256 -0.0232 -0.0067
v  -0.0270 -0.0176 -0.0077
v  -0.0265 -0.0218 -0.0097
v  -0.0274 -0.0167 -0.0119
v  -0.0267 -0.0207 -0.0130
v  -0.0267 -0.0169 -0.0163
v  -0.0261 -0.0202 -0.0166
v  -0.0250 -0.0178 -0.0202
v  -0.0247 -0.0204 -0.0199
v  -0.0227 -0.0190 -0.0231
v  -0.0224 -0.0209 -0.0229
v  -0.0202 -0.0194 -0.0254
v  -0.0199 -0.0211 -0.0253
v  -0.0168 -0.0198 -0.0273
v  -0.0167 -0.0214 -0.0270
v  -0.0134 -0.0198 -0.0282
v  -0.0134 -0.0215 -0.0279
v  -0.0038 -0.0228 -0.0245
v  -0.0068 -0.0232 -0.0262
v  -0.0066 -0.0214 -0.0268
v  -0.0034 -0.0211 -0.0248
v  -0.0009 -0.0207 -0.0222
v  -0.0016 -0.0225 -0.0222
v  0.0010 -0.0205 -0.0191
v  0.0023 -0.0205 -0.0155
v  0.0022 -0.0224 -0.0084
v  0.0025 -0.0182 -0.0061
v  0.0008 -0.0201 -0.0027
v  -0.0013 -0.0220 -0.0002
v  -0.0037 -0.0237 0.0016
v  -0.0063 -0.0250 0.0028
v  -0.0090 -0.0261 0.0033
v  -0.0086 -0.0304 0.0002
v  0.0027 -0.0211 -0.0118
v  -0.0133 -0.0235 -0.0272
v  -0.0098 -0.0215 -0.0278
v  -0.0099 -0.0235 -0.0271
v  -0.0165 -0.0233 -0.0264
v  -0.0147 -0.0356 -0.0044
v  -0.0115 -0.0359 -0.0043
v  -0.0083 -0.0353 -0.0046
v  -0.0039 -0.0316 -0.0070
v  -0.0022 -0.0298 -0.0082
v  -0.0009 -0.0278 -0.0098
v  -0.0037 -0.0274 -0.0121
v  -0.0030 -0.0253 -0.0155
v  -0.0064 -0.0258 -0.0167
v  -0.0099 -0.0261 -0.0172
v  -0.0098 -0.0250 -0.0201
v  -0.0138 -0.0250 -0.0202
v  -0.0140 -0.0242 -0.0232
v  -0.0131 -0.0238 -0.0256
v  -0.0103 -0.0238 -0.0255
v  -0.0219 -0.0226 -0.0227
v  -0.0195 -0.0230 -0.0248
v  -0.0238 -0.0225 -0.0202
v  -0.0251 -0.0227 -0.0174
v  -0.0257 -0.0235 -0.0146
v  -0.0258 -0.0248 -0.0120
v  -0.0251 -0.0267 -0.0098
v  -0.0241 -0.0286 -0.0080
v  -0.0224 -0.0309 -0.0064
v  -0.0200 -0.0330 -0.0054
v  -0.0176 -0.0346 -0.0047
v  -0.0116 -0.0350 -0.0054
v  -0.0087 -0.0345 -0.0056
v  -0.0061 -0.0333 -0.0062
v  -0.0066 -0.0275 -0.0134
v  -0.0101 -0.0276 -0.0141
v  -0.0138 -0.0275 -0.0141
v  -0.0136 -0.0261 -0.0174
v  -0.0169 -0.0257 -0.0171
v  -0.0185 -0.0235 -0.0239
v  -0.0160 -0.0237 -0.0250
v  -0.0207 -0.0232 -0.0220
v  -0.0193 -0.0323 -0.0067
v  -0.0170 -0.0337 -0.0060
v  -0.0145 -0.0347 -0.0056
v  -0.0116 -0.0334 -0.0069
v  -0.0139 -0.0332 -0.0071
v  -0.0211 -0.0305 -0.0077
v  -0.0225 -0.0288 -0.0090
v  -0.0234 -0.0271 -0.0107
v  -0.0239 -0.0255 -0.0128
v  -0.0239 -0.0244 -0.0150
v  -0.0234 -0.0236 -0.0174
v  -0.0223 -0.0232 -0.0198
v  -0.0205 -0.0252 -0.0164
v  -0.0204 -0.0268 -0.0130
v  -0.0170 -0.0273 -0.0138
v  0.0034 -0.0169 -0.0103
v  0.0031 -0.0168 -0.0149
v  0.0016 -0.0175 -0.0191
v  -0.0007 -0.0187 -0.0224
v  -0.0031 -0.0193 -0.0249
v  -0.0065 -0.0197 -0.0270
v  -0.0100 -0.0199 -0.0280
# 152 vertices

vn -0.1826 -0.7727 -0.6080
vn -0.1076 -0.7846 -0.6106
vn -0.1519 -0.7226 -0.6743
vn 0.1092 -0.7855 -0.6091
vn 0.1754 -0.7459 -0.6426
vn 0.1093 -0.7074 -0.6983
vn -0.2232 -0.9430 -0.2467
vn 0.2438 -0.9248 -0.2921
vn 0.1594 -0.9662 -0.2027
vn 0.2282 -0.9516 -0.2058
vn 0.2913 -0.9207 -0.2598
vn 0.4060 -0.8637 -0.2987
vn 0.4433 -0.8222 -0.3570
vn 0.4646 -0.7746 -0.4291
vn 0.8569 -0.3746 0.3542
vn 0.7565 -0.4636 0.4614
vn 0.5962 -0.5513 0.5837
vn -0.0666 -0.5621 0.8244
vn -0.2695 -0.5379 0.7988
vn -0.4850 -0.4807 0.7305
vn -0.6523 -0.4060 0.6400
vn -0.7808 -0.3284 0.5315
vn -0.8826 -0.2419 0.4032
vn -0.9506 -0.1907 0.2448
vn -0.9865 -0.1595 0.0361
vn -0.9760 -0.1445 -0.1631
vn -0.9153 -0.1429 -0.3765
vn -0.8024 -0.1713 -0.5717
vn -0.6878 -0.1581 -0.7085
vn -0.4792 -0.1338 -0.8674
vn -0.2519 -0.1562 -0.9551
vn 0.5199 -0.2895 -0.8037
vn 0.7061 -0.2763 -0.6520
vn 0.8178 -0.2771 -0.5044
vn 0.9019 -0.2337 -0.3632
vn 0.9220 -0.2202 0.3185
vn 0.8384 -0.2886 0.4623
vn 0.7208 -0.3663 0.5884
vn 0.5554 -0.4628 0.6910
vn 0.3795 -0.5220 0.7639
vn 0.1327 -0.5631 0.8157
vn 0.9367 -0.2962 0.1865
vn 0.9660 -0.2585 0.0033
vn 0.9561 -0.2373 -0.1721
vn 0.0281 -0.3290 -0.9439
vn 0.2855 -0.3269 -0.9009
vn -0.2478 -0.3315 -0.9103
vn -0.0734 -0.6804 0.7292
vn 0.1550 -0.6761 0.7203
vn 0.4124 -0.6202 0.6673
vn 0.3845 -0.7117 -0.5878
vn 0.4061 -0.7182 -0.5651
vn 0.4360 -0.7408 -0.5110
vn 0.3577 -0.8235 -0.4403
vn 0.3477 -0.8585 -0.3769
vn 0.3474 -0.8794 -0.3255
vn 0.2497 -0.9060 -0.3418
vn 0.1206 -0.9288 -0.3505
vn 0.1320 -0.9538 -0.2701
vn 0.0160 -0.9661 -0.2578
vn 0.0155 -0.9839 -0.1783
vn 0.1183 -0.9666 -0.2272
vn 0.2223 -0.9494 -0.2218
vn 0.3333 -0.9107 -0.2440
vn 0.1202 -0.9785 -0.1674
vn 0.0206 -0.9854 -0.1690
vn -0.6651 -0.2988 -0.6844
vn -0.4619 -0.3248 -0.8253
vn -0.7860 -0.2734 -0.5545
vn -0.8772 -0.2728 -0.3951
vn -0.9408 -0.2519 -0.2268
vn -0.9704 -0.2290 -0.0762
vn -0.9543 -0.2749 0.1171
vn -0.9080 -0.3192 0.2713
vn -0.8163 -0.3891 0.4270
vn -0.6779 -0.4912 0.5469
vn -0.5311 -0.5638 0.6325
vn -0.2984 -0.6449 0.7036
vn 0.0942 -0.7714 -0.6293
vn 0.2212 -0.7520 -0.6209
vn 0.3333 -0.7241 -0.6038
vn 0.2831 -0.6873 -0.6690
vn 0.3077 -0.7570 -0.5764
vn 0.3352 -0.7721 -0.5400
vn 0.2434 -0.8634 -0.4419
vn 0.1350 -0.8964 -0.4223
vn -0.0046 -0.9081 -0.4188
vn 0.0120 -0.9332 -0.3592
vn -0.1176 -0.9380 -0.3261
vn -0.1139 -0.9568 -0.2675
vn -0.1356 -0.9707 -0.1982
vn -0.0865 -0.9748 -0.2055
vn -0.1979 -0.9555 -0.2188
vn -0.1003 -0.9770 -0.1884
vn -0.3072 -0.9281 -0.2104
vn -0.3015 -0.7266 -0.6175
vn -0.1873 -0.7748 -0.6038
vn -0.0582 -0.7872 -0.6139
vn 0.0729 -0.6856 -0.7243
vn 0.1400 -0.6725 -0.7268
vn 0.2022 -0.6929 -0.6921
vn -0.0011 -0.7004 -0.7137
vn 0.0743 -0.6975 -0.7127
vn -0.0313 -0.6874 -0.7256
vn -0.1144 -0.6794 -0.7248
vn -0.2103 -0.6701 -0.7119
vn -0.3644 -0.7061 -0.6072
vn -0.4031 -0.7204 -0.5644
vn -0.4396 -0.7302 -0.5231
vn -0.4505 -0.7551 -0.4763
vn -0.4549 -0.7945 -0.4022
vn -0.4493 -0.8220 -0.3499
vn -0.4114 -0.8648 -0.2878
vn -0.3636 -0.8986 -0.2456
vn -0.3284 -0.8853 -0.3294
vn -0.3492 -0.8665 -0.3566
vn -0.3560 -0.8420 -0.4054
vn -0.3369 -0.7857 -0.5188
vn -0.3276 -0.7707 -0.5465
vn -0.3206 -0.7265 -0.6078
vn -0.2524 -0.7314 -0.6335
vn -0.2241 -0.8045 -0.5501
vn -0.1018 -0.8330 -0.5439
vn -0.0031 -0.7877 -0.6160
vn 0.1333 -0.8282 -0.5443
vn 0.2142 -0.8002 -0.5601
vn -0.0132 -0.8419 -0.5394
vn -0.1179 -0.8979 -0.4242
vn -0.2231 -0.8770 -0.4256
vn -0.2204 -0.9178 -0.3304
vn -0.3030 -0.9235 -0.2352
vn -0.2432 -0.9440 -0.2229
vn -0.1167 -0.7134 -0.6910
vn 0.3832 -0.8852 -0.2639
vn 0.9775 -0.1713 0.1228
vn 0.9823 -0.1598 -0.0976
vn 0.9329 -0.1646 -0.3203
vn 0.8400 -0.1468 -0.5224
vn 0.7248 -0.1360 -0.6754
vn 0.5349 -0.1234 -0.8359
vn 0.2940 -0.1004 -0.9505
vn 0.0318 -0.1517 -0.9879
# 142 vertex normals

vt 0.7053 0.7862 0.0000
vt 0.7143 0.7725 0.0000
vt 0.7286 0.7911 0.0000
vt 0.7115 0.7982 0.0000
vt 0.6925 0.8017 0.0000
vt 0.6910 0.7841 0.0000
vt 0.7019 0.7660 0.0000
vt 0.6560 0.7879 0.0000
vt 0.6696 0.7831 0.0000
vt 0.6692 0.8024 0.0000
vt 0.6503 0.8014 0.0000
vt 0.6331 0.7939 0.0000
vt 0.6464 0.7744 0.0000
vt 0.6586 0.7657 0.0000
vt 0.7344 0.8673 0.0000
vt 0.7244 0.8757 0.0000
vt 0.7189 0.8590 0.0000
vt 0.7382 0.8569 0.0000
vt 0.6412 0.8775 0.0000
vt 0.6335 0.8664 0.0000
vt 0.6535 0.8659 0.0000
vt 0.6529 0.8833 0.0000
vt 0.6726 0.8867 0.0000
vt 0.6634 0.9010 0.0000
vt 0.6463 0.8955 0.0000
vt 0.6313 0.8863 0.0000
vt 0.6185 0.8742 0.0000
vt 0.6085 0.8592 0.0000
vt 0.6076 0.8781 0.0000
vt 0.5964 0.8610 0.0000
vt 0.5904 0.8417 0.0000
vt 0.6031 0.8421 0.0000
vt 0.5902 0.8225 0.0000
vt 0.6024 0.8246 0.0000
vt 0.4246 0.0869 0.0000
vt 0.4514 0.0703 0.0000
vt 0.4634 0.0901 0.0000
vt 0.4315 0.1054 0.0000
vt 0.4715 0.1078 0.0000
vt 0.4375 0.1265 0.0000
vt 0.4804 0.1269 0.0000
vt 0.4434 0.1470 0.0000
vt 0.0310 0.1723 0.0000
vt 0.0033 0.1542 0.0000
vt 0.0113 0.1402 0.0000
vt 0.0408 0.1561 0.0000
vt 0.0176 0.1239 0.0000
vt 0.0487 0.1393 0.0000
vt 0.0262 0.1058 0.0000
vt 0.0566 0.1202 0.0000
vt 0.0356 0.0871 0.0000
vt 0.0644 0.1032 0.0000
vt 0.0468 0.0673 0.0000
vt 0.0741 0.0849 0.0000
vt 0.0615 0.0470 0.0000
vt 0.0862 0.0660 0.0000
vt 0.0806 0.0281 0.0000
vt 0.1018 0.0496 0.0000
vt 0.1049 0.0137 0.0000
vt 0.1198 0.0362 0.0000
vt 0.1328 0.0067 0.0000
vt 0.1414 0.0270 0.0000
vt 0.1608 0.0056 0.0000
vt 0.1642 0.0219 0.0000
vt 0.1858 0.0083 0.0000
vt 0.1887 0.0200 0.0000
vt 0.2079 0.0071 0.0000
vt 0.2109 0.0178 0.0000
vt 0.2331 0.0059 0.0000
vt 0.2343 0.0167 0.0000
vt 0.2564 0.0054 0.0000
vt 0.2564 0.0163 0.0000
vt 0.3231 0.0290 0.0000
vt 0.3005 0.0294 0.0000
vt 0.3009 0.0169 0.0000
vt 0.3254 0.0182 0.0000
vt 0.3486 0.0190 0.0000
vt 0.3439 0.0308 0.0000
vt 0.3721 0.0224 0.0000
vt 0.3649 0.0347 0.0000
vt 0.3962 0.0277 0.0000
vt 0.3846 0.0420 0.0000
vt 0.4370 0.0531 0.0000
vt 0.4591 0.0313 0.0000
vt 0.4775 0.0516 0.0000
vt 0.4915 0.0723 0.0000
vt 0.5024 0.0919 0.0000
vt 0.5119 0.1101 0.0000
vt 0.5196 0.1282 0.0000
vt 0.4902 0.1452 0.0000
vt 0.5273 0.1428 0.0000
vt 0.4999 0.1615 0.0000
vt 0.4148 0.0687 0.0000
vt 0.4018 0.0538 0.0000
vt 0.4184 0.0382 0.0000
vt 0.2572 0.0300 0.0000
vt 0.2793 0.0159 0.0000
vt 0.2790 0.0297 0.0000
vt 0.2355 0.0303 0.0000
vt 0.0811 0.1770 0.0000
vt 0.0714 0.1958 0.0000
vt 0.4597 0.1854 0.0000
vt 0.4504 0.1663 0.0000
vt 0.6170 0.7695 0.0000
vt 0.6238 0.7758 0.0000
vt 0.6133 0.7905 0.0000
vt 0.6039 0.7861 0.0000
vt 0.6059 0.8071 0.0000
vt 0.5953 0.8032 0.0000
vt 0.6265 0.8187 0.0000
vt 0.6249 0.8451 0.0000
vt 0.6487 0.8473 0.0000
vt 0.6717 0.8469 0.0000
vt 0.6737 0.8668 0.0000
vt 0.6997 0.8644 0.0000
vt 0.7038 0.8840 0.0000
vt 0.6999 0.9008 0.0000
vt 0.6815 0.9028 0.0000
vt 0.6601 0.9104 0.0000
vt 0.6394 0.9035 0.0000
vt 0.6225 0.8924 0.0000
vt 0.6808 0.9128 0.0000
vt 0.7018 0.9106 0.0000
vt 0.1922 0.0317 0.0000
vt 0.2134 0.0304 0.0000
vt 0.1713 0.0352 0.0000
vt 0.1522 0.0416 0.0000
vt 0.1358 0.0518 0.0000
vt 0.1221 0.0650 0.0000
vt 0.1119 0.0813 0.0000
vt 0.1045 0.0985 0.0000
vt 0.0983 0.1182 0.0000
vt 0.0931 0.1396 0.0000
vt 0.0877 0.1583 0.0000
vt 0.6496 0.7455 0.0000
vt 0.6695 0.7394 0.0000
vt 0.6710 0.7486 0.0000
vt 0.6530 0.7537 0.0000
vt 0.6371 0.7631 0.0000
vt 0.6324 0.7558 0.0000
vt 0.6470 0.8231 0.0000
vt 0.6705 0.8239 0.0000
vt 0.6945 0.8214 0.0000
vt 0.6965 0.8451 0.0000
vt 0.7176 0.8417 0.0000
vt 0.7334 0.8865 0.0000
vt 0.7175 0.8954 0.0000
vt 0.7401 0.8930 0.0000
vt 0.7216 0.9037 0.0000
vt 0.7466 0.8743 0.0000
vt 0.7552 0.8792 0.0000
vt 0.7267 0.7496 0.0000
vt 0.7227 0.7597 0.0000
vt 0.7070 0.7524 0.0000
vt 0.7093 0.7421 0.0000
vt 0.6897 0.7485 0.0000
vt 0.6903 0.7386 0.0000
vt 0.6731 0.7625 0.0000
vt 0.6879 0.7627 0.0000
vt 0.7446 0.7612 0.0000
vt 0.7367 0.7698 0.0000
vt 0.7587 0.7753 0.0000
vt 0.7482 0.7820 0.0000
vt 0.7687 0.7904 0.0000
vt 0.7570 0.7961 0.0000
vt 0.7757 0.8077 0.0000
vt 0.7626 0.8115 0.0000
vt 0.7776 0.8261 0.0000
vt 0.7645 0.8278 0.0000
vt 0.7750 0.8447 0.0000
vt 0.7625 0.8443 0.0000
vt 0.7672 0.8626 0.0000
vt 0.7563 0.8601 0.0000
vt 0.7416 0.8364 0.0000
vt 0.7381 0.8123 0.0000
vt 0.7157 0.8177 0.0000
vt 0.4356 0.0143 0.0000
vt 0.4073 0.0054 0.0000
vt 0.3779 0.0033 0.0000
vt 0.3511 0.0059 0.0000
vt 0.3282 0.0066 0.0000
vt 0.3020 0.0058 0.0000
vt 0.2787 0.0054 0.0000
# 183 texture coords

g yvr_d3_right_trigger
usemtl lambert2SG5
s off
f 1/1/1 2/2/1 3/3/1 4/4/1 
f 1/1/2 4/4/2 5/5/2 6/6/2 
f 1/1/3 6/6/3 7/7/3 2/2/3 
f 8/8/4 9/9/4 10/10/4 11/11/4 
f 8/8/5 11/11/5 12/12/5 13/13/5 
f 8/8/6 13/13/6 14/14/6 9/9/6 
f 15/15/7 16/16/7 17/17/7 18/18/7 
f 19/19/8 20/20/8 21/21/8 22/22/8 
f 22/22/9 23/23/9 24/24/9 25/25/9 
f 25/25/10 26/26/10 19/19/10 22/22/10 
f 26/26/11 27/27/11 20/20/11 19/19/11 
f 28/28/12 27/27/12 29/29/12 30/30/12 
f 30/30/13 31/31/13 32/32/13 28/28/13 
f 31/31/14 33/33/14 34/34/14 32/32/14 
f 35/35/15 36/36/15 37/37/15 38/38/15 
f 38/38/16 37/37/16 39/39/16 40/40/16 
f 41/41/17 42/42/17 40/40/17 39/39/17 
f 43/43/18 44/44/18 45/45/18 46/46/18 
f 45/45/19 47/47/19 48/48/19 46/46/19 
f 47/47/20 49/49/20 50/50/20 48/48/20 
f 49/49/21 51/51/21 52/52/21 50/50/21 
f 51/51/22 53/53/22 54/54/22 52/52/22 
f 53/53/23 55/55/23 56/56/23 54/54/23 
f 57/57/24 58/58/24 56/56/24 55/55/24 
f 58/58/25 57/57/25 59/59/25 60/60/25 
f 61/61/26 62/62/26 60/60/26 59/59/26 
f 62/62/27 61/61/27 63/63/27 64/64/27 
f 65/65/28 66/66/28 64/64/28 63/63/28 
f 67/67/29 68/68/29 66/66/29 65/65/29 
f 69/69/30 70/70/30 68/68/30 67/67/30 
f 70/70/31 69/69/31 71/71/31 72/72/31 
f 73/73/32 74/74/32 75/75/32 76/76/32 
f 76/76/33 77/77/33 78/78/33 73/73/33 
f 77/77/34 79/79/34 29/80/34 78/78/34 
f 79/79/35 80/81/35 30/82/35 29/80/35 
f 36/36/36 81/83/36 82/84/36 83/85/36 
f 36/36/37 83/85/37 84/86/37 37/37/37 
f 85/87/38 39/39/38 37/37/38 84/86/38 
f 39/39/39 85/87/39 86/88/39 41/41/39 
f 87/89/40 88/90/40 41/41/40 86/88/40 
f 44/91/41 43/92/41 88/90/41 87/89/41 
f 81/83/42 36/36/42 35/35/42 33/93/42 
f 33/93/43 31/94/43 89/95/43 81/83/43 
f 31/94/44 30/82/44 80/81/44 89/95/44 
f 90/96/45 72/72/45 91/97/45 92/98/45 
f 91/97/46 75/75/46 74/74/46 92/98/46 
f 72/72/47 90/96/47 93/99/47 70/70/47 
f 46/46/48 94/100/48 95/101/48 43/43/48 
f 43/92/49 95/102/49 96/103/49 88/90/49 
f 42/42/50 41/41/50 88/90/50 96/103/50 
f 40/104/51 97/105/51 98/106/51 38/107/51 
f 38/107/52 98/106/52 99/108/52 35/109/52 
f 99/108/53 34/34/53 33/33/53 35/109/53 
f 34/34/54 100/110/54 101/111/54 32/32/54 
f 32/32/55 101/111/55 28/28/55 
f 20/20/56 27/27/56 28/28/56 101/111/56 
f 102/112/57 21/21/57 20/20/57 101/111/57 
f 103/113/58 104/114/58 21/21/58 102/112/58 
f 104/114/59 23/23/59 22/22/59 21/21/59 
f 104/114/60 105/115/60 106/116/60 23/23/60 
f 106/116/61 107/117/61 108/118/61 23/23/61 
f 23/23/62 108/118/62 24/24/62 
f 25/25/63 24/24/63 74/119/63 73/120/63 
f 73/120/64 78/121/64 26/26/64 25/25/64 
f 24/24/65 108/118/65 92/122/65 74/119/65 
f 108/118/66 107/117/66 90/123/66 92/122/66 
f 109/124/67 66/66/67 68/68/67 110/125/67 
f 110/125/68 68/68/68 70/70/68 93/99/68 
f 66/66/69 109/124/69 111/126/69 64/64/69 
f 64/64/70 111/126/70 112/127/70 62/62/70 
f 62/62/71 112/127/71 113/128/71 60/60/71 
f 60/60/72 113/128/72 114/129/72 58/58/72 
f 58/58/73 114/129/73 115/130/73 56/56/73 
f 56/56/74 115/130/74 116/131/74 54/54/74 
f 116/131/75 117/132/75 52/52/75 54/54/75 
f 117/132/76 118/133/76 50/50/76 52/52/76 
f 118/133/77 119/134/77 48/48/77 50/50/77 
f 119/134/78 94/100/78 46/46/78 48/48/78 
f 96/135/79 95/136/79 120/137/79 121/138/79 
f 121/138/80 122/139/80 42/140/80 96/135/80 
f 122/139/81 97/105/81 40/104/81 42/140/81 
f 98/106/82 97/105/82 12/12/82 
f 12/12/83 100/110/83 99/108/83 98/106/83 
f 100/110/84 34/34/84 99/108/84 
f 123/141/85 102/112/85 101/111/85 100/110/85 
f 124/142/86 103/113/86 102/112/86 123/141/86 
f 124/142/87 125/143/87 126/144/87 103/113/87 
f 126/144/88 105/115/88 104/114/88 103/113/88 
f 126/144/89 127/145/89 17/17/89 105/115/89 
f 105/115/90 17/17/90 16/16/90 106/116/90 
f 16/16/91 128/146/91 129/147/91 106/116/91 
f 106/116/92 129/147/92 107/117/92 
f 128/146/93 110/148/93 93/149/93 129/147/93 
f 129/147/94 93/149/94 90/123/94 107/117/94 
f 110/148/95 128/146/95 130/150/95 109/151/95 
f 118/152/96 131/153/96 132/154/96 119/155/96 
f 119/155/97 132/154/97 133/156/97 94/157/97 
f 120/137/98 95/136/98 94/157/98 133/156/98 
f 120/137/99 134/158/99 14/14/99 121/138/99 
f 14/14/100 13/13/100 122/139/100 121/138/100 
f 13/13/101 12/12/101 97/105/101 122/139/101 
f 135/159/102 6/6/102 9/9/102 134/158/102 
f 134/158/103 9/9/103 14/14/103 
f 134/158/104 120/137/104 133/156/104 135/159/104 
f 133/156/105 132/154/105 7/7/105 135/159/105 
f 132/154/106 131/153/106 2/2/106 7/7/106 
f 131/153/107 118/152/107 117/160/107 136/161/107 
f 117/160/108 116/162/108 137/163/108 136/161/108 
f 116/162/109 115/164/109 138/165/109 137/163/109 
f 115/164/110 114/166/110 139/167/110 138/165/110 
f 113/168/111 140/169/111 139/167/111 114/166/111 
f 140/169/112 113/168/112 112/170/112 141/171/112 
f 111/172/113 142/173/113 141/171/113 112/170/113 
f 142/173/114 111/172/114 109/151/114 130/150/114 
f 141/171/115 142/173/115 18/18/115 143/174/115 
f 141/171/116 143/174/116 140/169/116 
f 140/169/117 143/174/117 144/175/117 139/167/117 
f 139/167/118 144/175/118 138/165/118 
f 138/165/119 144/175/119 3/3/119 137/163/119 
f 137/163/120 3/3/120 136/161/120 
f 2/2/121 131/153/121 136/161/121 3/3/121 
f 3/3/122 144/175/122 145/176/122 4/4/122 
f 145/176/123 125/143/123 5/5/123 4/4/123 
f 10/10/124 9/9/124 6/6/124 5/5/124 
f 124/142/125 123/141/125 11/11/125 10/10/125 
f 11/11/126 123/141/126 100/110/126 12/12/126 
f 5/5/127 125/143/127 124/142/127 10/10/127 
f 125/143/128 145/176/128 127/145/128 126/144/128 
f 145/176/129 144/175/129 143/174/129 127/145/129 
f 18/18/130 17/17/130 127/145/130 143/174/130 
f 130/150/131 15/15/131 18/18/131 142/173/131 
f 128/146/132 16/16/132 15/15/132 130/150/132 
f 6/6/133 135/159/133 7/7/133 
f 78/121/134 29/29/134 27/27/134 26/26/134 
f 81/83/135 89/95/135 146/177/135 82/84/135 
f 89/95/136 80/81/136 147/178/136 146/177/136 
f 80/81/137 79/79/137 148/179/137 147/178/137 
f 79/79/138 77/77/138 149/180/138 148/179/138 
f 150/181/139 149/180/139 77/77/139 76/76/139 
f 76/76/140 75/75/140 151/182/140 150/181/140 
f 151/182/141 75/75/141 91/97/141 152/183/141 
f 152/183/142 91/97/142 72/72/142 71/71/142 
# 132 polygons - 10 triangles

